<svg width="40.000000" height="40.000000" viewBox="0 0 40 40" fill="none" xmlns="http://www.w3.org/2000/svg" xmlns:xlink="http://www.w3.org/1999/xlink">
	<desc>
			Created with Pixso.
	</desc>
	<defs>
		<clipPath id="clip1_592">
			<rect id="Image [card-img]" width="40.000000" height="40.000000" fill="white" fill-opacity="0"/>
		</clipPath>
	</defs>
	<rect id="Image [card-img]" width="40.000000" height="40.000000" fill="#FFFFFF" fill-opacity="0"/>
	<g clip-path="url(#clip1_592)">
		<path id="Vector" d="M2.78 20.22L2.78 18.67C2.78 18.5 2.87 18.34 3.02 18.25L15.94 10.67C16.08 10.59 16.25 10.59 16.38 10.67L37.77 23.23L37.77 25.1C37.77 25.27 37.68 25.43 37.53 25.52L25.14 32.79C24.68 33.06 24.11 33.06 23.65 32.79L3.02 20.64C2.87 20.55 2.78 20.39 2.78 20.22Z" fill="#1D1D1B" fill-opacity="1.000000" fill-rule="nonzero"/>
		<path id="Vector" d="M2.78 18.67C2.78 18.5 2.87 18.34 3.02 18.25L15.94 10.67C16.08 10.59 16.25 10.59 16.38 10.67L37.77 23.23L37.77 25.1C37.77 25.27 37.68 25.43 37.53 25.52L25.14 32.79C24.68 33.06 24.11 33.06 23.65 32.79L3.02 20.64C2.87 20.55 2.78 20.39 2.78 20.22L2.78 18.67Z" stroke="#1D1D1B" stroke-opacity="1.000000" stroke-width="0.800000" stroke-linejoin="round"/>
		<path id="Vector" d="M23.9 30.84L3.49 18.81C3.17 18.62 3.17 18.16 3.49 17.97L15.66 10.72C15.97 10.54 16.35 10.54 16.66 10.72L37.06 22.81C37.38 22.99 37.38 23.46 37.06 23.65L24.89 30.84C24.58 31.02 24.2 31.02 23.9 30.84Z" fill="#D5C8FB" fill-opacity="1.000000" fill-rule="nonzero"/>
		<path id="Vector" d="M3.49 18.81C3.17 18.62 3.17 18.16 3.49 17.97L15.66 10.72C15.97 10.54 16.35 10.54 16.66 10.72L37.06 22.81C37.38 22.99 37.38 23.46 37.06 23.65L24.89 30.84C24.58 31.02 24.2 31.02 23.9 30.84L3.49 18.81Z" stroke="#1D1D1B" stroke-opacity="1.000000" stroke-width="0.800000" stroke-linejoin="round"/>
		<path id="Vector" d="M15.64 13.96C15.64 13.96 15.65 13.96 15.65 13.96L20.25 16.7C20.3 16.73 20.3 16.77 20.25 16.8L17.37 18.52C17.37 18.52 17.36 18.52 17.35 18.52L12.76 15.78C12.71 15.75 12.76 15.68 12.76 15.68L15.64 13.96Z" fill="#EFE9FE" fill-opacity="1.000000" fill-rule="nonzero"/>
		<path id="Vector" d="M15.65 13.96L20.25 16.7C20.3 16.73 20.3 16.77 20.25 16.8L17.37 18.52C17.37 18.52 17.36 18.52 17.35 18.52L12.76 15.78C12.71 15.75 12.71 15.71 12.76 15.68L15.64 13.96C15.64 13.96 15.65 13.96 15.65 13.96Z" stroke="#1D1D1B" stroke-opacity="1.000000" stroke-width="0.800000"/>
	</g>
</svg>
