<svg width="40.000000" height="40.000000" viewBox="0 0 40 40" fill="none" xmlns="http://www.w3.org/2000/svg" xmlns:xlink="http://www.w3.org/1999/xlink">
	<desc>
			Created with Pixso.
	</desc>
	<defs>
		<clipPath id="clip1_607">
			<rect id="Image [card-img]" width="40.000000" height="40.000000" fill="white" fill-opacity="0"/>
		</clipPath>
	</defs>
	<rect id="Image [card-img]" width="40.000000" height="40.000000" fill="#FFFFFF" fill-opacity="0"/>
	<g clip-path="url(#clip1_607)">
		<mask id="mask1_616" mask-type="alpha" maskUnits="userSpaceOnUse" x="0.836548" y="0.579346" width="39.024414" height="39.024414">
			<path id="Vector" d="M0.83 0.57L39.86 0.57L39.86 39.6L0.83 39.6L0.83 0.57Z" fill="#000000" fill-opacity="1.000000" fill-rule="evenodd"/>
		</mask>
		<g mask="url(#mask1_616)">
			<path id="Vector" d="M4.2 23.34L4.2 21.93L35.39 15.12C35.69 15.05 35.98 15.28 35.98 15.6L35.98 16.49C35.98 16.86 35.87 17.22 35.67 17.53L22.53 38.26C22.14 38.88 21.25 38.87 20.87 38.24L15.23 28.86L4.78 24.23C4.43 24.07 4.2 23.72 4.2 23.34Z" fill="#1D1D1B" fill-opacity="1.000000" fill-rule="nonzero"/>
			<path id="Vector" d="M15.54 26.66L4.84 22.26C4.62 22.17 4.64 21.85 4.88 21.8L34.64 14.85C35.22 14.72 35.68 15.36 35.35 15.87L22.55 35.77C22.16 36.39 21.25 36.37 20.89 35.73L15.77 26.87C15.72 26.78 15.64 26.7 15.54 26.66Z" fill="#D5C8FB" fill-opacity="1.000000" fill-rule="nonzero"/>
			<path id="Vector" d="M4.84 22.26C4.62 22.17 4.64 21.85 4.88 21.8L34.64 14.85C35.22 14.72 35.68 15.36 35.35 15.87L22.55 35.77C22.16 36.39 21.25 36.37 20.89 35.73L15.77 26.87C15.72 26.78 15.64 26.7 15.54 26.66L4.84 22.26Z" stroke="#1D1D1B" stroke-opacity="1.000000" stroke-width="0.800000"/>
			<path id="Vector" d="M15.25 26.73L25.15 21.05" stroke="#1D1D1B" stroke-opacity="1.000000" stroke-width="0.800000"/>
			<path id="Vector" d="M22.53 14.95C25.07 10.27 25.99 5.88 23.27 4.4C23.13 4.32 22.22 3.89 22.08 3.84C19.35 2.82 14.91 5.13 12.5 9.58C10.24 13.75 10.39 18.24 12.51 20.38C12.74 20.62 13.01 20.78 13.01 20.78C14.03 21.52 14.82 21.67 15.09 21.67C17.78 22.2 20.27 19.11 22.53 14.95Z" fill="#1D1D1B" fill-opacity="1.000000" fill-rule="nonzero"/>
			<path id="Vector" d="M23.27 4.4C23.13 4.32 22.22 3.89 22.08 3.84C19.35 2.82 14.91 5.13 12.5 9.58C10.24 13.75 10.39 18.24 12.51 20.38C12.74 20.62 13.01 20.78 13.01 20.78C14.03 21.52 14.82 21.67 15.09 21.67C17.78 22.2 20.27 19.11 22.53 14.95C25.07 10.27 25.99 5.88 23.27 4.4Z" stroke="#1D1D1B" stroke-opacity="1.000000" stroke-width="0.800000" stroke-linejoin="round"/>
			<path id="Vector" d="M19.03 21.09C22.81 18.91 25.87 13.6 25.87 9.23C25.87 4.87 22.81 3.1 19.03 5.28C15.25 7.47 12.18 12.77 12.18 17.14C12.18 21.5 15.25 23.27 19.03 21.09Z" fill="#EFE9FE" fill-opacity="1.000000" fill-rule="nonzero"/>
			<path id="Vector" d="M19.03 21.09C15.25 23.27 12.18 21.5 12.18 17.14C12.18 12.77 15.25 7.47 19.03 5.28C22.81 3.1 25.87 4.87 25.87 9.23C25.87 13.6 22.81 18.91 19.03 21.09Z" stroke="#1D1D1B" stroke-opacity="1.000000" stroke-width="0.800000"/>
			<path id="Vector" d="M14.39 17.36L15.6 16.78C15.78 17.72 16.2 18.35 16.86 18.65C17.52 18.96 18.4 18.85 19.48 18.34C19.9 18.14 20.31 17.88 20.72 17.58C21.13 17.28 21.51 16.93 21.87 16.54L21.26 15.66C20.76 16.23 20.2 16.66 19.6 16.93C18.9 17.27 18.33 17.35 17.91 17.19C17.49 17.02 17.21 16.66 17.06 16.09L20.37 14.52L20.46 13.33L16.94 15C16.94 14.82 16.95 14.63 16.96 14.44C16.98 14.24 17 14.05 17.03 13.87L20.56 12.19L20.65 11L17.34 12.58C17.59 11.82 17.95 11.14 18.43 10.54C18.91 9.94 19.51 9.47 20.22 9.13C20.51 9 20.79 8.91 21.06 8.87C21.33 8.82 21.57 8.83 21.79 8.88L22.6 7.32C22.28 7.25 21.93 7.25 21.54 7.32C21.16 7.4 20.76 7.53 20.33 7.74C19.24 8.26 18.31 9 17.55 9.98C16.79 10.95 16.24 12.05 15.89 13.27L14.68 13.84L14.58 15.03L15.61 14.54C15.58 14.73 15.56 14.92 15.54 15.11C15.53 15.31 15.52 15.5 15.52 15.68L14.49 16.17L14.39 17.36Z" fill="#1D1D1B" fill-opacity="1.000000" fill-rule="nonzero"/>
		</g>
	</g>
</svg>
