<svg width="40.000000" height="40.000000" viewBox="0 0 40 40" fill="none" xmlns="http://www.w3.org/2000/svg" xmlns:xlink="http://www.w3.org/1999/xlink">
	<desc>
			Created with Pixso.
	</desc>
	<defs>
		<clipPath id="clip1_648">
			<rect id="Image [card-img]" width="40.000000" height="40.000000" fill="white" fill-opacity="0"/>
		</clipPath>
	</defs>
	<rect id="Image [card-img]" width="40.000000" height="40.000000" fill="#FFFFFF" fill-opacity="0"/>
	<g clip-path="url(#clip1_648)">
		<path id="Vector" d="M26.79 39.02L38.58 32.12L38.58 29.98C38.58 28.1 37.73 25.34 36.28 24.16L20.92 12.2C19.13 10.75 16.62 10.55 14.61 11.7L3.19 18.16L26.79 39.02Z" fill="#D5C8FB" fill-opacity="1.000000" fill-rule="nonzero"/>
		<path id="Vector" d="M38.58 32.12L38.58 29.98C38.58 28.1 37.73 25.34 36.28 24.16L20.92 12.2C19.13 10.75 16.62 10.55 14.61 11.7L3.19 18.16L26.79 39.02L38.58 32.12Z" stroke="#1D1D1B" stroke-opacity="1.000000" stroke-width="0.800000" stroke-linejoin="round"/>
		<path id="Vector" d="M6.26 27.26L26.81 39.02L26.81 38.12C26.81 35.93 25.73 33.12 23.93 31.88L6.35 18.99C5.22 18.08 4.01 17.76 3.15 18.26C1.74 19.08 1.77 21.75 3.19 24.25C4.03 25.71 5.17 26.79 6.26 27.26Z" fill="#EFE9FE" fill-opacity="1.000000" fill-rule="nonzero"/>
		<path id="Vector" d="M26.81 39.02L26.81 38.12C26.81 35.93 25.73 33.12 23.93 31.88L6.35 18.99C5.22 18.08 4.01 17.76 3.15 18.26C1.74 19.08 1.77 21.75 3.19 24.25C4.03 25.71 5.17 26.79 6.26 27.26L26.81 39.02Z" stroke="#1D1D1B" stroke-opacity="1.000000" stroke-width="0.800000" stroke-linejoin="round"/>
		<path id="Vector" d="M24.12 19.37L22.61 20.21C22.42 20.24 22.25 20.29 22.13 20.36L22.12 20.72C22.11 20.88 22.21 21.03 22.41 21.15L23.22 21.64C23.22 21.65 23.23 21.65 23.24 21.65C23.64 21.9 24.3 21.91 24.71 21.68C24.73 21.67 24.75 21.66 24.76 21.65L26.4 20.74C26.41 20.73 26.43 20.73 26.44 20.72C26.65 20.61 26.75 20.45 26.75 20.3L26.76 19.95C26.65 19.88 26.49 19.82 26.31 19.78L25.65 19.38L25.64 19.38C25.23 19.13 24.57 19.12 24.16 19.35C24.15 19.36 24.14 19.37 24.12 19.37Z" fill="#1D1D1B" fill-opacity="1.000000" fill-rule="evenodd"/>
		<path id="Vector" d="M22.61 20.21L22.7 20.37L22.77 20.36L22.82 20.33L22.61 20.21ZM24.12 19.37L24.33 19.5L24.34 19.49L24.12 19.37ZM22.13 20.36L21.92 20.24L21.84 20.29L21.84 20.36L22.13 20.36ZM22.12 20.72L22.41 20.73L22.41 20.73L22.12 20.72ZM22.41 21.15L22.61 21.28L22.81 21.16L22.62 21.04L22.41 21.15ZM22.41 21.15L22.2 21.03L21.99 21.15L22.2 21.27L22.41 21.15ZM23.22 21.64L23.43 21.53L23.42 21.53L23.22 21.64ZM24.76 21.65L24.56 21.53L24.55 21.53L24.55 21.53L24.76 21.65ZM26.4 20.74L26.21 20.61L26.2 20.62L26.4 20.74ZM26.76 19.95L27.05 19.95L27.05 19.88L26.97 19.83L26.76 19.95ZM26.31 19.78L26.11 19.9L26.15 19.93L26.21 19.94L26.31 19.78ZM25.65 19.38L25.44 19.5L25.44 19.5L25.65 19.38ZM25.64 19.38L25.85 19.26L25.84 19.26L25.64 19.38ZM22.82 20.33L24.33 19.5L23.92 19.25L22.41 20.09L22.82 20.33ZM22.33 20.48C22.41 20.44 22.54 20.4 22.7 20.37L22.53 20.05C22.31 20.09 22.09 20.15 21.92 20.24L22.33 20.48ZM22.41 20.73L22.42 20.37L21.84 20.36L21.83 20.72L22.41 20.73ZM22.62 21.04C22.47 20.95 22.41 20.84 22.41 20.73L21.83 20.71C21.82 20.91 21.94 21.11 22.2 21.27L22.62 21.04ZM23.42 21.53L22.61 21.04L22.2 21.27L23.01 21.76L23.42 21.53ZM23.45 21.54C23.44 21.54 23.43 21.53 23.43 21.53L23 21.75C23.01 21.76 23.02 21.76 23.03 21.77L23.45 21.54ZM24.51 21.56C24.21 21.72 23.74 21.71 23.45 21.54L23.03 21.77C23.55 22.08 24.39 22.09 24.91 21.8L24.51 21.56ZM24.55 21.53C24.53 21.54 24.52 21.55 24.51 21.56L24.91 21.8C24.94 21.79 24.96 21.78 24.98 21.76L24.55 21.53ZM26.2 20.62L24.56 21.53L24.97 21.77L26.6 20.86L26.2 20.62ZM26.24 20.6C26.23 20.6 26.22 20.61 26.21 20.61L26.59 20.87C26.61 20.86 26.63 20.85 26.65 20.84L26.24 20.6ZM26.47 20.3C26.46 20.41 26.39 20.52 26.24 20.6L26.65 20.84C26.91 20.7 27.04 20.5 27.04 20.31L26.47 20.3ZM26.47 19.94L26.47 20.3L27.04 20.31L27.05 19.95L26.47 19.94ZM26.21 19.94C26.36 19.97 26.48 20.02 26.55 20.06L26.97 19.83C26.82 19.74 26.62 19.67 26.41 19.63L26.21 19.94ZM25.44 19.5L26.11 19.9L26.52 19.67L25.86 19.27L25.44 19.5ZM25.43 19.49L25.44 19.5L25.86 19.27L25.85 19.26L25.43 19.49ZM24.37 19.47C24.66 19.31 25.14 19.32 25.43 19.49L25.84 19.26C25.33 18.95 24.49 18.94 23.96 19.23L24.37 19.47ZM24.34 19.49C24.35 19.48 24.36 19.48 24.37 19.47L23.96 19.23C23.94 19.24 23.93 19.25 23.91 19.26L24.34 19.49Z" fill="#1D1D1B" fill-opacity="1.000000" fill-rule="nonzero"/>
		<path id="Vector" d="M24.13 19.02L22.49 19.93C22.47 19.94 22.45 19.95 22.43 19.96C22.02 20.19 22.01 20.57 22.41 20.81C22.43 20.82 22.45 20.83 22.46 20.84L23.22 21.29C23.22 21.3 23.23 21.3 23.24 21.31C23.64 21.55 24.3 21.56 24.71 21.33C24.73 21.32 24.75 21.31 24.77 21.3L26.42 20.38C26.43 20.38 26.43 20.37 26.44 20.37C26.85 20.14 26.86 19.76 26.46 19.52C26.45 19.52 26.45 19.52 26.44 19.51L25.65 19.04L25.64 19.03C25.24 18.78 24.58 18.77 24.17 19C24.15 19.01 24.14 19.02 24.13 19.02Z" fill="#FFFFFF" fill-opacity="1.000000" fill-rule="evenodd"/>
		<path id="Vector" d="M22.49 19.93L22.67 20.06L22.68 20.06L22.69 20.06L22.49 19.93ZM24.13 19.02L24.33 19.14L24.34 19.14L24.13 19.02ZM22.46 20.84L22.67 20.72L22.66 20.72L22.66 20.72L22.46 20.84ZM23.22 21.29L23.43 21.18L23.42 21.17L23.22 21.29ZM24.77 21.3L24.56 21.18L24.55 21.18L24.55 21.19L24.77 21.3ZM26.42 20.38L26.22 20.26L26.21 20.26L26.42 20.38ZM26.44 19.51L26.24 19.63L26.24 19.63L26.44 19.51ZM25.65 19.04L25.45 19.15L25.45 19.15L25.65 19.04ZM25.64 19.03L25.85 18.91L25.85 18.91L25.64 19.03ZM22.69 20.06L24.33 19.14L23.93 18.9L22.28 19.81L22.69 20.06ZM22.64 20.08C22.65 20.08 22.66 20.07 22.67 20.06L22.3 19.8C22.27 19.82 22.25 19.83 22.23 19.84L22.64 20.08ZM22.62 20.69C22.33 20.52 22.34 20.25 22.64 20.08L22.23 19.84C21.71 20.13 21.69 20.61 22.2 20.92L22.62 20.69ZM22.66 20.72C22.64 20.71 22.63 20.7 22.62 20.69L22.2 20.92C22.23 20.94 22.25 20.95 22.27 20.96L22.66 20.72ZM23.42 21.17L22.67 20.72L22.26 20.95L23.01 21.4L23.42 21.17ZM23.45 21.19C23.44 21.19 23.43 21.18 23.43 21.18L23 21.4C23.01 21.41 23.02 21.41 23.03 21.42L23.45 21.19ZM24.51 21.21C24.21 21.37 23.74 21.36 23.45 21.19L23.03 21.42C23.55 21.73 24.39 21.74 24.91 21.45L24.51 21.21ZM24.55 21.19C24.53 21.19 24.52 21.2 24.51 21.21L24.91 21.45C24.94 21.44 24.96 21.43 24.98 21.41L24.55 21.19ZM26.21 20.26L24.56 21.18L24.97 21.42L26.62 20.51L26.21 20.26ZM26.24 20.25C26.23 20.25 26.23 20.25 26.22 20.26L26.61 20.51C26.62 20.5 26.63 20.5 26.65 20.49L26.24 20.25ZM26.25 19.64C26.54 19.81 26.54 20.08 26.24 20.25L26.65 20.49C27.17 20.2 27.18 19.71 26.67 19.41L26.25 19.64ZM26.24 19.63C26.24 19.63 26.25 19.63 26.25 19.64L26.67 19.41C26.66 19.4 26.65 19.4 26.65 19.4L26.24 19.63ZM25.45 19.15L26.24 19.63L26.65 19.4L25.86 18.92L25.45 19.15ZM25.43 19.14L25.45 19.15L25.86 18.92L25.85 18.91L25.43 19.14ZM24.37 19.12C24.67 18.96 25.14 18.97 25.43 19.14L25.85 18.91C25.33 18.6 24.49 18.59 23.96 18.88L24.37 19.12ZM24.34 19.14C24.35 19.13 24.36 19.13 24.37 19.12L23.96 18.88C23.95 18.89 23.93 18.9 23.91 18.91L24.34 19.14Z" fill="#1D1D1B" fill-opacity="1.000000" fill-rule="nonzero"/>
		<path id="Vector" d="M27.34 21.74L25.81 22.59C25.61 22.62 25.44 22.67 25.32 22.74L25.31 23.1C25.31 23.25 25.4 23.41 25.6 23.53L26.44 24.04C26.84 24.27 27.49 24.28 27.9 24.06C27.92 24.05 27.95 24.03 27.96 24.02L29.58 23.12C29.6 23.12 29.62 23.11 29.64 23.1C29.84 22.98 29.95 22.83 29.95 22.68L29.95 22.33C29.84 22.26 29.68 22.2 29.5 22.16L28.87 21.78C28.85 21.77 28.84 21.76 28.83 21.75C28.43 21.51 27.77 21.5 27.36 21.73C27.35 21.73 27.34 21.74 27.34 21.74Z" fill="#1D1D1B" fill-opacity="1.000000" fill-rule="evenodd"/>
		<path id="Vector" d="M25.81 22.59L25.89 22.75L25.96 22.74L26.01 22.71L25.81 22.59ZM27.34 21.74L27.54 21.86L27.55 21.86L27.34 21.74ZM25.32 22.74L25.12 22.62L25.03 22.67L25.03 22.74L25.32 22.74ZM25.31 23.1L25.6 23.11L25.6 23.1L25.31 23.1ZM25.6 23.53L25.8 23.65L26 23.54L25.81 23.42L25.6 23.53ZM25.6 23.53L25.39 23.41L25.19 23.52L25.39 23.64L25.6 23.53ZM26.44 24.04L26.23 24.15L26.43 24.27L26.64 24.16L26.44 24.04ZM26.44 24.04L26.64 23.92L26.44 23.8L26.24 23.91L26.44 24.04ZM27.96 24.02L27.76 23.9L27.75 23.9L27.74 23.91L27.96 24.02ZM29.58 23.12L29.39 23L29.39 23L29.38 23L29.58 23.12ZM29.95 22.33L30.24 22.33L30.25 22.26L30.16 22.21L29.95 22.33ZM29.5 22.16L29.3 22.27L29.34 22.3L29.4 22.32L29.5 22.16ZM28.87 21.78L28.65 21.88L28.66 21.89L28.87 21.78ZM26.01 22.71L27.54 21.86L27.13 21.62L25.6 22.47L26.01 22.71ZM25.52 22.86C25.6 22.82 25.73 22.78 25.89 22.75L25.72 22.43C25.5 22.46 25.28 22.53 25.12 22.62L25.52 22.86ZM25.6 23.1L25.61 22.74L25.03 22.74L25.02 23.09L25.6 23.1ZM25.81 23.42C25.67 23.33 25.6 23.22 25.6 23.11L25.02 23.09C25.02 23.29 25.14 23.49 25.39 23.64L25.81 23.42ZM26.65 23.92L25.8 23.42L25.39 23.64L26.23 24.15L26.65 23.92ZM27.7 23.94C27.41 24.1 26.93 24.09 26.64 23.92L26.23 24.15C26.75 24.46 27.58 24.47 28.11 24.18L27.7 23.94ZM27.74 23.91C27.73 23.92 27.72 23.93 27.7 23.94L28.11 24.18C28.13 24.16 28.16 24.15 28.18 24.13L27.74 23.91ZM29.38 23L27.76 23.9L28.17 24.14L29.78 23.25L29.38 23ZM29.43 22.97C29.42 22.98 29.41 22.99 29.39 23L29.77 23.25C29.79 23.24 29.82 23.23 29.84 23.22L29.43 22.97ZM29.66 22.67C29.66 22.78 29.58 22.89 29.43 22.97L29.84 23.22C30.1 23.07 30.23 22.88 30.24 22.68L29.66 22.67ZM29.67 22.32L29.66 22.67L30.24 22.68L30.24 22.33L29.67 22.32ZM29.4 22.32C29.55 22.35 29.67 22.39 29.75 22.44L30.16 22.21C30.01 22.12 29.81 22.05 29.61 22L29.4 22.32ZM28.66 21.89L29.3 22.27L29.71 22.05L29.07 21.66L28.66 21.89ZM28.62 21.87C28.63 21.87 28.64 21.88 28.65 21.88L29.08 21.67C29.07 21.66 29.05 21.65 29.04 21.64L28.62 21.87ZM27.56 21.85C27.86 21.68 28.33 21.69 28.62 21.87L29.04 21.64C28.52 21.33 27.68 21.31 27.16 21.61L27.56 21.85ZM27.55 21.86C27.55 21.86 27.56 21.85 27.56 21.85L27.16 21.61C27.15 21.61 27.14 21.62 27.13 21.62L27.55 21.86Z" fill="#1D1D1B" fill-opacity="1.000000" fill-rule="nonzero"/>
		<path id="Vector" d="M28.83 21.4C28.43 21.16 27.77 21.15 27.36 21.38C27.34 21.39 27.33 21.4 27.31 21.41L25.67 22.32C25.66 22.32 25.64 22.33 25.63 22.34C25.22 22.57 25.21 22.94 25.61 23.19C25.62 23.19 25.64 23.2 25.65 23.21L26.41 23.66C26.42 23.67 26.43 23.68 26.43 23.68C26.84 23.92 27.5 23.93 27.91 23.71C27.91 23.7 27.92 23.7 27.93 23.69L29.62 22.76C29.62 22.76 29.63 22.75 29.64 22.75C30.05 22.52 30.06 22.14 29.66 21.9L29.66 21.9C29.66 21.9 29.66 21.9 29.65 21.9C29.65 21.9 29.65 21.9 29.65 21.89L28.83 21.4Z" fill="#FFFFFF" fill-opacity="1.000000" fill-rule="evenodd"/>
		<path id="Vector" d="M28.83 21.4L28.63 21.52L28.83 21.64L29.04 21.53L28.83 21.4ZM27.31 21.41L27.51 21.53L27.52 21.53L27.53 21.52L27.31 21.41ZM25.67 22.32L25.86 22.44L25.88 22.44L25.67 22.32ZM25.65 23.21L25.86 23.1L25.85 23.09L25.65 23.21ZM26.41 23.66L26.62 23.55L26.62 23.55L26.41 23.66ZM27.93 23.69L27.73 23.57L27.72 23.57L27.93 23.69ZM29.62 22.76L29.42 22.63L29.41 22.64L29.62 22.76ZM29.66 21.9L29.46 21.78L29.26 21.89L29.45 22.02L29.66 21.9ZM29.66 21.9L29.87 22.02L30.07 21.91L29.87 21.79L29.66 21.9ZM29.66 21.9L29.45 22.02L29.45 22.02L29.66 21.9ZM29.65 21.89L29.44 22.01L29.44 22.01L29.65 21.89ZM28.83 21.4L29.04 21.29L28.84 21.17L28.63 21.28L28.83 21.4ZM28.63 21.52L29.04 21.29L29.04 21.29L28.63 21.52ZM27.56 21.5C27.86 21.34 28.34 21.34 28.63 21.52L29.04 21.29C28.53 20.98 27.68 20.96 27.16 21.26L27.56 21.5ZM27.53 21.52C27.54 21.51 27.55 21.51 27.56 21.5L27.16 21.26C27.14 21.27 27.11 21.28 27.09 21.29L27.53 21.52ZM25.88 22.44L27.51 21.53L27.11 21.29L25.47 22.19L25.88 22.44ZM25.83 22.46C25.84 22.46 25.85 22.45 25.86 22.44L25.48 22.19C25.46 22.2 25.45 22.21 25.43 22.22L25.83 22.46ZM25.82 23.07C25.53 22.9 25.53 22.63 25.83 22.46L25.43 22.22C24.91 22.51 24.89 22.99 25.4 23.3L25.82 23.07ZM25.85 23.09C25.84 23.08 25.83 23.08 25.82 23.07L25.4 23.3C25.42 23.31 25.44 23.32 25.46 23.33L25.85 23.09ZM26.62 23.55L25.86 23.1L25.44 23.32L26.2 23.78L26.62 23.55ZM26.64 23.57C26.64 23.56 26.63 23.56 26.62 23.55L26.19 23.78C26.21 23.78 26.22 23.79 26.23 23.8L26.64 23.57ZM27.7 23.59C27.41 23.75 26.93 23.74 26.64 23.57L26.23 23.8C26.74 24.11 27.58 24.12 28.11 23.83L27.7 23.59ZM27.72 23.57C27.72 23.58 27.71 23.58 27.7 23.59L28.11 23.83C28.12 23.82 28.13 23.82 28.14 23.81L27.72 23.57ZM29.41 22.64L27.73 23.57L28.14 23.81L29.82 22.88L29.41 22.64ZM29.44 22.62C29.43 22.63 29.42 22.63 29.42 22.63L29.81 22.88C29.82 22.88 29.83 22.87 29.84 22.87L29.44 22.62ZM29.45 22.02C29.74 22.19 29.73 22.46 29.44 22.62L29.84 22.87C30.36 22.58 30.38 22.1 29.87 21.79L29.45 22.02ZM29.45 22.02L29.46 22.02L29.87 21.79L29.87 21.79L29.45 22.02ZM29.45 22.01C29.45 22.01 29.45 22.01 29.45 22.02L29.87 21.79C29.87 21.79 29.86 21.78 29.86 21.78L29.45 22.01ZM29.44 22.01C29.45 22.01 29.45 22.01 29.45 22.01L29.86 21.78C29.86 21.78 29.86 21.78 29.86 21.78L29.44 22.01ZM28.63 21.52L29.44 22.01L29.86 21.78L29.04 21.29L28.63 21.52Z" fill="#1D1D1B" fill-opacity="1.000000" fill-rule="nonzero"/>
		<path id="Vector" d="M30.57 24.12L29.04 24.97C28.85 25 28.68 25.05 28.55 25.12L28.55 25.48C28.54 25.63 28.63 25.79 28.83 25.91L29.64 26.4C29.65 26.4 29.66 26.41 29.66 26.41C30.07 26.65 30.72 26.66 31.13 26.44C31.15 26.43 31.17 26.42 31.19 26.4L32.81 25.51C32.83 25.5 32.85 25.49 32.87 25.48C33.07 25.36 33.18 25.21 33.18 25.06L33.19 24.7C33.07 24.64 32.92 24.58 32.74 24.54L32.1 24.15C32.09 24.15 32.08 24.14 32.06 24.13C31.66 23.89 31 23.88 30.59 24.11C30.58 24.11 30.58 24.11 30.57 24.12Z" fill="#1D1D1B" fill-opacity="1.000000" fill-rule="evenodd"/>
		<path id="Vector" d="M29.04 24.97L29.12 25.13L29.19 25.12L29.24 25.09L29.04 24.97ZM30.57 24.12L30.77 24.24L30.78 24.24L30.57 24.12ZM28.55 25.12L28.35 25L28.26 25.05L28.26 25.11L28.55 25.12ZM28.55 25.48L28.84 25.49L28.84 25.48L28.55 25.48ZM28.83 25.91L29.03 26.03L29.24 25.92L29.04 25.8L28.83 25.91ZM28.83 25.91L28.63 25.79L28.42 25.9L28.62 26.03L28.83 25.91ZM29.64 26.4L29.85 26.28L29.84 26.28L29.64 26.4ZM31.19 26.4L30.99 26.28L30.98 26.29L30.97 26.29L31.19 26.4ZM32.81 25.5L32.63 25.37L32.62 25.38L32.61 25.38L32.81 25.5ZM33.19 24.7L33.48 24.71L33.48 24.64L33.4 24.59L33.19 24.7ZM32.74 24.54L32.53 24.65L32.58 24.68L32.64 24.7L32.74 24.54ZM32.1 24.15L31.88 24.26L31.89 24.27L32.1 24.15ZM29.24 25.09L30.77 24.24L30.37 24L28.84 24.85L29.24 25.09ZM28.76 25.24C28.84 25.2 28.96 25.16 29.12 25.13L28.95 24.81C28.73 24.84 28.51 24.91 28.35 25L28.76 25.24ZM28.84 25.48L28.84 25.12L28.26 25.11L28.26 25.47L28.84 25.48ZM29.04 25.8C28.9 25.71 28.83 25.6 28.84 25.49L28.26 25.47C28.25 25.67 28.37 25.87 28.62 26.02L29.04 25.8ZM29.84 26.28L29.04 25.8L28.62 26.03L29.43 26.51L29.84 26.28ZM29.87 26.3C29.86 26.29 29.86 26.29 29.85 26.28L29.42 26.51C29.43 26.51 29.45 26.52 29.46 26.53L29.87 26.3ZM30.93 26.32C30.64 26.48 30.16 26.47 29.87 26.3L29.46 26.53C29.97 26.84 30.81 26.85 31.34 26.56L30.93 26.32ZM30.97 26.29C30.96 26.3 30.95 26.31 30.93 26.32L31.34 26.56C31.36 26.55 31.38 26.53 31.41 26.52L30.97 26.29ZM32.61 25.38L30.99 26.28L31.39 26.53L33.02 25.63L32.61 25.38ZM32.67 25.35C32.65 25.36 32.64 25.37 32.63 25.37L33 25.63C33.03 25.62 33.05 25.61 33.07 25.6L32.67 25.35ZM32.89 25.05C32.89 25.16 32.81 25.27 32.67 25.35L33.07 25.6C33.33 25.45 33.47 25.26 33.47 25.06L32.89 25.05ZM32.9 24.7L32.89 25.05L33.47 25.06L33.48 24.71L32.9 24.7ZM32.64 24.7C32.79 24.73 32.9 24.77 32.98 24.82L33.4 24.59C33.24 24.5 33.04 24.43 32.84 24.38L32.64 24.7ZM31.89 24.27L32.53 24.65L32.94 24.42L32.31 24.04L31.89 24.27ZM31.86 24.25C31.87 24.25 31.87 24.26 31.88 24.26L32.32 24.05C32.3 24.04 32.29 24.03 32.27 24.02L31.86 24.25ZM30.79 24.23C31.09 24.06 31.57 24.07 31.86 24.25L32.27 24.02C31.76 23.71 30.91 23.69 30.39 23.98L30.79 24.23ZM30.78 24.24C30.78 24.23 30.79 24.23 30.79 24.23L30.39 23.98C30.38 23.99 30.37 24 30.36 24L30.78 24.24Z" fill="#1D1D1B" fill-opacity="1.000000" fill-rule="nonzero"/>
		<path id="Vector" d="M30.55 23.78L28.92 24.69C28.9 24.7 28.88 24.71 28.86 24.72C28.45 24.95 28.44 25.32 28.84 25.57C28.86 25.58 28.88 25.59 28.89 25.6L29.64 26.05C29.65 26.05 29.66 26.06 29.67 26.06C30.07 26.3 30.73 26.31 31.14 26.09C31.15 26.08 31.16 26.08 31.16 26.07L32.84 25.14C32.85 25.14 32.86 25.13 32.87 25.13C33.28 24.9 33.29 24.52 32.89 24.28C32.88 24.27 32.88 24.27 32.87 24.27L32.08 23.79L32.07 23.78C31.66 23.54 31 23.53 30.59 23.76C30.58 23.77 30.57 23.77 30.55 23.78Z" fill="#FFFFFF" fill-opacity="1.000000" fill-rule="evenodd"/>
		<path id="Vector" d="M28.92 24.69L29.1 24.82L29.11 24.82L29.12 24.81L28.92 24.69ZM30.55 23.78L30.76 23.9L30.77 23.9L30.55 23.78ZM28.89 25.6L29.1 25.48L29.09 25.48L29.09 25.47L28.89 25.6ZM29.64 26.05L29.85 25.93L29.85 25.93L29.64 26.05ZM31.16 26.07L30.96 25.95L30.95 25.95L31.16 26.07ZM32.84 25.14L32.65 25.02L32.64 25.02L32.84 25.14ZM32.87 24.27L32.66 24.38L32.67 24.39L32.87 24.27ZM32.08 23.79L31.87 23.9L31.87 23.9L32.08 23.79ZM32.07 23.78L32.27 23.67L32.27 23.67L32.07 23.78ZM29.12 24.81L30.76 23.9L30.35 23.66L28.71 24.57L29.12 24.81ZM29.06 24.84C29.08 24.83 29.09 24.83 29.1 24.82L28.73 24.56C28.7 24.57 28.68 24.58 28.66 24.6L29.06 24.84ZM29.05 25.45C28.76 25.28 28.76 25.01 29.06 24.84L28.66 24.6C28.13 24.89 28.12 25.37 28.63 25.68L29.05 25.45ZM29.09 25.47C29.07 25.47 29.06 25.46 29.05 25.45L28.63 25.68C28.65 25.69 28.68 25.71 28.7 25.72L29.09 25.47ZM29.85 25.93L29.1 25.48L28.69 25.71L29.43 26.16L29.85 25.93ZM29.87 25.95C29.87 25.94 29.86 25.94 29.85 25.93L29.43 26.16C29.44 26.16 29.45 26.17 29.46 26.18L29.87 25.95ZM30.93 25.97C30.64 26.13 30.16 26.12 29.87 25.95L29.46 26.18C29.97 26.49 30.82 26.5 31.34 26.21L30.93 25.97ZM30.95 25.95C30.95 25.96 30.94 25.96 30.93 25.97L31.34 26.21C31.35 26.2 31.36 26.2 31.37 26.19L30.95 25.95ZM32.64 25.02L30.96 25.95L31.37 26.19L33.05 25.26L32.64 25.02ZM32.67 25C32.66 25.01 32.65 25.01 32.65 25.02L33.04 25.27C33.05 25.26 33.06 25.26 33.07 25.25L32.67 25ZM32.68 24.39C32.97 24.57 32.96 24.84 32.67 25L33.07 25.25C33.6 24.96 33.61 24.47 33.09 24.16L32.68 24.39ZM32.67 24.39C32.67 24.39 32.68 24.39 32.68 24.39L33.09 24.16C33.09 24.16 33.08 24.16 33.08 24.15L32.67 24.39ZM31.87 23.9L32.66 24.38L33.08 24.15L32.28 23.67L31.87 23.9ZM31.86 23.9L31.87 23.9L32.28 23.68L32.27 23.67L31.86 23.9ZM30.8 23.88C31.09 23.72 31.57 23.72 31.86 23.9L32.27 23.67C31.76 23.36 30.92 23.34 30.39 23.64L30.8 23.88ZM30.77 23.9C30.78 23.89 30.79 23.89 30.8 23.88L30.39 23.64C30.37 23.65 30.36 23.66 30.34 23.67L30.77 23.9Z" fill="#1D1D1B" fill-opacity="1.000000" fill-rule="nonzero"/>
		<path id="Vector" d="M19.81 21.8L18.31 22.64C18.12 22.67 17.95 22.72 17.82 22.79L17.82 23.15C17.81 23.3 17.91 23.46 18.11 23.59C18.13 23.59 18.14 23.6 18.15 23.61L18.89 24.05C18.91 24.06 18.92 24.07 18.94 24.08C19.34 24.32 20 24.33 20.41 24.11C20.42 24.1 20.44 24.09 20.45 24.08L22.1 23.17C22.11 23.16 22.13 23.15 22.14 23.14C22.35 23.03 22.45 22.88 22.45 22.73L22.46 22.37C22.35 22.3 22.19 22.25 22.01 22.21L21.33 21.8L21.33 21.8C20.93 21.56 20.27 21.55 19.86 21.77C19.84 21.78 19.83 21.79 19.81 21.8Z" fill="#1D1D1B" fill-opacity="1.000000" fill-rule="evenodd"/>
		<path id="Vector" d="M18.31 22.64L18.4 22.8L18.47 22.79L18.52 22.76L18.31 22.64ZM19.81 21.8L20.02 21.93L20.02 21.92L20.03 21.92L19.81 21.8ZM17.82 22.79L17.62 22.67L17.53 22.71L17.53 22.78L17.82 22.79ZM17.82 23.15L18.11 23.15L18.11 23.15L17.82 23.15ZM18.15 23.61L18.36 23.49L18.35 23.49L18.15 23.61ZM18.89 24.05L19.11 23.95L19.11 23.94L19.1 23.94L18.89 24.05ZM20.45 24.08L20.25 23.96L20.24 23.96L20.24 23.96L20.45 24.08ZM22.1 23.17L21.91 23.04L21.89 23.05L22.1 23.17ZM22.46 22.37L22.75 22.38L22.75 22.31L22.67 22.26L22.46 22.37ZM22.01 22.21L21.8 22.32L21.85 22.35L21.91 22.36L22.01 22.21ZM21.33 21.8L21.54 21.69L21.34 21.56L21.13 21.68L21.33 21.8ZM21.33 21.8L21.13 21.92L21.33 22.04L21.54 21.92L21.33 21.8ZM18.52 22.76L20.02 21.93L19.61 21.68L18.11 22.51L18.52 22.76ZM18.03 22.91C18.11 22.86 18.24 22.82 18.4 22.8L18.23 22.47C18 22.51 17.79 22.57 17.62 22.67L18.03 22.91ZM18.11 23.15L18.11 22.79L17.53 22.78L17.53 23.14L18.11 23.15ZM18.32 23.47C18.17 23.38 18.1 23.27 18.11 23.15L17.53 23.14C17.52 23.34 17.65 23.54 17.91 23.7L18.32 23.47ZM18.35 23.49C18.34 23.48 18.33 23.48 18.32 23.47L17.91 23.7C17.92 23.71 17.94 23.72 17.96 23.73L18.35 23.49ZM19.1 23.94L18.36 23.49L17.95 23.72L18.69 24.17L19.1 23.94ZM19.14 23.96C19.13 23.96 19.12 23.95 19.11 23.95L18.67 24.16C18.69 24.17 18.71 24.18 18.73 24.19L19.14 23.96ZM20.2 23.98C19.91 24.15 19.43 24.14 19.14 23.96L18.73 24.19C19.24 24.5 20.08 24.52 20.61 24.23L20.2 23.98ZM20.24 23.96C20.23 23.97 20.21 23.98 20.2 23.98L20.61 24.23C20.63 24.22 20.65 24.2 20.67 24.19L20.24 23.96ZM21.89 23.05L20.25 23.96L20.65 24.2L22.3 23.29L21.89 23.05ZM21.94 23.02C21.93 23.03 21.92 23.03 21.91 23.04L22.29 23.3C22.31 23.29 22.33 23.28 22.34 23.27L21.94 23.02ZM22.16 22.72C22.16 22.83 22.09 22.94 21.94 23.02L22.34 23.27C22.61 23.12 22.74 22.93 22.74 22.73L22.16 22.72ZM22.17 22.37L22.16 22.72L22.74 22.73L22.75 22.38L22.17 22.37ZM21.91 22.36C22.06 22.4 22.18 22.44 22.25 22.49L22.67 22.26C22.52 22.17 22.32 22.1 22.11 22.05L21.91 22.36ZM21.13 21.92L21.8 22.32L22.22 22.09L21.54 21.69L21.13 21.92ZM21.13 21.92L21.54 21.69L21.54 21.69L21.13 21.92ZM20.06 21.9C20.36 21.73 20.84 21.74 21.13 21.92L21.54 21.69C21.03 21.38 20.18 21.36 19.66 21.65L20.06 21.9ZM20.03 21.92C20.04 21.91 20.05 21.9 20.06 21.9L19.66 21.65C19.64 21.66 19.62 21.68 19.6 21.69L20.03 21.92Z" fill="#1D1D1B" fill-opacity="1.000000" fill-rule="nonzero"/>
		<path id="Vector" d="M21.34 21.45C20.93 21.21 20.27 21.2 19.86 21.43C19.85 21.43 19.83 21.45 19.81 21.46L18.17 22.36C18.16 22.37 18.15 22.38 18.13 22.39C17.72 22.61 17.71 22.99 18.11 23.23C18.13 23.24 18.14 23.25 18.15 23.26L18.92 23.71C18.92 23.72 18.93 23.72 18.94 23.73C19.34 23.97 20 23.98 20.41 23.75C20.42 23.75 20.43 23.74 20.44 23.74L22.12 22.81C22.12 22.8 22.13 22.8 22.14 22.79C22.55 22.57 22.56 22.19 22.16 21.95C22.15 21.94 22.15 21.94 22.14 21.94L21.34 21.45Z" fill="#FFFFFF" fill-opacity="1.000000" fill-rule="evenodd"/>
		<path id="Vector" d="M21.34 21.45L21.13 21.57L21.33 21.69L21.54 21.57L21.34 21.45ZM19.81 21.46L20.02 21.58L20.02 21.57L20.03 21.57L19.81 21.46ZM18.17 22.36L18.37 22.49L18.38 22.49L18.17 22.36ZM18.15 23.26L18.36 23.14L18.35 23.13L18.15 23.26ZM18.92 23.71L19.13 23.6L19.12 23.6L18.92 23.71ZM20.44 23.74L20.24 23.61L20.23 23.62L20.44 23.74ZM22.12 22.81L21.92 22.68L21.91 22.69L22.12 22.81ZM22.14 21.94L21.94 22.05L21.94 22.05L22.14 21.94ZM21.34 21.45L21.54 21.34L21.34 21.21L21.14 21.33L21.34 21.45ZM21.13 21.57L21.54 21.34L21.54 21.34L21.13 21.57ZM20.07 21.55C20.36 21.38 20.84 21.39 21.13 21.57L21.54 21.34C21.03 21.03 20.19 21.01 19.66 21.3L20.07 21.55ZM20.03 21.57C20.04 21.56 20.05 21.55 20.07 21.55L19.66 21.3C19.64 21.32 19.62 21.33 19.6 21.34L20.03 21.57ZM18.38 22.49L20.02 21.58L19.61 21.33L17.97 22.24L18.38 22.49ZM18.34 22.51C18.35 22.5 18.36 22.5 18.37 22.49L17.98 22.24C17.97 22.25 17.95 22.26 17.93 22.26L18.34 22.51ZM18.32 23.12C18.03 22.95 18.04 22.67 18.34 22.51L17.93 22.26C17.41 22.55 17.39 23.04 17.91 23.35L18.32 23.12ZM18.35 23.13C18.34 23.13 18.33 23.12 18.32 23.12L17.91 23.35C17.92 23.36 17.94 23.37 17.96 23.38L18.35 23.13ZM19.12 23.6L18.36 23.14L17.95 23.37L18.71 23.83L19.12 23.6ZM19.15 23.61C19.14 23.61 19.13 23.61 19.13 23.6L18.7 23.83C18.71 23.83 18.72 23.84 18.73 23.84L19.15 23.61ZM20.21 23.63C19.91 23.8 19.44 23.79 19.15 23.61L18.73 23.84C19.25 24.15 20.09 24.17 20.61 23.88L20.21 23.63ZM20.23 23.62C20.22 23.62 20.21 23.63 20.21 23.63L20.61 23.88C20.63 23.87 20.64 23.86 20.65 23.85L20.23 23.62ZM21.91 22.69L20.24 23.61L20.64 23.86L22.32 22.93L21.91 22.69ZM21.94 22.67C21.93 22.68 21.93 22.68 21.92 22.68L22.31 22.93C22.32 22.93 22.33 22.92 22.35 22.92L21.94 22.67ZM21.95 22.06C22.24 22.23 22.24 22.51 21.94 22.67L22.35 22.92C22.87 22.63 22.88 22.14 22.36 21.83L21.95 22.06ZM21.94 22.05C21.94 22.06 21.95 22.06 21.95 22.06L22.36 21.83C22.36 21.83 22.35 21.82 22.35 21.82L21.94 22.05ZM21.13 21.57L21.94 22.05L22.35 21.82L21.54 21.34L21.13 21.57Z" fill="#1D1D1B" fill-opacity="1.000000" fill-rule="nonzero"/>
		<path id="Vector" d="M23.03 24.16L21.5 25.01C21.31 25.05 21.14 25.1 21.02 25.16L21.01 25.52C21 25.68 21.1 25.83 21.3 25.96L22.1 26.44C22.11 26.45 22.12 26.45 22.13 26.46C22.53 26.7 23.19 26.71 23.6 26.48C23.62 26.47 23.64 26.46 23.65 26.45L25.28 25.55C25.3 25.54 25.32 25.53 25.33 25.52C25.54 25.41 25.64 25.26 25.65 25.1L25.65 24.75C25.54 24.68 25.38 24.62 25.2 24.58L24.56 24.2C24.55 24.19 24.54 24.18 24.53 24.18C24.12 23.94 23.47 23.92 23.06 24.15C23.05 24.16 23.04 24.16 23.03 24.16Z" fill="#1D1D1B" fill-opacity="1.000000" fill-rule="evenodd"/>
		<path id="Vector" d="M21.5 25.01L21.59 25.17L21.66 25.16L21.71 25.14L21.5 25.01ZM23.03 24.16L23.24 24.29L23.24 24.28L23.03 24.16ZM21.02 25.16L20.81 25.04L20.73 25.09L20.73 25.16L21.02 25.16ZM21.01 25.52L21.3 25.53L21.3 25.53L21.01 25.52ZM21.29 25.96L21.5 26.08L21.7 25.96L21.51 25.84L21.29 25.96ZM21.29 25.96L21.09 25.83L20.88 25.95L21.09 26.07L21.29 25.96ZM22.1 26.44L22.32 26.33L22.31 26.33L22.1 26.44ZM23.65 26.45L23.45 26.33L23.44 26.33L23.43 26.34L23.65 26.45ZM25.28 25.55L25.09 25.42L25.08 25.42L25.07 25.43L25.28 25.55ZM25.65 24.75L25.94 24.75L25.94 24.69L25.86 24.63L25.65 24.75ZM25.2 24.58L24.99 24.7L25.04 24.73L25.1 24.74L25.2 24.58ZM24.56 24.2L24.35 24.31L24.36 24.31L24.56 24.2ZM21.71 25.14L23.24 24.29L22.83 24.04L21.3 24.89L21.71 25.14ZM21.22 25.29C21.3 25.24 21.43 25.2 21.59 25.17L21.42 24.85C21.2 24.89 20.98 24.95 20.81 25.04L21.22 25.29ZM21.3 25.53L21.31 25.17L20.73 25.16L20.72 25.52L21.3 25.53ZM21.51 25.84C21.36 25.75 21.3 25.64 21.3 25.53L20.72 25.52C20.71 25.71 20.83 25.91 21.08 26.07L21.51 25.84ZM22.31 26.33L21.5 25.84L21.09 26.07L21.89 26.55L22.31 26.33ZM22.33 26.34C22.33 26.34 22.32 26.33 22.32 26.33L21.89 26.55C21.9 26.56 21.91 26.56 21.92 26.57L22.33 26.34ZM23.4 26.36C23.1 26.52 22.62 26.52 22.33 26.34L21.92 26.57C22.43 26.88 23.28 26.89 23.8 26.6L23.4 26.36ZM23.43 26.34C23.42 26.34 23.41 26.35 23.4 26.36L23.8 26.6C23.83 26.59 23.85 26.58 23.87 26.56L23.43 26.34ZM25.07 25.43L23.45 26.33L23.86 26.57L25.48 25.67L25.07 25.43ZM25.13 25.4C25.12 25.41 25.1 25.41 25.09 25.42L25.46 25.68C25.49 25.67 25.51 25.66 25.54 25.64L25.13 25.4ZM25.36 25.1C25.35 25.21 25.28 25.32 25.13 25.4L25.54 25.64C25.8 25.5 25.93 25.3 25.94 25.11L25.36 25.1ZM25.36 24.74L25.36 25.1L25.94 25.11L25.94 24.75L25.36 24.74ZM25.1 24.74C25.25 24.77 25.37 24.82 25.45 24.86L25.86 24.63C25.71 24.54 25.51 24.48 25.3 24.43L25.1 24.74ZM24.36 24.31L24.99 24.7L25.41 24.47L24.77 24.09L24.36 24.31ZM24.32 24.29C24.33 24.3 24.34 24.3 24.35 24.31L24.78 24.09C24.76 24.08 24.75 24.07 24.73 24.06L24.32 24.29ZM23.26 24.27C23.55 24.11 24.03 24.12 24.32 24.29L24.73 24.06C24.22 23.75 23.38 23.74 22.85 24.03L23.26 24.27ZM23.24 24.28C23.25 24.28 23.25 24.28 23.26 24.27L22.85 24.03C22.84 24.03 22.83 24.04 22.82 24.05L23.24 24.28Z" fill="#1D1D1B" fill-opacity="1.000000" fill-rule="nonzero"/>
		<path id="Vector" d="M24.53 23.83C24.13 23.59 23.47 23.57 23.06 23.8C23.04 23.81 23.02 23.82 23.01 23.83L21.37 24.74C21.35 24.75 21.34 24.76 21.33 24.76C20.91 24.99 20.9 25.37 21.3 25.61C21.32 25.62 21.33 25.63 21.35 25.63L22.1 26.09C22.11 26.1 22.12 26.1 22.13 26.11C22.53 26.35 23.19 26.36 23.6 26.13C23.61 26.13 23.62 26.12 23.63 26.12L25.31 25.18C25.32 25.18 25.33 25.18 25.33 25.17C25.74 24.95 25.75 24.57 25.36 24.33L25.36 24.33C25.35 24.32 25.35 24.32 25.35 24.32C25.35 24.32 25.35 24.32 25.34 24.32L24.53 23.83Z" fill="#FFFFFF" fill-opacity="1.000000" fill-rule="evenodd"/>
		<path id="Vector" d="M24.53 23.83L24.32 23.94L24.52 24.06L24.73 23.95L24.53 23.83ZM23.01 23.83L23.21 23.95L23.22 23.95L23.22 23.95L23.01 23.83ZM21.37 24.74L21.56 24.87L21.57 24.86L21.37 24.74ZM21.35 25.63L21.55 25.52L21.54 25.51L21.35 25.63ZM22.1 26.09L22.32 25.98L22.31 25.97L22.1 26.09ZM23.63 26.12L23.43 25.99L23.42 26L23.63 26.12ZM25.31 25.18L25.11 25.06L25.11 25.06L25.31 25.18ZM25.36 24.33L25.16 24.21L24.95 24.32L25.15 24.44L25.36 24.33ZM25.36 24.33L25.56 24.45L25.77 24.33L25.57 24.21L25.36 24.33ZM25.36 24.33L25.15 24.44L25.15 24.44L25.36 24.33ZM25.34 24.32L25.14 24.43L25.14 24.43L25.34 24.32ZM24.53 23.83L24.74 23.71L24.53 23.59L24.33 23.71L24.53 23.83ZM24.32 23.94L24.74 23.71L24.74 23.71L24.32 23.94ZM23.26 23.92C23.56 23.76 24.03 23.77 24.32 23.94L24.74 23.71C24.22 23.4 23.38 23.39 22.85 23.68L23.26 23.92ZM23.22 23.95C23.23 23.94 23.25 23.93 23.26 23.92L22.85 23.68C22.83 23.69 22.81 23.71 22.79 23.72L23.22 23.95ZM21.57 24.86L23.21 23.95L22.8 23.71L21.17 24.62L21.57 24.86ZM21.53 24.89C21.54 24.88 21.55 24.87 21.56 24.87L21.18 24.61C21.16 24.62 21.14 24.63 21.12 24.64L21.53 24.89ZM21.51 25.5C21.22 25.32 21.23 25.05 21.53 24.89L21.12 24.64C20.6 24.93 20.58 25.41 21.1 25.72L21.51 25.5ZM21.54 25.51C21.53 25.51 21.52 25.5 21.51 25.5L21.1 25.72C21.11 25.74 21.13 25.75 21.15 25.76L21.54 25.51ZM22.31 25.97L21.55 25.52L21.14 25.75L21.9 26.2L22.31 25.97ZM22.34 25.99C22.33 25.99 22.32 25.98 22.32 25.98L21.89 26.2C21.9 26.21 21.91 26.21 21.92 26.22L22.34 25.99ZM23.4 26.01C23.1 26.17 22.63 26.17 22.34 25.99L21.92 26.22C22.44 26.53 23.28 26.54 23.8 26.25L23.4 26.01ZM23.42 26C23.41 26 23.4 26.01 23.4 26.01L23.8 26.25C23.82 26.25 23.83 26.24 23.84 26.23L23.42 26ZM25.11 25.06L23.43 25.99L23.83 26.24L25.51 25.31L25.11 25.06ZM25.13 25.05C25.13 25.05 25.12 25.06 25.11 25.06L25.51 25.31C25.52 25.3 25.53 25.3 25.54 25.29L25.13 25.05ZM25.15 24.44C25.43 24.61 25.43 24.89 25.13 25.05L25.54 25.29C26.06 25 26.07 24.52 25.57 24.21L25.15 24.44ZM25.15 24.44L25.15 24.44L25.57 24.21L25.56 24.21L25.15 24.44ZM25.14 24.44C25.14 24.44 25.15 24.44 25.15 24.44L25.57 24.21C25.56 24.21 25.56 24.21 25.56 24.21L25.14 24.44ZM25.14 24.43C25.14 24.44 25.14 24.44 25.14 24.44L25.56 24.21C25.55 24.21 25.55 24.2 25.55 24.2L25.14 24.43ZM24.32 23.94L25.14 24.43L25.55 24.2L24.74 23.71L24.32 23.94Z" fill="#1D1D1B" fill-opacity="1.000000" fill-rule="nonzero"/>
		<path id="Vector" d="M26.27 26.54L24.74 27.39C24.54 27.42 24.37 27.48 24.25 27.54L24.24 27.9C24.24 28.06 24.33 28.21 24.53 28.34L25.33 28.82C25.34 28.83 25.35 28.83 25.36 28.84C25.76 29.08 26.42 29.09 26.83 28.86C26.85 28.85 26.87 28.84 26.89 28.83L28.51 27.93C28.53 27.92 28.55 27.91 28.57 27.9C28.77 27.79 28.88 27.64 28.88 27.48L28.88 27.13C28.77 27.06 28.61 27 28.43 26.96L27.8 26.58C27.78 26.57 27.77 26.56 27.76 26.56C27.36 26.32 26.7 26.3 26.29 26.53C26.28 26.54 26.27 26.54 26.27 26.54Z" fill="#1D1D1B" fill-opacity="1.000000" fill-rule="evenodd"/>
		<path id="Vector" d="M24.74 27.39L24.82 27.55L24.89 27.54L24.94 27.51L24.74 27.39ZM26.27 26.54L26.47 26.67L26.47 26.66L26.27 26.54ZM24.25 27.54L24.05 27.42L23.96 27.47L23.96 27.54L24.25 27.54ZM24.24 27.9L24.53 27.91L24.53 27.91L24.24 27.9ZM24.53 28.34L24.73 28.46L24.93 28.34L24.74 28.22L24.53 28.34ZM24.53 28.34L24.33 28.21L24.12 28.33L24.32 28.45L24.53 28.34ZM25.33 28.82L25.55 28.71L25.54 28.71L25.33 28.82ZM26.89 28.83L26.68 28.71L26.67 28.71L26.67 28.72L26.89 28.83ZM28.51 27.93L28.32 27.8L28.31 27.8L28.31 27.81L28.51 27.93ZM28.88 27.13L29.17 27.13L29.18 27.07L29.09 27.01L28.88 27.13ZM28.43 26.96L28.23 27.08L28.27 27.11L28.33 27.12L28.43 26.96ZM27.8 26.58L27.58 26.69L27.59 26.69L27.8 26.58ZM24.94 27.51L26.47 26.67L26.06 26.42L24.53 27.27L24.94 27.51ZM24.45 27.67C24.53 27.62 24.66 27.58 24.82 27.55L24.65 27.23C24.43 27.27 24.21 27.33 24.05 27.42L24.45 27.67ZM24.53 27.91L24.54 27.55L23.96 27.54L23.95 27.9L24.53 27.91ZM24.74 28.22C24.6 28.13 24.53 28.02 24.53 27.91L23.95 27.9C23.94 28.09 24.07 28.29 24.32 28.45L24.74 28.22ZM25.54 28.71L24.73 28.22L24.32 28.45L25.13 28.93L25.54 28.71ZM25.57 28.72C25.56 28.72 25.55 28.71 25.55 28.71L25.12 28.93C25.13 28.94 25.14 28.94 25.15 28.95L25.57 28.72ZM26.63 28.74C26.33 28.9 25.86 28.9 25.57 28.72L25.15 28.95C25.67 29.26 26.51 29.27 27.03 28.98L26.63 28.74ZM26.67 28.72C26.65 28.72 26.64 28.73 26.63 28.74L27.03 28.98C27.06 28.97 27.08 28.96 27.1 28.94L26.67 28.72ZM28.31 27.81L26.68 28.71L27.09 28.95L28.71 28.05L28.31 27.81ZM28.36 27.78C28.35 27.79 28.34 27.79 28.32 27.8L28.7 28.06C28.72 28.05 28.75 28.04 28.77 28.02L28.36 27.78ZM28.59 27.48C28.59 27.59 28.51 27.7 28.36 27.78L28.77 28.02C29.03 27.88 29.16 27.68 29.17 27.49L28.59 27.48ZM28.59 27.12L28.59 27.48L29.17 27.49L29.17 27.13L28.59 27.12ZM28.33 27.12C28.48 27.15 28.6 27.2 28.68 27.24L29.09 27.01C28.94 26.92 28.74 26.86 28.53 26.81L28.33 27.12ZM27.59 26.69L28.23 27.08L28.64 26.85L28 26.46L27.59 26.69ZM27.55 26.67C27.56 26.68 27.57 26.68 27.58 26.69L28.01 26.47C28 26.46 27.98 26.45 27.97 26.44L27.55 26.67ZM26.49 26.65C26.79 26.49 27.26 26.5 27.55 26.67L27.97 26.44C27.45 26.13 26.61 26.12 26.08 26.41L26.49 26.65ZM26.47 26.66C26.48 26.66 26.49 26.66 26.49 26.65L26.08 26.41C26.08 26.41 26.07 26.42 26.06 26.43L26.47 26.66Z" fill="#1D1D1B" fill-opacity="1.000000" fill-rule="nonzero"/>
		<path id="Vector" d="M27.76 26.21C27.36 25.97 26.7 25.95 26.29 26.18C26.27 26.19 26.25 26.2 26.24 26.21L24.6 27.12C24.58 27.13 24.57 27.14 24.56 27.14C24.15 27.37 24.13 27.75 24.53 27.99C24.55 28 24.56 28.01 24.58 28.01L25.33 28.47C25.34 28.48 25.35 28.48 25.36 28.49C25.76 28.73 26.42 28.74 26.83 28.51C26.84 28.51 26.85 28.5 26.86 28.5L28.54 27.56C28.55 27.56 28.56 27.56 28.57 27.55C28.97 27.33 28.98 26.95 28.59 26.71L28.59 26.71C28.58 26.7 28.58 26.7 28.58 26.7C28.58 26.7 28.58 26.7 28.58 26.7L27.76 26.21Z" fill="#FFFFFF" fill-opacity="1.000000" fill-rule="evenodd"/>
		<path id="Vector" d="M27.76 26.21L27.55 26.32L27.75 26.44L27.96 26.33L27.76 26.21ZM26.24 26.21L26.44 26.33L26.45 26.33L26.45 26.33L26.24 26.21ZM24.6 27.12L24.79 27.25L24.8 27.24L24.6 27.12ZM24.58 28.01L24.78 27.9L24.77 27.89L24.58 28.01ZM25.33 28.47L25.55 28.36L25.54 28.35L25.33 28.47ZM26.86 28.5L26.66 28.37L26.65 28.38L26.86 28.5ZM28.54 27.56L28.34 27.44L28.34 27.44L28.54 27.56ZM28.59 26.71L28.39 26.59L28.18 26.7L28.38 26.82L28.59 26.71ZM28.59 26.71L28.79 26.83L29 26.71L28.8 26.59L28.59 26.71ZM28.59 26.71L28.38 26.82L28.38 26.82L28.59 26.71ZM28.58 26.7L28.37 26.81L28.37 26.81L28.58 26.7ZM27.76 26.21L27.97 26.09L27.76 25.97L27.56 26.09L27.76 26.21ZM27.55 26.32L27.97 26.09L27.97 26.09L27.55 26.32ZM26.49 26.3C26.79 26.14 27.26 26.15 27.55 26.32L27.97 26.09C27.45 25.78 26.61 25.77 26.08 26.06L26.49 26.3ZM26.45 26.33C26.46 26.32 26.48 26.31 26.49 26.3L26.08 26.06C26.06 26.07 26.04 26.09 26.02 26.1L26.45 26.33ZM24.8 27.24L26.44 26.33L26.03 26.09L24.4 27L24.8 27.24ZM24.76 27.27C24.77 27.26 24.78 27.25 24.79 27.25L24.41 26.99C24.39 27 24.37 27.01 24.35 27.02L24.76 27.27ZM24.74 27.88C24.45 27.7 24.46 27.43 24.76 27.27L24.35 27.02C23.83 27.31 23.81 27.79 24.33 28.1L24.74 27.88ZM24.77 27.89C24.76 27.89 24.75 27.88 24.74 27.88L24.33 28.1C24.35 28.12 24.36 28.13 24.38 28.14L24.77 27.89ZM25.54 28.35L24.78 27.9L24.37 28.13L25.13 28.58L25.54 28.35ZM25.57 28.37C25.56 28.37 25.55 28.36 25.55 28.36L25.12 28.58C25.13 28.59 25.14 28.59 25.15 28.6L25.57 28.37ZM26.63 28.39C26.33 28.55 25.86 28.55 25.57 28.37L25.15 28.6C25.67 28.91 26.51 28.92 27.03 28.63L26.63 28.39ZM26.65 28.38C26.64 28.38 26.64 28.39 26.63 28.39L27.03 28.63C27.05 28.63 27.06 28.62 27.07 28.61L26.65 28.38ZM28.34 27.44L26.66 28.37L27.06 28.62L28.74 27.69L28.34 27.44ZM28.36 27.43C28.36 27.43 28.35 27.44 28.34 27.44L28.74 27.69C28.75 27.68 28.76 27.68 28.77 27.67L28.36 27.43ZM28.38 26.82C28.66 27 28.66 27.27 28.36 27.43L28.77 27.67C29.29 27.38 29.3 26.9 28.8 26.59L28.38 26.82ZM28.38 26.82L28.38 26.82L28.8 26.59L28.79 26.59L28.38 26.82ZM28.37 26.82C28.37 26.82 28.38 26.82 28.38 26.82L28.8 26.59C28.79 26.59 28.79 26.59 28.79 26.59L28.37 26.82ZM28.37 26.81C28.37 26.82 28.37 26.82 28.37 26.82L28.79 26.59C28.78 26.59 28.78 26.58 28.78 26.58L28.37 26.81ZM27.55 26.32L28.37 26.81L28.78 26.58L27.97 26.09L27.55 26.32Z" fill="#1D1D1B" fill-opacity="1.000000" fill-rule="nonzero"/>
		<path id="Vector" d="M14.45 22.03L22.66 17.13C22.96 16.94 22.96 16.5 22.66 16.31L18.02 13.51C17.72 13.33 17.34 13.33 17.04 13.51L8.83 18.44C8.53 18.63 8.53 19.07 8.83 19.25L13.47 22.03C13.77 22.21 14.15 22.21 14.45 22.03Z" fill="#FFFFFF" fill-opacity="1.000000" fill-rule="nonzero"/>
		<path id="Vector" d="M22.66 17.13C22.96 16.94 22.96 16.5 22.66 16.31L18.02 13.51C17.72 13.33 17.34 13.33 17.04 13.51L8.83 18.44C8.53 18.63 8.53 19.07 8.83 19.25L13.47 22.03C13.77 22.21 14.15 22.21 14.45 22.03L22.66 17.13Z" stroke="#1D1D1B" stroke-opacity="1.000000" stroke-width="0.800000" stroke-linejoin="round"/>
		<path id="Vector" d="M34.72 8.71L34.72 7.62C34.72 7.45 34.63 7.29 34.48 7.21L24.52 1.37C24.39 1.29 24.23 1.29 24.09 1.37L7.5 11.11L7.5 12.51C7.5 12.68 7.59 12.83 7.73 12.92L17.19 18.46C17.63 18.73 18.18 18.73 18.62 18.46L34.48 9.12C34.63 9.04 34.72 8.88 34.72 8.71Z" fill="#1D1D1B" fill-opacity="1.000000" fill-rule="nonzero"/>
		<path id="Vector" d="M34.72 7.62C34.72 7.45 34.63 7.29 34.48 7.21L24.52 1.37C24.39 1.29 24.23 1.29 24.09 1.37L7.5 11.11L7.5 12.51C7.5 12.68 7.59 12.83 7.73 12.92L17.19 18.46C17.63 18.73 18.18 18.73 18.62 18.46L34.48 9.12C34.63 9.04 34.72 8.88 34.72 8.71L34.72 7.62Z" stroke="#1D1D1B" stroke-opacity="1.000000" stroke-width="0.776249" stroke-linejoin="round"/>
		<path id="Vector" d="M18.39 16.97L34.03 7.75C34.34 7.57 34.34 7.12 34.03 6.94L24.79 1.44C24.49 1.26 24.12 1.26 23.83 1.44L8.19 10.7C7.88 10.88 7.88 11.33 8.19 11.51L17.42 16.97C17.72 17.15 18.09 17.15 18.39 16.97Z" fill="#D5C8FB" fill-opacity="1.000000" fill-rule="nonzero"/>
		<path id="Vector" d="M34.03 7.75C34.34 7.57 34.34 7.12 34.03 6.94L24.79 1.44C24.49 1.26 24.12 1.26 23.83 1.44L8.19 10.7C7.88 10.88 7.88 11.33 8.19 11.51L17.42 16.97C17.72 17.15 18.09 17.15 18.39 16.97L34.03 7.75Z" stroke="#1D1D1B" stroke-opacity="1.000000" stroke-width="0.800000" stroke-linejoin="round"/>
		<path id="Vector" d="M16.59 9.58C16.59 9.58 16.58 9.58 16.57 9.58L13.01 11.7C12.97 11.73 12.97 11.77 13.01 11.8L15.24 13.12C15.24 13.13 15.25 13.13 15.25 13.12L18.81 11C18.86 10.98 18.86 10.93 18.81 10.91L16.59 9.58Z" fill="#FFFFFF" fill-opacity="1.000000" fill-rule="nonzero"/>
		<path id="Vector" d="M16.57 9.58L13.01 11.7C12.97 11.73 12.97 11.77 13.01 11.8L15.24 13.12C15.24 13.13 15.25 13.13 15.25 13.12L18.81 11C18.86 10.98 18.86 10.93 18.81 10.91L16.59 9.58C16.59 9.58 16.58 9.58 16.57 9.58Z" stroke="#1D1D1B" stroke-opacity="1.000000" stroke-width="0.776249"/>
	</g>
</svg>
