<svg width="40.000000" height="40.000000" viewBox="0 0 40 40" fill="none" xmlns="http://www.w3.org/2000/svg" xmlns:xlink="http://www.w3.org/1999/xlink">
	<desc>
			Created with Pixso.
	</desc>
	<defs>
		<clipPath id="clip1_415">
			<rect id="Image [card-img]" width="40.000000" height="40.000000" fill="white" fill-opacity="0"/>
		</clipPath>
	</defs>
	<rect id="Image [card-img]" width="40.000000" height="40.000000" fill="#FFFFFF" fill-opacity="0"/>
	<g clip-path="url(#clip1_415)">
		<mask id="mask1_435" mask-type="alpha" maskUnits="userSpaceOnUse" x="0.836548" y="0.579346" width="39.024414" height="39.024414">
			<path id="Vector" d="M0.83 0.57L39.86 0.57L39.86 39.6L0.83 39.6L0.83 0.57Z" fill="#000000" fill-opacity="1.000000" fill-rule="evenodd"/>
		</mask>
		<g mask="url(#mask1_435)">
			<path id="Vector" d="M30.59 2.73C34.5 2.73 37.99 4.41 38.86 6.66L38.88 15.7C38.88 18.53 35.17 20.82 30.59 20.82C26.01 20.82 22.3 18.53 22.3 15.7L22.29 6.92C23.01 4.54 26.53 2.73 30.59 2.73Z" fill="#D5C8FB" fill-opacity="1.000000" fill-rule="nonzero"/>
			<path id="Vector" d="M38.86 6.66L38.88 15.7C38.88 18.53 35.17 20.82 30.59 20.82C26.01 20.82 22.3 18.53 22.3 15.7L22.29 6.92C23.01 4.54 26.53 2.73 30.59 2.73C34.5 2.73 37.99 4.41 38.86 6.66Z" stroke="#1D1D1B" stroke-opacity="1.000000" stroke-width="0.800000"/>
			<path id="Vector" d="M30.59 21.22C30.8 21.22 30.98 21.05 30.98 20.83C30.98 20.62 30.8 20.44 30.59 20.44L30.59 21.22ZM21.9 15.71C21.9 17.31 22.95 18.69 24.52 19.66C26.09 20.63 28.24 21.22 30.59 21.22L30.59 20.44C28.36 20.44 26.36 19.88 24.93 19C23.49 18.11 22.69 16.94 22.69 15.71L21.9 15.71Z" fill="#1D1D1B" fill-opacity="1.000000" fill-rule="nonzero"/>
			<path id="Vector" d="M30.59 18.05C30.8 18.05 30.98 17.87 30.98 17.66C30.98 17.44 30.8 17.27 30.59 17.27L30.59 18.05ZM21.9 12.53C21.9 14.13 22.95 15.52 24.52 16.49C26.09 17.46 28.24 18.05 30.59 18.05L30.59 17.27C28.36 17.27 26.36 16.71 24.93 15.82C23.49 14.94 22.69 13.76 22.69 12.53L21.9 12.53Z" fill="#1D1D1B" fill-opacity="1.000000" fill-rule="nonzero"/>
			<path id="Vector" d="M30.59 14.87C30.8 14.87 30.98 14.7 30.98 14.48C30.98 14.27 30.8 14.09 30.59 14.09L30.59 14.87ZM21.9 9.35C21.9 10.96 22.95 12.34 24.52 13.31C26.09 14.28 28.24 14.87 30.59 14.87L30.59 14.09C28.36 14.09 26.36 13.53 24.93 12.65C23.49 11.76 22.69 10.59 22.69 9.35L21.9 9.35Z" fill="#1D1D1B" fill-opacity="1.000000" fill-rule="nonzero"/>
			<path id="Vector" d="M30.59 11.8C35.17 11.8 38.88 9.51 38.88 6.68C38.88 3.85 35.17 1.55 30.59 1.55C26.01 1.55 22.29 3.85 22.29 6.68C22.29 9.51 26.01 11.8 30.59 11.8Z" fill="#EFE9FE" fill-opacity="1.000000" fill-rule="nonzero"/>
			<path id="Vector" d="M38.88 6.68C38.88 3.85 35.17 1.55 30.59 1.55C26.01 1.55 22.29 3.85 22.29 6.68C22.29 9.51 26.01 11.8 30.59 11.8C35.17 11.8 38.88 9.51 38.88 6.68Z" stroke="#1D1D1B" stroke-opacity="1.000000" stroke-width="0.800000"/>
			<path id="Vector" d="M31.84 9.17C30.88 9.25 29.92 9.18 28.99 8.95C28.92 8.93 28.85 8.92 28.78 8.92C28.71 8.93 28.64 8.95 28.58 8.99L27.28 9.75L26.42 9.23L27.68 8.49L26.84 8.01L25.57 8.74L24.73 8.25L26.05 7.49C26.1 7.47 26.13 7.44 26.16 7.39C26.16 7.37 26.16 7.35 26.16 7.33C26.15 7.31 26.14 7.29 26.12 7.28C25.81 6.88 25.66 6.38 25.69 5.88C25.76 5.36 26.01 4.87 26.39 4.51C26.87 4.05 27.44 3.7 28.06 3.48C28.8 3.19 29.58 3.01 30.37 2.96L30.73 2.92L30.77 2.92L30.3 3.81C29.79 3.86 29.29 3.99 28.81 4.18C28.4 4.33 28.03 4.57 27.72 4.87C27.46 5.1 27.28 5.41 27.2 5.75C27.14 6.08 27.2 6.41 27.36 6.69L29.78 5.29L30.62 5.77L29.58 6.38L28.07 7.25C28.02 7.28 27.98 7.36 28.01 7.38L28.67 7.77C28.71 7.78 28.74 7.78 28.78 7.77C28.81 7.78 28.85 7.78 28.88 7.77L31.47 6.26L32.31 6.75L29.91 8.14C30.43 8.23 30.97 8.26 31.51 8.22C32.04 8.2 32.56 8.1 33.06 7.93C33.49 7.79 33.89 7.58 34.25 7.3C34.54 7.08 34.76 6.79 34.89 6.44L36.44 6.16C36.44 6.16 35.72 8.74 31.84 9.17Z" fill="#1D1D1B" fill-opacity="1.000000" fill-rule="nonzero"/>
			<path id="Vector" d="M11.08 10.54C14.99 10.54 18.48 12.21 19.35 14.46L19.37 23.5C19.37 26.33 15.66 28.63 11.08 28.63C6.5 28.63 2.78 26.33 2.78 23.5L2.78 14.72C3.5 12.34 7.02 10.54 11.08 10.54Z" fill="#D5C8FB" fill-opacity="1.000000" fill-rule="nonzero"/>
			<path id="Vector" d="M19.35 14.46L19.37 23.5C19.37 26.33 15.66 28.63 11.08 28.63C6.5 28.63 2.78 26.33 2.78 23.5L2.78 14.72C3.5 12.34 7.02 10.54 11.08 10.54C14.99 10.54 18.48 12.21 19.35 14.46Z" stroke="#1D1D1B" stroke-opacity="1.000000" stroke-width="0.800000"/>
			<path id="Vector" d="M11.08 29.03C11.29 29.03 11.47 28.85 11.47 28.64C11.47 28.42 11.29 28.25 11.08 28.25L11.08 29.03ZM2.39 23.51C2.39 25.11 3.44 26.5 5.01 27.47C6.58 28.44 8.72 29.03 11.08 29.03L11.08 28.25C8.85 28.25 6.85 27.69 5.42 26.8C3.98 25.92 3.17 24.74 3.17 23.51L2.39 23.51Z" fill="#1D1D1B" fill-opacity="1.000000" fill-rule="nonzero"/>
			<path id="Vector" d="M11.08 25.85C11.29 25.85 11.47 25.68 11.47 25.46C11.47 25.25 11.29 25.07 11.08 25.07L11.08 25.85ZM2.39 20.34C2.39 21.94 3.44 23.32 5.01 24.29C6.58 25.26 8.72 25.85 11.08 25.85L11.08 25.07C8.85 25.07 6.85 24.51 5.42 23.63C3.98 22.74 3.17 21.57 3.17 20.34L2.39 20.34Z" fill="#1D1D1B" fill-opacity="1.000000" fill-rule="nonzero"/>
			<path id="Vector" d="M11.08 22.68C11.29 22.68 11.47 22.5 11.47 22.29C11.47 22.07 11.29 21.9 11.08 21.9L11.08 22.68ZM2.39 17.16C2.39 18.76 3.44 20.15 5.01 21.12C6.58 22.09 8.72 22.68 11.08 22.68L11.08 21.9C8.85 21.9 6.85 21.34 5.42 20.45C3.98 19.56 3.17 18.39 3.17 17.16L2.39 17.16Z" fill="#1D1D1B" fill-opacity="1.000000" fill-rule="nonzero"/>
			<path id="Vector" d="M11.08 19.61C15.66 19.61 19.37 17.31 19.37 14.48C19.37 11.65 15.66 9.35 11.08 9.35C6.5 9.35 2.78 11.65 2.78 14.48C2.78 17.31 6.5 19.61 11.08 19.61Z" fill="#EFE9FE" fill-opacity="1.000000" fill-rule="nonzero"/>
			<path id="Vector" d="M19.37 14.48C19.37 11.65 15.66 9.35 11.08 9.35C6.5 9.35 2.78 11.65 2.78 14.48C2.78 17.31 6.5 19.61 11.08 19.61C15.66 19.61 19.37 17.31 19.37 14.48Z" stroke="#1D1D1B" stroke-opacity="1.000000" stroke-width="0.800000"/>
			<path id="Vector" d="M12.33 16.97C11.37 17.06 10.41 16.98 9.48 16.76C9.41 16.73 9.34 16.72 9.27 16.73C9.2 16.74 9.13 16.76 9.07 16.8L7.76 17.55L6.9 17.03L8.17 16.3L7.33 15.81L6.06 16.54L5.22 16.06L6.54 15.3C6.58 15.28 6.62 15.24 6.65 15.2C6.65 15.18 6.65 15.16 6.65 15.13C6.64 15.11 6.63 15.09 6.61 15.08C6.3 14.68 6.14 14.19 6.18 13.68C6.25 13.16 6.49 12.68 6.88 12.32C7.36 11.86 7.93 11.51 8.55 11.28C9.29 10.99 10.07 10.82 10.86 10.76L11.22 10.72L11.25 10.72L10.78 11.61C10.27 11.67 9.77 11.79 9.3 11.98C8.89 12.14 8.52 12.37 8.2 12.67C7.95 12.91 7.76 13.22 7.69 13.56C7.63 13.88 7.68 14.21 7.85 14.49L10.27 13.09L11.1 13.58L10.07 14.19L8.56 15.06C8.51 15.09 8.46 15.17 8.49 15.19L9.16 15.57C9.2 15.58 9.23 15.58 9.27 15.57C9.3 15.58 9.34 15.58 9.37 15.57L11.96 14.06L12.8 14.55L10.39 15.94C10.92 16.04 11.46 16.07 11.99 16.03C12.52 16 13.05 15.9 13.55 15.73C13.98 15.6 14.38 15.38 14.74 15.11C15.03 14.89 15.25 14.59 15.38 14.25L16.93 13.97C16.93 13.97 16.2 16.54 12.33 16.97Z" fill="#1D1D1B" fill-opacity="1.000000" fill-rule="nonzero"/>
			<path id="Vector" d="M25.71 20.3C29.62 20.3 33.11 21.97 33.99 24.22L34 33.26C34 36.09 30.29 38.38 25.71 38.38C21.13 38.38 17.42 36.09 17.42 33.26L17.42 24.48C18.13 22.1 21.65 20.3 25.71 20.3Z" fill="#D5C8FB" fill-opacity="1.000000" fill-rule="nonzero"/>
			<path id="Vector" d="M33.99 24.22L34 33.26C34 36.09 30.29 38.38 25.71 38.38C21.13 38.38 17.42 36.09 17.42 33.26L17.42 24.48C18.13 22.1 21.65 20.3 25.71 20.3C29.62 20.3 33.11 21.97 33.99 24.22Z" stroke="#1D1D1B" stroke-opacity="1.000000" stroke-width="0.800000"/>
			<path id="Vector" d="M25.71 38.78C25.93 38.78 26.1 38.61 26.1 38.39C26.1 38.18 25.93 38 25.71 38L25.71 38.78ZM17.03 33.27C17.03 34.87 18.08 36.26 19.64 37.22C21.21 38.2 23.36 38.78 25.71 38.78L25.71 38C23.48 38 21.48 37.44 20.05 36.56C18.62 35.67 17.81 34.5 17.81 33.27L17.03 33.27Z" fill="#1D1D1B" fill-opacity="1.000000" fill-rule="nonzero"/>
			<path id="Vector" d="M25.71 35.61C25.93 35.61 26.1 35.43 26.1 35.22C26.1 35 25.93 34.83 25.71 34.83L25.71 35.61ZM17.03 30.09C17.03 31.69 18.08 33.08 19.64 34.05C21.21 35.02 23.36 35.61 25.71 35.61L25.71 34.83C23.48 34.83 21.48 34.27 20.05 33.38C18.62 32.5 17.81 31.32 17.81 30.09L17.03 30.09Z" fill="#1D1D1B" fill-opacity="1.000000" fill-rule="nonzero"/>
			<path id="Vector" d="M25.71 32.43C25.93 32.43 26.1 32.26 26.1 32.04C26.1 31.83 25.93 31.65 25.71 31.65L25.71 32.43ZM17.03 26.92C17.03 28.52 18.08 29.9 19.64 30.87C21.21 31.84 23.36 32.43 25.71 32.43L25.71 31.65C23.48 31.65 21.48 31.09 20.05 30.21C18.62 29.32 17.81 28.15 17.81 26.92L17.03 26.92Z" fill="#1D1D1B" fill-opacity="1.000000" fill-rule="nonzero"/>
			<path id="Vector" d="M25.71 29.36C30.29 29.36 34 27.07 34 24.24C34 21.41 30.29 19.11 25.71 19.11C21.13 19.11 17.42 21.41 17.42 24.24C17.42 27.07 21.13 29.36 25.71 29.36Z" fill="#EFE9FE" fill-opacity="1.000000" fill-rule="nonzero"/>
			<path id="Vector" d="M34 24.24C34 21.41 30.29 19.11 25.71 19.11C21.13 19.11 17.42 21.41 17.42 24.24C17.42 27.07 21.13 29.36 25.71 29.36C30.29 29.36 34 27.07 34 24.24Z" stroke="#1D1D1B" stroke-opacity="1.000000" stroke-width="0.800000"/>
			<path id="Vector" d="M26.96 26.73C26.01 26.81 25.04 26.74 24.11 26.51C24.05 26.49 23.97 26.48 23.9 26.48C23.83 26.49 23.76 26.52 23.7 26.55L22.4 27.31L21.54 26.79L22.8 26.06L21.96 25.57L20.69 26.3L19.86 25.81L21.17 25.05C21.22 25.04 21.26 25 21.28 24.96C21.29 24.93 21.29 24.91 21.28 24.89C21.27 24.87 21.26 24.85 21.24 24.84C20.93 24.44 20.78 23.94 20.81 23.44C20.88 22.92 21.13 22.43 21.51 22.08C21.99 21.62 22.56 21.26 23.19 21.04C23.92 20.75 24.7 20.58 25.49 20.52L25.85 20.48L25.89 20.48L25.42 21.37C24.91 21.43 24.41 21.55 23.93 21.74C23.53 21.9 23.15 22.13 22.84 22.43C22.58 22.66 22.4 22.97 22.32 23.32C22.26 23.64 22.32 23.97 22.48 24.25L24.9 22.85L25.74 23.33L24.7 23.94L23.2 24.82C23.14 24.84 23.1 24.92 23.13 24.95L23.8 25.33C23.83 25.34 23.87 25.34 23.9 25.33C23.93 25.34 23.97 25.34 24 25.33L26.59 23.82L27.43 24.31L25.03 25.7C25.56 25.79 26.09 25.82 26.63 25.79C27.16 25.76 27.68 25.66 28.18 25.49C28.61 25.35 29.02 25.14 29.37 24.86C29.66 24.64 29.88 24.35 30.01 24.01L31.56 23.73C31.56 23.73 30.84 26.3 26.96 26.73Z" fill="#1D1D1B" fill-opacity="1.000000" fill-rule="nonzero"/>
		</g>
	</g>
</svg>
