<svg width="40.000000" height="40.000000" viewBox="0 0 40 40" fill="none" xmlns="http://www.w3.org/2000/svg" xmlns:xlink="http://www.w3.org/1999/xlink">
	<desc>
			Created with Pixso.
	</desc>
	<defs>
		<clipPath id="clip1_446">
			<rect id="Image [card-img]" width="40.000000" height="40.000000" fill="white" fill-opacity="0"/>
		</clipPath>
	</defs>
	<rect id="Image [card-img]" width="40.000000" height="40.000000" fill="#FFFFFF" fill-opacity="0"/>
	<g clip-path="url(#clip1_446)">
		<path id="Vector" d="M35.42 10.57C35.61 10.68 35.74 10.92 35.74 11.26L35.78 27.52C35.78 28.21 35.29 29.06 34.69 29.41L20.46 37.62C20.14 37.81 19.85 37.81 19.64 37.67C19.66 37.68 19.67 37.69 19.68 37.7L5.26 29.41C5.07 29.29 4.94 29.05 4.94 28.71L4.9 12.46C4.9 11.76 5.39 10.91 5.99 10.56L20.21 2.35C20.52 2.18 20.8 2.16 21 2.28L35.42 10.56L35.42 10.57Z" fill="#D5C8FB" fill-opacity="1.000000" fill-rule="nonzero"/>
		<path id="Vector" d="M35.74 11.26L35.78 27.52C35.78 28.21 35.29 29.06 34.69 29.41L20.46 37.62C20.14 37.81 19.85 37.81 19.64 37.67C19.66 37.68 19.67 37.69 19.68 37.7L5.26 29.41C5.07 29.29 4.94 29.05 4.94 28.71L4.9 12.46C4.9 11.76 5.39 10.91 5.99 10.56L20.21 2.35C20.52 2.18 20.8 2.16 21 2.28L35.42 10.56L35.42 10.57C35.61 10.68 35.74 10.92 35.74 11.26Z" stroke="#1D1D1B" stroke-opacity="1.000000" stroke-width="0.800000"/>
		<path id="Vector" d="M34.64 10.64C35.25 10.29 35.74 10.57 35.74 11.26L35.79 27.49C35.79 28.18 35.3 29.03 34.7 29.38L20.49 37.58C19.88 37.93 19.39 37.65 19.39 36.96L19.34 20.73C19.34 20.04 19.83 19.19 20.44 18.84L34.64 10.64Z" fill="#FFFFFF" fill-opacity="1.000000" fill-rule="nonzero"/>
		<path id="Vector" d="M35.74 11.26L35.79 27.49C35.79 28.18 35.3 29.03 34.7 29.38L20.49 37.58C19.88 37.93 19.39 37.65 19.39 36.96L19.34 20.73C19.34 20.04 19.83 19.19 20.44 18.84L34.64 10.64C35.25 10.29 35.74 10.57 35.74 11.26Z" stroke="#1D1D1B" stroke-opacity="1.000000" stroke-width="0.800000"/>
		<path id="Vector" d="M19.34 20.73L5 12.35C5 11.66 5.48 10.85 6.08 10.5L20.44 18.84C19.83 19.19 19.34 20.03 19.34 20.73Z" fill="#FFFFFF" fill-opacity="1.000000" fill-rule="nonzero"/>
		<path id="Vector" d="M5 12.35C5 11.66 5.48 10.85 6.08 10.5L20.44 18.84C19.83 19.19 19.34 20.03 19.34 20.73L5 12.35Z" stroke="#1D1D1B" stroke-opacity="1.000000" stroke-width="0.800000"/>
		<path id="Vector" d="M33.54 14.52C33.6 14.6 33.65 14.73 33.65 14.88L33.68 26.46C33.68 26.62 33.64 26.79 33.57 26.95C33.44 27.32 33.17 27.68 32.86 27.86L22.72 33.71C22.27 33.97 21.91 33.77 21.91 33.26L21.87 21.68C21.87 21.17 22.23 20.54 22.68 20.29L32.82 14.44C33.13 14.26 33.4 14.3 33.54 14.52Z" stroke="#1D1D1B" stroke-opacity="1.000000" stroke-width="0.800000"/>
		<mask id="mask1_458" mask-type="alpha" maskUnits="userSpaceOnUse" x="21.877686" y="14.332031" width="11.805847" height="19.498779">
			<path id="Vector" d="M32.82 14.44C33.13 14.26 33.4 14.3 33.54 14.52C33.6 14.6 33.64 14.73 33.65 14.88L33.68 26.47C33.68 26.62 33.64 26.79 33.57 26.95C33.44 27.33 33.17 27.68 32.86 27.86L22.72 33.71C22.27 33.97 21.91 33.77 21.91 33.26L21.87 21.68C21.87 21.17 22.23 20.55 22.68 20.29L32.82 14.44Z" fill="#C4C4C4" fill-opacity="1.000000" fill-rule="nonzero"/>
		</mask>
		<g mask="url(#mask1_458)">
			<path id="Vector" d="M26.16 25.69L19.84 21.7C19.71 21.62 19.72 21.43 19.86 21.36L23.48 19.48L29.74 23.42C29.87 23.5 29.86 23.69 29.73 23.76L26.16 25.69Z" fill="#EFE9FE" fill-opacity="1.000000" fill-rule="nonzero"/>
			<path id="Vector" d="M19.84 21.7C19.71 21.62 19.72 21.43 19.86 21.36L23.48 19.48L29.74 23.42C29.87 23.5 29.86 23.69 29.73 23.76L26.16 25.69L19.84 21.7Z" stroke="#1D1D1B" stroke-opacity="1.000000" stroke-width="0.800000" stroke-linejoin="round"/>
			<path id="Vector" d="M26.15 25.83L19.65 21.47L19.55 24.07L26.05 28.43L29.78 26.29L29.88 23.69L26.15 25.83Z" fill="#EFE9FE" fill-opacity="1.000000" fill-rule="nonzero"/>
			<path id="Vector" d="M19.65 21.47L19.55 24.07L26.05 28.43L29.78 26.29L29.88 23.69L26.15 25.83L19.65 21.47Z" stroke="#1D1D1B" stroke-opacity="1.000000" stroke-width="0.800000" stroke-linejoin="round"/>
			<path id="Vector" d="M22.27 27.76L15.96 23.77C15.83 23.69 15.84 23.5 15.97 23.43L19.59 21.56L25.86 25.5C25.98 25.58 25.98 25.76 25.85 25.83L22.27 27.76Z" fill="#EFE9FE" fill-opacity="1.000000" fill-rule="nonzero"/>
			<path id="Vector" d="M15.96 23.77C15.83 23.69 15.84 23.5 15.97 23.43L19.59 21.56L25.86 25.5C25.98 25.58 25.98 25.76 25.85 25.83L22.27 27.76L15.96 23.77Z" stroke="#1D1D1B" stroke-opacity="1.000000" stroke-width="0.800000" stroke-linejoin="round"/>
			<path id="Vector" d="M22.26 27.91L15.77 23.55L15.66 26.14L22.16 30.51L25.89 28.37L25.99 25.77L22.26 27.91Z" fill="#EFE9FE" fill-opacity="1.000000" fill-rule="nonzero"/>
			<path id="Vector" d="M15.77 23.55L15.66 26.14L22.16 30.51L25.89 28.37L25.99 25.77L22.26 27.91L15.77 23.55Z" stroke="#1D1D1B" stroke-opacity="1.000000" stroke-width="0.800000" stroke-linejoin="round"/>
		</g>
		<path id="Vector" d="M33.54 14.52C33.6 14.6 33.65 14.73 33.65 14.88L33.68 26.46C33.68 26.62 33.64 26.79 33.57 26.95C33.44 27.32 33.17 27.68 32.86 27.86L22.72 33.71C22.27 33.97 21.91 33.77 21.91 33.26L21.87 21.68C21.87 21.17 22.23 20.54 22.68 20.29L32.82 14.44C33.13 14.26 33.4 14.3 33.54 14.52Z" stroke="#1D1D1B" stroke-opacity="1.000000" stroke-width="0.800000"/>
		<path id="Vector" d="M32.38 14.8C32.46 14.8 33.45 15.06 33.87 15.16C33.95 15.18 33.97 15.28 33.91 15.33C32.86 16.23 26.12 22 25.92 22.12L24.78 23.22C24.72 23.27 24.63 23.25 24.61 23.18L24.32 22C24.28 21.83 24.34 21.64 24.48 21.53C25.79 20.44 32.28 14.8 32.38 14.8Z" fill="#1D1D1B" fill-opacity="1.000000" fill-rule="nonzero"/>
		<path id="Vector" d="M33.87 15.16C33.95 15.18 33.97 15.28 33.91 15.33C32.86 16.23 26.12 22 25.92 22.12L24.78 23.22C24.72 23.27 24.63 23.25 24.61 23.18L24.32 22C24.28 21.83 24.34 21.64 24.48 21.53C25.79 20.44 32.28 14.8 32.38 14.8C32.46 14.8 33.45 15.06 33.87 15.16Z" stroke="#1D1D1B" stroke-opacity="1.000000" stroke-width="0.800000"/>
		<path id="Vector" d="M25.92 35.15C25.92 35.31 25.74 35.4 25.61 35.31L24.33 34.37C24.28 34.34 24.25 34.28 24.25 34.22L24.25 21.95C24.25 21.8 24.4 21.71 24.53 21.78L25.82 22.47C25.88 22.5 25.92 22.57 25.92 22.64L25.92 35.15Z" fill="#1D1D1B" fill-opacity="1.000000" fill-rule="nonzero"/>
		<path id="Vector" d="M25.61 35.31L24.33 34.37C24.28 34.34 24.25 34.28 24.25 34.22L24.25 21.95C24.25 21.8 24.4 21.71 24.53 21.78L25.82 22.47C25.88 22.5 25.92 22.57 25.92 22.64L25.92 35.15C25.92 35.31 25.74 35.4 25.61 35.31Z" stroke="#1D1D1B" stroke-opacity="1.000000" stroke-width="0.800000" stroke-linejoin="round"/>
		<path id="Vector" d="M34.56 20.03C34.39 20.03 34.26 19.86 34.26 19.66L34.26 17.3C34.26 17.09 34.39 16.92 34.56 16.92C34.72 16.92 34.86 17.09 34.86 17.3L34.86 19.66C34.86 19.86 34.72 20.03 34.56 20.03Z" fill="#FFFFFF" fill-opacity="1.000000" fill-rule="nonzero"/>
		<path id="Vector" d="M34.26 19.66L34.26 17.3C34.26 17.09 34.39 16.92 34.56 16.92C34.72 16.92 34.86 17.09 34.86 17.3L34.86 19.66C34.86 19.86 34.72 20.03 34.56 20.03C34.39 20.03 34.26 19.86 34.26 19.66Z" stroke="#1D1D1B" stroke-opacity="1.000000" stroke-width="0.800000"/>
		<path id="Vector" d="M34.56 26C34.39 26 34.26 25.83 34.26 25.63L34.26 23.27C34.26 23.06 34.39 22.9 34.56 22.9C34.72 22.9 34.86 23.06 34.86 23.27L34.86 25.63C34.86 25.83 34.72 26 34.56 26Z" fill="#FFFFFF" fill-opacity="1.000000" fill-rule="nonzero"/>
		<path id="Vector" d="M34.26 25.63L34.26 23.27C34.26 23.06 34.39 22.9 34.56 22.9C34.72 22.9 34.86 23.06 34.86 23.27L34.86 25.63C34.86 25.83 34.72 26 34.56 26C34.39 26 34.26 25.83 34.26 25.63Z" stroke="#1D1D1B" stroke-opacity="1.000000" stroke-width="0.800000"/>
		<path id="Vector" d="M33.9 15.34C34.13 15.17 34.34 15.21 34.44 15.42C34.5 15.5 34.53 15.62 34.53 15.77L34.55 26.98C34.55 27.14 34.52 27.3 34.47 27.46C34.37 27.82 34.16 28.16 33.92 28.34L26.33 35.47C25.99 35.71 25.71 35.52 25.71 35.02L25.71 23.46C25.71 22.97 25.99 22.37 26.33 22.12L33.9 15.34Z" fill="#D5C8FB" fill-opacity="1.000000" fill-rule="nonzero"/>
		<path id="Vector" d="M34.44 15.42C34.5 15.5 34.53 15.62 34.53 15.77L34.55 26.98C34.55 27.14 34.52 27.3 34.47 27.46C34.37 27.82 34.16 28.16 33.92 28.34L26.33 35.47C25.99 35.71 25.71 35.52 25.71 35.02L25.71 23.46C25.71 22.97 25.99 22.37 26.33 22.12L33.9 15.34C34.13 15.17 34.34 15.21 34.44 15.42Z" stroke="#1D1D1B" stroke-opacity="1.000000" stroke-width="0.800000"/>
		<path id="Vector" d="M32.45 22.69C32.3 22.64 32.14 22.64 31.97 22.69C31.88 22.72 31.79 22.76 31.7 22.81C31.63 22.84 31.57 22.89 31.51 22.93C30.62 23.58 30.31 25.31 30.32 26.59C30.32 26.62 30.32 26.66 30.32 26.69C30.32 26.71 30.32 26.73 30.32 26.75C30.32 26.78 30.32 26.8 30.33 26.82C30.33 26.85 30.33 26.88 30.33 26.91C30.33 26.92 30.34 26.92 30.34 26.93C30.34 26.96 30.34 26.99 30.35 27.02C30.37 27.18 30.41 27.33 30.46 27.45C30.49 27.51 30.58 27.56 30.7 27.61C30.8 27.65 30.79 27.68 30.68 27.64L29.64 27.31C29.35 27.1 29.17 26.65 29.17 26.01C29.17 24.73 29.49 23.17 30.37 22.53C30.81 22.2 31.37 22.32 31.51 22.38C31.7 22.44 32.45 22.64 32.45 22.69Z" fill="#1D1D1B" fill-opacity="1.000000" fill-rule="nonzero"/>
		<path id="Vector" d="M31.97 22.69C31.88 22.72 31.79 22.76 31.7 22.81C31.63 22.84 31.57 22.89 31.51 22.93C30.62 23.58 30.31 25.31 30.32 26.59C30.32 26.62 30.32 26.66 30.32 26.69C30.32 26.71 30.32 26.73 30.32 26.75C30.32 26.78 30.32 26.8 30.33 26.82C30.33 26.85 30.33 26.88 30.33 26.91C30.33 26.92 30.34 26.92 30.34 26.93C30.34 26.96 30.34 26.99 30.35 27.02C30.37 27.18 30.41 27.33 30.46 27.45C30.49 27.51 30.58 27.56 30.7 27.61C30.8 27.65 30.79 27.68 30.68 27.64L29.64 27.31C29.35 27.1 29.17 26.65 29.17 26.01C29.17 24.73 29.49 23.17 30.37 22.53C30.81 22.2 31.37 22.32 31.51 22.38C31.7 22.44 32.45 22.64 32.45 22.69C32.3 22.64 32.14 22.64 31.97 22.69Z" stroke="#1D1D1B" stroke-opacity="1.000000" stroke-width="0.800000"/>
		<path id="Vector" d="M32.87 24.05C32.87 25.34 32.32 26.9 31.63 27.54C31.28 27.87 30.97 27.9 30.74 27.67C30.72 27.65 30.7 27.63 30.68 27.6C30.67 27.59 30.66 27.58 30.66 27.57C30.65 27.55 30.64 27.54 30.63 27.52C30.61 27.5 30.6 27.47 30.58 27.44L30.58 27.44C30.58 27.43 30.57 27.42 30.56 27.4C30.55 27.37 30.53 27.33 30.52 27.29C30.52 27.28 30.51 27.26 30.51 27.25C30.47 27.12 30.44 26.98 30.42 26.81C30.41 26.79 30.41 26.76 30.41 26.72C30.41 26.72 30.41 26.71 30.41 26.71C30.4 26.68 30.4 26.65 30.4 26.62C30.4 26.59 30.4 26.57 30.4 26.55C30.39 26.53 30.39 26.51 30.39 26.48C30.39 26.45 30.39 26.42 30.39 26.39C30.39 25.1 30.94 23.54 31.63 22.9C31.67 22.85 31.72 22.81 31.77 22.78C31.84 22.72 31.92 22.68 31.98 22.66C32.12 22.61 32.24 22.61 32.35 22.66C32.37 22.66 32.38 22.67 32.39 22.67C32.41 22.68 32.42 22.69 32.44 22.7C32.45 22.71 32.46 22.72 32.47 22.73C32.48 22.73 32.48 22.74 32.49 22.74C32.49 22.75 32.5 22.75 32.5 22.75C32.73 22.96 32.87 23.41 32.87 24.05Z" fill="#EFE9FE" fill-opacity="1.000000" fill-rule="nonzero"/>
		<path id="Vector" d="M31.63 27.54C31.28 27.87 30.97 27.9 30.74 27.67C30.72 27.65 30.7 27.63 30.68 27.6C30.67 27.59 30.66 27.58 30.66 27.57C30.65 27.55 30.64 27.54 30.63 27.52C30.61 27.5 30.6 27.47 30.58 27.44L30.58 27.44C30.58 27.43 30.57 27.42 30.56 27.4C30.55 27.37 30.53 27.33 30.52 27.29C30.52 27.28 30.51 27.26 30.51 27.25C30.47 27.12 30.44 26.98 30.42 26.81C30.41 26.79 30.41 26.76 30.41 26.72C30.41 26.72 30.41 26.71 30.41 26.71C30.4 26.68 30.4 26.65 30.4 26.62C30.4 26.59 30.4 26.57 30.4 26.55C30.39 26.53 30.39 26.51 30.39 26.48C30.39 26.45 30.39 26.42 30.39 26.39C30.39 25.1 30.94 23.54 31.63 22.9C31.67 22.85 31.72 22.81 31.77 22.78C31.84 22.72 31.92 22.68 31.98 22.66C32.12 22.61 32.24 22.61 32.35 22.66C32.37 22.66 32.38 22.67 32.39 22.67C32.41 22.68 32.42 22.69 32.44 22.7C32.45 22.71 32.46 22.72 32.47 22.73C32.48 22.73 32.48 22.74 32.49 22.74C32.49 22.75 32.5 22.75 32.5 22.75C32.73 22.96 32.87 23.41 32.87 24.05C32.87 25.34 32.32 26.9 31.63 27.54Z" stroke="#1D1D1B" stroke-opacity="1.000000" stroke-width="0.800000"/>
		<path id="Vector" d="M31.97 24.88L31.97 22.73" stroke="#1D1D1B" stroke-opacity="1.000000" stroke-width="0.800000" stroke-linejoin="round"/>
	</g>
</svg>
