<svg width="40.000000" height="40.000000" viewBox="0 0 40 40" fill="none" xmlns="http://www.w3.org/2000/svg" xmlns:xlink="http://www.w3.org/1999/xlink">
	<desc>
			Created with Pixso.
	</desc>
	<defs>
		<clipPath id="clip1_480">
			<rect id="Image [card-img]" width="40.000000" height="40.000000" fill="white" fill-opacity="0"/>
		</clipPath>
	</defs>
	<rect id="Image [card-img]" width="40.000000" height="40.000000" fill="#FFFFFF" fill-opacity="0"/>
	<g clip-path="url(#clip1_480)">
		<mask id="mask1_489" mask-type="alpha" maskUnits="userSpaceOnUse" x="0.836487" y="0.579346" width="39.024353" height="39.024414">
			<path id="Vector" d="M0.83 0.57L39.86 0.57L39.86 39.6L0.83 39.6L0.83 0.57Z" fill="#000000" fill-opacity="1.000000" fill-rule="evenodd"/>
		</mask>
		<g mask="url(#mask1_489)">
			<path id="Vector" d="M10.08 37.01L10.08 9.98C10.08 9.84 10.16 9.72 10.28 9.65L21.23 3.3C21.25 3.29 21.27 3.28 21.28 3.28L21.62 3.28C21.69 3.28 21.75 3.31 21.79 3.37C23.19 5.74 25.47 14.85 26.33 18.09C26.41 18.39 26.34 18.71 26.15 18.95L11.26 37.53C11.2 37.6 11.1 37.62 11.02 37.58L10.19 37.18C10.13 37.15 10.08 37.08 10.08 37.01Z" fill="#1D1D1B" fill-opacity="1.000000" fill-rule="nonzero"/>
			<path id="Vector" d="M10.08 9.98C10.08 9.84 10.16 9.72 10.28 9.65L21.23 3.3C21.25 3.29 21.27 3.28 21.28 3.28L21.62 3.28C21.69 3.28 21.75 3.31 21.79 3.37C23.19 5.74 25.47 14.85 26.33 18.09C26.41 18.39 26.34 18.71 26.15 18.95L11.26 37.53C11.2 37.6 11.1 37.62 11.02 37.58L10.19 37.18C10.13 37.15 10.08 37.08 10.08 37.01L10.08 9.98Z" stroke="#1D1D1B" stroke-opacity="1.000000" stroke-width="1.000000"/>
			<path id="Vector" d="M11.16 9.87C11.16 9.76 11.24 9.63 11.33 9.57L21.75 3.56C21.8 3.53 21.84 3.53 21.87 3.54L28.56 7.4C28.59 7.42 28.61 7.46 28.61 7.52C28.61 15.14 28.61 18.64 28.61 27.38C28.61 27.49 28.53 27.62 28.44 27.67L11.33 37.55C11.24 37.6 11.16 37.56 11.16 37.45L11.16 9.87Z" fill="#D5C8FB" fill-opacity="1.000000" fill-rule="nonzero"/>
			<path id="Vector" d="M11.33 9.57L21.75 3.56C21.8 3.53 21.84 3.53 21.87 3.54L28.56 7.4C28.59 7.42 28.61 7.46 28.61 7.52C28.61 15.14 28.61 18.64 28.61 27.38C28.61 27.49 28.53 27.62 28.44 27.67L11.33 37.55C11.24 37.6 11.16 37.56 11.16 37.45L11.16 9.87C11.16 9.76 11.24 9.63 11.33 9.57Z" stroke="#1D1D1B" stroke-opacity="1.000000" stroke-width="1.000000"/>
			<path id="Vector" d="M28.32 7.27L22.11 3.68C22 3.62 21.82 3.81 21.82 3.99L21.82 11.15C21.82 11.26 21.9 11.31 21.99 11.25L28.2 7.67C28.35 7.58 28.42 7.33 28.32 7.27Z" fill="#EFE9FE" fill-opacity="1.000000" fill-rule="nonzero"/>
			<path id="Vector" d="M22.11 3.68C22 3.62 21.82 3.81 21.82 3.99L21.82 11.15C21.82 11.26 21.9 11.31 21.99 11.25L28.2 7.67C28.35 7.58 28.42 7.33 28.32 7.27L22.11 3.68Z" stroke="#1D1D1B" stroke-opacity="1.000000" stroke-width="1.000000"/>
			<path id="Vector" d="M20.97 11.35C20.97 11.62 21.19 11.84 21.46 11.84C21.73 11.84 21.94 11.62 21.94 11.35L20.97 11.35ZM20.97 4.08L20.97 11.35L21.94 11.35L21.94 4.08L20.97 4.08Z" fill="#1D1D1B" fill-opacity="1.000000" fill-rule="nonzero"/>
			<path id="Vector" d="M25.71 13.98L14.52 20.44L14.52 30.45L25.71 23.99L25.71 13.98Z" fill="#FFFFFF" fill-opacity="1.000000" fill-rule="nonzero"/>
			<path id="Vector" d="M25.71 13.98L25.71 23.99L14.52 30.45L14.52 20.44L25.71 13.98Z" stroke="#1D1D1B" stroke-opacity="1.000000" stroke-width="1.000000" stroke-linejoin="round"/>
			<path id="Vector" d="M23.47 17.16C23.51 17.16 23.52 17.21 23.5 17.27C22.92 18.81 22.4 20.11 21.93 21.2C22.01 21.43 22.07 21.66 22.13 21.88C22.23 22.3 22.29 22.68 22.29 22.97C22.29 23.12 22.28 23.24 22.23 23.36C22.21 23.4 22.19 23.44 22.15 23.48C22.13 23.5 22.1 23.53 22.08 23.54C21.99 23.59 21.93 23.57 21.86 23.54C21.79 23.51 21.71 23.46 21.64 23.38C21.5 23.26 21.35 23.1 21.18 22.9C20.45 24.49 19.88 25.49 19.43 26.09C19.15 26.47 18.92 26.7 18.71 26.82C18.63 26.86 18.56 26.89 18.49 26.91C18.3 26.94 18.13 26.87 18 26.72C17.86 26.56 17.76 26.33 17.67 26.05C17.5 25.49 17.42 24.71 17.42 23.92C17.41 23.38 17.45 22.84 17.52 22.34C17.59 21.84 17.7 21.38 17.85 21.02C17.95 20.78 18.07 20.57 18.22 20.43C18.27 20.38 18.32 20.35 18.36 20.32C18.5 20.24 18.64 20.22 18.79 20.24C18.93 20.27 19.07 20.33 19.22 20.42C19.51 20.6 19.8 20.89 20.1 21.21C20.14 20.83 20.19 20.49 20.26 20.21C20.31 19.98 20.37 19.79 20.46 19.64C20.5 19.55 20.56 19.47 20.63 19.42L20.67 19.4C20.75 19.36 20.82 19.35 20.89 19.37C20.96 19.4 21.03 19.44 21.09 19.51C21.23 19.63 21.36 19.84 21.48 20.09C21.62 20.35 21.75 20.67 21.87 21C22.31 19.95 22.8 18.71 23.35 17.26C23.37 17.22 23.4 17.19 23.43 17.17L23.47 17.16ZM20.29 24.41C20.53 23.96 20.79 23.41 21.08 22.78C20.81 22.45 20.52 22.07 20.22 21.71C20.18 22.12 20.16 22.57 20.15 23.04C20.15 23.09 20.11 23.15 20.06 23.18C20.01 23.21 19.97 23.19 19.98 23.13C20 22.56 20.02 22.02 20.07 21.54C19.94 21.39 19.81 21.25 19.69 21.13C19.37 20.81 19.05 20.56 18.77 20.48C18.62 20.44 18.47 20.45 18.36 20.52C18.33 20.54 18.3 20.56 18.26 20.59C18.17 20.68 18.08 20.83 17.99 21.04C17.9 21.25 17.83 21.52 17.77 21.81C17.64 22.4 17.58 23.12 17.58 23.82C17.59 24.41 17.63 24.98 17.72 25.46C17.82 25.94 17.96 26.32 18.14 26.53C18.26 26.67 18.4 26.72 18.54 26.7C18.59 26.68 18.65 26.66 18.71 26.63C18.87 26.53 19.08 26.34 19.33 25.99C19.6 25.64 19.91 25.13 20.29 24.41ZM20.25 21.38C20.58 21.77 20.9 22.19 21.19 22.54C21.37 22.16 21.55 21.74 21.74 21.28C21.6 20.86 21.43 20.45 21.26 20.14C21.12 19.88 20.96 19.68 20.83 19.61C20.76 19.57 20.7 19.58 20.67 19.6L20.65 19.61C20.63 19.62 20.61 19.65 20.58 19.7C20.55 19.76 20.51 19.83 20.48 19.93C20.42 20.12 20.37 20.38 20.32 20.69C20.29 20.9 20.27 21.13 20.25 21.38ZM22.12 23.07C22.12 22.73 22.01 22.19 21.86 21.64C21.84 21.59 21.82 21.54 21.81 21.49C21.63 21.91 21.46 22.3 21.29 22.67C21.45 22.86 21.6 23.03 21.72 23.15C21.84 23.26 21.94 23.33 22.01 23.34C22.05 23.35 22.07 23.35 22.08 23.34L22.08 23.33C22.09 23.32 22.09 23.3 22.1 23.28C22.11 23.23 22.12 23.15 22.12 23.07Z" fill="#1D1D1B" fill-opacity="1.000000" fill-rule="nonzero"/>
			<path id="Vector" d="M23.5 17.27C22.92 18.81 22.4 20.11 21.93 21.2C22.01 21.43 22.07 21.66 22.13 21.88C22.23 22.3 22.29 22.68 22.29 22.97C22.29 23.12 22.28 23.24 22.23 23.36C22.21 23.4 22.19 23.44 22.15 23.48C22.13 23.5 22.1 23.53 22.08 23.54C21.99 23.59 21.93 23.57 21.86 23.54C21.79 23.51 21.71 23.46 21.64 23.38C21.5 23.26 21.35 23.1 21.18 22.9C20.45 24.49 19.88 25.49 19.43 26.09C19.15 26.47 18.92 26.7 18.71 26.82C18.63 26.86 18.56 26.89 18.49 26.91C18.3 26.94 18.13 26.87 18 26.72C17.86 26.56 17.76 26.33 17.67 26.05C17.5 25.49 17.42 24.71 17.42 23.92C17.41 23.38 17.45 22.84 17.52 22.34C17.59 21.84 17.7 21.38 17.85 21.02C17.95 20.78 18.07 20.57 18.22 20.43C18.27 20.38 18.32 20.35 18.36 20.32C18.5 20.24 18.64 20.22 18.79 20.24C18.93 20.27 19.07 20.33 19.22 20.42C19.51 20.6 19.8 20.89 20.1 21.21C20.14 20.83 20.19 20.49 20.26 20.21C20.31 19.98 20.37 19.79 20.46 19.64C20.5 19.55 20.56 19.47 20.63 19.42L20.67 19.4C20.75 19.36 20.82 19.35 20.89 19.37C20.96 19.4 21.03 19.44 21.09 19.51C21.23 19.63 21.36 19.84 21.48 20.09C21.62 20.35 21.75 20.67 21.87 21C22.31 19.95 22.8 18.71 23.35 17.26C23.37 17.22 23.4 17.19 23.43 17.17L23.47 17.16C23.51 17.16 23.52 17.21 23.5 17.27ZM21.08 22.78C20.81 22.45 20.52 22.07 20.22 21.71C20.18 22.12 20.16 22.57 20.15 23.04C20.15 23.09 20.11 23.15 20.06 23.18C20.01 23.21 19.97 23.19 19.98 23.13C20 22.56 20.02 22.02 20.07 21.54C19.94 21.39 19.81 21.25 19.69 21.13C19.37 20.81 19.05 20.56 18.77 20.48C18.62 20.44 18.47 20.45 18.36 20.52C18.33 20.54 18.3 20.56 18.26 20.59C18.17 20.68 18.08 20.83 17.99 21.04C17.9 21.25 17.83 21.52 17.77 21.81C17.64 22.4 17.58 23.12 17.58 23.82C17.59 24.41 17.63 24.98 17.72 25.46C17.82 25.94 17.96 26.32 18.14 26.53C18.26 26.67 18.4 26.72 18.54 26.7C18.59 26.68 18.65 26.66 18.71 26.63C18.87 26.53 19.08 26.34 19.33 25.99C19.6 25.64 19.91 25.13 20.29 24.41C20.53 23.96 20.79 23.41 21.08 22.78ZM21.19 22.54C21.37 22.16 21.55 21.74 21.74 21.28C21.6 20.86 21.43 20.45 21.26 20.14C21.12 19.88 20.96 19.68 20.83 19.61C20.76 19.57 20.7 19.58 20.67 19.6L20.65 19.61C20.63 19.62 20.61 19.65 20.58 19.7C20.55 19.76 20.51 19.83 20.48 19.93C20.42 20.12 20.37 20.38 20.32 20.69C20.29 20.9 20.27 21.13 20.25 21.38C20.58 21.77 20.9 22.19 21.19 22.54ZM21.86 21.64C21.84 21.59 21.82 21.54 21.81 21.49C21.63 21.91 21.46 22.3 21.29 22.67C21.45 22.86 21.6 23.03 21.72 23.15C21.84 23.26 21.94 23.33 22.01 23.34C22.05 23.35 22.07 23.35 22.08 23.34L22.08 23.33C22.09 23.32 22.09 23.3 22.1 23.28C22.11 23.23 22.12 23.15 22.12 23.07C22.12 22.73 22.01 22.19 21.86 21.64Z" stroke="#1D1D1B" stroke-opacity="1.000000" stroke-width="0.200000"/>
		</g>
	</g>
</svg>
