<svg width="40.000000" height="40.000000" viewBox="0 0 40 40" fill="none" xmlns="http://www.w3.org/2000/svg" xmlns:xlink="http://www.w3.org/1999/xlink">
	<desc>
			Created with Pixso.
	</desc>
	<defs>
		<clipPath id="clip1_500">
			<rect id="Image [card-img]" width="40.000000" height="40.000000" fill="white" fill-opacity="0"/>
		</clipPath>
	</defs>
	<rect id="Image [card-img]" width="40.000000" height="40.000000" fill="#FFFFFF" fill-opacity="0"/>
	<g clip-path="url(#clip1_500)">
		<mask id="mask1_555" mask-type="alpha" maskUnits="userSpaceOnUse" x="0.836426" y="0.579346" width="39.024414" height="39.024414">
			<path id="Vector" d="M0.83 0.57L39.86 0.57L39.86 39.6L0.83 39.6L0.83 0.57Z" fill="#000000" fill-opacity="1.000000" fill-rule="evenodd"/>
		</mask>
		<g mask="url(#mask1_555)">
			<path id="Vector" d="M32.08 5.21L33.76 6.22C33.82 6.25 33.86 6.32 33.86 6.39L33.86 8.07C33.86 8.14 33.82 8.21 33.76 8.24L10.64 21.28C10.58 21.32 10.5 21.32 10.44 21.28L7.85 19.66C7.79 19.62 7.76 19.56 7.76 19.49L7.76 18.2C7.76 18.16 7.77 18.12 7.8 18.08L19.01 4.07C19.05 4.02 19.11 3.99 19.18 4L32.04 5.2C32.05 5.2 32.07 5.2 32.08 5.21Z" fill="#1D1D1B" fill-opacity="1.000000" fill-rule="nonzero"/>
			<path id="Vector" d="M33.76 6.22C33.82 6.25 33.86 6.32 33.86 6.39L33.86 8.07C33.86 8.14 33.82 8.21 33.76 8.24L10.64 21.28C10.58 21.32 10.5 21.32 10.44 21.28L7.85 19.66C7.79 19.62 7.76 19.56 7.76 19.49L7.76 18.2C7.76 18.16 7.77 18.12 7.8 18.08L19.01 4.07C19.05 4.02 19.11 3.99 19.18 4L32.04 5.2C32.05 5.2 32.07 5.2 32.08 5.21L33.76 6.22Z" stroke="#1D1D1B" stroke-opacity="1.000000" stroke-width="0.800000" stroke-linejoin="round"/>
			<path id="Vector" d="M8.55 32.72C8.22 32.53 8.22 32.22 8.55 32.04L29.3 20.05C29.4 20 29.55 20 29.64 20.05L33.39 22.22C33.72 22.41 33.72 22.72 33.39 22.91L12.64 34.89C12.55 34.94 12.4 34.94 12.31 34.89L8.55 32.72Z" fill="#D5C8FB" fill-opacity="1.000000" fill-rule="nonzero"/>
			<path id="Vector" d="M8.55 32.04L29.3 20.05C29.4 20 29.55 20 29.64 20.05L33.39 22.22C33.72 22.41 33.72 22.72 33.39 22.91L12.64 34.89C12.55 34.94 12.4 34.94 12.31 34.89L8.55 32.72C8.22 32.53 8.22 32.22 8.55 32.04Z" stroke="#1D1D1B" stroke-opacity="1.000000" stroke-width="0.800000" stroke-linejoin="round"/>
			<path id="Vector" d="M30.85 22.75C30.86 22.75 30.86 22.75 30.86 22.75C30.86 22.75 30.86 22.71 30.86 22.66C30.86 22.63 30.86 22.6 30.86 22.58C30.86 22.33 30.86 21.86 30.86 21.65C30.87 21.34 30.67 21.02 30.25 20.78C29.43 20.31 28.11 20.31 27.29 20.78C26.88 21.02 26.67 21.34 26.68 21.65C26.69 21.86 26.68 22.33 26.68 22.58C26.68 22.6 26.68 22.63 26.68 22.66C26.68 22.71 26.68 22.75 26.68 22.75C26.69 22.75 26.69 22.75 26.69 22.75C26.74 23.02 26.94 23.27 27.29 23.48C28.11 23.95 29.43 23.95 30.25 23.48C30.6 23.27 30.8 23.02 30.85 22.75Z" fill="#D5C8FB" fill-opacity="1.000000" fill-rule="evenodd"/>
			<path id="Vector" d="M30.86 22.74C30.87 23.06 30.67 23.37 30.25 23.61C29.43 24.09 28.11 24.09 27.29 23.61C26.88 23.37 26.67 23.06 26.68 22.74C26.68 22.69 26.69 21.94 26.68 21.65C26.67 21.34 26.88 21.02 27.29 20.78C28.11 20.31 29.43 20.31 30.25 20.78C30.67 21.02 30.87 21.34 30.86 21.65C30.86 21.94 30.86 22.69 30.86 22.74Z" fill="#EFE9FE" fill-opacity="1.000000" fill-rule="evenodd"/>
			<mask id="mask1_509" mask-type="alpha" maskUnits="userSpaceOnUse" x="25.711060" y="19.455078" width="6.829224" height="5.853760">
				<path id="Vector" d="M25.71 19.45L32.54 19.45L32.54 25.3L25.71 25.3L25.71 19.45Z" fill="#FFFFFF" fill-opacity="1.000000" fill-rule="evenodd"/>
				<path id="Vector" d="M30.86 22.74C30.87 23.06 30.67 23.37 30.25 23.61C29.43 24.09 28.11 24.09 27.29 23.61C26.88 23.37 26.67 23.06 26.68 22.74C26.68 22.69 26.69 21.94 26.68 21.65C26.67 21.34 26.88 21.02 27.29 20.78C28.11 20.31 29.43 20.31 30.25 20.78C30.67 21.02 30.87 21.34 30.86 21.65C30.86 21.94 30.86 22.69 30.86 22.74Z" fill="#000000" fill-opacity="1.000000" fill-rule="evenodd"/>
			</mask>
			<g mask="url(#mask1_509)">
				<path id="Vector" d="M30.86 22.74L30.08 22.74L30.08 22.75L30.08 22.76L30.86 22.74ZM26.68 22.74L27.46 22.76L27.46 22.75L26.68 22.74ZM30.86 22.74L31.64 22.74L31.64 22.74L30.86 22.74ZM30.08 22.76C30.08 22.74 30.09 22.74 30.07 22.76C30.05 22.8 29.99 22.86 29.86 22.94L30.64 24.29C31.2 23.97 31.66 23.43 31.64 22.72L30.08 22.76ZM29.86 22.94C29.6 23.09 29.21 23.19 28.77 23.19C28.34 23.19 27.95 23.09 27.68 22.94L26.9 24.29C27.46 24.61 28.14 24.75 28.77 24.75C29.41 24.75 30.09 24.61 30.64 24.29L29.86 22.94ZM27.68 22.94C27.55 22.86 27.49 22.8 27.47 22.76C27.45 22.74 27.46 22.74 27.46 22.76L25.9 22.72C25.88 23.43 26.34 23.97 26.9 24.29L27.68 22.94ZM27.46 22.75C27.46 22.71 27.47 21.94 27.46 21.63L25.9 21.67C25.91 21.95 25.9 22.68 25.9 22.74L27.46 22.75ZM27.46 21.63C27.46 21.66 27.45 21.66 27.47 21.63C27.49 21.6 27.55 21.53 27.68 21.46L26.9 20.1C26.34 20.43 25.88 20.97 25.9 21.67L27.46 21.63ZM27.68 21.46C27.95 21.3 28.34 21.21 28.77 21.21C29.21 21.21 29.6 21.3 29.86 21.46L30.64 20.1C30.09 19.78 29.41 19.65 28.77 19.65C28.14 19.65 27.46 19.78 26.9 20.1L27.68 21.46ZM29.86 21.46C29.99 21.53 30.05 21.6 30.07 21.63C30.09 21.66 30.08 21.66 30.08 21.63L31.64 21.67C31.66 20.97 31.2 20.43 30.64 20.1L29.86 21.46ZM30.08 21.63C30.08 21.94 30.08 22.71 30.08 22.75L31.64 22.74C31.64 22.68 31.64 21.95 31.64 21.67L30.08 21.63Z" fill="#1D1D1B" fill-opacity="1.000000" fill-rule="nonzero"/>
			</g>
			<path id="Vector" d="M27.56 11.16L29.98 11.16L29.98 20.83C29.98 20.83 29.98 21.23 28.77 21.23C27.56 21.23 27.56 20.83 27.56 20.83L27.56 11.16Z" fill="#FFFFFF" fill-opacity="1.000000" fill-rule="nonzero"/>
			<path id="Vector" d="M27.17 10.77L27.17 11.16L27.17 20.83L27.56 20.83C27.17 20.83 27.17 20.83 27.17 20.83L27.17 20.83L27.17 20.83L27.17 20.84L27.17 20.85C27.17 20.85 27.18 20.86 27.18 20.87C27.18 20.89 27.18 20.91 27.18 20.93C27.19 20.97 27.21 21.01 27.23 21.07C27.29 21.17 27.37 21.27 27.5 21.35C27.74 21.52 28.14 21.62 28.77 21.62C29.41 21.62 29.8 21.52 30.05 21.35C30.17 21.27 30.26 21.17 30.31 21.07C30.34 21.01 30.35 20.97 30.36 20.93C30.36 20.91 30.37 20.89 30.37 20.87C30.37 20.86 30.37 20.85 30.37 20.85L30.37 20.84L30.37 20.83L30.37 20.83L30.37 20.83C30.37 20.83 30.37 20.83 29.98 20.83L30.37 20.83L30.37 11.16L30.37 10.77L29.98 10.77L27.56 10.77L27.17 10.77Z" stroke="#1D1D1B" stroke-opacity="1.000000" stroke-width="0.800000"/>
			<path id="Vector" d="M30.86 11.46C30.87 11.78 30.67 12.09 30.25 12.33C29.43 12.81 28.11 12.81 27.29 12.33C26.88 12.09 26.67 11.78 26.68 11.46C26.68 11.41 26.69 10.66 26.68 10.37C26.67 10.05 26.88 9.74 27.29 9.5C28.11 9.03 29.43 9.03 30.25 9.5C30.67 9.74 30.87 10.05 30.86 10.37C30.86 10.66 30.86 11.41 30.86 11.46Z" fill="#EFE9FE" fill-opacity="1.000000" fill-rule="evenodd"/>
			<mask id="mask1_517" mask-type="alpha" maskUnits="userSpaceOnUse" x="25.711060" y="8.174561" width="6.829224" height="5.853760">
				<path id="Vector" d="M25.71 8.17L32.54 8.17L32.54 14.02L25.71 14.02L25.71 8.17Z" fill="#FFFFFF" fill-opacity="1.000000" fill-rule="evenodd"/>
				<path id="Vector" d="M30.86 11.46C30.87 11.78 30.67 12.09 30.25 12.33C29.43 12.81 28.11 12.81 27.29 12.33C26.88 12.09 26.67 11.78 26.68 11.46C26.68 11.41 26.69 10.66 26.68 10.37C26.67 10.05 26.88 9.74 27.29 9.5C28.11 9.03 29.43 9.03 30.25 9.5C30.67 9.74 30.87 10.05 30.86 10.37C30.86 10.66 30.86 11.41 30.86 11.46Z" fill="#000000" fill-opacity="1.000000" fill-rule="evenodd"/>
			</mask>
			<g mask="url(#mask1_517)">
				<path id="Vector" d="M30.86 11.46L30.08 11.46L30.08 11.47L30.08 11.48L30.86 11.46ZM26.68 11.46L27.46 11.48L27.46 11.47L26.68 11.46ZM30.86 11.46L31.64 11.46L31.64 11.46L30.86 11.46ZM30.08 11.48C30.08 11.46 30.09 11.46 30.07 11.48C30.05 11.52 29.99 11.58 29.86 11.66L30.64 13.01C31.2 12.69 31.66 12.14 31.64 11.44L30.08 11.48ZM29.86 11.66C29.6 11.81 29.21 11.91 28.77 11.91C28.34 11.91 27.95 11.81 27.68 11.66L26.9 13.01C27.46 13.33 28.14 13.47 28.77 13.47C29.41 13.47 30.09 13.33 30.64 13.01L29.86 11.66ZM27.68 11.66C27.55 11.58 27.49 11.52 27.47 11.48C27.45 11.46 27.46 11.46 27.46 11.48L25.9 11.44C25.88 12.14 26.34 12.69 26.9 13.01L27.68 11.66ZM27.46 11.47C27.46 11.43 27.47 10.66 27.46 10.35L25.9 10.39C25.91 10.66 25.9 11.4 25.9 11.46L27.46 11.47ZM27.46 10.35C27.46 10.38 27.45 10.38 27.47 10.35C27.49 10.32 27.55 10.25 27.68 10.17L26.9 8.82C26.34 9.15 25.88 9.69 25.9 10.39L27.46 10.35ZM27.68 10.17C27.95 10.02 28.34 9.93 28.77 9.93C29.21 9.93 29.6 10.02 29.86 10.17L30.64 8.82C30.09 8.5 29.41 8.36 28.77 8.36C28.14 8.36 27.46 8.5 26.9 8.82L27.68 10.17ZM29.86 10.17C29.99 10.25 30.05 10.32 30.07 10.35C30.09 10.38 30.08 10.38 30.08 10.35L31.64 10.39C31.66 9.69 31.2 9.15 30.64 8.82L29.86 10.17ZM30.08 10.35C30.08 10.66 30.08 11.43 30.08 11.47L31.64 11.46C31.64 11.4 31.64 10.66 31.64 10.39L30.08 10.35Z" fill="#1D1D1B" fill-opacity="1.000000" fill-rule="nonzero"/>
			</g>
			<path id="Vector" d="M23.68 26.94C23.68 26.93 23.69 26.93 23.69 26.93C23.69 26.93 23.69 26.9 23.69 26.84C23.69 26.82 23.69 26.79 23.69 26.76C23.69 26.51 23.68 26.05 23.69 25.83C23.7 25.52 23.49 25.2 23.08 24.96C22.26 24.49 20.94 24.49 20.12 24.96C19.7 25.2 19.5 25.52 19.51 25.83C19.51 26.05 19.51 26.51 19.51 26.76C19.51 26.79 19.51 26.82 19.51 26.84C19.51 26.9 19.51 26.93 19.51 26.93C19.51 26.93 19.52 26.93 19.52 26.94C19.57 27.2 19.77 27.46 20.12 27.66C20.94 28.13 22.26 28.13 23.08 27.66C23.43 27.46 23.63 27.2 23.68 26.94Z" fill="#D5C8FB" fill-opacity="1.000000" fill-rule="evenodd"/>
			<path id="Vector" d="M19.51 26.93C19.51 26.88 19.51 26.13 19.51 25.83C19.5 25.52 19.7 25.2 20.12 24.96C20.94 24.49 22.26 24.49 23.08 24.96C23.49 25.2 23.7 25.52 23.69 25.83C23.68 26.13 23.69 26.88 23.69 26.93C23.7 27.24 23.49 27.56 23.08 27.8C22.26 28.27 20.94 28.27 20.12 27.8C19.7 27.56 19.5 27.24 19.51 26.93Z" fill="#EFE9FE" fill-opacity="1.000000" fill-rule="evenodd"/>
			<mask id="mask1_524" mask-type="alpha" maskUnits="userSpaceOnUse" x="18.537109" y="23.639648" width="6.829224" height="5.853760">
				<path id="Vector" d="M18.53 23.63L25.36 23.63L25.36 29.49L18.53 29.49L18.53 23.63Z" fill="#FFFFFF" fill-opacity="1.000000" fill-rule="evenodd"/>
				<path id="Vector" d="M19.51 26.93C19.51 26.88 19.51 26.13 19.51 25.83C19.5 25.52 19.7 25.2 20.12 24.96C20.94 24.49 22.26 24.49 23.08 24.96C23.49 25.2 23.7 25.52 23.69 25.83C23.68 26.13 23.69 26.88 23.69 26.93C23.7 27.24 23.49 27.56 23.08 27.8C22.26 28.27 20.94 28.27 20.12 27.8C19.7 27.56 19.5 27.24 19.51 26.93Z" fill="#000000" fill-opacity="1.000000" fill-rule="evenodd"/>
			</mask>
			<g mask="url(#mask1_524)">
				<path id="Vector" d="M19.51 26.93L20.29 26.95L20.29 26.93L19.51 26.93ZM23.69 26.93L22.91 26.93L22.91 26.95L23.69 26.93ZM20.29 26.93C20.29 26.89 20.3 26.12 20.29 25.82L18.73 25.85C18.73 26.13 18.73 26.86 18.73 26.92L20.29 26.93ZM20.29 25.82C20.29 25.84 20.28 25.84 20.3 25.81C20.32 25.78 20.38 25.71 20.51 25.64L19.73 24.29C19.17 24.61 18.71 25.15 18.73 25.85L20.29 25.82ZM20.51 25.64C20.77 25.49 21.16 25.39 21.6 25.39C22.03 25.39 22.43 25.49 22.69 25.64L23.47 24.29C22.91 23.97 22.23 23.83 21.6 23.83C20.96 23.83 20.28 23.97 19.73 24.29L20.51 25.64ZM22.69 25.64C22.82 25.71 22.88 25.78 22.9 25.81C22.92 25.84 22.91 25.84 22.91 25.82L24.47 25.85C24.49 25.15 24.03 24.61 23.47 24.29L22.69 25.64ZM22.91 25.82C22.9 26.12 22.91 26.89 22.91 26.93L24.47 26.92C24.47 26.86 24.46 26.13 24.47 25.85L22.91 25.82ZM22.91 26.95C22.91 26.92 22.92 26.92 22.9 26.95C22.88 26.98 22.82 27.05 22.69 27.12L23.47 28.48C24.03 28.15 24.49 27.61 24.47 26.91L22.91 26.95ZM22.69 27.12C22.43 27.27 22.03 27.37 21.6 27.37C21.16 27.37 20.77 27.27 20.51 27.12L19.73 28.48C20.28 28.8 20.96 28.93 21.6 28.93C22.23 28.93 22.91 28.8 23.47 28.48L22.69 27.12ZM20.51 27.12C20.38 27.05 20.32 26.98 20.3 26.95C20.28 26.92 20.29 26.92 20.29 26.95L18.73 26.91C18.71 27.61 19.17 28.15 19.73 28.48L20.51 27.12Z" fill="#1D1D1B" fill-opacity="1.000000" fill-rule="nonzero"/>
			</g>
			<path id="Vector" d="M20.39 15.34L22.81 15.34L22.81 25.01C22.81 25.01 22.81 25.42 21.6 25.42C20.39 25.42 20.39 25.01 20.39 25.01L20.39 15.34Z" fill="#FFFFFF" fill-opacity="1.000000" fill-rule="nonzero"/>
			<path id="Vector" d="M20 14.95L20 15.34L20 25.01L20.39 25.01C20 25.01 20 25.01 20 25.01L20 25.02L20 25.02L20 25.02L20 25.03C20 25.04 20 25.05 20 25.06C20 25.07 20.01 25.09 20.01 25.11C20.02 25.15 20.03 25.2 20.06 25.25C20.11 25.35 20.2 25.45 20.32 25.54C20.57 25.7 20.96 25.81 21.6 25.81C22.23 25.81 22.63 25.7 22.87 25.54C23 25.45 23.09 25.35 23.14 25.25C23.16 25.2 23.18 25.15 23.19 25.11C23.19 25.09 23.19 25.07 23.2 25.06C23.2 25.05 23.2 25.04 23.2 25.03L23.2 25.02L23.2 25.02L23.2 25.02L23.2 25.01C23.2 25.01 23.2 25.01 22.81 25.01L23.2 25.01L23.2 15.34L23.2 14.95L22.81 14.95L20.39 14.95L20 14.95Z" stroke="#1D1D1B" stroke-opacity="1.000000" stroke-width="0.800000"/>
			<path id="Vector" d="M19.51 15.65C19.51 15.6 19.51 14.85 19.51 14.55C19.5 14.24 19.7 13.92 20.12 13.68C20.94 13.21 22.26 13.21 23.08 13.68C23.49 13.92 23.7 14.24 23.69 14.55C23.68 14.85 23.69 15.6 23.69 15.65C23.7 15.96 23.49 16.28 23.08 16.52C22.26 16.99 20.94 16.99 20.12 16.52C19.7 16.28 19.5 15.96 19.51 15.65Z" fill="#EFE9FE" fill-opacity="1.000000" fill-rule="evenodd"/>
			<mask id="mask1_532" mask-type="alpha" maskUnits="userSpaceOnUse" x="18.537109" y="12.359863" width="6.829224" height="5.853760">
				<path id="Vector" d="M18.53 12.35L25.36 12.35L25.36 18.21L18.53 18.21L18.53 12.35Z" fill="#FFFFFF" fill-opacity="1.000000" fill-rule="evenodd"/>
				<path id="Vector" d="M19.51 15.65C19.51 15.6 19.51 14.85 19.51 14.55C19.5 14.24 19.7 13.92 20.12 13.68C20.94 13.21 22.26 13.21 23.08 13.68C23.49 13.92 23.7 14.24 23.69 14.55C23.68 14.85 23.69 15.6 23.69 15.65C23.7 15.96 23.49 16.28 23.08 16.52C22.26 16.99 20.94 16.99 20.12 16.52C19.7 16.28 19.5 15.96 19.51 15.65Z" fill="#000000" fill-opacity="1.000000" fill-rule="evenodd"/>
			</mask>
			<g mask="url(#mask1_532)">
				<path id="Vector" d="M19.51 15.65L20.29 15.67L20.29 15.65L19.51 15.65ZM23.69 15.65L22.91 15.65L22.91 15.67L23.69 15.65ZM20.29 15.65C20.29 15.61 20.3 14.84 20.29 14.54L18.73 14.57C18.73 14.85 18.73 15.58 18.73 15.64L20.29 15.65ZM20.29 14.54C20.29 14.56 20.28 14.56 20.3 14.53C20.32 14.5 20.38 14.43 20.51 14.36L19.73 13.01C19.17 13.33 18.71 13.87 18.73 14.57L20.29 14.54ZM20.51 14.36C20.77 14.21 21.16 14.11 21.6 14.11C22.03 14.11 22.43 14.21 22.69 14.36L23.47 13.01C22.91 12.69 22.23 12.55 21.6 12.55C20.96 12.55 20.28 12.69 19.73 13.01L20.51 14.36ZM22.69 14.36C22.82 14.43 22.88 14.5 22.9 14.53C22.92 14.56 22.91 14.56 22.91 14.54L24.47 14.57C24.49 13.87 24.03 13.33 23.47 13.01L22.69 14.36ZM22.91 14.54C22.9 14.84 22.91 15.61 22.91 15.65L24.47 15.64C24.47 15.58 24.46 14.85 24.47 14.57L22.91 14.54ZM22.91 15.67C22.91 15.64 22.92 15.64 22.9 15.67C22.88 15.7 22.82 15.77 22.69 15.84L23.47 17.2C24.03 16.87 24.49 16.33 24.47 15.63L22.91 15.67ZM22.69 15.84C22.43 15.99 22.03 16.09 21.6 16.09C21.16 16.09 20.77 15.99 20.51 15.84L19.73 17.2C20.28 17.52 20.96 17.65 21.6 17.65C22.23 17.65 22.91 17.52 23.47 17.2L22.69 15.84ZM20.51 15.84C20.38 15.77 20.32 15.7 20.3 15.67C20.28 15.64 20.29 15.64 20.29 15.67L18.73 15.63C18.71 16.33 19.17 16.87 19.73 17.2L20.51 15.84Z" fill="#1D1D1B" fill-opacity="1.000000" fill-rule="nonzero"/>
			</g>
			<path id="Vector" d="M15.91 31.36C15.91 31.36 15.91 31.36 15.92 31.35C15.92 31.35 15.92 31.32 15.92 31.27C15.92 31.24 15.92 31.21 15.92 31.18C15.91 30.93 15.91 30.47 15.92 30.26C15.92 29.94 15.72 29.63 15.31 29.39C14.49 28.92 13.16 28.92 12.35 29.39C11.93 29.63 11.73 29.94 11.74 30.26C11.74 30.47 11.74 30.93 11.74 31.18C11.74 31.21 11.74 31.24 11.74 31.27C11.74 31.32 11.74 31.35 11.74 31.35C11.74 31.36 11.74 31.36 11.75 31.36C11.8 31.62 12 31.88 12.35 32.08C13.16 32.56 14.49 32.56 15.31 32.08C15.66 31.88 15.86 31.62 15.91 31.36Z" fill="#D5C8FB" fill-opacity="1.000000" fill-rule="evenodd"/>
			<path id="Vector" d="M15.92 31.35C15.93 31.67 15.72 31.98 15.31 32.22C14.49 32.69 13.16 32.69 12.35 32.22C11.93 31.98 11.73 31.67 11.74 31.35C11.74 31.3 11.74 30.55 11.74 30.26C11.73 29.94 11.93 29.63 12.35 29.39C13.16 28.92 14.49 28.92 15.31 29.39C15.72 29.63 15.92 29.94 15.92 30.26C15.91 30.55 15.92 31.3 15.92 31.35Z" fill="#EFE9FE" fill-opacity="1.000000" fill-rule="evenodd"/>
			<mask id="mask1_539" mask-type="alpha" maskUnits="userSpaceOnUse" x="10.765137" y="28.062988" width="6.829224" height="5.853760">
				<path id="Vector" d="M10.76 28.06L17.59 28.06L17.59 33.91L10.76 33.91L10.76 28.06Z" fill="#FFFFFF" fill-opacity="1.000000" fill-rule="evenodd"/>
				<path id="Vector" d="M15.92 31.35C15.93 31.67 15.72 31.98 15.31 32.22C14.49 32.69 13.16 32.69 12.35 32.22C11.93 31.98 11.73 31.67 11.74 31.35C11.74 31.3 11.74 30.55 11.74 30.26C11.73 29.94 11.93 29.63 12.35 29.39C13.16 28.92 14.49 28.92 15.31 29.39C15.72 29.63 15.92 29.94 15.92 30.26C15.91 30.55 15.92 31.3 15.92 31.35Z" fill="#000000" fill-opacity="1.000000" fill-rule="evenodd"/>
			</mask>
			<g mask="url(#mask1_539)">
				<path id="Vector" d="M15.92 31.35L15.14 31.35L15.14 31.36L15.14 31.37L15.92 31.35ZM11.74 31.35L12.52 31.37L12.52 31.36L11.74 31.35ZM15.92 31.35L16.7 31.35L16.7 31.34L15.92 31.35ZM15.14 31.37C15.14 31.35 15.15 31.34 15.13 31.37C15.1 31.41 15.04 31.47 14.91 31.55L15.7 32.9C16.26 32.57 16.72 32.03 16.7 31.33L15.14 31.37ZM14.91 31.55C14.65 31.7 14.26 31.8 13.83 31.8C13.39 31.8 13 31.7 12.74 31.55L11.96 32.9C12.51 33.22 13.19 33.36 13.83 33.36C14.46 33.36 15.14 33.22 15.7 32.9L14.91 31.55ZM12.74 31.55C12.61 31.47 12.55 31.41 12.53 31.37C12.51 31.34 12.52 31.35 12.52 31.37L10.96 31.33C10.94 32.03 11.4 32.57 11.96 32.9L12.74 31.55ZM12.52 31.36C12.52 31.31 12.52 30.55 12.52 30.24L10.96 30.28C10.96 30.55 10.96 31.29 10.96 31.34L12.52 31.36ZM12.52 30.24C12.52 30.26 12.51 30.27 12.53 30.24C12.55 30.2 12.61 30.14 12.74 30.06L11.96 28.71C11.4 29.03 10.94 29.57 10.96 30.28L12.52 30.24ZM12.74 30.06C13 29.91 13.39 29.81 13.83 29.81C14.26 29.81 14.65 29.91 14.91 30.06L15.7 28.71C15.14 28.39 14.46 28.25 13.83 28.25C13.19 28.25 12.51 28.39 11.96 28.71L12.74 30.06ZM14.91 30.06C15.04 30.14 15.1 30.2 15.13 30.24C15.15 30.27 15.14 30.26 15.14 30.24L16.7 30.28C16.71 29.57 16.26 29.03 15.7 28.71L14.91 30.06ZM15.14 30.24C15.13 30.55 15.14 31.31 15.14 31.36L16.7 31.34C16.7 31.29 16.69 30.55 16.7 30.28L15.14 30.24Z" fill="#1D1D1B" fill-opacity="1.000000" fill-rule="nonzero"/>
			</g>
			<path id="Vector" d="M12.62 19.77L15.04 19.77L15.04 29.44C15.04 29.44 15.04 29.84 13.83 29.84C12.62 29.84 12.62 29.44 12.62 29.44L12.62 19.77Z" fill="#FFFFFF" fill-opacity="1.000000" fill-rule="nonzero"/>
			<path id="Vector" d="M12.23 19.38L12.23 19.77L12.23 29.44L12.62 29.44C12.23 29.44 12.23 29.44 12.23 29.44L12.23 29.44L12.23 29.44L12.23 29.45L12.23 29.46C12.23 29.46 12.23 29.47 12.23 29.48C12.23 29.5 12.23 29.52 12.24 29.54C12.25 29.58 12.26 29.62 12.29 29.67C12.34 29.78 12.42 29.88 12.55 29.96C12.8 30.13 13.19 30.23 13.83 30.23C14.46 30.23 14.86 30.13 15.1 29.96C15.23 29.88 15.31 29.78 15.37 29.67C15.39 29.62 15.41 29.58 15.41 29.54C15.42 29.52 15.42 29.5 15.42 29.48C15.42 29.47 15.42 29.46 15.42 29.46L15.43 29.45L15.43 29.44L15.43 29.44L15.43 29.44C15.43 29.44 15.43 29.44 15.04 29.44L15.43 29.44L15.43 19.77L15.43 19.38L15.04 19.38L12.62 19.38L12.23 19.38Z" stroke="#1D1D1B" stroke-opacity="1.000000" stroke-width="0.800000"/>
			<path id="Vector" d="M15.92 20.07C15.93 20.39 15.72 20.7 15.31 20.94C14.49 21.41 13.16 21.41 12.35 20.94C11.93 20.7 11.73 20.39 11.74 20.07C11.74 20.02 11.74 19.27 11.74 18.98C11.73 18.66 11.93 18.35 12.35 18.11C13.16 17.64 14.49 17.64 15.31 18.11C15.72 18.35 15.92 18.66 15.92 18.98C15.91 19.27 15.92 20.02 15.92 20.07Z" fill="#EFE9FE" fill-opacity="1.000000" fill-rule="evenodd"/>
			<mask id="mask1_547" mask-type="alpha" maskUnits="userSpaceOnUse" x="10.765137" y="16.783447" width="6.829224" height="5.853760">
				<path id="Vector" d="M10.76 16.78L17.59 16.78L17.59 22.63L10.76 22.63L10.76 16.78Z" fill="#FFFFFF" fill-opacity="1.000000" fill-rule="evenodd"/>
				<path id="Vector" d="M15.92 20.07C15.93 20.39 15.72 20.7 15.31 20.94C14.49 21.41 13.16 21.41 12.35 20.94C11.93 20.7 11.73 20.39 11.74 20.07C11.74 20.02 11.74 19.27 11.74 18.98C11.73 18.66 11.93 18.35 12.35 18.11C13.16 17.64 14.49 17.64 15.31 18.11C15.72 18.35 15.92 18.66 15.92 18.98C15.91 19.27 15.92 20.02 15.92 20.07Z" fill="#000000" fill-opacity="1.000000" fill-rule="evenodd"/>
			</mask>
			<g mask="url(#mask1_547)">
				<path id="Vector" d="M15.92 20.07L15.14 20.07L15.14 20.08L15.14 20.09L15.92 20.07ZM11.74 20.07L12.52 20.09L12.52 20.08L11.74 20.07ZM15.92 20.07L16.7 20.07L16.7 20.06L15.92 20.07ZM15.14 20.09C15.14 20.07 15.15 20.06 15.13 20.09C15.1 20.13 15.04 20.19 14.91 20.27L15.7 21.62C16.26 21.29 16.72 20.75 16.7 20.05L15.14 20.09ZM14.91 20.27C14.65 20.42 14.26 20.52 13.83 20.52C13.39 20.52 13 20.42 12.74 20.27L11.96 21.62C12.51 21.94 13.19 22.08 13.83 22.08C14.46 22.08 15.14 21.94 15.7 21.62L14.91 20.27ZM12.74 20.27C12.61 20.19 12.55 20.13 12.53 20.09C12.51 20.06 12.52 20.07 12.52 20.09L10.96 20.05C10.94 20.75 11.4 21.29 11.96 21.62L12.74 20.27ZM12.52 20.08C12.52 20.03 12.52 19.27 12.52 18.96L10.96 19C10.96 19.27 10.96 20.01 10.96 20.06L12.52 20.08ZM12.52 18.96C12.52 18.98 12.51 18.99 12.53 18.96C12.55 18.92 12.61 18.86 12.74 18.78L11.96 17.43C11.4 17.76 10.94 18.3 10.96 19L12.52 18.96ZM12.74 18.78C13 18.63 13.39 18.53 13.83 18.53C14.26 18.53 14.65 18.63 14.91 18.78L15.7 17.43C15.14 17.11 14.46 16.97 13.83 16.97C13.19 16.97 12.51 17.11 11.96 17.43L12.74 18.78ZM14.91 18.78C15.04 18.86 15.1 18.92 15.13 18.96C15.15 18.99 15.14 18.98 15.14 18.96L16.7 19C16.71 18.3 16.26 17.76 15.7 17.43L14.91 18.78ZM15.14 18.96C15.13 19.27 15.14 20.03 15.14 20.08L16.7 20.06C16.7 20.01 16.69 19.27 16.7 19L15.14 18.96Z" fill="#1D1D1B" fill-opacity="1.000000" fill-rule="nonzero"/>
			</g>
			<path id="Vector" d="M11.14 19.69L11.14 21.16C11.14 21.26 11.21 21.31 11.31 21.25L33.77 8.29C33.86 8.23 33.94 8.1 33.94 7.99L33.94 6.53C33.94 6.46 33.9 6.41 33.85 6.41L22.62 5.21C22.57 5.21 22.5 5.25 22.45 5.31L11.22 19.47C11.17 19.54 11.14 19.62 11.14 19.69Z" fill="#D5C8FB" fill-opacity="1.000000" fill-rule="nonzero"/>
			<path id="Vector" d="M11.14 21.16C11.14 21.26 11.21 21.31 11.31 21.25L33.77 8.29C33.86 8.23 33.94 8.1 33.94 7.99L33.94 6.53C33.94 6.46 33.9 6.41 33.85 6.41L22.62 5.21C22.57 5.21 22.5 5.25 22.45 5.31L11.22 19.47C11.17 19.54 11.14 19.62 11.14 19.69L11.14 21.16Z" stroke="#1D1D1B" stroke-opacity="1.000000" stroke-width="0.800000" stroke-linejoin="round"/>
			<path id="Vector" d="M33.61 22.75L12.61 34.78C12.56 34.8 12.52 34.81 12.49 34.79L8.15 32.28L8.15 35.62C8.15 35.67 8.17 35.71 8.2 35.73L12.49 38.4C12.52 38.42 12.56 38.41 12.61 38.39L33.7 26.12C33.79 26.06 33.87 25.93 33.87 25.82L33.87 22.89C33.87 22.73 33.75 22.67 33.61 22.75Z" fill="#D5C8FB" fill-opacity="1.000000" fill-rule="nonzero"/>
			<path id="Vector" d="M12.61 34.78C12.56 34.8 12.52 34.81 12.49 34.79L8.15 32.28L8.15 35.62C8.15 35.67 8.17 35.71 8.2 35.73L12.49 38.4C12.52 38.42 12.56 38.41 12.61 38.39L33.7 26.12C33.79 26.06 33.87 25.93 33.87 25.82L33.87 22.89C33.87 22.73 33.75 22.67 33.61 22.75L12.61 34.78Z" stroke="#1D1D1B" stroke-opacity="1.000000" stroke-width="0.800000" stroke-linejoin="round"/>
		</g>
	</g>
</svg>
