<svg width="16.000000" height="16.000000" viewBox="0 0 16 16" fill="none" xmlns="http://www.w3.org/2000/svg" xmlns:xlink="http://www.w3.org/1999/xlink">
	<desc>
			Created with Pixso.
	</desc>
	<defs>
		<clipPath id="clip1_784">
			<rect id="Image" width="16.000000" height="16.000000" transform="translate(-0.383545 0.000000)" fill="white" fill-opacity="0"/>
		</clipPath>
		<linearGradient x1="7.774872" y1="2.849565" x2="-0.528880" y2="12.098032" id="paint_linear_1_785_0" gradientUnits="userSpaceOnUse">
			<stop stop-color="#008EFF"/>
			<stop offset="0.010000" stop-color="#008FFF"/>
			<stop offset="0.260000" stop-color="#00ACFF"/>
			<stop offset="0.510000" stop-color="#00C0FF"/>
			<stop offset="0.760000" stop-color="#00CDFF"/>
			<stop offset="1.000000" stop-color="#00D1FF"/>
		</linearGradient>
		<linearGradient x1="13.525545" y1="8.464179" x2="0.114496" y2="8.464179" id="paint_linear_1_786_0" gradientUnits="userSpaceOnUse">
			<stop stop-color="#FFD800"/>
			<stop offset="1.000000" stop-color="#FF8A00"/>
		</linearGradient>
		<linearGradient x1="9.448647" y1="9.603176" x2="-1.808647" y2="22.141098" id="paint_linear_1_787_0" gradientUnits="userSpaceOnUse">
			<stop stop-color="#FF3A44"/>
			<stop offset="1.000000" stop-color="#B11162"/>
		</linearGradient>
		<linearGradient x1="-0.267718" y1="-1.401167" x2="4.763177" y2="4.197433" id="paint_linear_1_788_0" gradientUnits="userSpaceOnUse">
			<stop stop-color="#328E71"/>
			<stop offset="0.070000" stop-color="#2D9571"/>
			<stop offset="0.480000" stop-color="#15BD74"/>
			<stop offset="0.800000" stop-color="#06D575"/>
			<stop offset="1.000000" stop-color="#00DE76"/>
		</linearGradient>
	</defs>
	<rect id="Image" width="16.000000" height="16.000000" transform="translate(-0.383545 0.000000)" fill="#FFFFFF" fill-opacity="0"/>
	<g clip-path="url(#clip1_784)">
		<path id="Vector" d="M1.47 2.26C1.29 2.46 1.2 2.71 1.21 2.96L1.21 13.97C1.2 14.22 1.29 14.47 1.47 14.66L1.51 14.7L8.37 8.54L8.37 8.39L1.51 2.23L1.47 2.26Z" fill="url(#paint_linear_1_785_0)" fill-opacity="1.000000" fill-rule="nonzero"/>
		<path id="Vector" d="M10.66 10.59L8.37 8.53L8.37 8.38L10.66 6.33L10.71 6.36L13.43 7.74C14.2 8.13 14.2 8.78 13.43 9.18L10.71 10.56L10.66 10.59Z" fill="url(#paint_linear_1_786_0)" fill-opacity="1.000000" fill-rule="nonzero"/>
		<path id="Vector" d="M10.71 10.56L8.39 8.47L1.47 14.66C1.63 14.78 1.83 14.84 2.03 14.85C2.24 14.85 2.44 14.8 2.61 14.69L10.7 10.56L10.71 10.56Z" fill="url(#paint_linear_1_787_0)" fill-opacity="1.000000" fill-rule="nonzero"/>
		<path id="Vector" d="M10.71 6.36L2.61 2.22C2.44 2.11 2.24 2.05 2.03 2.06C1.82 2.06 1.62 2.13 1.47 2.26L8.37 8.46L10.71 6.36Z" fill="url(#paint_linear_1_788_0)" fill-opacity="1.000000" fill-rule="nonzero"/>
		<g opacity="0.100000">
			<path id="Vector" d="M10.66 10.51L2.61 14.62C2.45 14.72 2.25 14.78 2.05 14.78C1.85 14.78 1.66 14.72 1.5 14.62L1.46 14.65L1.5 14.69C1.66 14.8 1.85 14.86 2.05 14.86C2.25 14.86 2.45 14.8 2.61 14.69L10.7 10.56L10.66 10.51Z" fill="#1D1D1B" fill-opacity="1.000000" fill-rule="nonzero"/>
		</g>
		<g opacity="0.070000">
			<path id="Vector" d="M1.47 14.59C1.29 14.39 1.2 14.14 1.21 13.89L1.21 13.96C1.2 14.21 1.29 14.46 1.47 14.66L1.51 14.62L1.47 14.59Z" fill="#1D1D1B" fill-opacity="1.000000" fill-rule="nonzero"/>
		</g>
		<g opacity="0.070000">
			<path id="Vector" d="M13.43 9.1L10.66 10.51L10.72 10.56L13.43 9.16C13.59 9.09 13.73 8.99 13.83 8.87C13.93 8.74 13.99 8.59 14.01 8.44C13.98 8.58 13.91 8.72 13.81 8.83C13.71 8.95 13.58 9.04 13.43 9.1Z" fill="#1D1D1B" fill-opacity="1.000000" fill-rule="nonzero"/>
		</g>
		<g opacity="0.300000">
			<path id="Vector" d="M2.61 2.3L13.43 7.81C13.58 7.87 13.71 7.96 13.81 8.07C13.91 8.18 13.98 8.32 14.01 8.46C13.99 8.3 13.93 8.15 13.83 8.03C13.73 7.9 13.59 7.8 13.43 7.74L2.61 2.22C1.85 1.83 1.21 2.16 1.21 2.96L1.21 3.03C1.21 2.23 1.85 1.9 2.61 2.3Z" fill="#FFFFFF" fill-opacity="1.000000" fill-rule="nonzero"/>
		</g>
	</g>
</svg>
