<svg width="15.989990" height="15.049805" viewBox="0 0 15.99 15.0498" fill="none" xmlns="http://www.w3.org/2000/svg" xmlns:xlink="http://www.w3.org/1999/xlink">
	<desc>
			Created with Pixso.
	</desc>
	<defs>
		<clipPath id="clip1_173">
			<rect id="Image [lazy]" width="15.990000" height="15.050000" fill="white" fill-opacity="0"/>
		</clipPath>
	</defs>
	<rect id="Image [lazy]" width="15.990000" height="15.050000" fill="#FFFFFF" fill-opacity="0"/>
	<g clip-path="url(#clip1_173)">
		<path id="Vector" d="M0 8.15L0 6.89C0.06 6.73 0.06 6.55 0.08 6.37C0.69 2.33 4.5 -0.5 8.56 0.07C10.51 0.34 12.28 1.37 13.49 2.93C14.69 4.5 15.23 6.47 14.99 8.43C14.6 11.7 12.09 14.35 8.86 14.93C8.61 14.97 8.36 14.98 8.12 15.05L6.89 15.05C6.81 14.98 6.7 15 6.61 14.99C3.35 14.61 0.69 12.09 0.11 8.86C0.07 8.62 0.07 8.38 0 8.15ZM6.94 3.09C7.11 3.01 7.25 2.88 7.39 2.77C7.46 2.72 7.52 2.72 7.58 2.77C7.71 2.88 7.85 2.97 8.01 3.1C7.99 2.9 7.93 2.75 7.87 2.61C7.83 2.49 7.85 2.42 7.96 2.35C8.09 2.26 8.21 2.16 8.33 2.06C8.33 2.05 8.32 2.04 8.31 2.02C8.15 2.02 7.98 2.02 7.82 2.03C7.72 2.03 7.68 2 7.65 1.9C7.6 1.75 7.57 1.58 7.48 1.41C7.42 1.6 7.36 1.75 7.32 1.9C7.29 1.99 7.25 2.03 7.15 2.03C6.98 2.02 6.81 2.02 6.64 2.02C6.76 2.15 6.9 2.27 7.05 2.37C7.13 2.42 7.14 2.48 7.11 2.57C7.04 2.74 7 2.91 6.94 3.09L6.95 3.08L6.94 3.09ZM2.78 8.34C2.72 8.16 2.68 8 2.62 7.85C2.58 7.75 2.58 7.67 2.69 7.61C2.81 7.54 2.91 7.45 3.01 7.37C3.03 7.36 3.05 7.33 3.05 7.32C3.05 7.27 3.01 7.28 2.98 7.28C2.84 7.28 2.7 7.27 2.57 7.28C2.46 7.29 2.42 7.24 2.39 7.15C2.35 7 2.32 6.84 2.23 6.69C2.15 6.83 2.12 6.97 2.08 7.1C2.05 7.24 1.99 7.29 1.85 7.28C1.7 7.27 1.55 7.28 1.37 7.28C1.48 7.42 1.61 7.5 1.73 7.57C1.86 7.66 1.9 7.74 1.84 7.89C1.78 8.03 1.72 8.17 1.7 8.35C1.83 8.25 1.95 8.17 2.06 8.08C2.18 7.97 2.28 7.96 2.4 8.08C2.52 8.18 2.64 8.27 2.78 8.34L2.78 8.34ZM12.5 5.68L12.54 5.66C12.49 5.5 12.44 5.33 12.38 5.18C12.35 5.09 12.36 5.05 12.44 4.99C12.58 4.9 12.71 4.79 12.84 4.69L12.83 4.65C12.67 4.65 12.51 4.64 12.35 4.65C12.25 4.65 12.2 4.62 12.17 4.52C12.12 4.37 12.1 4.21 11.99 4.03C11.94 4.2 11.89 4.33 11.85 4.47C11.82 4.6 11.76 4.66 11.61 4.65C11.46 4.63 11.31 4.64 11.16 4.64C11.29 4.78 11.43 4.89 11.58 4.99C11.65 5.04 11.66 5.09 11.63 5.17C11.57 5.34 11.52 5.5 11.47 5.67C11.63 5.59 11.77 5.5 11.91 5.38C11.98 5.33 12.03 5.33 12.1 5.38C12.23 5.49 12.37 5.59 12.5 5.69L12.5 5.68ZM2.11 4.65L2.11 4.68C2.25 4.78 2.39 4.89 2.53 5C2.6 5.04 2.62 5.08 2.59 5.16C2.52 5.33 2.47 5.5 2.41 5.7C2.59 5.61 2.72 5.49 2.86 5.39C2.93 5.33 2.98 5.33 3.06 5.39C3.19 5.5 3.33 5.59 3.47 5.69C3.44 5.52 3.4 5.36 3.34 5.2C3.3 5.1 3.31 5.04 3.41 4.98C3.54 4.89 3.67 4.78 3.8 4.68C3.65 4.65 3.48 4.64 3.32 4.65C3.2 4.66 3.15 4.62 3.12 4.5C3.08 4.36 3.04 4.2 2.95 4.04C2.89 4.21 2.83 4.35 2.8 4.5C2.77 4.61 2.72 4.66 2.59 4.65C2.43 4.64 2.27 4.65 2.11 4.65L2.11 4.65ZM2.11 9.89L2.1 9.92C2.24 10.03 2.38 10.14 2.53 10.25C2.6 10.3 2.61 10.34 2.58 10.42C2.53 10.56 2.49 10.7 2.44 10.83C2.44 10.86 2.41 10.88 2.44 10.9C2.47 10.93 2.49 10.9 2.51 10.89C2.62 10.81 2.74 10.74 2.84 10.65C2.92 10.59 2.98 10.57 3.07 10.65C3.19 10.75 3.32 10.84 3.47 10.95C3.47 10.76 3.39 10.6 3.34 10.44C3.3 10.35 3.31 10.29 3.4 10.23C3.54 10.14 3.67 10.03 3.8 9.93L3.79 9.89C3.62 9.89 3.46 9.88 3.3 9.89C3.2 9.9 3.15 9.86 3.11 9.76C3.07 9.61 3.04 9.45 2.95 9.29C2.88 9.47 2.83 9.62 2.79 9.78C2.76 9.86 2.72 9.9 2.63 9.89C2.46 9.89 2.29 9.89 2.12 9.89L2.11 9.89ZM4.88 2.16L4.84 2.16C4.8 2.29 4.75 2.43 4.71 2.57C4.68 2.7 4.62 2.75 4.48 2.74C4.33 2.73 4.17 2.74 4.02 2.74C4.13 2.87 4.27 2.98 4.41 3.07C4.5 3.14 4.52 3.2 4.48 3.3C4.42 3.45 4.37 3.61 4.31 3.8C4.45 3.72 4.58 3.63 4.7 3.53C4.81 3.43 4.9 3.42 5.02 3.53C5.13 3.64 5.26 3.73 5.4 3.79C5.35 3.61 5.31 3.46 5.25 3.32C5.2 3.2 5.22 3.13 5.33 3.06C5.46 2.97 5.59 2.89 5.72 2.74C5.52 2.74 5.36 2.73 5.19 2.74C5.1 2.75 5.05 2.71 5.03 2.62C4.98 2.47 4.93 2.32 4.88 2.16L4.88 2.16ZM6.65 12.5L6.63 12.54C6.76 12.63 6.88 12.74 7.02 12.82C7.12 12.89 7.13 12.96 7.09 13.07C7.03 13.22 6.99 13.38 6.94 13.53C7.08 13.46 7.21 13.38 7.33 13.28C7.43 13.19 7.51 13.18 7.62 13.28C7.73 13.37 7.86 13.45 8 13.55C7.98 13.35 7.91 13.19 7.85 13.04C7.82 12.94 7.84 12.9 7.91 12.84C8.05 12.75 8.19 12.64 8.32 12.54L8.31 12.5C8.14 12.5 7.97 12.49 7.8 12.5C7.71 12.5 7.67 12.47 7.64 12.39C7.59 12.23 7.57 12.06 7.47 11.89C7.41 12.07 7.35 12.22 7.31 12.37C7.28 12.47 7.23 12.51 7.13 12.5C6.97 12.5 6.81 12.5 6.65 12.5L6.65 12.5ZM9.26 11.8L9.25 11.83C9.37 11.92 9.48 12.03 9.61 12.1C9.76 12.19 9.78 12.28 9.71 12.43C9.66 12.56 9.62 12.7 9.58 12.83C9.64 12.85 9.66 12.81 9.7 12.79C9.84 12.7 9.97 12.51 10.12 12.52C10.27 12.53 10.42 12.69 10.54 12.82C10.55 12.83 10.56 12.84 10.58 12.84C10.59 12.84 10.6 12.84 10.61 12.84C10.65 12.82 10.62 12.8 10.62 12.77C10.6 12.65 10.57 12.54 10.52 12.43C10.45 12.28 10.48 12.18 10.62 12.1C10.76 12.02 10.88 11.92 10.98 11.81C10.77 11.81 10.6 11.8 10.44 11.81C10.35 11.81 10.31 11.78 10.28 11.69C10.24 11.54 10.18 11.38 10.12 11.2C10.03 11.36 10 11.52 9.95 11.68C9.92 11.77 9.88 11.81 9.78 11.81C9.61 11.8 9.44 11.81 9.26 11.81L9.26 11.8ZM13.56 7.34L13.56 7.29C13.4 7.29 13.25 7.28 13.1 7.29C12.97 7.3 12.92 7.26 12.89 7.14C12.85 7 12.81 6.85 12.73 6.7C12.65 6.84 12.61 6.99 12.58 7.13C12.54 7.26 12.48 7.31 12.35 7.29C12.2 7.28 12.05 7.29 11.9 7.29L11.89 7.34C12.03 7.44 12.17 7.54 12.31 7.64C12.37 7.69 12.39 7.73 12.36 7.81C12.29 7.97 12.25 8.14 12.18 8.33C12.36 8.26 12.48 8.15 12.61 8.05C12.7 7.98 12.76 7.97 12.85 8.05C12.97 8.16 13.11 8.25 13.28 8.37C13.22 8.17 13.17 8 13.11 7.85C13.07 7.74 13.09 7.68 13.19 7.62C13.32 7.54 13.44 7.44 13.56 7.34L13.56 7.34ZM4.35 12.86C4.51 12.74 4.65 12.65 4.79 12.54C4.86 12.48 4.91 12.49 4.98 12.54C5.11 12.65 5.25 12.74 5.41 12.86C5.38 12.66 5.32 12.51 5.26 12.36C5.23 12.26 5.24 12.19 5.33 12.13C5.47 12.04 5.6 11.93 5.73 11.83C5.58 11.8 5.43 11.79 5.28 11.8C5.12 11.82 5.06 11.76 5.02 11.61C5 11.47 4.95 11.33 4.88 11.2C4.8 11.36 4.76 11.52 4.71 11.67C4.69 11.77 4.64 11.81 4.54 11.8C4.37 11.79 4.2 11.8 4.03 11.8C4.14 11.92 4.26 12.02 4.4 12.11C4.53 12.18 4.54 12.27 4.48 12.4C4.42 12.55 4.38 12.71 4.35 12.87L4.35 12.86ZM10.12 2.08C10.05 2.28 9.99 2.43 9.95 2.58C9.92 2.7 9.87 2.73 9.75 2.73C9.6 2.72 9.44 2.72 9.28 2.72C9.39 2.85 9.51 2.96 9.65 3.05C9.74 3.11 9.78 3.16 9.73 3.28C9.67 3.43 9.63 3.59 9.56 3.8C9.74 3.67 9.88 3.58 10 3.47C10.08 3.41 10.13 3.4 10.22 3.47C10.34 3.57 10.47 3.68 10.66 3.77C10.59 3.57 10.54 3.41 10.49 3.25C10.46 3.17 10.47 3.12 10.55 3.07C10.69 2.97 10.82 2.86 10.96 2.76C10.8 2.73 10.63 2.72 10.47 2.73C10.36 2.73 10.3 2.7 10.28 2.59C10.24 2.44 10.18 2.28 10.12 2.09L10.12 2.08ZM11.5 10.97C11.59 10.9 11.66 10.86 11.72 10.81C12.03 10.58 12.03 10.58 12.34 10.81C12.41 10.86 12.48 10.9 12.58 10.97C12.51 10.77 12.48 10.62 12.42 10.49C12.36 10.36 12.4 10.29 12.51 10.22C12.63 10.13 12.76 10.06 12.87 9.91C12.69 9.91 12.53 9.9 12.38 9.91C12.27 9.92 12.22 9.88 12.19 9.78C12.14 9.62 12.11 9.47 12.02 9.29C11.96 9.47 11.9 9.61 11.87 9.75C11.84 9.88 11.78 9.92 11.65 9.91C11.5 9.9 11.34 9.91 11.19 9.91C11.29 10.03 11.42 10.14 11.55 10.22C11.68 10.3 11.68 10.38 11.64 10.5C11.58 10.64 11.53 10.78 11.5 10.97L11.5 10.97Z" fill="#0153BF" fill-opacity="1.000000" fill-rule="nonzero"/>
		<path id="Vector" d="M6.94 3.09C7 2.92 7.05 2.74 7.11 2.57C7.14 2.48 7.13 2.43 7.05 2.37C6.9 2.27 6.76 2.16 6.64 2.03C6.81 2.03 6.98 2.02 7.15 2.03C7.25 2.03 7.3 2 7.32 1.91C7.37 1.75 7.42 1.6 7.48 1.41C7.57 1.59 7.61 1.75 7.65 1.91C7.68 2 7.72 2.03 7.82 2.03C7.99 2.02 8.15 2.03 8.32 2.03C8.32 2.04 8.33 2.05 8.34 2.07C8.21 2.16 8.09 2.27 7.96 2.35C7.85 2.42 7.83 2.49 7.88 2.61C7.93 2.76 8 2.91 8.02 3.1C7.85 2.98 7.72 2.88 7.59 2.78C7.52 2.72 7.47 2.72 7.4 2.78C7.25 2.89 7.11 3.01 6.95 3.09L6.94 3.09Z" fill="#F2F306" fill-opacity="1.000000" fill-rule="nonzero"/>
		<path id="Vector" d="M2.78 8.34C2.64 8.27 2.52 8.18 2.41 8.08C2.28 7.96 2.18 7.97 2.06 8.08C1.95 8.18 1.83 8.25 1.7 8.35C1.72 8.17 1.78 8.03 1.84 7.89C1.9 7.74 1.86 7.66 1.73 7.57C1.61 7.5 1.49 7.42 1.37 7.28C1.55 7.28 1.7 7.27 1.85 7.28C2 7.3 2.05 7.24 2.09 7.11C2.12 6.97 2.15 6.83 2.23 6.69C2.32 6.85 2.35 7 2.4 7.15C2.42 7.25 2.47 7.29 2.57 7.28C2.71 7.28 2.84 7.28 2.98 7.28C3.01 7.28 3.05 7.27 3.05 7.32C3.06 7.34 3.03 7.36 3.01 7.38C2.91 7.46 2.81 7.54 2.7 7.61C2.58 7.68 2.58 7.75 2.62 7.85C2.68 8 2.72 8.16 2.78 8.34Z" fill="#F2F306" fill-opacity="1.000000" fill-rule="nonzero"/>
		<path id="Vector" d="M12.51 5.69C12.37 5.59 12.23 5.49 12.1 5.39C12.03 5.33 11.99 5.33 11.91 5.39C11.78 5.5 11.63 5.6 11.47 5.68C11.53 5.51 11.58 5.34 11.64 5.18C11.67 5.09 11.66 5.05 11.58 5C11.43 4.9 11.29 4.78 11.17 4.65C11.32 4.65 11.47 4.64 11.62 4.65C11.76 4.67 11.82 4.61 11.86 4.48C11.89 4.34 11.94 4.2 12 4.04C12.1 4.21 12.13 4.37 12.17 4.53C12.2 4.63 12.25 4.66 12.35 4.65C12.51 4.65 12.67 4.65 12.83 4.65L12.85 4.69C12.71 4.8 12.58 4.9 12.44 5C12.36 5.05 12.35 5.1 12.38 5.18C12.45 5.34 12.49 5.51 12.54 5.67L12.51 5.69Z" fill="#F2F306" fill-opacity="1.000000" fill-rule="nonzero"/>
		<path id="Vector" d="M2.11 4.65C2.27 4.65 2.43 4.64 2.59 4.65C2.72 4.66 2.77 4.61 2.8 4.5C2.83 4.35 2.89 4.21 2.95 4.04C3.04 4.2 3.08 4.36 3.12 4.5C3.15 4.62 3.2 4.66 3.32 4.65C3.49 4.64 3.65 4.65 3.81 4.68C3.67 4.78 3.55 4.89 3.41 4.98C3.31 5.04 3.3 5.1 3.34 5.2C3.4 5.36 3.44 5.52 3.47 5.69C3.33 5.59 3.19 5.5 3.06 5.39C2.99 5.33 2.94 5.33 2.86 5.39C2.72 5.49 2.59 5.61 2.41 5.7C2.48 5.5 2.52 5.33 2.59 5.16C2.62 5.09 2.6 5.04 2.53 5C2.39 4.9 2.25 4.79 2.11 4.68L2.11 4.65Z" fill="#F2F306" fill-opacity="1.000000" fill-rule="nonzero"/>
		<path id="Vector" d="M2.12 9.89C2.29 9.89 2.46 9.89 2.63 9.89C2.73 9.9 2.76 9.86 2.79 9.78C2.83 9.62 2.89 9.47 2.95 9.28C3.04 9.45 3.07 9.61 3.12 9.76C3.15 9.86 3.19 9.9 3.3 9.89C3.46 9.88 3.63 9.89 3.79 9.89L3.8 9.93C3.67 10.03 3.54 10.14 3.4 10.23C3.31 10.29 3.31 10.35 3.34 10.44C3.39 10.6 3.47 10.76 3.47 10.95C3.32 10.84 3.19 10.75 3.07 10.65C2.98 10.57 2.92 10.59 2.84 10.65C2.74 10.74 2.62 10.81 2.51 10.89C2.49 10.9 2.48 10.93 2.44 10.9C2.41 10.87 2.44 10.86 2.44 10.83C2.49 10.7 2.53 10.55 2.59 10.42C2.62 10.34 2.6 10.29 2.53 10.25C2.38 10.14 2.24 10.03 2.1 9.92L2.12 9.89Z" fill="#F2F306" fill-opacity="1.000000" fill-rule="nonzero"/>
		<path id="Vector" d="M4.88 2.16C4.93 2.31 4.99 2.47 5.03 2.62C5.05 2.72 5.1 2.75 5.19 2.74C5.36 2.74 5.52 2.74 5.73 2.74C5.6 2.89 5.46 2.97 5.33 3.06C5.22 3.13 5.2 3.2 5.25 3.32C5.31 3.46 5.35 3.62 5.41 3.79C5.26 3.73 5.13 3.64 5.02 3.53C4.9 3.42 4.81 3.44 4.7 3.53C4.58 3.64 4.45 3.73 4.32 3.8C4.38 3.61 4.42 3.45 4.48 3.3C4.52 3.2 4.5 3.14 4.41 3.08C4.27 2.98 4.14 2.87 4.02 2.74C4.18 2.74 4.33 2.73 4.48 2.74C4.62 2.76 4.68 2.7 4.71 2.57C4.75 2.43 4.8 2.3 4.84 2.16L4.88 2.16Z" fill="#F2F306" fill-opacity="1.000000" fill-rule="nonzero"/>
		<path id="Vector" d="M6.65 12.5C6.81 12.5 6.97 12.5 7.13 12.5C7.23 12.51 7.28 12.48 7.31 12.38C7.35 12.22 7.41 12.07 7.47 11.89C7.57 12.06 7.59 12.23 7.64 12.39C7.67 12.47 7.71 12.5 7.8 12.5C7.97 12.5 8.14 12.5 8.31 12.5L8.32 12.54C8.19 12.64 8.05 12.75 7.91 12.84C7.84 12.9 7.82 12.95 7.85 13.04C7.91 13.2 7.98 13.35 8 13.56C7.86 13.45 7.73 13.38 7.62 13.28C7.51 13.18 7.43 13.19 7.33 13.28C7.21 13.38 7.08 13.47 6.94 13.53C6.99 13.38 7.03 13.22 7.09 13.08C7.13 12.97 7.12 12.89 7.02 12.83C6.88 12.74 6.76 12.64 6.63 12.54L6.65 12.5Z" fill="#F2F306" fill-opacity="1.000000" fill-rule="nonzero"/>
		<path id="Vector" d="M9.26 11.81C9.43 11.81 9.61 11.8 9.78 11.81C9.88 11.81 9.92 11.78 9.95 11.68C10 11.52 10.03 11.37 10.12 11.2C10.18 11.38 10.24 11.54 10.28 11.7C10.31 11.78 10.35 11.81 10.44 11.81C10.6 11.8 10.77 11.81 10.98 11.81C10.88 11.92 10.76 12.02 10.62 12.1C10.48 12.19 10.45 12.28 10.52 12.43C10.57 12.54 10.6 12.66 10.62 12.77C10.62 12.8 10.65 12.82 10.61 12.84C10.6 12.84 10.59 12.84 10.58 12.84C10.56 12.84 10.55 12.83 10.55 12.82C10.42 12.69 10.28 12.53 10.12 12.52C9.96 12.51 9.84 12.7 9.7 12.79C9.67 12.81 9.64 12.85 9.58 12.83C9.62 12.7 9.66 12.56 9.71 12.43C9.78 12.29 9.76 12.19 9.61 12.1C9.48 12.03 9.37 11.93 9.25 11.84L9.26 11.81Z" fill="#F2F306" fill-opacity="1.000000" fill-rule="nonzero"/>
		<path id="Vector" d="M13.56 7.34C13.44 7.44 13.32 7.54 13.19 7.62C13.09 7.69 13.07 7.75 13.11 7.85C13.18 8.01 13.22 8.17 13.29 8.37C13.11 8.25 12.97 8.16 12.85 8.05C12.76 7.97 12.7 7.99 12.61 8.05C12.48 8.15 12.37 8.26 12.18 8.33C12.25 8.14 12.3 7.98 12.36 7.82C12.39 7.74 12.37 7.69 12.31 7.65C12.17 7.55 12.03 7.44 11.89 7.34L11.9 7.29C12.05 7.29 12.2 7.28 12.35 7.3C12.48 7.31 12.54 7.26 12.58 7.13C12.61 6.99 12.65 6.85 12.73 6.7C12.81 6.85 12.85 7 12.89 7.14C12.92 7.26 12.97 7.31 13.1 7.3C13.25 7.28 13.41 7.29 13.56 7.29L13.56 7.34Z" fill="#F2F306" fill-opacity="1.000000" fill-rule="nonzero"/>
		<path id="Vector" d="M4.35 12.87C4.38 12.71 4.42 12.55 4.49 12.4C4.54 12.27 4.53 12.18 4.4 12.11C4.26 12.02 4.14 11.92 4.04 11.8C4.2 11.8 4.37 11.8 4.54 11.8C4.65 11.81 4.69 11.77 4.72 11.67C4.76 11.52 4.8 11.36 4.88 11.2C4.95 11.33 5 11.47 5.03 11.61C5.06 11.76 5.13 11.82 5.28 11.8C5.43 11.79 5.58 11.8 5.73 11.84C5.6 11.93 5.47 12.04 5.34 12.13C5.24 12.19 5.23 12.26 5.27 12.36C5.32 12.51 5.39 12.67 5.42 12.86C5.25 12.75 5.11 12.65 4.98 12.54C4.91 12.49 4.86 12.48 4.79 12.54C4.66 12.65 4.51 12.75 4.35 12.87Z" fill="#F2F306" fill-opacity="1.000000" fill-rule="nonzero"/>
		<path id="Vector" d="M10.12 2.09C10.18 2.28 10.24 2.43 10.28 2.59C10.3 2.7 10.36 2.73 10.47 2.73C10.63 2.72 10.8 2.73 10.96 2.76C10.82 2.86 10.69 2.97 10.55 3.07C10.47 3.12 10.46 3.17 10.49 3.25C10.54 3.41 10.59 3.57 10.66 3.77C10.47 3.68 10.35 3.56 10.22 3.47C10.13 3.4 10.08 3.41 10 3.47C9.88 3.58 9.74 3.67 9.56 3.8C9.63 3.59 9.67 3.43 9.73 3.28C9.78 3.16 9.74 3.11 9.65 3.05C9.51 2.96 9.39 2.85 9.28 2.72C9.44 2.72 9.6 2.72 9.75 2.72C9.87 2.73 9.92 2.69 9.95 2.58C9.99 2.43 10.05 2.28 10.12 2.09Z" fill="#F2F306" fill-opacity="1.000000" fill-rule="nonzero"/>
		<path id="Vector" d="M11.5 10.97C11.53 10.78 11.58 10.64 11.64 10.49C11.68 10.38 11.68 10.3 11.56 10.22C11.42 10.14 11.3 10.03 11.19 9.91C11.35 9.91 11.5 9.9 11.65 9.91C11.78 9.92 11.84 9.88 11.87 9.75C11.91 9.61 11.96 9.47 12.02 9.29C12.11 9.47 12.15 9.62 12.19 9.77C12.22 9.88 12.27 9.92 12.38 9.91C12.53 9.9 12.69 9.91 12.87 9.91C12.77 10.06 12.63 10.13 12.51 10.22C12.41 10.29 12.37 10.36 12.42 10.49C12.48 10.62 12.52 10.77 12.58 10.97C12.48 10.9 12.41 10.86 12.35 10.81C12.03 10.58 12.03 10.58 11.73 10.81C11.66 10.86 11.59 10.9 11.5 10.97Z" fill="#F2F306" fill-opacity="1.000000" fill-rule="nonzero"/>
		<path id="Vector" d="M6.94 3.09L6.95 3.09L6.94 3.09L6.94 3.09Z" fill="#F2F306" fill-opacity="1.000000" fill-rule="nonzero"/>
	</g>
</svg>
