<svg id="SvgjsSvg1001" width="288" height="288" xmlns="http://www.w3.org/2000/svg" version="1.1" xmlns:xlink="http://www.w3.org/1999/xlink" xmlns:svgjs="http://svgjs.com/svgjs"><defs id="SvgjsDefs1002"></defs><g id="SvgjsG1008"><svg xmlns="http://www.w3.org/2000/svg" fill="none" viewBox="0 0 30 28.93" width="288" height="288"><defs><clipPath id="a"><rect width="30" height="28.93" fill="#ffffff" fill-opacity="0" class="colorfff svgShape"></rect></clipPath></defs><rect width="30" height="28.93" fill="none"></rect><g clip-path="url(#a)"><path fill="#d5d8e3" fill-rule="evenodd" d="M15.7 0.78C15.35 -0.18 13.99 -0.16 13.67 0.8L11.16 8.43C11.02 8.87 10.61 9.17 10.14 9.17L1.84 9.17C0.84 9.17 0.38 10.41 1.14 11.06L8.2 17.06C8.53 17.34 8.66 17.79 8.53 18.2L5.96 26.43C5.65 27.41 6.76 28.21 7.6 27.62L14.37 22.81C14.76 22.54 15.28 22.55 15.65 22.84L22.28 27.96C23.11 28.6 24.26 27.8 23.96 26.8L21.36 18.13C21.24 17.72 21.38 17.27 21.72 16.99L29.03 11.07C29.81 10.44 29.36 9.17 28.35 9.17L19.48 9.17C19.03 9.17 18.62 8.88 18.47 8.46L15.7 0.78Z" class="color111 svgShape"></path></g></svg></g></svg>