<svg width="20.000000" height="19.000000" viewBox="0 0 20 19" fill="none" xmlns="http://www.w3.org/2000/svg" xmlns:xlink="http://www.w3.org/1999/xlink">
	<desc>
			Created with Pixso.
	</desc>
	<defs>
		<clipPath id="clip1_771">
			<rect id="Image" width="20.000000" height="19.290001" transform="translate(-0.372681 -0.640625)" fill="white" fill-opacity="0"/>
		</clipPath>
	</defs>
	<rect id="Image" width="20.000000" height="19.290001" transform="translate(-0.372681 -0.640625)" fill="#FFFFFF" fill-opacity="0"/>
	<g clip-path="url(#clip1_771)">
		<path id="Vector" d="M10.09 -0.13C9.86 -0.76 8.95 -0.75 8.74 -0.11L7.07 4.98C6.97 5.27 6.7 5.47 6.39 5.47L0.85 5.47C0.19 5.47 -0.12 6.3 0.39 6.73L5.09 10.73C5.31 10.92 5.4 11.22 5.31 11.49L3.6 16.98C3.39 17.63 4.13 18.17 4.69 17.78L9.21 14.57C9.46 14.39 9.81 14.39 10.06 14.59L14.48 18C15.03 18.42 15.8 17.9 15.6 17.23L13.87 11.45C13.79 11.17 13.88 10.87 14.1 10.69L18.98 6.74C19.5 6.32 19.2 5.47 18.53 5.47L12.61 5.47C12.31 5.47 12.04 5.28 11.94 5L10.09 -0.13Z" fill="#111111" fill-opacity="1.000000" fill-rule="evenodd"/>
	</g>
</svg>
