<svg width="320.000000" height="189.000000" viewBox="0 0 320 189" fill="none" xmlns="http://www.w3.org/2000/svg" xmlns:xlink="http://www.w3.org/1999/xlink">
	<desc>
			Created with Pixso.
	</desc>
	<defs>
		<clipPath id="clip1_210">
			<rect id="Icon" width="320.000000" height="189.000000" fill="white" fill-opacity="0"/>
		</clipPath>
	</defs>
	<rect id="Icon" width="320.000000" height="189.000000" fill="#FFFFFF" fill-opacity="0"/>
	<g clip-path="url(#clip1_210)">
		<mask id="mask1_253" mask-type="alpha" maskUnits="userSpaceOnUse" x="0.000000" y="0.000000" width="320.000000" height="189.000000">
			<path id="Vector" d="M0 0L320 0L320 189L0 189L0 0Z" fill="#000000" fill-opacity="1.000000" fill-rule="evenodd"/>
		</mask>
		<g mask="url(#mask1_253)">
			<path id="Vector" d="M131.4 155.37C131.85 152.68 132.24 150.46 132.59 148.19C133.51 142.21 134.43 136.25 135.31 130.23C135.51 128.84 136.09 134.77 137.61 134.94L145.42 131.14C147.12 130.06 148.1 129.86 149.36 127.32C150.34 125.35 150.7 122.7 150.75 119.93C150.88 101.09 150.82 101.15 150.81 82.21C150.81 71.58 144.5 60.27 135.5 54.92C123.33 47.69 111.17 40.59 99 33.43L77.1 21.13C73.83 19.2 70.82 19.41 68.56 19.96C66.29 20.51 59.6 23.21 59.6 23.21C58.7 25.12 61.74 27.24 61.73 29.9C61.62 49.02 61.67 49.23 61.67 68.42C61.63 70.75 62 73.29 62.74 75.9C63.49 78.52 64.6 81.14 66.01 83.62C67.41 86.11 69.09 88.39 70.93 90.35C72.77 92.3 74.75 93.88 76.73 95C93.41 104.64 88.32 101.22 105.03 110.98C105.76 111.37 106.48 111.95 107.14 112.68C107.81 113.4 108.4 114.26 108.88 115.18C115.86 127.86 123.39 160.17 123.39 160.17L131.4 155.37Z" fill="#FFD6BC" fill-opacity="1.000000" fill-rule="nonzero"/>
			<path id="Vector" d="M132.59 148.19C133.51 142.21 134.43 136.25 135.31 130.23C135.51 128.84 136.09 134.77 137.61 134.94L145.42 131.14C147.12 130.06 148.1 129.86 149.36 127.32C150.34 125.35 150.7 122.7 150.75 119.93C150.88 101.09 150.82 101.15 150.81 82.21C150.81 71.58 144.5 60.27 135.5 54.92C123.33 47.69 111.17 40.59 99 33.43L77.1 21.13C73.83 19.2 70.82 19.41 68.56 19.96C66.29 20.51 59.6 23.21 59.6 23.21C58.7 25.12 61.74 27.24 61.73 29.9C61.62 49.02 61.67 49.23 61.67 68.42C61.63 70.75 62 73.29 62.74 75.9C63.49 78.52 64.6 81.14 66.01 83.62C67.41 86.11 69.09 88.39 70.93 90.35C72.77 92.3 74.75 93.88 76.73 95C93.41 104.64 88.32 101.22 105.03 110.98C105.76 111.37 106.48 111.95 107.14 112.68C107.81 113.4 108.4 114.26 108.88 115.18C115.86 127.86 123.39 160.17 123.39 160.17L131.4 155.37C131.85 152.68 132.24 150.46 132.59 148.19Z" stroke="#1D1D1B" stroke-opacity="1.000000" stroke-width="1.295742" stroke-linejoin="round"/>
			<path id="Vector" d="M123.39 160.15C123.84 157.45 124.29 154.53 124.64 152.27C125.56 146.29 126.48 140.33 127.36 134.31C127.54 132.99 128.32 133.47 129.18 133.89C134.81 136.71 138.94 135.83 141.24 131.19C142.22 129.22 142.75 126.78 142.79 124.01C142.93 105.17 142.87 105.23 142.86 86.29C142.86 75.66 136.55 64.34 127.54 59C115.38 51.77 103.21 44.67 91.05 37.5L69.67 25.33C63.25 21.56 58.34 21.73 55.66 27.17C54.77 29.08 54.3 31.45 54.3 34.11C54.19 53.23 54.24 53.44 54.24 72.63C54.2 74.96 54.57 77.5 55.31 80.11C56.06 82.73 57.17 85.35 58.57 87.83C59.98 90.32 61.66 92.6 63.5 94.56C65.34 96.51 67.31 98.09 69.3 99.21L97.08 115.06C97.8 115.45 98.52 116.02 99.19 116.75C99.85 117.48 100.45 118.34 100.93 119.26C107.91 131.94 114.97 144.58 122.03 157.23C122.32 157.71 123.39 160.15 123.39 160.15Z" fill="#FFFFFF" fill-opacity="1.000000" fill-rule="nonzero"/>
			<path id="Vector" d="M123.39 160.15L122.93 160.26C123.06 160.56 123.29 160.8 123.51 160.87C123.73 160.94 123.9 160.83 123.94 160.59L123.39 160.15ZM127.36 134.31L127.91 134.74L127.91 134.73L127.36 134.31ZM129.18 133.89L129.14 133.21L129.14 133.21L129.18 133.89ZM141.24 131.19L140.73 130.61L140.73 130.61L141.24 131.19ZM142.79 124.01L143.35 124.35L143.35 124.34L142.79 124.01ZM91.05 37.5L91.05 36.84L91.04 36.83L91.05 37.5ZM69.67 25.33L69.67 26L69.68 26L69.67 25.33ZM55.66 27.17L55.15 26.6L55.15 26.6L55.66 27.17ZM54.3 34.11L54.86 34.44L54.86 34.44L54.3 34.11ZM54.24 72.63L54.8 72.97L54.8 72.96L54.24 72.63ZM69.3 99.21L69.29 98.54L69.29 98.54L69.3 99.21ZM97.08 115.06L97.09 115.72L97.1 115.73L97.08 115.06ZM100.93 119.26L100.51 119.45L100.52 119.47L100.53 119.48L100.93 119.26ZM122.03 157.23L121.63 157.47L121.64 157.49L121.66 157.51L122.03 157.23ZM123.94 160.59C124.39 157.89 124.84 154.97 125.19 152.7L124.09 151.83C123.74 154.1 123.29 157.02 122.84 159.71L123.94 160.59ZM125.19 152.7C126.11 146.73 127.03 140.76 127.91 134.74L126.81 133.88C125.93 139.89 125.01 145.86 124.09 151.83L125.19 152.7ZM127.91 134.73C127.98 134.23 128.14 134.18 128.26 134.19C128.46 134.19 128.74 134.34 129.23 134.58L129.14 133.21C128.77 133.02 128.22 132.72 127.78 132.71C127.25 132.7 126.92 133.08 126.81 133.88L127.91 134.73ZM129.23 134.58C135.05 137.5 139.36 136.59 141.75 131.76L140.73 130.61C138.52 135.08 134.58 135.93 129.14 133.21L129.23 134.58ZM141.75 131.76C142.76 129.73 143.31 127.21 143.35 124.35L142.23 123.66C142.19 126.34 141.68 128.71 140.73 130.61L141.75 131.76ZM143.35 124.34C143.49 105.5 143.42 105.56 143.42 86.62L142.3 85.96C142.31 104.9 142.37 104.84 142.23 123.67L143.35 124.34ZM143.42 86.62C143.42 81.14 141.79 75.46 138.98 70.43C136.16 65.4 132.18 61.09 127.55 58.34L127.54 59.66C131.91 62.25 135.59 66.27 138.18 70.89C140.77 75.52 142.3 80.8 142.3 85.96L143.42 86.62ZM127.55 58.34C115.38 51.11 103.21 44 91.05 36.84L91.05 38.16C103.22 45.33 115.38 52.43 127.54 59.66L127.55 58.34ZM91.04 36.83L69.66 24.67L69.68 26L91.06 38.17L91.04 36.83ZM69.67 24.67C66.39 22.74 63.45 21.8 60.98 22.06C58.51 22.32 56.53 23.79 55.15 26.6L56.17 27.74C57.47 25.11 59.29 23.77 61.55 23.53C63.8 23.29 66.53 24.15 69.67 26L69.67 24.67ZM55.15 26.6C54.22 28.58 53.74 31.03 53.74 33.78L54.86 34.44C54.86 31.87 55.31 29.58 56.17 27.73L55.15 26.6ZM53.74 33.77C53.63 52.89 53.68 53.11 53.68 72.3L54.8 72.96C54.8 53.77 54.74 53.56 54.86 34.44L53.74 33.77ZM53.68 72.29C53.64 74.7 54.02 77.35 54.8 80.06L55.83 80.17C55.11 77.66 54.76 75.21 54.8 72.97L53.68 72.29ZM54.8 80.06C55.57 82.77 56.72 85.5 58.18 88.07L58.97 87.6C57.61 85.21 56.55 82.68 55.83 80.17L54.8 80.06ZM58.18 88.07C59.64 90.65 61.38 93.03 63.29 95.05L63.71 94.07C61.93 92.19 60.32 89.99 58.97 87.6L58.18 88.07ZM63.29 95.05C65.21 97.08 67.25 98.72 69.31 99.88L69.29 98.54C67.38 97.47 65.48 95.95 63.71 94.07L63.29 95.05ZM69.31 99.87L97.09 115.72L97.07 114.39L69.29 98.54L69.31 99.87ZM97.1 115.73C97.74 116.08 98.38 116.59 98.97 117.23L99.41 116.27C98.67 115.46 97.86 114.82 97.06 114.38L97.1 115.73ZM98.97 117.23C99.56 117.88 100.09 118.64 100.51 119.45L101.34 119.07C100.81 118.04 100.15 117.08 99.41 116.27L98.97 117.23ZM100.53 119.48C107.51 132.16 114.57 144.81 121.63 157.47L122.43 157C115.37 144.35 108.31 131.71 101.33 119.04L100.53 119.48ZM121.66 157.51C121.66 157.51 121.66 157.51 121.66 157.51C121.66 157.51 121.66 157.52 121.66 157.52C121.67 157.53 121.68 157.54 121.68 157.56C121.7 157.59 121.72 157.63 121.75 157.68C121.8 157.78 121.86 157.9 121.92 158.04C122.06 158.33 122.22 158.67 122.37 159C122.52 159.33 122.66 159.65 122.76 159.88C122.82 160 122.86 160.09 122.89 160.16C122.9 160.19 122.92 160.22 122.92 160.24C122.93 160.25 122.93 160.25 122.93 160.26C122.93 160.26 122.93 160.26 122.93 160.26C122.93 160.26 122.93 160.26 123.39 160.15C123.85 160.04 123.85 160.04 123.85 160.04L123.85 160.04C123.85 160.04 123.85 160.03 123.84 160.03C123.84 160.03 123.84 160.02 123.83 160.01C123.83 159.99 123.82 159.97 123.8 159.93C123.77 159.86 123.73 159.76 123.67 159.64C123.57 159.41 123.42 159.08 123.27 158.74C123.11 158.41 122.95 158.05 122.8 157.74C122.67 157.46 122.52 157.15 122.4 156.96L121.66 157.51Z" fill="#1D1D1B" fill-opacity="1.000000" fill-rule="nonzero"/>
			<path id="Vector" d="M101.84 83.63C102.92 84.42 103.93 85.29 104.87 86.24C109.59 91.07 112.97 97.09 114.66 103.69C115.03 105.19 115.29 106.71 115.43 108.25C115.42 108.52 115.42 108.8 115.43 109.08L115.43 109.35C114.88 109.06 114.37 108.69 113.92 108.25C112.32 107.01 110.86 105.6 109.56 104.05C107.4 101.48 105.58 98.64 104.13 95.6C102.75 92.72 101.75 89.67 101.16 86.53C100.94 85.35 100.8 84.16 100.72 82.97C100.72 82.85 100.72 82.85 100.84 82.92L101.84 83.63Z" fill="#1D1D1B" fill-opacity="1.000000" fill-rule="nonzero"/>
			<path id="Vector" d="M114.79 75.94C114.11 78.26 112.92 80.05 111.32 81.18C110.09 82.04 108.63 82.49 107.13 82.49C105.21 82.6 103.09 82.07 100.91 80.95L100.8 80.88C100.81 80.15 100.89 79.43 101.03 78.72C101.72 74.6 103.74 71.73 106.71 70.62C108.16 70.11 109.72 69.99 111.22 70.28C112.39 70.46 113.52 70.81 114.58 71.32L115.3 71.63C115.5 71.76 115.5 71.76 115.5 72C115.48 72.17 115.48 72.33 115.5 72.5C115.39 73.67 115.15 74.82 114.79 75.93L114.79 75.94Z" fill="#1D1D1B" fill-opacity="1.000000" fill-rule="nonzero"/>
			<path id="Vector" d="M97.58 78.89C95.99 77.63 94.53 76.22 93.22 74.67C91.16 72.23 89.42 69.53 88.04 66.63C85.89 62.24 84.62 57.62 84.44 53.46L84.64 53.58L85.36 54.11C86.41 54.87 87.41 55.71 88.34 56.63C90.43 58.7 92.26 61.04 93.78 63.58C96.51 68.1 98.34 73.14 98.93 77.85C99.01 78.52 99.07 79.17 99.11 79.81C99.11 79.81 99.11 79.94 98.99 79.88L97.58 78.89Z" fill="#1D1D1B" fill-opacity="1.000000" fill-rule="nonzero"/>
			<path id="Vector" d="M85.93 84.81C86.83 82.85 88.46 81.34 90.45 80.61C92.9 79.73 95.87 80.11 98.97 81.71C98.97 81.71 99.1 81.79 99.08 81.89C99.07 82.44 99.01 82.99 98.91 83.53C98.73 85.09 98.28 86.6 97.58 88C95.82 91.41 92.69 93.01 88.86 92.45C87.36 92.19 85.9 91.7 84.54 90.99C84.44 90.93 84.43 90.92 84.44 90.79C84.42 90.25 84.47 89.7 84.6 89.16C84.8 87.64 85.25 86.17 85.93 84.81Z" fill="#1D1D1B" fill-opacity="1.000000" fill-rule="nonzero"/>
			<path id="Vector" d="M182.31 182.89C181.86 180.19 181.47 177.97 181.12 175.7C180.2 169.73 179.28 163.76 178.4 157.75C178.2 156.36 177.62 162.28 176.1 162.46L168.29 158.65C166.59 157.58 165.61 157.37 164.35 154.83C163.37 152.87 163.01 150.21 162.97 147.44C162.83 128.6 162.89 128.67 162.9 109.73C162.9 99.1 169.21 87.78 178.21 82.44C190.38 75.21 202.54 68.11 214.71 60.94L236.61 48.64C239.88 46.71 242.89 46.93 245.15 47.48C247.42 48.02 254.11 50.72 254.11 50.72C255.01 52.64 251.98 54.75 251.98 57.41C252.09 76.53 252.04 76.74 252.04 95.94C252.08 98.26 251.71 100.81 250.97 103.42C250.22 106.03 249.11 108.66 247.7 111.14C246.3 113.62 244.62 115.91 242.78 117.86C240.94 119.82 238.97 121.4 236.98 122.51C220.3 132.15 225.39 128.74 208.68 138.49C207.95 138.88 207.23 139.46 206.57 140.19C205.9 140.92 205.31 141.77 204.83 142.7C197.85 155.37 190.32 187.68 190.32 187.68L182.31 182.89Z" fill="#FFD6BC" fill-opacity="1.000000" fill-rule="nonzero"/>
			<path id="Vector" d="M181.12 175.7C180.2 169.73 179.28 163.76 178.4 157.75C178.2 156.36 177.62 162.28 176.1 162.46L168.29 158.65C166.59 157.58 165.61 157.37 164.35 154.83C163.37 152.87 163.01 150.21 162.97 147.44C162.83 128.6 162.89 128.67 162.9 109.73C162.9 99.1 169.21 87.78 178.21 82.44C190.38 75.21 202.54 68.11 214.71 60.94L236.61 48.64C239.88 46.71 242.89 46.93 245.15 47.48C247.42 48.02 254.11 50.72 254.11 50.72C255.01 52.64 251.98 54.75 251.98 57.41C252.09 76.53 252.04 76.74 252.04 95.94C252.08 98.26 251.71 100.81 250.97 103.42C250.22 106.03 249.11 108.66 247.7 111.14C246.3 113.62 244.62 115.91 242.78 117.86C240.94 119.82 238.97 121.4 236.98 122.51C220.3 132.15 225.39 128.74 208.68 138.49C207.95 138.88 207.23 139.46 206.57 140.19C205.9 140.92 205.31 141.77 204.83 142.7C197.85 155.37 190.32 187.68 190.32 187.68L182.31 182.89C181.86 180.19 181.47 177.97 181.12 175.7Z" stroke="#1D1D1B" stroke-opacity="1.000000" stroke-width="1.295742" stroke-linejoin="round"/>
			<path id="Vector" d="M190.32 187.67C189.87 184.97 189.42 182.05 189.07 179.78C188.15 173.81 187.23 167.84 186.35 161.82C186.17 160.51 185.39 160.98 184.53 161.41C178.9 164.23 174.77 163.35 172.47 158.7C171.49 156.73 170.96 154.29 170.92 151.52C170.78 132.68 170.84 132.74 170.85 113.8C170.85 103.17 177.16 91.86 186.17 86.51C198.33 79.28 210.5 72.18 222.66 65.01L244.05 52.85C250.46 49.07 255.37 49.25 258.05 54.68C258.95 56.6 259.41 58.96 259.41 61.62C259.53 80.74 259.47 80.95 259.47 100.15C259.51 102.47 259.14 105.02 258.4 107.63C257.65 110.24 256.54 112.87 255.14 115.35C253.73 117.83 252.05 120.12 250.21 122.07C248.37 124.03 246.4 125.61 244.41 126.72L216.63 142.57C215.91 142.96 215.19 143.54 214.52 144.27C213.86 144.99 213.26 145.85 212.78 146.78C205.8 159.45 198.74 172.09 191.68 184.75C191.4 185.22 190.32 187.67 190.32 187.67Z" fill="#FFFFFF" fill-opacity="1.000000" fill-rule="nonzero"/>
			<path id="Vector" d="M190.32 187.67L190.78 187.78C190.65 188.07 190.42 188.31 190.2 188.38C189.98 188.45 189.81 188.35 189.77 188.11L190.32 187.67ZM186.35 161.82L185.8 162.25L185.8 162.25L186.35 161.82ZM184.53 161.41L184.57 160.72L184.57 160.72L184.53 161.41ZM172.47 158.7L172.98 158.13L172.98 158.13L172.47 158.7ZM170.92 151.52L170.36 151.86L170.36 151.85L170.92 151.52ZM222.66 65.01L222.66 64.35L222.67 64.35L222.66 65.01ZM244.05 52.85L244.05 53.51L244.04 53.52L244.05 52.85ZM258.05 54.68L258.56 54.11L258.56 54.12L258.05 54.68ZM259.41 61.62L258.85 61.96L258.85 61.95L259.41 61.62ZM259.47 100.15L258.91 100.49L258.91 100.48L259.47 100.15ZM244.41 126.72L244.42 126.05L244.43 126.05L244.41 126.72ZM216.63 142.57L216.62 143.24L216.61 143.24L216.63 142.57ZM212.78 146.77L213.2 146.97L213.19 146.98L213.19 147L212.78 146.77ZM191.68 184.75L192.08 184.98L192.07 185L192.06 185.02L191.68 184.75ZM189.77 188.11C189.32 185.41 188.87 182.48 188.52 180.22L189.62 179.35C189.97 181.62 190.42 184.53 190.87 187.23L189.77 188.11ZM188.52 180.22C187.6 174.24 186.68 168.27 185.8 162.25L186.9 161.39C187.78 167.41 188.71 173.37 189.62 179.35L188.52 180.22ZM185.8 162.25C185.73 161.74 185.57 161.7 185.45 161.7C185.25 161.7 184.97 161.85 184.48 162.09L184.57 160.72C184.94 160.54 185.49 160.23 185.93 160.22C186.46 160.21 186.79 160.59 186.9 161.4L185.8 162.25ZM184.49 162.09C178.66 165.01 174.35 164.1 171.96 159.27L172.98 158.13C175.19 162.6 179.13 163.44 184.57 160.72L184.49 162.09ZM171.96 159.27C170.95 157.24 170.41 154.72 170.36 151.86L171.48 151.18C171.52 153.86 172.03 156.22 172.98 158.13L171.96 159.27ZM170.36 151.85C170.22 133.01 170.29 133.07 170.29 114.13L171.41 113.48C171.4 132.42 171.34 132.35 171.48 151.18L170.36 151.85ZM170.29 114.13C170.29 108.66 171.92 102.97 174.74 97.94C177.55 92.92 181.53 88.61 186.16 85.85L186.17 87.17C181.8 89.77 178.12 93.78 175.53 98.41C172.94 103.03 171.41 108.32 171.41 113.48L170.29 114.13ZM186.16 85.85C198.33 78.62 210.5 71.52 222.66 64.35L222.66 65.68C210.49 72.84 198.33 79.94 186.17 87.17L186.16 85.85ZM222.67 64.35L244.06 52.18L244.04 53.52L222.65 65.68L222.67 64.35ZM244.05 52.18C247.33 50.25 250.26 49.31 252.73 49.57C255.21 49.84 257.18 51.31 258.56 54.11L257.54 55.25C256.25 52.62 254.42 51.29 252.17 51.05C249.91 50.81 247.18 51.66 244.05 53.51L244.05 52.18ZM258.56 54.12C259.49 56.1 259.97 58.54 259.97 61.29L258.85 61.95C258.85 59.38 258.4 57.1 257.54 55.25L258.56 54.12ZM259.97 61.29C260.08 80.41 260.03 80.63 260.03 99.82L258.91 100.48C258.91 81.28 258.97 81.07 258.85 61.96L259.97 61.29ZM260.03 99.81C260.07 102.22 259.69 104.86 258.91 107.57L257.88 107.68C258.6 105.17 258.95 102.72 258.91 100.49L260.03 99.81ZM258.91 107.57C258.14 110.28 256.99 113.01 255.53 115.59L254.74 115.11C256.1 112.72 257.16 110.2 257.88 107.68L258.91 107.57ZM255.53 115.59C254.07 118.16 252.33 120.54 250.42 122.57L250.01 121.58C251.78 119.7 253.39 117.5 254.74 115.11L255.53 115.59ZM250.42 122.57C248.51 124.6 246.46 126.24 244.4 127.39L244.43 126.05C246.34 124.98 248.23 123.46 250.01 121.58L250.42 122.57ZM244.4 127.39L216.62 143.24L216.64 141.9L244.42 126.05L244.4 127.39ZM216.61 143.24C215.97 143.59 215.33 144.1 214.74 144.75L214.3 143.79C215.05 142.97 215.85 142.33 216.65 141.89L216.61 143.24ZM214.74 144.75C214.15 145.39 213.63 146.15 213.2 146.97L212.37 146.58C212.9 145.55 213.56 144.6 214.3 143.79L214.74 144.75ZM213.19 147C206.2 159.68 199.14 172.32 192.08 184.98L191.28 184.52C198.34 171.86 205.4 159.22 212.38 146.55L213.19 147ZM192.06 185.02C192.06 185.02 192.05 185.02 192.05 185.02C192.05 185.03 192.05 185.03 192.05 185.03C192.04 185.04 192.04 185.05 192.03 185.07C192.01 185.1 191.99 185.14 191.96 185.19C191.91 185.29 191.85 185.41 191.79 185.56C191.65 185.84 191.49 186.18 191.34 186.51C191.19 186.84 191.05 187.16 190.95 187.39C190.89 187.51 190.85 187.61 190.82 187.67C190.81 187.71 190.8 187.73 190.79 187.75C190.78 187.76 190.78 187.77 190.78 187.77C190.78 187.77 190.78 187.78 190.78 187.78C190.78 187.78 190.78 187.78 190.32 187.67C189.86 187.55 189.86 187.55 189.86 187.55L189.86 187.55C189.87 187.55 189.87 187.55 189.87 187.55C189.87 187.54 189.87 187.53 189.88 187.52C189.88 187.51 189.9 187.48 189.91 187.45C189.94 187.38 189.98 187.28 190.04 187.16C190.14 186.92 190.29 186.6 190.44 186.26C190.6 185.92 190.76 185.56 190.91 185.25C191.04 184.97 191.19 184.67 191.31 184.48L192.06 185.02Z" fill="#1D1D1B" fill-opacity="1.000000" fill-rule="nonzero"/>
			<path id="Vector" d="M191.31 106.25C191.71 106.15 192.02 106.04 192.32 105.98C194.57 105.58 196.07 106.49 196.68 108.85C197.14 110.64 196.95 112.77 195.99 115.18C195.03 117.59 193.59 119.52 191.82 121.03C190.16 122.48 188.42 123.18 186.96 123C185.45 122.83 184.53 121.76 184.01 120.12C183.42 118.27 183.42 116.04 183.79 113.59C184.27 110.28 185.46 106.79 187.24 103.5C189.29 99.66 191.84 96.54 194.79 94.05C194.99 93.89 195.08 93.89 195.16 94.05C195.48 94.7 195.8 95.35 196.14 95.98C196.25 96.19 196.22 96.34 195.97 96.62C193.98 98.82 192.52 101.33 191.73 104.21C191.54 104.89 191.45 105.55 191.31 106.25Z" fill="#FFEADD" fill-opacity="1.000000" fill-rule="nonzero"/>
			<path id="Vector" d="M192.32 105.98C194.57 105.58 196.07 106.49 196.68 108.85C197.14 110.64 196.95 112.77 195.99 115.18C195.03 117.59 193.59 119.52 191.82 121.03C190.16 122.48 188.42 123.18 186.96 123C185.45 122.83 184.53 121.76 184.01 120.12C183.42 118.27 183.42 116.04 183.79 113.59C184.27 110.28 185.46 106.79 187.24 103.5C189.29 99.66 191.84 96.54 194.79 94.05C194.99 93.89 195.08 93.89 195.16 94.05C195.48 94.7 195.8 95.35 196.14 95.98C196.25 96.19 196.22 96.34 195.97 96.62C193.98 98.82 192.52 101.33 191.73 104.21C191.54 104.89 191.45 105.55 191.31 106.25C191.71 106.15 192.02 106.04 192.32 105.98Z" stroke="#1D1D1B" stroke-opacity="1.000000" stroke-width="1.295742" stroke-linejoin="round"/>
			<path id="Vector" d="M208.93 98.49C209.33 98.38 209.64 98.27 209.94 98.22C212.19 97.82 213.69 98.72 214.3 101.09C214.77 102.88 214.57 105.01 213.61 107.42C212.65 109.83 211.21 111.76 209.44 113.27C207.79 114.72 206.04 115.42 204.59 115.23C203.07 115.07 202.15 113.99 201.63 112.35C201.04 110.51 201.04 108.28 201.41 105.82C201.89 102.52 203.09 99.02 204.86 95.73C206.91 91.9 209.46 88.78 212.41 86.29C212.61 86.13 212.7 86.12 212.78 86.29C213.1 86.94 213.42 87.58 213.76 88.22C213.87 88.43 213.84 88.58 213.59 88.86C211.61 91.05 210.14 93.57 209.35 96.44C209.16 97.12 209.07 97.78 208.93 98.49Z" fill="#FFEADD" fill-opacity="1.000000" fill-rule="nonzero"/>
			<path id="Vector" d="M209.94 98.22C212.19 97.82 213.69 98.72 214.3 101.09C214.77 102.88 214.57 105.01 213.61 107.42C212.65 109.83 211.21 111.76 209.44 113.27C207.79 114.72 206.04 115.42 204.59 115.23C203.07 115.07 202.15 113.99 201.63 112.35C201.04 110.51 201.04 108.28 201.41 105.82C201.89 102.52 203.09 99.02 204.86 95.73C206.91 91.9 209.46 88.78 212.41 86.29C212.61 86.13 212.7 86.12 212.78 86.29C213.1 86.94 213.42 87.58 213.76 88.22C213.87 88.43 213.84 88.58 213.59 88.86C211.61 91.05 210.14 93.57 209.35 96.44C209.16 97.12 209.07 97.78 208.93 98.49C209.33 98.38 209.64 98.27 209.94 98.22Z" stroke="#1D1D1B" stroke-opacity="1.000000" stroke-width="1.295742" stroke-linejoin="round"/>
			<path id="Vector" d="M186.01 137.43L235.57 107.34L186.01 137.43Z" fill="#D4C8FB" fill-opacity="1.000000" fill-rule="nonzero"/>
			<path id="Vector" d="M186.01 137.43L235.57 107.34" stroke="#1D1D1B" stroke-opacity="1.000000" stroke-width="3.166525" stroke-linejoin="round" stroke-linecap="round"/>
			<path id="Vector" d="M185.85 146L216.93 126.51L185.85 146Z" fill="#D4C8FB" fill-opacity="1.000000" fill-rule="nonzero"/>
			<path id="Vector" d="M185.85 146L216.93 126.51" stroke="#1D1D1B" stroke-opacity="1.000000" stroke-width="3.166525" stroke-linejoin="round" stroke-linecap="round"/>
		</g>
	</g>
</svg>
