<svg width="320.000000" height="189.000000" viewBox="0 0 320 189" fill="none" xmlns="http://www.w3.org/2000/svg" xmlns:xlink="http://www.w3.org/1999/xlink">
	<desc>
			Created with Pixso.
	</desc>
	<defs>
		<clipPath id="clip1_274">
			<rect id="Icon" width="320.000000" height="189.000000" fill="white" fill-opacity="0"/>
		</clipPath>
	</defs>
	<rect id="Icon" width="320.000000" height="189.000000" fill="#FFFFFF" fill-opacity="0"/>
	<g clip-path="url(#clip1_274)">
		<mask id="mask1_367" mask-type="alpha" maskUnits="userSpaceOnUse" x="0.000000" y="0.000000" width="320.000000" height="189.000000">
			<path id="Vector" d="M0 0L320 0L320 189L0 189L0 0Z" fill="#000000" fill-opacity="1.000000" fill-rule="evenodd"/>
		</mask>
		<g mask="url(#mask1_367)">
			<mask id="mask1_364" mask-type="alpha" maskUnits="userSpaceOnUse" x="25.838501" y="-31.159668" width="268.322998" height="275.837891">
				<path id="Vector" d="M25.83 -31.16L294.16 -31.16L294.16 244.67L25.83 244.67L25.83 -31.16Z" fill="#000000" fill-opacity="1.000000" fill-rule="nonzero"/>
			</mask>
			<g mask="url(#mask1_364)">
				<path id="Vector" d="M269.93 105.85C279.54 111.56 279.59 120.82 270.04 126.53L177.8 181.68C168.26 187.39 152.73 187.39 143.13 181.68L50.26 126.52C40.65 120.82 40.6 111.56 50.14 105.85L142.38 50.69C151.93 44.98 167.46 44.98 177.06 50.69L269.93 105.85Z" fill="#FFBC90" fill-opacity="1.000000" fill-rule="nonzero"/>
				<path id="Vector" d="M270.04 126.53L177.8 181.68C168.26 187.39 152.73 187.39 143.13 181.68L50.26 126.52C40.65 120.82 40.6 111.56 50.14 105.85L142.38 50.69C151.93 44.98 167.46 44.98 177.06 50.69L269.93 105.85C279.54 111.56 279.59 120.82 270.04 126.53Z" stroke="#1D1D1B" stroke-opacity="1.000000" stroke-width="0.675000"/>
				<mask id="mask1_289" mask-type="alpha" maskUnits="userSpaceOnUse" x="24.765137" y="-34.469727" width="246.857178" height="201.418457">
					<path id="Vector" d="M271.62 -34.47L119.21 -12.41L24.76 51.59L65.28 92.89L65.28 111.44C65.28 111.44 65.19 114.13 67.91 116.32C70.63 118.51 95.87 133.51 95.87 133.51L146.98 163.99C146.98 163.99 157.25 170.54 172.54 164.13C172.74 164.06 194.21 151.23 194.21 151.23C194.21 151.23 249.37 118.05 251.09 117.1C253.3 115.44 254.02 113.7 254.2 111.68C254.24 111.26 254.24 102.07 254.32 90.18C258.92 51.63 271.62 -34.47 271.62 -34.47Z" fill="#1C1C1A" fill-opacity="1.000000" fill-rule="nonzero"/>
				</mask>
				<g mask="url(#mask1_289)">
					<path id="Vector" d="M71.48 104.53L146.09 148.86C146.33 149 146.56 149.13 146.8 149.26L147.05 149.39L147.54 149.64L147.84 149.78C147.99 149.85 148.15 149.92 148.3 149.99L148.63 150.13C148.77 150.19 148.9 150.25 149.04 150.3C149.39 150.44 149.73 150.57 150.08 150.69L150.24 150.75C150.55 150.85 150.86 150.95 151.17 151.05L151.52 151.15L152.12 151.31L152.48 151.41L153.15 151.56L153.46 151.63L154.08 151.75L154.42 151.82L155.23 151.95L155.37 151.97C155.69 152.02 156 152.06 156.32 152.09L156.51 152.09C156.76 152.12 157.02 152.15 157.27 152.17L157.61 152.2C157.82 152.2 158.02 152.23 158.22 152.24L158.62 152.25C158.81 152.25 158.99 152.25 159.18 152.28L159.55 152.28L160.16 152.28L160.57 152.28L161.14 152.28L161.52 152.28L162.19 152.24L162.59 152.21L163.22 152.16L163.6 152.12C163.94 152.09 164.26 152.05 164.59 152L164.74 151.98C165.12 151.93 165.49 151.86 165.86 151.8L166.26 151.72L166.78 151.62C166.92 151.59 167.06 151.55 167.19 151.52C167.33 151.49 167.54 151.44 167.7 151.4L168.11 151.29L168.61 151.16L169.02 151.04L169.5 150.89L169.84 150.77C170.13 150.67 170.42 150.57 170.7 150.46L170.88 150.39C171.22 150.26 171.54 150.12 171.86 149.98L172.11 149.86C172.36 149.75 172.61 149.63 172.84 149.51L173.12 149.37C173.42 149.21 173.73 149.04 174.02 148.86L248.36 104.41C248.52 104.31 248.67 104.22 248.82 104.12L249.17 103.89L249.48 103.67L249.82 103.42L250.12 103.2L250.43 102.95L250.7 102.71L250.99 102.46L251.33 102.13L251.41 102.06C251.55 101.91 251.69 101.76 251.82 101.61C251.85 101.58 251.88 101.54 251.92 101.51C252.03 101.38 252.13 101.25 252.24 101.12L252.3 101.04L252.43 100.85C252.53 100.72 252.63 100.59 252.72 100.46C252.77 100.39 252.81 100.31 252.85 100.24C252.9 100.16 253 100 253.07 99.88L253.2 99.64C253.26 99.53 253.31 99.43 253.36 99.33C253.41 99.23 253.44 99.16 253.47 99.07C253.51 98.98 253.56 98.87 253.6 98.76C253.64 98.66 253.67 98.59 253.69 98.5C253.72 98.41 253.76 98.31 253.79 98.21C253.82 98.11 253.84 98.03 253.87 97.94C253.89 97.85 253.91 97.74 253.94 97.64C253.96 97.54 253.98 97.46 253.99 97.37C254 97.28 254.02 97.17 254.04 97.07C254.05 96.97 254.06 96.89 254.07 96.8C254.08 96.71 254.07 96.6 254.09 96.49C254.12 96.39 254.09 96.26 254.09 96.14L254.05 110.58L254.05 110.75L254.05 110.93C254.05 110.99 254.05 111.14 254.03 111.24C254.01 111.35 254.01 111.42 254 111.51C253.98 111.6 253.97 111.71 253.95 111.81L253.95 111.92C253.95 111.96 253.93 112.03 253.91 112.08C253.9 112.13 253.87 112.28 253.85 112.38C253.82 112.48 253.79 112.56 253.77 112.65C253.74 112.74 253.71 112.84 253.67 112.94C253.67 112.98 253.65 113.02 253.63 113.07L253.58 113.2C253.54 113.31 253.49 113.41 253.45 113.51C253.41 113.62 253.37 113.68 253.33 113.77C253.29 113.86 253.23 113.97 253.18 114.08C253.13 114.18 253.13 114.17 253.11 114.22C253.08 114.27 253.06 114.29 253.05 114.32C252.98 114.44 252.91 114.56 252.83 114.68L252.69 114.9C252.6 115.03 252.51 115.16 252.41 115.29C252.38 115.34 252.35 115.39 252.31 115.44L252.28 115.47L252.21 115.56C252.11 115.69 252 115.82 251.89 115.94L251.8 116.05C251.67 116.2 251.53 116.35 251.39 116.49L251.31 116.57L251.08 116.79L250.97 116.9L250.68 117.15L250.41 117.39L250.1 117.63C250.01 117.71 249.91 117.79 249.81 117.86C249.7 117.94 249.59 118.02 249.46 118.1L249.14 118.32C249.03 118.4 248.91 118.48 248.8 118.56L248.58 118.7L248.34 118.85L174 163.3C173.71 163.48 173.4 163.66 173.09 163.81L172.83 163.95C172.59 164.07 172.34 164.19 172.09 164.3L171.84 164.42C171.52 164.56 171.19 164.7 170.86 164.83L170.68 164.9C170.4 165.01 170.11 165.11 169.82 165.21L169.67 165.26L169.46 165.32L168.98 165.48L168.57 165.6L168.08 165.73L167.67 165.84L167.16 165.96L166.74 166.05L166.23 166.16L165.93 166.22L165.83 166.22C165.46 166.29 165.09 166.35 164.71 166.4L164.55 166.42C164.21 166.47 163.9 166.51 163.57 166.54L163.41 166.54L163.19 166.56L162.55 166.62L162.15 166.65L161.49 166.68L161.22 166.68L161.1 166.68L160.53 166.68L160.12 166.68L159.5 166.68L159.14 166.68L158.58 166.66L158.18 166.66L157.57 166.62L157.23 166.59L157.2 166.59C156.95 166.57 156.7 166.54 156.45 166.52L156.25 166.52C155.94 166.48 155.62 166.44 155.31 166.39L155.17 166.37C154.9 166.33 154.63 166.29 154.37 166.23L154.02 166.17C153.81 166.13 153.61 166.1 153.41 166.05L153.34 166.05L153.09 165.99L152.43 165.84L152.06 165.75L151.46 165.58L151.28 165.53L151.12 165.48C150.81 165.39 150.5 165.29 150.19 165.19L150.03 165.13C149.68 165.01 149.34 164.88 148.99 164.74L148.89 164.7L148.58 164.57L148.23 164.43C148.08 164.36 147.92 164.28 147.77 164.21L147.47 164.07C147.31 163.99 147.13 163.91 146.98 163.82L146.74 163.7C146.5 163.56 146.26 163.43 146.03 163.3L71.2 118.84C67.3 116.52 65.35 113.48 65.36 110.45L65.4 96.02C65.4 99.05 67.34 102.09 71.23 104.4L71.48 104.53Z" fill="#1D1D1B" fill-opacity="1.000000" fill-rule="nonzero"/>
					<path id="Vector" d="M146.09 148.86C146.33 149 146.56 149.13 146.8 149.26L147.05 149.39L147.54 149.64L147.84 149.78C147.99 149.85 148.15 149.92 148.3 149.99L148.63 150.13C148.77 150.19 148.9 150.25 149.04 150.3C149.39 150.44 149.73 150.57 150.08 150.69L150.24 150.75C150.55 150.85 150.86 150.95 151.17 151.05L151.52 151.15L152.12 151.31L152.48 151.41L153.15 151.56L153.46 151.63L154.08 151.75L154.42 151.82L155.23 151.95L155.37 151.97C155.69 152.02 156 152.06 156.32 152.09L156.51 152.09C156.76 152.12 157.02 152.15 157.27 152.17L157.61 152.2C157.82 152.2 158.02 152.23 158.22 152.24L158.62 152.25C158.81 152.25 158.99 152.25 159.18 152.28L159.55 152.28L160.16 152.28L160.57 152.28L161.14 152.28L161.52 152.28L162.19 152.24L162.59 152.21L163.22 152.16L163.6 152.12C163.94 152.09 164.26 152.05 164.59 152L164.74 151.98C165.12 151.93 165.49 151.86 165.86 151.8L166.26 151.72L166.78 151.62C166.92 151.59 167.06 151.55 167.19 151.52C167.33 151.49 167.54 151.44 167.7 151.4L168.11 151.29L168.61 151.16L169.02 151.04L169.5 150.89L169.84 150.77C170.13 150.67 170.42 150.57 170.7 150.46L170.88 150.39C171.22 150.26 171.54 150.12 171.86 149.98L172.11 149.86C172.36 149.75 172.61 149.63 172.84 149.51L173.12 149.37C173.42 149.21 173.73 149.04 174.02 148.86L248.36 104.41C248.52 104.31 248.67 104.22 248.82 104.12L249.17 103.89L249.48 103.67L249.82 103.42L250.12 103.2L250.43 102.95L250.7 102.71L250.99 102.46L251.33 102.13L251.41 102.06C251.55 101.91 251.69 101.76 251.82 101.61C251.85 101.58 251.88 101.54 251.92 101.51C252.03 101.38 252.13 101.25 252.24 101.12L252.3 101.04L252.43 100.85C252.53 100.72 252.63 100.59 252.72 100.46C252.77 100.39 252.81 100.31 252.85 100.24C252.9 100.16 253 100 253.07 99.88L253.2 99.64C253.26 99.53 253.31 99.43 253.36 99.33C253.41 99.23 253.44 99.16 253.47 99.07C253.51 98.98 253.56 98.87 253.6 98.76C253.64 98.66 253.67 98.59 253.69 98.5C253.72 98.41 253.76 98.31 253.79 98.21C253.82 98.11 253.84 98.03 253.87 97.94C253.89 97.85 253.91 97.74 253.94 97.64C253.96 97.54 253.98 97.46 253.99 97.37C254 97.28 254.02 97.17 254.04 97.07C254.05 96.97 254.06 96.89 254.07 96.8C254.08 96.71 254.07 96.6 254.09 96.49C254.12 96.39 254.09 96.26 254.09 96.14L254.05 110.58L254.05 110.75L254.05 110.93C254.05 110.99 254.05 111.14 254.03 111.24C254.01 111.35 254.01 111.42 254 111.51C253.98 111.6 253.97 111.71 253.95 111.81L253.95 111.92C253.95 111.96 253.93 112.03 253.91 112.08C253.9 112.13 253.87 112.28 253.85 112.38C253.82 112.48 253.79 112.56 253.77 112.65C253.74 112.74 253.71 112.84 253.67 112.94C253.67 112.98 253.65 113.02 253.63 113.07L253.58 113.2C253.54 113.31 253.49 113.41 253.45 113.51C253.41 113.62 253.37 113.68 253.33 113.77C253.29 113.86 253.23 113.97 253.18 114.08C253.13 114.18 253.13 114.17 253.11 114.22C253.08 114.27 253.06 114.29 253.05 114.32C252.98 114.44 252.91 114.56 252.83 114.68L252.69 114.9C252.6 115.03 252.51 115.16 252.41 115.29C252.38 115.34 252.35 115.39 252.31 115.44L252.28 115.47L252.21 115.56C252.11 115.69 252 115.82 251.89 115.94L251.8 116.05C251.67 116.2 251.53 116.35 251.39 116.49L251.31 116.57L251.08 116.79L250.97 116.9L250.68 117.15L250.41 117.39L250.1 117.63C250.01 117.71 249.91 117.79 249.81 117.86C249.7 117.94 249.59 118.02 249.46 118.1L249.14 118.32C249.03 118.4 248.91 118.48 248.8 118.56L248.58 118.7L248.34 118.85L174 163.3C173.71 163.48 173.4 163.66 173.09 163.81L172.83 163.95C172.59 164.07 172.34 164.19 172.09 164.3L171.84 164.42C171.52 164.56 171.19 164.7 170.86 164.83L170.68 164.9C170.4 165.01 170.11 165.11 169.82 165.21L169.67 165.26L169.46 165.32L168.98 165.48L168.57 165.6L168.08 165.73L167.67 165.84L167.16 165.96L166.74 166.05L166.23 166.16L165.93 166.22L165.83 166.22C165.46 166.29 165.09 166.35 164.71 166.4L164.55 166.42C164.21 166.47 163.9 166.51 163.57 166.54L163.41 166.54L163.19 166.56L162.55 166.62L162.15 166.65L161.49 166.68L161.22 166.68L161.1 166.68L160.53 166.68L160.12 166.68L159.5 166.68L159.14 166.68L158.58 166.66L158.18 166.66L157.57 166.62L157.23 166.59L157.2 166.59C156.95 166.57 156.7 166.54 156.45 166.52L156.25 166.52C155.94 166.48 155.62 166.44 155.31 166.39L155.17 166.37C154.9 166.33 154.63 166.29 154.37 166.23L154.02 166.17C153.81 166.13 153.61 166.1 153.41 166.05L153.34 166.05L153.09 165.99L152.43 165.84L152.06 165.75L151.46 165.58L151.28 165.53L151.12 165.48C150.81 165.39 150.5 165.29 150.19 165.19L150.03 165.13C149.68 165.01 149.34 164.88 148.99 164.74L148.89 164.7L148.58 164.57L148.23 164.43C148.08 164.36 147.92 164.28 147.77 164.21L147.47 164.07C147.31 163.99 147.13 163.91 146.98 163.82L146.74 163.7C146.5 163.56 146.26 163.43 146.03 163.3L71.2 118.84C67.3 116.52 65.35 113.48 65.36 110.45L65.4 96.02C65.4 99.05 67.34 102.09 71.23 104.4L71.48 104.53L146.09 148.86Z" stroke="#1D1D1B" stroke-opacity="1.000000" stroke-width="0.058590"/>
					<path id="Vector" d="M248.27 88.82C256.01 93.43 256.05 100.87 248.36 105.47L174.02 149.93C166.32 154.53 153.81 154.53 146.07 149.93L71.25 105.48C63.51 100.88 63.47 93.44 71.16 88.84L145.5 44.38C153.19 39.78 165.71 39.78 173.45 44.38L248.27 88.82Z" fill="#FFFFFF" fill-opacity="1.000000" fill-rule="nonzero"/>
					<path id="Vector" d="M248.36 105.47L174.02 149.93C166.32 154.53 153.81 154.53 146.07 149.93L71.25 105.48C63.51 100.88 63.47 93.44 71.16 88.84L145.5 44.38C153.19 39.78 165.71 39.78 173.45 44.38L248.27 88.82C256.01 93.43 256.05 100.87 248.36 105.47Z" stroke="#1D1D1B" stroke-opacity="1.000000" stroke-width="0.675000"/>
				</g>
				<mask id="mask1_325" mask-type="alpha" maskUnits="userSpaceOnUse" x="25.838501" y="-31.159668" width="268.322998" height="275.837891">
					<path id="Vector" d="M25.83 -31.16L294.16 -31.16L294.16 244.67L25.83 244.67L25.83 -31.16Z" fill="#000000" fill-opacity="1.000000" fill-rule="nonzero"/>
				</mask>
				<g mask="url(#mask1_325)">
					<path id="Vector" d="M187.54 77.19C191.53 79.56 194.57 82.45 196.38 85.62C198.48 89.28 198.92 93.17 197.7 97.18C197.6 97.53 197.26 97.74 196.9 97.7C196.42 97.64 196.11 97.13 196.25 96.65C197.28 92.92 196.82 89.32 194.88 85.92C193.15 82.89 190.24 80.12 186.42 77.86C185.94 77.57 185.45 77.3 184.94 77.03C175.39 71.99 162.33 70.41 149.92 72.78C149.73 72.82 149.53 72.72 149.42 72.54C149.26 72.25 149.42 71.88 149.75 71.82C162.59 69.43 176.1 71.11 185.99 76.33C186.52 76.61 187.04 76.9 187.54 77.19Z" fill="#1D1D1B" fill-opacity="1.000000" fill-rule="nonzero"/>
					<path id="Vector" d="M163.78 93.01C169.21 96.22 167.82 100.57 166.58 104.43C165.68 107.25 164.9 109.68 166.85 111.14C166.96 111.22 167.08 111.3 167.21 111.37C168.51 112.15 170.73 112.58 173.95 112.69C174.21 112.69 174.41 112.92 174.4 113.19C174.38 113.44 174.17 113.63 173.93 113.63C170.27 113.51 167.7 112.99 166.1 112.04C165.93 111.94 165.77 111.83 165.62 111.72C163.21 109.92 164.09 107.17 165.02 104.26C166.24 100.46 167.5 96.54 162.65 93.67C162.31 93.46 161.94 93.27 161.53 93.07C156.53 90.71 149.31 90.65 143.96 92.93C135.89 96.39 132.3 101.18 130.71 104.59C128.94 108.38 128.79 112.38 130.28 115.51C130.49 115.97 130.26 116.54 129.77 116.65C129.48 116.71 129.18 116.58 129.03 116.31C127.19 112.95 127.23 108.51 129.18 104.33C130.84 100.78 134.59 95.78 143.03 92.17C148.95 89.64 156.97 89.71 162.52 92.34C162.98 92.55 163.4 92.78 163.78 93.01Z" fill="#1D1D1B" fill-opacity="1.000000" fill-rule="nonzero"/>
					<path id="Vector" d="M154.62 99.11C155.18 99.44 155.58 99.85 155.78 100.32C156.61 102.25 155.88 104.53 155.18 106.74C154.13 110 153.13 113.13 156.71 115.26C157.94 115.99 159.71 116.59 162.19 117.05C162.5 117.11 162.68 117.45 162.54 117.74C162.45 117.93 162.25 118.04 162.04 118.01C159.09 117.49 157.01 116.77 155.56 115.92C151.41 113.46 152.57 109.85 153.62 106.55C154.32 104.35 154.99 102.27 154.25 100.55C154.12 100.25 153.86 99.98 153.5 99.77C153.18 99.58 152.77 99.43 152.3 99.35C151.32 99.17 150.28 99.31 149.53 99.71C146.08 101.59 143.17 105.09 141.76 109.08C140.45 112.77 140.66 116.15 142.31 118.55C142.59 118.96 142.44 119.56 141.98 119.71C141.75 119.79 141.48 119.72 141.32 119.53C139.13 116.92 138.72 113.07 140.21 108.88C141.69 104.71 144.77 101.02 148.47 99.02C149.63 98.39 151.23 98.17 152.75 98.45C153.48 98.58 154.11 98.8 154.62 99.11Z" fill="#1D1D1B" fill-opacity="1.000000" fill-rule="nonzero"/>
					<path id="Vector" d="M149.33 104.76C149.81 104.86 150.06 105.43 149.83 105.88C146.44 112.59 148.85 116.63 151.17 118.73C151.51 119.04 151.45 119.62 151.04 119.82C150.84 119.91 150.62 119.89 150.44 119.75C147.77 117.64 146.47 114.95 146.59 111.75C146.68 109.21 147.67 106.81 148.57 105.12C148.71 104.84 149.02 104.7 149.33 104.76Z" fill="#1D1D1B" fill-opacity="1.000000" fill-rule="nonzero"/>
					<path id="Vector" d="M177.31 83.94C187.7 90.09 186.34 95.91 185.34 100.16C184.75 102.72 184.48 104.28 186.06 105.22C186.2 105.3 186.34 105.37 186.5 105.44C186.83 105.59 186.96 106.02 186.72 106.3C186.6 106.45 186.4 106.51 186.21 106.45C185.72 106.28 185.3 106.09 184.95 105.89C182.72 104.57 183.22 102.43 183.78 100.03C184.72 95.97 186.02 90.42 176.2 84.6C170.38 81.16 162.98 79.44 154.8 79.66C147.32 79.85 139.27 81.69 132.14 84.84C125.67 87.69 120.55 91.9 116.93 97.34C116.76 97.59 116.47 97.71 116.18 97.64C115.69 97.53 115.47 96.96 115.76 96.54C119.47 91.15 124.66 86.96 131.19 84.08C138.68 80.78 146.82 78.92 154.73 78.72C163.36 78.49 171.17 80.3 177.31 83.94Z" fill="#1D1D1B" fill-opacity="1.000000" fill-rule="nonzero"/>
					<path id="Vector" d="M173.38 87.58C176.8 89.6 178.74 91.89 179.3 94.54C179.83 97.03 179.07 99.41 178.4 101.52C177.67 103.79 177.04 105.76 178.41 106.95C178.54 107.06 178.7 107.18 178.87 107.28C179.61 107.72 180.71 108.03 182.19 108.24C182.49 108.28 182.67 108.58 182.58 108.87C182.52 109.08 182.31 109.22 182.09 109.19C180.18 108.95 178.75 108.54 177.76 107.95C177.51 107.8 177.29 107.64 177.1 107.48C175.36 105.96 176.04 103.82 176.84 101.34C178.09 97.43 179.63 92.61 172.24 88.24C171.95 88.06 171.64 87.89 171.32 87.72C166.59 85.18 160.44 83.75 154.01 83.69C147.62 83.63 141.36 84.91 136.38 87.3C130.3 90.22 125.79 93.67 122.96 97.56C120.5 100.96 119.38 104.6 119.63 108.4C119.66 108.87 119.31 109.29 118.85 109.31C118.44 109.32 118.09 109.02 118.05 108.6C117.42 100.06 123.54 92.26 135.38 86.57C140.65 84.04 147.27 82.68 154.03 82.75C160.84 82.82 167.36 84.33 172.37 87.02C172.72 87.2 173.06 87.39 173.38 87.58Z" fill="#1D1D1B" fill-opacity="1.000000" fill-rule="nonzero"/>
					<path id="Vector" d="M168.6 90.01C175.12 93.87 173.64 98.76 172.43 102.75C171.63 105.41 170.93 107.71 172.68 109.07C172.8 109.16 172.93 109.25 173.07 109.34C174.13 109.96 175.83 110.35 178.23 110.52C178.5 110.53 178.7 110.78 178.66 111.06C178.63 111.3 178.42 111.47 178.18 111.46C175.34 111.27 173.29 110.8 171.96 110C171.77 109.89 171.59 109.77 171.43 109.64C169.25 107.95 170 105.46 170.87 102.58C172.07 98.63 173.42 94.19 167.48 90.67C167.01 90.39 166.5 90.12 165.93 89.85C159 86.59 149.06 86.5 141.76 89.64C134.41 92.79 129.08 96.91 126.34 101.55C124.15 105.25 123.66 109.22 124.92 112.85C125.08 113.33 124.8 113.86 124.31 113.93C123.98 113.98 123.65 113.8 123.53 113.49C122.01 109.58 122.47 105.25 124.84 101.23C127.69 96.41 133.22 92.14 140.83 88.87C148.7 85.49 159.43 85.59 166.91 89.12C167.53 89.41 168.09 89.7 168.6 90.01Z" fill="#1D1D1B" fill-opacity="1.000000" fill-rule="nonzero"/>
					<path id="Vector" d="M159.55 95.75C163.51 98.1 162.19 101.68 160.9 105.17C159.79 108.16 158.74 110.99 160.9 112.95C161.16 113.18 161.45 113.39 161.79 113.59C163.1 114.37 165.05 114.93 167.71 115.27C168 115.31 168.19 115.61 168.1 115.9C168.03 116.11 167.83 116.25 167.61 116.22C164.53 115.84 162.24 115.19 160.67 114.26C160.26 114.02 159.9 113.75 159.58 113.47C157.05 111.18 158.22 108.01 159.35 104.96C160.6 101.6 161.78 98.4 158.39 96.4C158.05 96.19 157.66 96 157.21 95.82C154.76 94.83 150.76 94.22 145.63 96.89C141.48 99.05 137.87 102.77 135.98 106.84C134.14 110.79 134.17 114.58 136 117.43C136.27 117.85 136.1 118.45 135.63 118.59C135.38 118.66 135.11 118.58 134.94 118.37C132.55 115.23 132.37 111.07 134.45 106.59C136.42 102.35 140.21 98.46 144.58 96.18C149.18 93.79 153.97 93.39 158.09 95.04C158.64 95.26 159.13 95.5 159.55 95.75Z" fill="#1D1D1B" fill-opacity="1.000000" fill-rule="nonzero"/>
					<path id="Vector" d="M182.69 80.25C183.66 80.82 184.6 81.45 185.52 82.14C191.97 87.02 191.77 92.03 191.6 96.06C191.53 97.87 191.47 99.48 192 100.79C192.19 101.25 191.99 101.85 191.51 101.98C191.25 102.05 190.97 101.95 190.82 101.71C189.86 100.15 189.93 98.23 190.02 96.04C190.18 92.16 190.38 87.33 184.27 82.72C183.42 82.07 182.52 81.47 181.57 80.91C178.45 79.06 174.85 77.69 170.82 76.82C166.38 75.86 161.43 75.5 156.1 75.77C146.05 76.26 137.77 78.74 134.51 80.09C134.34 80.16 134.14 80.14 133.99 80.01C133.67 79.76 133.74 79.26 134.11 79.11C138.74 77.29 147.2 75.26 155.97 74.83C163.61 74.45 174.11 75.16 182.69 80.25Z" fill="#1D1D1B" fill-opacity="1.000000" fill-rule="nonzero"/>
					<path id="Vector" d="M192 74.12C195.55 76.36 198.17 78.72 199.81 81.17C200.09 81.59 199.85 82.15 199.36 82.25C199.06 82.31 198.76 82.17 198.59 81.9C197.05 79.43 194.46 77.04 190.9 74.79C186.23 72.19 181.23 70.49 176.01 69.71C175.71 69.67 175.52 69.35 175.63 69.06C175.71 68.86 175.91 68.73 176.13 68.76C181.71 69.56 187.05 71.36 192 74.12Z" fill="#1D1D1B" fill-opacity="1.000000" fill-rule="nonzero"/>
				</g>
				<mask id="mask1_351" mask-type="alpha" maskUnits="userSpaceOnUse" x="54.817383" y="92.553711" width="116.586304" height="70.166016">
					<path id="Vector" d="M65.04 92.55L54.81 99.17L161.03 162.72L171.4 156.41L65.04 92.55Z" fill="#FFBC90" fill-opacity="1.000000" fill-rule="nonzero"/>
					<path id="Vector" d="M54.81 99.17L161.03 162.72L171.4 156.41L65.04 92.55L54.81 99.17Z" stroke="#1C1C1A" stroke-opacity="1.000000" stroke-width="0.675000"/>
				</mask>
				<g mask="url(#mask1_351)">
					<path id="Vector" d="M196.38 85.61C198.48 89.28 198.92 93.17 197.7 97.18C197.6 97.53 197.26 97.74 196.9 97.7C196.42 97.64 196.11 97.13 196.25 96.65C197.28 92.92 196.83 89.32 194.88 85.91C193.15 82.89 190.24 80.12 186.42 77.85C185.94 77.57 185.45 77.3 184.94 77.03C175.39 71.99 162.33 70.41 149.92 72.78C149.73 72.82 149.53 72.72 149.43 72.54C149.26 72.25 149.43 71.88 149.75 71.82C162.6 69.43 176.1 71.11 185.99 76.33C186.52 76.61 187.04 76.9 187.54 77.19C191.53 79.56 194.57 82.45 196.38 85.61ZM166.58 104.44C165.68 107.25 164.9 109.68 166.85 111.14C166.96 111.22 167.08 111.3 167.21 111.37C168.51 112.15 170.73 112.58 173.95 112.69C174.21 112.69 174.41 112.92 174.4 113.19C174.38 113.44 174.17 113.63 173.93 113.63C170.27 113.51 167.7 112.99 166.1 112.04C165.93 111.94 165.77 111.83 165.62 111.72C163.21 109.92 164.09 107.17 165.02 104.26C166.24 100.46 167.5 96.54 162.65 93.67C162.31 93.46 161.94 93.27 161.53 93.08C156.54 90.71 149.31 90.65 143.96 92.93C135.89 96.39 132.3 101.18 130.71 104.59C128.94 108.39 128.79 112.38 130.28 115.51C130.49 115.97 130.26 116.54 129.77 116.65C129.48 116.71 129.18 116.58 129.03 116.32C127.18 112.94 127.23 108.51 129.18 104.34C130.84 100.78 134.59 95.78 143.03 92.17C148.95 89.64 156.97 89.71 162.52 92.34C162.98 92.55 163.4 92.78 163.78 93.01C169.21 96.22 167.82 100.57 166.58 104.44ZM155.78 100.32C156.61 102.25 155.88 104.53 155.18 106.74C154.13 110 153.13 113.13 156.71 115.26C157.94 115.98 159.71 116.59 162.19 117.05C162.5 117.11 162.68 117.45 162.54 117.74C162.45 117.93 162.25 118.04 162.05 118C159.09 117.49 157.01 116.77 155.56 115.92C151.41 113.46 152.57 109.84 153.62 106.55C154.32 104.35 154.99 102.27 154.25 100.55C154.12 100.25 153.86 99.99 153.5 99.77C153.18 99.58 152.76 99.43 152.3 99.35C151.32 99.17 150.28 99.31 149.53 99.72C146.08 101.59 143.17 105.09 141.76 109.08C140.45 112.77 140.66 116.15 142.31 118.55C142.59 118.96 142.44 119.56 141.98 119.71C141.74 119.79 141.48 119.72 141.32 119.53C139.13 116.92 138.72 113.07 140.21 108.88C141.69 104.71 144.77 101.02 148.47 99.02C149.63 98.39 151.23 98.18 152.75 98.45C153.48 98.58 154.11 98.81 154.62 99.11C155.18 99.44 155.58 99.85 155.78 100.32ZM149.83 105.88C146.44 112.59 148.85 116.63 151.17 118.73C151.51 119.04 151.45 119.62 151.04 119.82C150.85 119.91 150.62 119.89 150.45 119.75C147.77 117.64 146.47 114.95 146.59 111.75C146.68 109.21 147.67 106.81 148.57 105.12C148.72 104.84 149.02 104.7 149.32 104.76C149.81 104.86 150.06 105.43 149.83 105.88ZM185.34 100.16C184.75 102.72 184.48 104.28 186.07 105.22C186.2 105.3 186.34 105.37 186.5 105.44C186.83 105.59 186.96 106.02 186.72 106.3C186.6 106.45 186.4 106.51 186.21 106.45C185.72 106.28 185.3 106.1 184.95 105.89C182.72 104.56 183.22 102.44 183.78 100.03C184.72 95.97 186.02 90.42 176.2 84.6C170.38 81.15 162.98 79.44 154.81 79.66C147.32 79.85 139.27 81.69 132.14 84.84C125.67 87.69 120.55 91.9 116.92 97.34C116.76 97.59 116.47 97.71 116.18 97.64C115.7 97.53 115.47 96.96 115.76 96.54C119.47 91.15 124.66 86.96 131.19 84.08C138.68 80.78 146.82 78.93 154.73 78.72C163.36 78.49 171.17 80.3 177.31 83.94C187.7 90.09 186.34 95.91 185.34 100.16ZM179.3 94.55C179.83 97.03 179.07 99.41 178.4 101.52C177.67 103.79 177.04 105.76 178.41 106.95C178.54 107.06 178.7 107.18 178.87 107.28C179.61 107.72 180.7 108.04 182.19 108.24C182.49 108.28 182.67 108.58 182.59 108.87C182.52 109.08 182.31 109.22 182.09 109.19C180.18 108.95 178.75 108.54 177.76 107.95C177.51 107.8 177.29 107.64 177.1 107.47C175.36 105.96 176.04 103.82 176.84 101.34C178.09 97.43 179.63 92.61 172.24 88.23C171.95 88.06 171.64 87.89 171.32 87.72C166.59 85.18 160.44 83.76 154.01 83.69C147.62 83.63 141.36 84.91 136.38 87.3C130.3 90.22 125.78 93.67 122.96 97.57C120.5 100.96 119.38 104.6 119.63 108.4C119.66 108.87 119.31 109.29 118.85 109.31C118.44 109.33 118.09 109.02 118.05 108.6C117.42 100.06 123.54 92.26 135.38 86.57C140.65 84.04 147.27 82.68 154.04 82.75C160.84 82.82 167.36 84.33 172.37 87.02C172.72 87.2 173.06 87.39 173.38 87.58C176.8 89.61 178.74 91.89 179.3 94.55ZM172.43 102.75C171.62 105.41 170.93 107.71 172.68 109.07C172.8 109.16 172.93 109.25 173.07 109.34C174.13 109.96 175.83 110.35 178.23 110.51C178.5 110.53 178.7 110.79 178.66 111.06C178.63 111.3 178.42 111.47 178.18 111.46C175.34 111.27 173.29 110.8 171.96 110C171.77 109.89 171.59 109.77 171.43 109.64C169.25 107.95 170 105.46 170.87 102.58C172.07 98.63 173.41 94.18 167.48 90.67C167.01 90.39 166.5 90.12 165.93 89.85C159 86.59 149.06 86.5 141.76 89.64C134.41 92.79 129.08 96.91 126.34 101.55C124.15 105.25 123.66 109.22 124.92 112.85C125.08 113.33 124.8 113.86 124.31 113.93C123.98 113.98 123.65 113.81 123.53 113.49C122.01 109.57 122.47 105.25 124.84 101.23C127.69 96.41 133.22 92.14 140.83 88.87C148.7 85.49 159.43 85.59 166.91 89.12C167.52 89.41 168.09 89.7 168.6 90.01C175.12 93.87 173.64 98.76 172.43 102.75ZM160.9 105.17C159.79 108.16 158.74 110.99 160.91 112.95C161.16 113.18 161.45 113.39 161.79 113.6C163.1 114.37 165.05 114.93 167.72 115.28C168.01 115.31 168.19 115.62 168.1 115.9C168.03 116.11 167.83 116.25 167.61 116.22C164.53 115.84 162.24 115.19 160.67 114.26C160.26 114.02 159.9 113.75 159.58 113.47C157.05 111.18 158.22 108.02 159.35 104.96C160.6 101.6 161.78 98.4 158.39 96.39C158.05 96.19 157.66 96 157.21 95.82C154.76 94.84 150.76 94.22 145.63 96.89C141.48 99.05 137.87 102.77 135.98 106.84C134.14 110.79 134.17 114.58 136 117.43C136.27 117.85 136.1 118.45 135.63 118.59C135.38 118.66 135.11 118.58 134.94 118.37C132.55 115.23 132.37 111.07 134.45 106.59C136.42 102.34 140.21 98.45 144.58 96.18C149.18 93.79 153.97 93.39 158.09 95.04C158.64 95.26 159.13 95.5 159.55 95.75C163.51 98.1 162.19 101.68 160.9 105.17ZM185.52 82.14C191.97 87.02 191.77 92.03 191.6 96.07C191.53 97.87 191.46 99.48 192 100.79C192.19 101.25 191.99 101.85 191.51 101.98C191.25 102.05 190.97 101.95 190.82 101.72C189.85 100.15 189.93 98.23 190.02 96.04C190.18 92.16 190.38 87.33 184.27 82.72C183.42 82.07 182.52 81.47 181.57 80.91C178.45 79.06 174.84 77.69 170.82 76.82C166.38 75.86 161.43 75.5 156.1 75.77C146.05 76.26 137.77 78.74 134.52 80.09C134.34 80.17 134.13 80.14 133.99 80.01C133.67 79.76 133.74 79.26 134.11 79.11C138.74 77.29 147.2 75.26 155.97 74.83C163.62 74.45 174.11 75.16 182.69 80.25C183.66 80.82 184.6 81.45 185.52 82.14ZM199.81 81.17C200.09 81.59 199.85 82.15 199.36 82.25C199.06 82.31 198.75 82.17 198.59 81.9C197.05 79.43 194.46 77.04 190.9 74.79C186.23 72.19 181.23 70.49 176.01 69.71C175.71 69.67 175.53 69.35 175.63 69.06C175.71 68.86 175.92 68.73 176.13 68.76C181.71 69.56 187.05 71.36 192 74.12C195.55 76.35 198.17 78.72 199.81 81.17Z" stroke="#FFBC90" stroke-opacity="1.000000" stroke-width="0.270000"/>
					<path id="Vector" d="M187.54 77.19C191.53 79.56 194.57 82.45 196.38 85.62C198.48 89.28 198.92 93.17 197.7 97.18C197.6 97.53 197.26 97.74 196.9 97.7C196.42 97.64 196.11 97.13 196.25 96.65C197.28 92.92 196.82 89.32 194.88 85.92C193.15 82.89 190.24 80.12 186.42 77.86C185.94 77.57 185.45 77.3 184.94 77.03C175.39 71.99 162.33 70.41 149.92 72.78C149.73 72.82 149.53 72.72 149.42 72.54C149.26 72.25 149.42 71.88 149.75 71.82C162.59 69.43 176.1 71.11 185.99 76.33C186.52 76.61 187.04 76.9 187.54 77.19Z" fill="#FFBC90" fill-opacity="1.000000" fill-rule="nonzero"/>
					<path id="Vector" d="M163.78 93.01C169.21 96.22 167.82 100.57 166.58 104.43C165.68 107.25 164.9 109.68 166.85 111.14C166.96 111.22 167.08 111.3 167.21 111.37C168.51 112.15 170.73 112.58 173.95 112.69C174.21 112.69 174.41 112.92 174.4 113.19C174.38 113.44 174.17 113.63 173.93 113.63C170.27 113.51 167.7 112.99 166.1 112.04C165.93 111.94 165.77 111.83 165.62 111.72C163.21 109.92 164.09 107.17 165.02 104.26C166.24 100.46 167.5 96.54 162.65 93.67C162.31 93.46 161.94 93.27 161.53 93.07C156.53 90.71 149.31 90.65 143.96 92.93C135.89 96.39 132.3 101.18 130.71 104.59C128.94 108.38 128.79 112.38 130.28 115.51C130.49 115.97 130.26 116.54 129.77 116.65C129.48 116.71 129.18 116.58 129.03 116.31C127.19 112.95 127.23 108.51 129.18 104.33C130.84 100.78 134.59 95.78 143.03 92.17C148.95 89.64 156.97 89.71 162.52 92.34C162.98 92.55 163.4 92.78 163.78 93.01Z" fill="#FFBC90" fill-opacity="1.000000" fill-rule="nonzero"/>
					<path id="Vector" d="M154.62 99.11C155.18 99.44 155.58 99.85 155.78 100.32C156.61 102.25 155.88 104.53 155.18 106.74C154.13 110 153.13 113.13 156.71 115.26C157.94 115.99 159.71 116.59 162.19 117.05C162.5 117.11 162.68 117.45 162.54 117.74C162.45 117.93 162.25 118.04 162.04 118.01C159.09 117.49 157.01 116.77 155.56 115.92C151.41 113.46 152.57 109.85 153.62 106.55C154.32 104.35 154.99 102.27 154.25 100.55C154.12 100.25 153.86 99.98 153.5 99.77C153.18 99.58 152.77 99.43 152.3 99.35C151.32 99.17 150.28 99.31 149.53 99.71C146.08 101.59 143.17 105.09 141.76 109.08C140.45 112.77 140.66 116.15 142.31 118.55C142.59 118.96 142.44 119.56 141.98 119.71C141.75 119.79 141.48 119.72 141.32 119.53C139.13 116.92 138.72 113.07 140.21 108.88C141.69 104.71 144.77 101.02 148.47 99.02C149.63 98.39 151.23 98.17 152.75 98.45C153.48 98.58 154.11 98.8 154.62 99.11Z" fill="#FFBC90" fill-opacity="1.000000" fill-rule="nonzero"/>
					<path id="Vector" d="M149.33 104.76C149.81 104.86 150.06 105.43 149.83 105.88C146.44 112.59 148.85 116.63 151.17 118.73C151.51 119.04 151.45 119.62 151.04 119.82C150.84 119.91 150.62 119.89 150.44 119.75C147.77 117.64 146.47 114.95 146.59 111.75C146.68 109.21 147.67 106.81 148.57 105.12C148.71 104.84 149.02 104.7 149.33 104.76Z" fill="#FFBC90" fill-opacity="1.000000" fill-rule="nonzero"/>
					<path id="Vector" d="M177.31 83.94C187.7 90.09 186.34 95.91 185.34 100.16C184.75 102.72 184.48 104.28 186.06 105.22C186.2 105.3 186.34 105.37 186.5 105.44C186.83 105.59 186.96 106.02 186.72 106.3C186.6 106.45 186.4 106.51 186.21 106.45C185.72 106.28 185.3 106.09 184.95 105.89C182.72 104.57 183.22 102.43 183.78 100.03C184.72 95.97 186.02 90.42 176.2 84.6C170.38 81.16 162.98 79.44 154.8 79.66C147.32 79.85 139.27 81.69 132.14 84.84C125.67 87.69 120.55 91.9 116.93 97.34C116.76 97.59 116.47 97.71 116.18 97.64C115.69 97.53 115.47 96.96 115.76 96.54C119.47 91.15 124.66 86.96 131.19 84.08C138.68 80.78 146.82 78.92 154.73 78.72C163.36 78.49 171.17 80.3 177.31 83.94Z" fill="#FFBC90" fill-opacity="1.000000" fill-rule="nonzero"/>
					<path id="Vector" d="M173.38 87.58C176.8 89.6 178.74 91.89 179.3 94.54C179.83 97.03 179.07 99.41 178.4 101.52C177.67 103.79 177.04 105.76 178.41 106.95C178.54 107.06 178.7 107.18 178.87 107.28C179.61 107.72 180.71 108.03 182.19 108.24C182.49 108.28 182.67 108.58 182.58 108.87C182.52 109.08 182.31 109.22 182.09 109.19C180.18 108.95 178.75 108.54 177.76 107.95C177.51 107.8 177.29 107.64 177.1 107.48C175.36 105.96 176.04 103.82 176.84 101.34C178.09 97.43 179.63 92.61 172.24 88.24C171.95 88.06 171.64 87.89 171.32 87.72C166.59 85.18 160.44 83.75 154.01 83.69C147.62 83.63 141.36 84.91 136.38 87.3C130.3 90.22 125.79 93.67 122.96 97.56C120.5 100.96 119.38 104.6 119.63 108.4C119.66 108.87 119.31 109.29 118.85 109.31C118.44 109.32 118.09 109.02 118.05 108.6C117.42 100.06 123.54 92.26 135.38 86.57C140.65 84.04 147.27 82.68 154.03 82.75C160.84 82.82 167.36 84.33 172.37 87.02C172.72 87.2 173.06 87.39 173.38 87.58Z" fill="#FFBC90" fill-opacity="1.000000" fill-rule="nonzero"/>
					<path id="Vector" d="M168.6 90.01C175.12 93.87 173.64 98.76 172.43 102.75C171.63 105.41 170.93 107.71 172.68 109.07C172.8 109.16 172.93 109.25 173.07 109.34C174.13 109.96 175.83 110.35 178.23 110.52C178.5 110.53 178.7 110.78 178.66 111.06C178.63 111.3 178.42 111.47 178.18 111.46C175.34 111.27 173.29 110.8 171.96 110C171.77 109.89 171.59 109.77 171.43 109.64C169.25 107.95 170 105.46 170.87 102.58C172.07 98.63 173.42 94.19 167.48 90.67C167.01 90.39 166.5 90.12 165.93 89.85C159 86.59 149.06 86.5 141.76 89.64C134.41 92.79 129.08 96.91 126.34 101.55C124.15 105.25 123.66 109.22 124.92 112.85C125.08 113.33 124.8 113.86 124.31 113.93C123.98 113.98 123.65 113.8 123.53 113.49C122.01 109.58 122.47 105.25 124.84 101.23C127.69 96.41 133.22 92.14 140.83 88.87C148.7 85.49 159.43 85.59 166.91 89.12C167.53 89.41 168.09 89.7 168.6 90.01Z" fill="#FFBC90" fill-opacity="1.000000" fill-rule="nonzero"/>
					<path id="Vector" d="M159.55 95.75C163.51 98.1 162.19 101.68 160.9 105.17C159.79 108.16 158.74 110.99 160.9 112.95C161.16 113.18 161.45 113.39 161.79 113.59C163.1 114.37 165.05 114.93 167.71 115.27C168 115.31 168.19 115.61 168.1 115.9C168.03 116.11 167.83 116.25 167.61 116.22C164.53 115.84 162.24 115.19 160.67 114.26C160.26 114.02 159.9 113.75 159.58 113.47C157.05 111.18 158.22 108.01 159.35 104.96C160.6 101.6 161.78 98.4 158.39 96.4C158.05 96.19 157.66 96 157.21 95.82C154.76 94.83 150.76 94.22 145.63 96.89C141.48 99.05 137.87 102.77 135.98 106.84C134.14 110.79 134.17 114.58 136 117.43C136.27 117.85 136.1 118.45 135.63 118.59C135.38 118.66 135.11 118.58 134.94 118.37C132.55 115.23 132.37 111.07 134.45 106.59C136.42 102.35 140.21 98.46 144.58 96.18C149.18 93.79 153.97 93.39 158.09 95.04C158.64 95.26 159.13 95.5 159.55 95.75Z" fill="#FFBC90" fill-opacity="1.000000" fill-rule="nonzero"/>
					<path id="Vector" d="M182.69 80.25C183.66 80.82 184.6 81.45 185.52 82.14C191.97 87.02 191.77 92.03 191.6 96.06C191.53 97.87 191.47 99.48 192 100.79C192.19 101.25 191.99 101.85 191.51 101.98C191.25 102.05 190.97 101.95 190.82 101.71C189.86 100.15 189.93 98.23 190.02 96.04C190.18 92.16 190.38 87.33 184.27 82.72C183.42 82.07 182.52 81.47 181.57 80.91C178.45 79.06 174.85 77.69 170.82 76.82C166.38 75.86 161.43 75.5 156.1 75.77C146.05 76.26 137.77 78.74 134.51 80.09C134.34 80.16 134.14 80.14 133.99 80.01C133.67 79.76 133.74 79.26 134.11 79.11C138.74 77.29 147.2 75.26 155.97 74.83C163.61 74.45 174.11 75.16 182.69 80.25Z" fill="#FFBC90" fill-opacity="1.000000" fill-rule="nonzero"/>
					<path id="Vector" d="M192 74.12C195.55 76.36 198.17 78.72 199.81 81.17C200.09 81.59 199.85 82.15 199.36 82.25C199.06 82.31 198.76 82.17 198.59 81.9C197.05 79.43 194.46 77.04 190.9 74.79C186.23 72.19 181.23 70.49 176.01 69.71C175.71 69.67 175.52 69.35 175.63 69.06C175.71 68.86 175.91 68.73 176.13 68.76C181.71 69.56 187.05 71.36 192 74.12Z" fill="#FFBC90" fill-opacity="1.000000" fill-rule="nonzero"/>
				</g>
				<path id="Vector" d="M498.84 423.77C498.84 423.77 498.84 423.77 498.84 423.77C498.84 423.77 498.84 423.77 498.84 423.77C498.84 423.77 498.84 423.77 498.84 423.77C498.84 423.77 498.84 423.77 498.84 423.77C498.84 423.77 498.84 423.77 498.84 423.77C498.84 423.77 498.84 423.77 498.84 423.77C498.84 423.77 498.84 423.77 498.84 423.77C498.84 423.77 498.84 423.77 498.84 423.77C498.84 423.77 498.84 423.77 498.84 423.77C498.84 423.77 498.84 423.77 498.84 423.77C498.84 423.77 498.84 423.77 498.84 423.77C498.84 423.77 498.84 423.77 498.84 423.77C498.84 423.77 498.84 423.77 498.84 423.77C498.84 423.77 498.84 423.77 498.84 423.77C498.84 423.77 498.84 423.77 498.84 423.77C498.84 423.77 498.84 423.77 498.84 423.77ZM498.84 423.77C498.84 423.77 498.84 423.77 498.84 423.77C498.84 423.77 498.84 423.77 498.84 423.77C498.84 423.77 498.84 423.77 498.84 423.77C498.84 423.77 498.84 423.77 498.84 423.77Z" fill="#1D1D1B" fill-opacity="1.000000" fill-rule="nonzero"/>
				<path id="Vector" d="M498.84 423.77C498.84 423.77 498.84 423.77 498.84 423.77C498.84 423.77 498.84 423.77 498.84 423.77C498.84 423.77 498.84 423.77 498.84 423.77C498.84 423.77 498.84 423.77 498.84 423.77Z" fill="#1D1D1B" fill-opacity="1.000000" fill-rule="nonzero"/>
				<path id="Vector" d="M498.84 423.77C498.84 423.77 498.84 423.77 498.84 423.77C498.84 423.77 498.84 423.77 498.84 423.77L498.84 423.77L498.84 423.77C498.84 423.77 498.84 423.77 498.84 423.77C498.84 423.77 498.84 423.77 498.84 423.77L498.84 423.77L498.84 423.77C498.84 423.77 498.84 423.77 498.84 423.77C498.84 423.77 498.84 423.77 498.84 423.77C498.84 423.77 498.84 423.77 498.84 423.77C498.84 423.77 498.84 423.77 498.84 423.77C498.84 423.77 498.84 423.77 498.84 423.77C498.84 423.77 498.84 423.77 498.84 423.77L498.84 423.77L498.84 423.77C498.84 423.77 498.84 423.77 498.84 423.77Z" fill="#FFFFFF" fill-opacity="1.000000" fill-rule="nonzero"/>
			</g>
		</g>
	</g>
</svg>
