<svg width="30.000000" height="30.000000" viewBox="0 0 30 30" fill="none" xmlns="http://www.w3.org/2000/svg" xmlns:xlink="http://www.w3.org/1999/xlink">
	<desc>
			Created with Pixso.
	</desc>
	<defs>
		<clipPath id="clip1_58">
			<rect id="Image" width="30.000000" height="30.000000" fill="white" fill-opacity="0"/>
		</clipPath>
	</defs>
	<rect id="Image" width="30.000000" height="30.000000" fill="#FFFFFF" fill-opacity="0"/>
	<g clip-path="url(#clip1_58)">
		<path id="Vector" d="M15 0C6.71 0 0 6.71 0 15C0 23.28 6.71 30 15 30C23.28 30 30 23.28 30 15C30 6.71 23.28 0 15 0ZM22.83 13.38C22.94 13.9 23 14.44 23 14.98C23 15.52 22.94 16.07 22.83 16.59C22.73 17.11 22.57 17.61 22.37 18.09C22.17 18.57 21.92 19.02 21.63 19.45C21.34 19.87 21.01 20.27 20.65 20.63C20.29 20.99 19.89 21.32 19.47 21.61C19.04 21.9 18.58 22.14 18.11 22.34C17.63 22.55 17.12 22.7 16.61 22.81C16.08 22.92 15.54 22.97 14.99 22.97C14.45 22.97 13.91 22.92 13.38 22.81C12.87 22.7 12.36 22.55 11.88 22.34C11.41 22.14 10.95 21.9 10.52 21.61C10.1 21.32 9.7 20.99 9.34 20.63C8.98 20.27 8.65 19.87 8.36 19.45C8.07 19.02 7.82 18.57 7.62 18.09C7.42 17.61 7.26 17.11 7.16 16.59C7.05 16.07 7 15.52 7 14.98C7 14.44 7.05 13.9 7.16 13.38C7.26 12.86 7.42 12.36 7.62 11.87C7.82 11.4 8.07 10.94 8.36 10.52C8.65 10.09 8.98 9.7 9.34 9.33C9.7 8.97 10.1 8.65 10.52 8.36C10.95 8.07 11.41 7.82 11.88 7.62C12.36 7.42 12.87 7.26 13.38 7.16C13.91 7.05 14.45 7 14.99 7C15.54 7 16.08 7.05 16.61 7.16C17.12 7.26 17.63 7.42 18.11 7.62C18.58 7.82 19.04 8.07 19.47 8.36C19.89 8.65 20.29 8.97 20.65 9.33C21.01 9.7 21.34 10.09 21.63 10.52C21.92 10.94 22.17 11.4 22.37 11.87C22.57 12.36 22.73 12.86 22.83 13.38Z" fill="#000000" fill-opacity="1.000000" fill-rule="evenodd"/>
		<path id="Vector" d="M19.51 9.86L19.51 9.86C18.3 8.8 16.72 8.16 14.99 8.16C14.44 8.16 13.9 8.23 13.38 8.35L13.4 8.37C13.56 8.58 14.8 10.25 15.94 12.33C18.5 11.38 19.47 9.91 19.51 9.86ZM20.27 10.65C20.24 10.69 19.14 12.26 16.46 13.35C16.62 13.67 16.78 14.01 16.92 14.34C16.97 14.46 17.02 14.58 17.07 14.69C19.37 14.4 21.64 14.87 21.82 14.91L21.82 14.91C21.81 13.3 21.23 11.81 20.27 10.65ZM17.48 15.77C18.38 18.23 18.74 20.23 18.81 20.64C20.35 19.61 21.44 17.97 21.74 16.06C21.6 16.02 19.69 15.42 17.48 15.77ZM16.2 16.08C17.16 18.58 17.56 20.67 17.66 21.27C16.84 21.61 15.94 21.81 14.99 21.81C13.41 21.81 11.96 21.26 10.8 20.36C10.81 20.33 12.13 17.5 16.16 16.1C16.17 16.1 16.18 16.09 16.19 16.09L16.2 16.08ZM15.18 13.79C15.38 14.18 15.57 14.57 15.74 14.95C15.65 14.98 15.56 15.01 15.47 15.04C11.78 16.23 9.91 19.54 9.91 19.54C8.82 18.33 8.16 16.74 8.16 14.98C8.16 14.93 8.16 14.88 8.17 14.83C8.17 14.81 8.17 14.79 8.17 14.77C8.29 14.77 11.66 14.85 15.18 13.79ZM14.62 12.74C13.43 10.65 12.17 8.93 12.08 8.81C10.17 9.71 8.75 11.46 8.31 13.58C8.31 13.58 8.31 13.58 8.32 13.58C8.55 13.58 11.37 13.61 14.62 12.74Z" fill="#000000" fill-opacity="1.000000" fill-rule="evenodd"/>
	</g>
</svg>
