<svg width="30.000000" height="30.000000" viewBox="0 0 30 30" fill="none" xmlns="http://www.w3.org/2000/svg" xmlns:xlink="http://www.w3.org/1999/xlink">
	<desc>
			Created with Pixso.
	</desc>
	<defs>
		<clipPath id="clip1_54">
			<rect id="Image" width="30.000000" height="30.000000" fill="white" fill-opacity="0"/>
		</clipPath>
	</defs>
	<rect id="Image" width="30.000000" height="30.000000" fill="#FFFFFF" fill-opacity="0"/>
	<g clip-path="url(#clip1_54)">
		<path id="Vector" d="M15 0C6.71 0 0 6.71 0 15C0 23.28 6.71 30 15 30C23.28 30 30 23.28 30 15C30 6.71 23.28 0 15 0ZM11.7 7.04C12.55 7 12.82 7 15 7L14.99 7C17.17 7 17.44 7 18.29 7.04C19.14 7.08 19.73 7.22 20.24 7.41C20.76 7.62 21.21 7.89 21.65 8.34C22.1 8.78 22.37 9.23 22.58 9.75C22.77 10.26 22.91 10.84 22.95 11.7C22.99 12.55 23 12.82 23 15C23 17.17 22.99 17.44 22.95 18.29C22.91 19.14 22.77 19.73 22.58 20.23C22.37 20.76 22.1 21.21 21.65 21.65C21.21 22.1 20.76 22.37 20.24 22.58C19.73 22.77 19.14 22.91 18.29 22.95C17.44 22.99 17.17 23 14.99 23C12.82 23 12.55 22.99 11.7 22.95C10.85 22.91 10.26 22.77 9.75 22.58C9.23 22.37 8.78 22.1 8.34 21.65C7.89 21.21 7.62 20.76 7.42 20.23C7.22 19.73 7.08 19.14 7.04 18.29C7 17.44 7 17.17 7 15C7 12.82 7.01 12.55 7.04 11.7C7.08 10.85 7.22 10.26 7.41 9.75C7.62 9.23 7.89 8.78 8.34 8.34C8.78 7.89 9.23 7.62 9.76 7.41C10.26 7.22 10.85 7.08 11.7 7.04Z" fill="#000000" fill-opacity="1.000000" fill-rule="evenodd"/>
		<path id="Vector" d="M14.28 8.44C14.42 8.44 14.57 8.44 14.73 8.44L15 8.44C17.13 8.44 17.38 8.44 18.23 8.48C19.01 8.52 19.43 8.65 19.71 8.76C20.09 8.9 20.35 9.08 20.63 9.36C20.91 9.64 21.09 9.9 21.23 10.28C21.34 10.56 21.47 10.98 21.51 11.76C21.55 12.6 21.55 12.86 21.55 14.99C21.55 17.13 21.55 17.38 21.51 18.23C21.47 19 21.34 19.43 21.23 19.71C21.09 20.08 20.91 20.35 20.63 20.63C20.35 20.91 20.09 21.08 19.71 21.23C19.43 21.34 19.01 21.47 18.23 21.5C17.39 21.54 17.13 21.55 15 21.55C12.86 21.55 12.61 21.54 11.76 21.5C10.98 21.47 10.56 21.34 10.28 21.23C9.9 21.08 9.64 20.91 9.36 20.63C9.08 20.35 8.9 20.08 8.76 19.71C8.65 19.43 8.52 19 8.48 18.22C8.44 17.38 8.44 17.13 8.44 14.99C8.44 12.85 8.44 12.6 8.48 11.76C8.52 10.98 8.65 10.56 8.76 10.27C8.9 9.9 9.08 9.63 9.36 9.35C9.64 9.07 9.9 8.9 10.28 8.76C10.56 8.65 10.98 8.52 11.76 8.48C12.5 8.45 12.79 8.44 14.28 8.43L14.28 8.44ZM19.27 9.77C18.74 9.77 18.31 10.19 18.31 10.72C18.31 11.25 18.74 11.68 19.27 11.68C19.8 11.68 20.23 11.25 20.23 10.72C20.23 10.19 19.8 9.77 19.27 9.77ZM10.89 15C10.89 12.73 12.73 10.89 15 10.89C17.26 10.89 19.1 12.73 19.1 15C19.1 17.26 17.26 19.1 15 19.1C12.73 19.1 10.89 17.26 10.89 15Z" fill="#000000" fill-opacity="1.000000" fill-rule="evenodd"/>
		<path id="Vector" d="M15 12.33C16.47 12.33 17.66 13.52 17.66 15C17.66 16.47 16.47 17.66 15 17.66C13.52 17.66 12.33 16.47 12.33 15C12.33 13.52 13.52 12.33 15 12.33Z" fill="#000000" fill-opacity="1.000000" fill-rule="nonzero"/>
	</g>
</svg>
