<svg width="30.000000" height="30.000000" viewBox="0 0 30 30" fill="none" xmlns="http://www.w3.org/2000/svg" xmlns:xlink="http://www.w3.org/1999/xlink">
	<desc>
			Created with Pixso.
	</desc>
	<defs>
		<clipPath id="clip1_52">
			<rect id="Image" width="30.000000" height="30.000000" fill="white" fill-opacity="0"/>
		</clipPath>
	</defs>
	<rect id="Image" width="30.000000" height="30.000000" fill="#FFFFFF" fill-opacity="0"/>
	<g clip-path="url(#clip1_52)">
		<path id="Vector" d="M15 0C6.71 0 0 6.71 0 15C0 23.28 6.71 30 15 30C23.28 30 30 23.28 30 15C30 6.71 23.28 0 15 0ZM7.2 12.42L10.6 12.42L10.6 22.63L7.2 22.63L7.2 12.42ZM10.82 9.26C10.8 8.26 10.08 7.5 8.92 7.5C7.76 7.5 7 8.26 7 9.26C7 10.24 7.73 11.02 8.87 11.02L8.9 11.02C10.08 11.02 10.82 10.24 10.82 9.26ZM18.94 12.18C21.18 12.18 22.85 13.64 22.85 16.78L22.85 22.63L19.46 22.63L19.46 17.17C19.46 15.8 18.96 14.86 17.73 14.86C16.79 14.86 16.23 15.49 15.99 16.1C15.9 16.32 15.88 16.62 15.88 16.93L15.88 22.63L12.48 22.63C12.48 22.63 12.52 13.38 12.48 12.42L15.88 12.42L15.88 13.87C16.33 13.17 17.14 12.18 18.94 12.18Z" fill="#000000" fill-opacity="1.000000" fill-rule="evenodd"/>
	</g>
</svg>
