<svg width="30.000000" height="30.000000" viewBox="0 0 30 30" fill="none" xmlns="http://www.w3.org/2000/svg" xmlns:xlink="http://www.w3.org/1999/xlink">
	<desc>
			Created with Pixso.
	</desc>
	<defs>
		<clipPath id="clip1_61">
			<rect id="Image" width="30.000000" height="30.000000" fill="white" fill-opacity="0"/>
		</clipPath>
	</defs>
	<rect id="Image" width="30.000000" height="30.000000" fill="#FFFFFF" fill-opacity="0"/>
	<g clip-path="url(#clip1_61)">
		<path id="Vector" d="M15 0C6.71 0 0 6.71 0 15C0 23.28 6.71 30 15 30C23.28 30 30 23.28 30 15C30 6.71 23.28 0 15 0ZM16.84 21.67L23.42 21.67C23.46 21.5 23.43 21.38 23.29 21.25C23.02 21 22.75 20.73 22.49 20.47C22.36 20.34 22.23 20.22 22.1 20.09C22.01 20 21.97 19.9 21.97 19.78C21.97 19.7 21.97 19.63 21.97 19.56C21.97 19.25 21.97 18.94 21.97 18.63C21.98 17.2 21.98 15.77 21.97 14.34C21.97 13.31 21.97 12.27 21.97 11.23C21.97 10.89 21.97 10.55 21.97 10.21C21.97 10.09 22.02 9.99 22.1 9.91C22.24 9.78 22.37 9.65 22.5 9.53C22.78 9.26 23.06 8.99 23.35 8.73C23.48 8.6 23.48 8.48 23.46 8.32C23.45 8.32 23.44 8.32 23.43 8.32C23.4 8.32 23.39 8.32 23.37 8.32C23.04 8.32 22.71 8.32 22.38 8.32C21.22 8.32 20.07 8.32 18.91 8.32C18.82 8.32 18.79 8.36 18.76 8.43C17.7 11.09 16.62 13.76 15.55 16.43C15.54 16.46 15.53 16.49 15.51 16.52C15.51 16.54 15.5 16.55 15.49 16.58C15.48 16.55 15.47 16.53 15.46 16.52C15.44 16.48 15.43 16.46 15.42 16.43L15.09 15.71C13.98 13.28 12.87 10.86 11.77 8.44C11.73 8.35 11.69 8.31 11.59 8.32C10.34 8.32 9.09 8.32 7.83 8.32C7.54 8.32 7.25 8.32 6.96 8.32L6.8 8.32C6.81 8.36 6.82 8.4 6.82 8.44C6.83 8.53 6.84 8.61 6.88 8.66C7.29 9.17 7.72 9.67 8.14 10.17C8.24 10.3 8.35 10.43 8.45 10.55C8.56 10.68 8.61 10.82 8.61 10.99C8.61 13.44 8.61 15.89 8.61 18.34C8.61 18.4 8.61 18.46 8.62 18.52C8.64 18.77 8.58 18.99 8.42 19.18C8.28 19.35 8.14 19.52 8 19.69C7.58 20.2 7.16 20.71 6.73 21.22C6.61 21.35 6.61 21.49 6.62 21.64L11.62 21.64C11.67 21.46 11.61 21.33 11.5 21.2C11.1 20.72 10.69 20.23 10.29 19.74C10.14 19.55 9.98 19.36 9.82 19.17C9.68 19 9.61 18.79 9.61 18.56C9.61 18.52 9.61 18.49 9.62 18.45C9.62 18.38 9.62 18.31 9.62 18.25C9.62 16.64 9.62 15.04 9.62 13.43C9.62 13.05 9.62 12.66 9.62 12.28L9.62 12.13C9.67 12.17 9.69 12.21 9.71 12.25C10.18 13.28 10.66 14.31 11.13 15.34C12.04 17.33 12.95 19.31 13.86 21.3C13.88 21.33 13.89 21.37 13.9 21.41C13.94 21.5 13.97 21.59 14.03 21.63C14.09 21.66 14.18 21.66 14.27 21.65C14.32 21.65 14.37 21.65 14.41 21.65C14.51 21.66 14.55 21.62 14.59 21.53C15.71 18.67 16.84 15.8 17.98 12.93L18.25 12.23C18.26 12.2 18.27 12.18 18.28 12.15C18.29 12.14 18.29 12.13 18.3 12.12C18.32 12.14 18.32 12.16 18.32 12.18C18.32 12.74 18.32 13.31 18.32 13.87C18.32 15.82 18.32 17.78 18.32 19.73C18.32 19.88 18.27 20 18.16 20.11C18 20.26 17.85 20.41 17.69 20.56C17.45 20.8 17.2 21.04 16.95 21.27C16.82 21.39 16.82 21.52 16.84 21.67Z" fill="#000000" fill-opacity="1.000000" fill-rule="evenodd"/>
	</g>
</svg>
