<svg width="247" height="167" viewBox="0 0 247 167" fill="none" xmlns="http://www.w3.org/2000/svg">
<mask id="mask0_1_293" style="mask-type:alpha" maskUnits="userSpaceOnUse" x="-1" y="-35" width="248" height="202">
<path d="M246.622 -34.4697L94.2149 -12.4027L-0.234741 51.5917L40.282 92.8984V111.448C40.282 111.448 40.198 114.138 42.9148 116.327C45.6316 118.517 70.8708 133.516 70.8708 133.516L121.986 163.996C121.986 163.996 132.25 170.547 147.544 164.134C147.745 164.065 169.211 151.238 169.211 151.238C169.211 151.238 224.377 118.05 226.096 117.103C228.309 115.448 229.026 113.704 229.204 111.68C229.241 111.263 229.248 102.07 229.322 90.1844C233.923 51.6344 246.622 -34.4697 246.622 -34.4697Z" fill="#1C1C1A"/>
</mask>
<g mask="url(#mask0_1_293)">
<path d="M46.4843 104.535L121.096 148.864C121.33 149.002 121.567 149.137 121.808 149.265L122.056 149.392L122.545 149.644L122.844 149.782C122.996 149.856 123.151 149.926 123.305 149.994L123.632 150.136C123.77 150.192 123.908 150.253 124.049 150.305C124.393 150.443 124.737 150.578 125.081 150.698L125.246 150.756C125.556 150.858 125.866 150.957 126.179 151.052L126.523 151.151L127.122 151.315L127.487 151.41L128.151 151.567L128.468 151.637L129.08 151.758L129.425 151.822L130.23 151.952L130.378 151.974C130.691 152.02 131.008 152.062 131.324 152.098H131.514C131.768 152.126 132.019 152.155 132.274 152.176L132.618 152.2C132.821 152.2 133.021 152.232 133.224 152.242L133.623 152.26C133.813 152.26 133.999 152.26 134.188 152.281H134.552H135.169H135.575H136.15H136.525L137.192 152.246L137.592 152.219L138.228 152.165L138.603 152.126C138.947 152.091 139.264 152.052 139.591 152.005L139.746 151.984C140.125 151.931 140.496 151.867 140.865 151.8L141.264 151.725L141.781 151.62C141.921 151.591 142.063 151.556 142.199 151.524C142.338 151.492 142.544 151.447 142.702 151.408L143.119 151.297L143.611 151.163L144.02 151.042L144.503 150.89L144.847 150.773C145.135 150.674 145.421 150.572 145.703 150.461L145.883 150.398C146.227 150.266 146.543 150.128 146.867 149.984L147.119 149.866C147.366 149.753 147.611 149.632 147.848 149.512L148.12 149.374C148.426 149.212 148.732 149.045 149.028 148.868L223.368 104.41C223.526 104.315 223.674 104.219 223.825 104.124L224.17 103.89L224.483 103.67L224.827 103.426L225.12 103.199L225.433 102.951L225.701 102.718L225.991 102.463L226.335 102.137L226.413 102.059C226.559 101.914 226.693 101.765 226.827 101.616C226.858 101.584 226.888 101.546 226.92 101.51C227.03 101.383 227.136 101.255 227.24 101.124L227.308 101.039L227.439 100.855C227.535 100.724 227.632 100.593 227.721 100.462C227.77 100.391 227.812 100.316 227.859 100.242C227.908 100.168 228.007 100.005 228.076 99.888L228.207 99.6401C228.262 99.5374 228.313 99.4381 228.362 99.3355C228.41 99.2326 228.44 99.1653 228.478 99.0771C228.516 98.9885 228.565 98.8716 228.603 98.769C228.641 98.6661 228.671 98.5952 228.699 98.5066C228.726 98.4184 228.764 98.3119 228.796 98.2129C228.826 98.1136 228.847 98.0322 228.871 97.9436C228.895 97.8551 228.919 97.7453 228.94 97.646C228.961 97.547 228.981 97.4689 228.995 97.3771C229.008 97.2849 229.029 97.1752 229.044 97.0726C229.057 96.9697 229.067 96.8952 229.074 96.8069C229.082 96.7184 229.074 96.6014 229.099 96.4988C229.122 96.3959 229.099 96.2616 229.099 96.1446L229.057 110.58V110.757V110.937C229.057 110.998 229.057 111.143 229.036 111.246C229.016 111.349 229.016 111.423 229.002 111.511C228.987 111.6 228.974 111.713 228.957 111.816V111.925C228.957 111.962 228.93 112.032 228.919 112.085C228.909 112.139 228.874 112.283 228.851 112.382C228.826 112.481 228.798 112.563 228.771 112.652C228.743 112.74 228.713 112.847 228.679 112.946C228.679 112.989 228.654 113.028 228.637 113.07L228.582 113.208C228.541 113.31 228.499 113.413 228.455 113.516C228.41 113.619 228.379 113.689 228.338 113.775C228.296 113.86 228.238 113.977 228.186 114.08C228.135 114.181 228.138 114.179 228.111 114.228C228.083 114.278 228.069 114.292 228.052 114.327C227.984 114.447 227.91 114.564 227.835 114.681L227.698 114.901C227.607 115.032 227.515 115.164 227.418 115.294C227.384 115.344 227.354 115.389 227.316 115.439L227.284 115.478L227.215 115.563C227.113 115.694 227.006 115.821 226.896 115.949L226.803 116.055C226.672 116.204 226.534 116.353 226.39 116.498L226.311 116.575L226.089 116.795L225.974 116.902L225.688 117.157L225.415 117.39L225.107 117.639C225.01 117.717 224.913 117.79 224.81 117.865C224.707 117.94 224.59 118.028 224.465 118.106L224.149 118.325C224.032 118.407 223.912 118.485 223.805 118.559L223.588 118.701L223.347 118.85L149.008 163.306C148.712 163.481 148.409 163.66 148.099 163.813L147.83 163.952C147.59 164.072 147.346 164.192 147.098 164.306L146.846 164.422C146.523 164.564 146.195 164.702 145.862 164.833L145.686 164.901C145.404 165.01 145.116 165.113 144.826 165.212L144.678 165.265L144.468 165.329L143.986 165.481L143.577 165.601L143.085 165.737L142.672 165.842L142.165 165.963L141.749 166.058L141.23 166.161L140.937 166.221H140.834C140.462 166.289 140.09 166.353 139.716 166.406L139.557 166.427C139.212 166.472 138.903 166.511 138.572 166.548H138.418L138.194 166.569L137.557 166.622L137.158 166.649L136.494 166.686H136.225H136.108H135.53H135.124H134.508H134.143L133.582 166.665H133.183L132.574 166.622L132.23 166.597H132.209C131.957 166.575 131.703 166.548 131.452 166.519H131.259C130.942 166.484 130.629 166.441 130.316 166.394L130.178 166.371C129.906 166.332 129.638 166.289 129.37 166.239L129.025 166.175C128.819 166.136 128.616 166.101 128.413 166.058H128.344L128.093 165.998L127.432 165.846L127.064 165.751L126.465 165.587L126.282 165.538L126.127 165.488C125.811 165.393 125.501 165.294 125.195 165.191L125.03 165.134C124.685 165.01 124.341 164.879 123.997 164.741L123.897 164.706L123.581 164.57L123.236 164.43C123.082 164.362 122.93 164.288 122.775 164.216L122.479 164.078C122.311 163.997 122.135 163.912 121.987 163.827L121.743 163.7C121.502 163.569 121.264 163.438 121.03 163.3L46.202 118.843C42.306 116.526 40.3512 113.487 40.3684 110.453L40.4062 96.0205C40.4062 99.052 42.3441 102.091 46.2398 104.407L46.4843 104.535Z" fill="#1D1D1B"/>
<path d="M46.4843 104.535L121.096 148.864C121.33 149.002 121.567 149.137 121.808 149.265L122.056 149.392L122.545 149.644L122.844 149.782C122.996 149.856 123.151 149.926 123.305 149.994L123.632 150.136C123.77 150.192 123.908 150.253 124.049 150.305C124.393 150.443 124.737 150.578 125.081 150.698L125.246 150.756C125.556 150.858 125.866 150.957 126.179 151.052L126.523 151.151L127.122 151.315L127.487 151.41L128.151 151.567L128.468 151.637L129.08 151.758L129.425 151.822L130.23 151.952L130.378 151.974C130.691 152.02 131.008 152.062 131.324 152.098H131.514C131.768 152.126 132.019 152.155 132.274 152.176L132.618 152.2C132.821 152.2 133.021 152.232 133.224 152.242L133.623 152.26C133.813 152.26 133.999 152.26 134.188 152.281H134.552H135.169H135.575H136.15H136.525L137.192 152.246L137.592 152.219L138.228 152.165L138.603 152.126C138.947 152.091 139.264 152.052 139.591 152.005L139.746 151.984C140.125 151.931 140.496 151.867 140.865 151.8L141.264 151.725L141.781 151.62C141.921 151.591 142.063 151.556 142.199 151.524C142.338 151.492 142.544 151.447 142.702 151.408L143.119 151.297L143.611 151.163L144.02 151.042L144.503 150.89L144.847 150.773C145.135 150.674 145.421 150.572 145.703 150.461L145.883 150.398C146.227 150.267 146.543 150.128 146.867 149.984L147.119 149.866C147.366 149.753 147.611 149.632 147.848 149.512L148.12 149.374C148.426 149.212 148.732 149.045 149.028 148.868L223.368 104.41C223.526 104.315 223.674 104.219 223.825 104.124L224.17 103.89L224.483 103.67L224.827 103.426L225.12 103.199L225.433 102.951L225.701 102.718L225.991 102.463L226.335 102.137L226.413 102.059C226.559 101.914 226.693 101.765 226.827 101.616C226.858 101.584 226.888 101.546 226.92 101.51C227.03 101.383 227.136 101.255 227.24 101.124L227.308 101.039L227.439 100.855C227.535 100.724 227.632 100.593 227.721 100.462C227.77 100.391 227.812 100.316 227.859 100.242C227.908 100.168 228.007 100.005 228.076 99.888L228.207 99.6401C228.262 99.5374 228.313 99.4381 228.362 99.3355C228.41 99.2326 228.44 99.1653 228.478 99.0771C228.516 98.9885 228.565 98.8716 228.603 98.769C228.641 98.6661 228.671 98.5952 228.699 98.5066C228.726 98.4184 228.764 98.3119 228.796 98.2129C228.826 98.1136 228.847 98.0322 228.871 97.9436C228.895 97.8551 228.919 97.7453 228.94 97.646C228.961 97.547 228.981 97.4689 228.995 97.3771C229.008 97.2849 229.029 97.1752 229.044 97.0726C229.057 96.9697 229.067 96.8952 229.074 96.8069C229.082 96.7184 229.074 96.6014 229.099 96.4988C229.122 96.3959 229.099 96.2616 229.099 96.1446L229.057 110.58V110.757V110.937C229.057 110.998 229.057 111.143 229.036 111.246C229.016 111.349 229.016 111.423 229.002 111.511C228.987 111.6 228.974 111.713 228.957 111.816V111.925C228.957 111.962 228.93 112.032 228.919 112.085C228.909 112.139 228.874 112.283 228.851 112.382C228.826 112.481 228.798 112.563 228.771 112.652C228.743 112.74 228.713 112.847 228.679 112.946C228.679 112.989 228.654 113.028 228.637 113.07L228.582 113.208C228.541 113.31 228.499 113.413 228.455 113.516C228.41 113.619 228.379 113.689 228.338 113.775C228.296 113.86 228.238 113.977 228.186 114.08C228.135 114.181 228.138 114.179 228.111 114.228C228.083 114.278 228.069 114.292 228.052 114.327C227.984 114.447 227.91 114.564 227.835 114.681L227.698 114.901C227.607 115.032 227.515 115.164 227.418 115.294C227.384 115.344 227.354 115.389 227.316 115.439L227.284 115.478L227.215 115.563C227.113 115.694 227.006 115.821 226.896 115.949L226.803 116.055C226.672 116.204 226.534 116.353 226.39 116.498L226.311 116.575L226.089 116.795L225.974 116.902L225.688 117.157L225.415 117.39L225.107 117.639C225.01 117.717 224.913 117.79 224.81 117.865C224.707 117.94 224.59 118.028 224.465 118.106L224.149 118.325C224.032 118.407 223.912 118.485 223.805 118.559L223.588 118.701L223.347 118.85L149.008 163.306C148.712 163.481 148.409 163.66 148.099 163.813L147.83 163.952C147.59 164.072 147.346 164.192 147.098 164.306L146.846 164.422C146.523 164.564 146.195 164.702 145.862 164.833L145.686 164.901C145.404 165.01 145.116 165.113 144.826 165.212L144.678 165.265L144.468 165.329L143.986 165.481L143.577 165.601L143.085 165.737L142.672 165.842L142.165 165.963L141.749 166.058L141.23 166.161L140.937 166.221H140.834C140.462 166.289 140.09 166.353 139.716 166.406L139.557 166.427C139.212 166.472 138.903 166.511 138.572 166.548H138.418L138.194 166.569L137.557 166.622L137.158 166.649L136.494 166.686H136.225H136.108H135.53H135.124H134.508H134.143L133.582 166.665H133.183L132.574 166.622L132.23 166.597H132.209C131.957 166.575 131.703 166.548 131.452 166.519H131.259C130.942 166.484 130.629 166.441 130.316 166.394L130.178 166.371C129.906 166.332 129.638 166.289 129.37 166.239L129.025 166.175C128.819 166.136 128.616 166.101 128.413 166.058H128.344L128.093 165.998L127.432 165.846L127.064 165.751L126.465 165.587L126.282 165.538L126.127 165.488C125.811 165.393 125.501 165.294 125.195 165.191L125.03 165.134C124.685 165.01 124.341 164.879 123.997 164.741L123.897 164.706L123.581 164.57L123.236 164.43C123.082 164.362 122.93 164.288 122.775 164.216L122.479 164.078C122.311 163.997 122.135 163.912 121.987 163.827L121.743 163.7C121.502 163.569 121.264 163.438 121.03 163.3L46.202 118.843C42.306 116.526 40.3512 113.487 40.3684 110.453L40.4062 96.0205C40.4062 99.052 42.3441 102.091 46.2398 104.407L46.4843 104.535Z" stroke="#1D1D1B" stroke-width="0.05859" stroke-miterlimit="10"/>
</g>
</svg>
