<svg width="246" height="202" viewBox="0 0 246 202" fill="none" xmlns="http://www.w3.org/2000/svg">
<g clip-path="url(#clip0_6_2)">
<mask id="mask0_6_2" style="mask-type:alpha" maskUnits="userSpaceOnUse" x="0" y="0" width="247" height="202">
<path d="M246.857 0L94.4496 22.067L0 86.0614L40.5167 127.368V145.918C40.5167 145.918 40.4327 148.608 43.1495 150.797C45.8663 152.987 71.1055 167.986 71.1055 167.986L122.221 198.466C122.221 198.466 132.485 205.017 147.779 198.604C147.98 198.535 169.446 185.708 169.446 185.708C169.446 185.708 224.612 152.52 226.331 151.573C228.544 149.918 229.261 148.174 229.439 146.15C229.476 145.733 229.483 136.54 229.557 124.654C234.158 86.1041 246.857 0 246.857 0Z" fill="#1C1C1A"/>
</mask>
<g mask="url(#mask0_6_2)">
<path d="M46.719 139.005L121.331 183.334C121.565 183.472 121.802 183.607 122.043 183.735L122.291 183.862L122.78 184.114L123.079 184.252C123.231 184.326 123.386 184.396 123.54 184.464L123.867 184.606C124.005 184.662 124.143 184.723 124.284 184.775C124.628 184.913 124.972 185.048 125.316 185.168L125.481 185.226C125.791 185.328 126.101 185.427 126.414 185.522L126.758 185.621L127.357 185.785L127.722 185.88L128.386 186.037L128.703 186.107L129.315 186.228L129.66 186.292L130.465 186.422L130.613 186.444C130.926 186.49 131.243 186.532 131.559 186.568H131.749C132.003 186.596 132.254 186.625 132.509 186.646L132.853 186.67C133.056 186.67 133.256 186.702 133.459 186.712L133.858 186.73C134.048 186.73 134.234 186.73 134.423 186.751H134.787H135.404H135.81H136.385H136.76L137.427 186.716L137.827 186.689L138.463 186.635L138.838 186.596C139.182 186.561 139.499 186.522 139.826 186.475L139.981 186.454C140.36 186.401 140.731 186.337 141.1 186.27L141.499 186.195L142.016 186.09C142.156 186.061 142.298 186.026 142.434 185.994C142.573 185.962 142.779 185.917 142.937 185.878L143.354 185.767L143.846 185.633L144.255 185.512L144.738 185.36L145.082 185.243C145.37 185.144 145.656 185.042 145.938 184.931L146.118 184.868C146.462 184.736 146.778 184.598 147.102 184.454L147.354 184.336C147.601 184.223 147.846 184.102 148.083 183.982L148.355 183.844C148.661 183.682 148.967 183.515 149.263 183.338L223.603 138.88C223.761 138.785 227.534 140.633 227.509 140.736C227.375 140.885 227.486 140.839 227.509 140.736C227.42 140.867 227.53 140.637 227.509 140.736L229.292 145.05V145.227V145.407C229.292 145.468 229.292 145.613 229.271 145.716C229.251 145.819 229.251 145.893 229.237 145.981C229.222 146.07 229.209 146.183 229.192 146.286V146.395C229.192 146.432 229.165 146.502 229.154 146.555C229.144 146.609 229.109 146.753 229.086 146.852C229.061 146.951 229.033 147.033 229.006 147.122C228.978 147.21 228.948 147.317 228.914 147.416C228.914 147.459 228.889 147.498 228.872 147.54L228.817 147.678C228.776 147.78 228.734 147.883 228.69 147.986C228.645 148.089 228.614 148.159 228.573 148.245C228.531 148.33 228.473 148.447 228.421 148.55C228.37 148.651 228.373 148.649 228.346 148.698C228.318 148.748 228.304 148.762 228.287 148.797C228.219 148.917 228.145 149.034 228.07 149.151L227.933 149.371C227.842 149.502 227.75 149.634 227.653 149.764C227.619 149.814 227.589 149.859 227.551 149.909L227.519 149.948L227.45 150.033C227.348 150.164 227.241 150.291 227.131 150.419L227.038 150.525C226.907 150.674 226.769 150.823 226.625 150.968L226.546 151.045L226.324 151.265L226.209 151.372L225.923 151.627L225.65 151.86L225.342 152.109C225.245 152.187 225.148 152.26 225.045 152.335C224.942 152.41 224.825 152.498 224.7 152.576L224.384 152.795C224.267 152.877 224.147 152.955 224.04 153.029L223.823 153.171L223.582 153.32L149.243 197.776C148.947 197.951 148.644 198.13 148.334 198.283L148.065 198.422C147.825 198.542 147.581 198.662 147.333 198.776L147.081 198.892C146.758 199.034 146.43 199.172 146.097 199.303L145.921 199.371C145.639 199.48 145.351 199.583 145.061 199.682L144.913 199.735L144.703 199.799L144.221 199.951L143.812 200.071L143.32 200.207L142.907 200.312L142.4 200.433L141.984 200.528L141.465 200.631L141.172 200.691H141.069C140.697 200.759 140.325 200.823 139.951 200.876L139.792 200.897C139.447 200.942 139.138 200.981 138.807 201.018H138.653L138.429 201.039L137.792 201.092L137.393 201.119L136.729 201.156H136.46H136.343H135.765H135.359H134.743H134.378L133.817 201.135H133.418L132.809 201.092L132.465 201.067H132.444C132.192 201.045 131.938 201.018 131.687 200.989H131.494C131.177 200.954 130.864 200.911 130.551 200.864L130.413 200.841C130.141 200.802 129.873 200.759 129.605 200.709L129.26 200.645C129.054 200.606 128.851 200.571 128.648 200.528H128.579L128.328 200.468L127.667 200.316L127.299 200.221L126.7 200.057L126.517 200.008L126.362 199.958C126.046 199.863 125.736 199.764 125.43 199.661L125.265 199.604C124.92 199.48 124.576 199.349 124.232 199.211L124.132 199.176L123.816 199.04L123.471 198.9C123.317 198.832 123.165 198.758 123.01 198.686L122.714 198.548C122.546 198.467 122.37 198.382 122.222 198.297L121.978 198.17C121.737 198.039 121.499 197.908 121.265 197.77L46.4367 153.313C42.5407 150.996 40.5859 147.957 40.6031 144.923L46.719 139.005C40.6031 144.923 40.6031 144.923 46.719 139.005Z" fill="#1D1D1B"/>
<path d="M46.719 139.004L121.331 183.333C121.565 183.471 121.802 183.606 122.043 183.734L122.291 183.861L122.78 184.113L123.079 184.251C123.231 184.325 123.386 184.395 123.54 184.463L123.867 184.605C124.005 184.661 124.143 184.722 124.284 184.774C124.628 184.912 124.972 185.047 125.316 185.167L125.481 185.225C125.791 185.327 126.101 185.426 126.414 185.521L126.758 185.62L127.357 185.784L127.722 185.879L128.386 186.036L128.703 186.106L129.315 186.227L129.66 186.291L130.465 186.421L130.613 186.443C130.926 186.489 131.243 186.531 131.559 186.567H131.749C132.003 186.595 132.254 186.624 132.509 186.645L132.853 186.669C133.056 186.669 133.256 186.701 133.459 186.711L133.858 186.729C134.048 186.729 134.234 186.729 134.423 186.75H134.787H135.404H135.81H136.385H136.76L137.427 186.715L137.827 186.688L138.463 186.634L138.838 186.595C139.182 186.56 139.499 186.521 139.826 186.474L139.981 186.453C140.36 186.4 140.731 186.336 141.1 186.269L141.499 186.194L142.016 186.089C142.156 186.06 142.298 186.025 142.434 185.993C142.573 185.961 142.779 185.916 142.937 185.877L143.354 185.766L143.846 185.632L144.255 185.511L144.738 185.359L145.082 185.242C145.37 185.143 145.656 185.041 145.938 184.93L146.118 184.867C146.462 184.736 146.778 184.597 147.102 184.453L147.354 184.335C147.601 184.222 147.846 184.101 148.083 183.981L148.355 183.843C148.661 183.681 148.967 183.514 149.263 183.337L223.603 138.879C223.761 138.784 227.4 140.733 227.551 140.638M46.719 139.004L40.6031 144.922C40.5859 147.956 42.5407 150.995 46.4367 153.312L121.265 197.769C121.499 197.907 121.737 198.038 121.978 198.169L122.222 198.296C122.37 198.381 122.546 198.466 122.714 198.547L123.01 198.685C123.165 198.757 123.317 198.831 123.471 198.899L123.816 199.039L124.132 199.175L124.232 199.21C124.576 199.348 124.92 199.479 125.265 199.603L125.43 199.66C125.736 199.763 126.046 199.862 126.362 199.957L126.517 200.007L126.7 200.056L127.299 200.22L127.667 200.315L128.328 200.467L128.579 200.527H128.648C128.851 200.57 129.054 200.605 129.26 200.644L129.605 200.708C129.873 200.758 130.141 200.801 130.413 200.84L130.551 200.863C130.864 200.91 131.177 200.953 131.494 200.988H131.687C131.938 201.017 132.192 201.044 132.444 201.066H132.465L132.809 201.091L133.418 201.134H133.817L134.378 201.155H134.743H135.359H135.765H136.343H136.46H136.729L137.393 201.118L137.792 201.091L138.429 201.038L138.653 201.017H138.807C139.138 200.98 139.447 200.941 139.792 200.896L139.951 200.875C140.325 200.822 140.697 200.758 141.069 200.69H141.172L141.465 200.63L141.984 200.527L142.4 200.432L142.907 200.311L143.32 200.206L143.812 200.07L144.221 199.95L144.703 199.798L144.913 199.734L145.061 199.681C145.351 199.582 145.639 199.479 145.921 199.37L146.097 199.302C146.43 199.171 146.758 199.033 147.081 198.891L147.333 198.775C147.581 198.661 147.825 198.541 148.065 198.421L148.334 198.282C148.644 198.129 148.947 197.95 149.243 197.775L223.582 153.319L223.823 153.17L224.04 153.028C224.147 152.954 224.267 152.876 224.384 152.794L224.7 152.575C224.825 152.497 224.942 152.409 225.045 152.334C225.148 152.259 225.245 152.186 225.342 152.108L225.65 151.859L225.923 151.626L226.209 151.371L226.324 151.264L226.546 151.044L226.625 150.967C226.769 150.822 226.907 150.673 227.038 150.524L227.131 150.418C227.241 150.29 227.348 150.163 227.45 150.032L227.519 149.947L227.551 149.908C227.589 149.858 227.619 149.813 227.653 149.763C227.75 149.633 227.842 149.501 227.933 149.37L228.07 149.15C228.145 149.033 228.219 148.916 228.287 148.796C228.304 148.761 228.318 148.747 228.346 148.697C228.373 148.648 228.37 148.65 228.421 148.549C228.473 148.446 228.531 148.329 228.573 148.244C228.614 148.158 228.645 148.088 228.69 147.985C228.734 147.882 228.776 147.779 228.817 147.677L228.872 147.539C228.889 147.497 228.914 147.458 228.914 147.415C228.948 147.316 228.978 147.209 229.006 147.121C229.033 147.032 229.061 146.95 229.086 146.851C229.109 146.752 229.144 146.608 229.154 146.554C229.165 146.501 229.192 146.431 229.192 146.394V146.285C229.209 146.182 229.222 146.069 229.237 145.98C229.251 145.892 229.251 145.818 229.271 145.715C229.292 145.612 229.292 145.467 229.292 145.406V145.226V145.049L227.551 140.638M46.719 139.004C46.719 139.004 46.719 139.004 46.4745 138.876L46.719 139.004ZM227.551 140.638L227.519 140.811M227.551 140.638C227.551 140.638 227.665 140.666 227.519 140.811M227.551 140.638C227.519 140.811 227.551 140.638 227.519 140.811M227.551 140.638C227.653 140.811 227.519 140.811 227.519 140.811M227.551 140.638C227.519 140.811 227.519 140.811 227.551 140.638ZM227.551 140.638C227.653 140.811 227.551 140.638 227.519 140.811M227.551 140.638C227.519 140.811 227.537 140.73 227.551 140.638ZM227.551 140.638C227.519 140.811 227.519 140.811 227.519 140.811M227.551 140.638C227.519 140.811 227.551 140.755 227.551 140.638ZM227.519 140.811C227.487 140.983 227.551 140.638 227.519 140.811Z" stroke="#1D1D1B" stroke-width="0.05859" stroke-miterlimit="10"/>
</g>
</g>
<defs>
<clipPath id="clip0_6_2">
<rect width="246" height="201.42" fill="white"/>
</clipPath>
</defs>
</svg>
