<svg width="270" height="189" viewBox="0 0 270 189" fill="none" xmlns="http://www.w3.org/2000/svg">
<path d="M223.271 88.8291C231.015 93.4331 231.052 100.871 223.36 105.475L149.021 149.931C141.329 154.536 128.815 154.536 121.071 149.931L46.2567 105.489C38.5164 100.885 38.4753 93.4475 46.1674 88.8432L120.507 44.3861C128.199 39.7821 140.716 39.7821 148.457 44.3861L223.271 88.8291Z" fill="white"/>
<path d="M223.271 88.8291C231.015 93.4331 231.052 100.871 223.36 105.475L149.021 149.931C141.329 154.536 128.815 154.536 121.071 149.931L46.2567 105.489C38.5164 100.885 38.4753 93.4475 46.1674 88.8432L120.507 44.3861C128.199 39.7821 140.716 39.7821 148.457 44.3861L223.271 88.8291Z" stroke="#1D1D1B" stroke-width="0.675" stroke-miterlimit="10"/>
<mask id="mask0_290_6" style="mask-type:luminance" maskUnits="userSpaceOnUse" x="0" y="-32" width="270" height="277">
<path d="M0.838501 -31.1597H269.161V244.678H0.838501V-31.1597Z" fill="white"/>
</mask>
<g mask="url(#mask0_290_6)">
<path d="M162.54 77.197C166.534 79.5635 169.573 82.454 171.386 85.6206C173.482 89.2845 173.924 93.1714 172.706 97.1829C172.6 97.5335 172.262 97.7486 171.908 97.705C171.423 97.6452 171.118 97.1387 171.252 96.656C172.288 92.9289 171.829 89.3229 169.885 85.9212C168.154 82.8906 165.245 80.1259 161.423 77.8613C160.946 77.5791 160.455 77.3027 159.948 77.0365C150.397 71.9972 137.332 70.4142 124.929 72.7839C124.731 72.822 124.53 72.7279 124.429 72.5481C124.266 72.2579 124.43 71.8885 124.751 71.8287C137.599 69.4388 151.102 71.111 160.998 76.3337C161.526 76.6139 162.041 76.9024 162.54 77.197Z" fill="#1D1D1B"/>
<path d="M138.787 93.0124C144.213 96.2279 142.821 100.573 141.584 104.438C140.684 107.252 139.906 109.681 141.858 111.14C141.969 111.222 142.087 111.302 142.215 111.377C143.518 112.151 145.734 112.581 148.951 112.69C149.212 112.699 149.416 112.925 149.4 113.192C149.384 113.445 149.176 113.639 148.931 113.632C145.274 113.511 142.7 112.991 141.103 112.045C140.931 111.943 140.771 111.837 140.621 111.725C138.215 109.927 139.097 107.174 140.028 104.26C141.246 100.461 142.502 96.5431 137.659 93.6708C137.316 93.4675 136.944 93.2706 136.54 93.0797C131.54 90.7114 124.315 90.6523 118.966 92.9396C110.892 96.3906 107.301 101.182 105.71 104.594C103.941 108.389 103.799 112.386 105.28 115.513C105.497 115.972 105.261 116.544 104.776 116.65C104.485 116.713 104.185 116.585 104.039 116.319C102.19 112.95 102.234 108.517 104.183 104.339C105.842 100.782 109.593 95.7835 118.038 92.1739C123.957 89.6428 131.972 89.712 137.522 92.3443C137.982 92.5598 138.401 92.7829 138.787 93.0124Z" fill="#1D1D1B"/>
<path d="M129.628 99.1117C130.183 99.4408 130.587 99.8551 130.788 100.326C131.614 102.25 130.885 104.531 130.181 106.739C129.135 110.006 128.134 113.137 131.719 115.262C132.948 115.989 134.712 116.598 137.199 117.054C137.506 117.11 137.681 117.452 137.547 117.742C137.457 117.935 137.254 118.044 137.049 118.009C134.096 117.494 132.011 116.777 130.569 115.922C126.414 113.461 127.572 109.849 128.623 106.559C129.328 104.356 129.993 102.276 129.254 100.556C129.126 100.255 128.866 99.9892 128.51 99.7779C128.181 99.5831 127.77 99.4347 127.303 99.3514C126.321 99.1768 125.289 99.3147 124.539 99.7191C121.083 101.594 118.175 105.092 116.761 109.079C115.452 112.769 115.664 116.156 117.319 118.556C117.598 118.962 117.447 119.561 116.987 119.711C116.75 119.789 116.488 119.723 116.325 119.529C114.136 116.922 113.728 113.07 115.212 108.882C116.692 104.709 119.778 101.025 123.47 99.0243C124.634 98.3945 126.234 98.1794 127.754 98.4516C128.48 98.5796 129.118 98.8091 129.628 99.1117Z" fill="#1D1D1B"/>
<path d="M124.33 104.765C124.818 104.863 125.064 105.43 124.835 105.883C121.441 112.597 123.858 116.637 126.175 118.733C126.516 119.042 126.457 119.626 126.044 119.821C125.849 119.914 125.619 119.891 125.449 119.757C122.773 117.646 121.478 114.957 121.595 111.758C121.687 109.217 122.669 106.819 123.571 105.125C123.719 104.846 124.027 104.704 124.33 104.765Z" fill="#1D1D1B"/>
<path d="M152.319 83.9448C162.702 90.0955 161.343 95.9148 160.349 100.162C159.753 102.722 159.486 104.288 161.069 105.224C161.201 105.303 161.347 105.377 161.507 105.446C161.835 105.591 161.961 106.024 161.728 106.303C161.602 106.452 161.402 106.514 161.218 106.452C160.724 106.286 160.307 106.099 159.957 105.892C157.723 104.57 158.221 102.439 158.784 100.03C159.729 95.9777 161.025 90.4265 151.206 84.6091C145.382 81.16 137.985 79.4495 129.809 79.663C122.323 79.858 114.276 81.6984 107.143 84.8427C100.67 87.6976 95.5538 91.9014 91.9298 97.3428C91.7643 97.5914 91.4697 97.7144 91.1836 97.649C90.6988 97.5387 90.4728 96.9627 90.7602 96.5462C94.4752 91.1574 99.6634 86.9677 106.195 84.0869C113.686 80.7843 121.824 78.9296 129.732 78.7224C138.363 78.497 146.172 80.3027 152.319 83.9448Z" fill="#1D1D1B"/>
<path d="M148.384 87.5839C151.804 89.6091 153.742 91.8944 154.306 94.5494C154.834 97.0336 154.072 99.4179 153.402 101.522C152.673 103.795 152.045 105.76 153.411 106.951C153.546 107.069 153.702 107.181 153.876 107.285C154.614 107.721 155.71 108.038 157.199 108.244C157.49 108.284 157.679 108.583 157.589 108.871C157.522 109.085 157.317 109.222 157.098 109.194C155.186 108.95 153.757 108.541 152.764 107.953C152.516 107.808 152.296 107.648 152.102 107.48C150.364 105.965 151.049 103.824 151.841 101.344C153.09 97.4399 154.63 92.6155 147.245 88.2401C146.952 88.0655 146.645 87.8931 146.322 87.7202C141.591 85.1894 135.445 83.7591 129.018 83.6963C122.626 83.6312 116.365 84.9133 111.38 87.3081C105.303 90.2267 100.79 93.6799 97.9671 97.5698C95.5036 100.968 94.382 104.606 94.6297 108.401C94.6605 108.874 94.316 109.294 93.8558 109.313C93.4464 109.329 93.0903 109.02 93.0589 108.601C92.4211 100.061 98.541 92.2624 110.383 86.5746C115.654 84.0438 122.277 82.687 129.039 82.7559C135.849 82.8249 142.362 84.3401 147.377 87.0234C147.728 87.2041 148.062 87.393 148.384 87.5839Z" fill="#1D1D1B"/>
<path d="M143.605 90.0117C150.123 93.8731 148.641 98.7665 147.434 102.756C146.63 105.415 145.935 107.713 147.685 109.077C147.804 109.168 147.934 109.258 148.075 109.34C149.133 109.967 150.831 110.355 153.237 110.519C153.506 110.538 153.706 110.788 153.665 111.063C153.631 111.303 153.424 111.477 153.188 111.461C150.349 111.276 148.299 110.8 146.964 110.007C146.773 109.894 146.594 109.771 146.43 109.645C144.255 107.952 145.005 105.465 145.878 102.587C147.073 98.6324 148.42 94.1901 142.485 90.6739C142.016 90.3959 141.501 90.1234 140.936 89.8572C134.009 86.5951 124.068 86.506 116.763 89.6423C109.415 92.7968 104.085 96.9139 101.345 101.551C99.1566 105.251 98.6642 109.225 99.9197 112.849C100.086 113.329 99.8019 113.864 99.313 113.938C98.9832 113.988 98.6588 113.808 98.5354 113.49C97.018 109.579 97.4763 105.249 99.8483 101.236C102.699 96.4183 108.224 92.1447 115.833 88.8785C123.709 85.4965 134.434 85.596 141.917 89.1224C142.53 89.4106 143.093 89.7069 143.605 90.0117Z" fill="#1D1D1B"/>
<path d="M134.553 95.7534C138.518 98.1017 137.19 101.689 135.901 105.17C134.791 108.167 133.746 110.999 135.909 112.956C136.163 113.186 136.456 113.399 136.792 113.598C138.104 114.377 140.059 114.929 142.719 115.278C143.009 115.317 143.197 115.619 143.104 115.906C143.035 116.118 142.831 116.254 142.613 116.226C139.536 115.841 137.248 115.194 135.68 114.264C135.266 114.019 134.904 113.754 134.589 113.471C132.057 111.179 133.227 108.019 134.357 104.963C135.602 101.6 136.782 98.4045 133.399 96.3997C133.053 96.1945 132.661 96.0011 132.213 95.8224C129.763 94.8393 125.764 94.2261 120.633 96.8949C116.486 99.0522 112.878 102.772 110.981 106.848C109.147 110.79 109.171 114.584 111.009 117.437C111.279 117.856 111.104 118.452 110.634 118.59C110.382 118.663 110.11 118.582 109.949 118.37C107.551 115.232 107.372 111.07 109.453 106.595C111.429 102.349 115.217 98.4594 119.588 96.1865C124.181 93.7978 128.979 93.3914 133.094 95.0429C133.645 95.2663 134.13 95.5016 134.553 95.7534Z" fill="#1D1D1B"/>
<path d="M157.695 80.2521C158.664 80.8247 159.608 81.4545 160.52 82.1432C166.978 87.0223 166.774 92.0373 166.609 96.0695C166.534 97.8754 166.47 99.4838 167.004 100.792C167.195 101.259 166.995 101.855 166.519 101.982C166.255 102.052 165.97 101.957 165.824 101.719C164.86 100.151 164.938 98.2356 165.026 96.043C165.184 92.1633 165.38 87.3351 159.277 82.7242C158.422 82.0781 157.522 81.4749 156.577 80.9163C153.454 79.0657 149.85 77.6926 145.824 76.8234C141.385 75.8624 136.432 75.5091 131.105 75.7733C121.051 76.266 112.775 78.7471 109.519 80.0965C109.342 80.1699 109.14 80.1415 108.991 80.0196C108.679 79.7658 108.746 79.2646 109.117 79.1181C113.746 77.2924 122.207 75.265 130.97 74.8346C138.619 74.457 149.116 75.1679 157.695 80.2521Z" fill="#1D1D1B"/>
<path d="M167.001 74.1235C170.558 76.3605 173.173 78.7239 174.815 81.1734C175.097 81.594 174.851 82.1575 174.362 82.2544C174.063 82.3142 173.76 82.1722 173.595 81.9076C172.054 79.4359 169.469 77.0454 165.9 74.7979C161.237 72.1995 156.231 70.4921 151.01 69.7175C150.712 69.6731 150.529 69.3562 150.637 69.0671C150.715 68.8613 150.919 68.7364 151.131 68.7667C156.717 69.5636 162.054 71.3637 167.001 74.1235Z" fill="#1D1D1B"/>
</g>
</svg>
