<svg width="236" height="141" viewBox="0 0 236 141" fill="none" xmlns="http://www.w3.org/2000/svg">
<path d="M227.934 59.8581C237.54 65.5627 237.591 74.8212 228.044 80.5294L135.808 135.689C126.264 141.399 110.735 141.399 101.129 135.689L8.26344 80.5258C-1.34226 74.8212 -1.39404 65.5627 8.14967 59.8581L100.386 4.69436C109.933 -1.01466 125.462 -1.01466 135.068 4.69436L227.934 59.8581Z" fill="#FFBC90"/>
<path d="M227.934 59.8581C237.54 65.5627 237.591 74.8212 228.044 80.5294L135.808 135.689C126.264 141.399 110.735 141.399 101.129 135.689L8.26344 80.5258C-1.34226 74.8212 -1.39404 65.5627 8.14967 59.8581L100.386 4.69436C109.933 -1.01466 125.462 -1.01466 135.068 4.69436L227.934 59.8581Z" stroke="#1D1D1B" stroke-width="0.675" stroke-miterlimit="10"/>
</svg>
