<svg width="32" height="57" viewBox="0 0 32 57" fill="none" xmlns="http://www.w3.org/2000/svg">
<path d="M17.8449 30.6311C18.9211 31.4218 19.9357 32.2965 20.8785 33.2476C25.5925 38.0729 28.9697 44.0939 30.6627 50.6932C31.0328 52.1917 31.2921 53.7147 31.4381 55.252C31.4205 55.5276 31.4205 55.8045 31.4381 56.0801V56.3545C30.8867 56.0594 30.377 55.6907 29.9226 55.2559C28.329 54.0136 26.8676 52.6045 25.561 51.0517C23.4048 48.487 21.5821 45.6467 20.1383 42.6032C18.7575 39.7279 17.7568 36.678 17.1614 33.5323C16.9474 32.356 16.8027 31.1668 16.7259 29.9725C16.7259 29.8586 16.7259 29.8586 16.8404 29.9246L17.8449 30.6311Z" fill="#1D1D1B"/>
<path d="M30.7949 22.9448C30.1152 25.2611 28.9282 27.0533 27.3258 28.1842C26.0897 29.0408 24.6296 29.4976 23.1367 29.4912C21.2121 29.6011 19.0898 29.0732 16.916 27.95L16.8015 27.884C16.8178 27.1594 16.8946 26.4373 17.0305 25.7256C17.7203 21.6094 19.7419 18.7303 22.7175 17.6252C24.1664 17.1102 25.7222 16.9924 27.2289 17.2849C28.3907 17.4635 29.521 17.8141 30.5834 18.3266L31.2996 18.6384C31.5073 18.7626 31.5073 18.7626 31.5073 19.0046C31.4885 19.1715 31.4885 19.3385 31.5073 19.5054C31.3953 20.6726 31.1549 21.8229 30.7911 22.9345L30.7949 22.9448Z" fill="#1D1D1B"/>
<path d="M13.5803 25.8967C11.9955 24.6364 10.5354 23.222 9.22 21.6705C7.16699 19.2301 5.42741 16.5308 4.04405 13.6387C1.8979 9.24817 0.624047 4.62602 0.441528 0.46582L0.649222 0.590045L1.36419 1.1167C2.41775 1.87498 3.41342 2.71608 4.34111 3.63094C6.43314 5.70521 8.26084 8.04217 9.7814 10.5836C12.5179 15.1061 14.3431 20.141 14.9397 24.8538C15.0153 25.5241 15.0732 26.1749 15.1122 26.8116C15.1122 26.8116 15.1122 26.9462 14.9976 26.8802L13.5803 25.8967Z" fill="#1D1D1B"/>
<path d="M1.93063 31.8129C2.83692 29.8551 4.46573 28.3424 6.45958 27.6113C8.9028 26.7327 11.8722 27.1183 14.9725 28.7099C14.9725 28.7099 15.1059 28.7902 15.087 28.8924C15.0706 29.4436 15.014 29.9936 14.9158 30.5358C14.7333 32.0924 14.2839 33.6025 13.5891 35C11.8281 38.4136 8.69889 40.013 4.86727 39.4566C3.36182 39.1965 1.90545 38.7035 0.54601 37.9931C0.449087 37.9335 0.431465 37.9232 0.449087 37.799C0.420137 37.2503 0.471742 36.7004 0.603914 36.1672C0.80405 34.6494 1.25217 33.1781 1.93063 31.8129Z" fill="#1D1D1B"/>
</svg>
