<svg width="99" height="143" viewBox="0 0 99 143" fill="none" xmlns="http://www.w3.org/2000/svg">
<path d="M78.4027 137.379C78.8521 134.682 79.2473 132.46 79.5948 130.194C80.5136 124.217 81.4388 118.253 82.3174 112.236C82.5113 110.846 83.0915 116.774 84.6134 116.946L92.4289 113.143C94.1232 112.068 95.1062 111.862 96.3637 109.322C97.3443 107.355 97.7068 104.703 97.7496 101.932C97.8856 83.0941 97.8251 83.1575 97.8176 64.2186C97.8176 53.5884 91.5075 42.2737 82.5012 36.9282C70.3367 29.6973 58.171 22.5972 46.0065 15.431L24.1018 3.13031C20.8329 1.20484 17.8295 1.41964 15.5613 1.96701C13.2917 2.51437 6.6053 5.21105 6.6053 5.21105C5.70907 7.12617 8.74012 9.24315 8.73761 11.9049C8.62181 31.0211 8.67593 31.2346 8.67593 50.4272C8.63943 52.7512 9.00447 55.2952 9.74964 57.9078C10.4948 60.5203 11.6038 63.1459 13.011 65.629C14.4171 68.1122 16.0924 70.3987 17.9352 72.3539C19.778 74.3079 21.7505 75.8891 23.7343 77.002C40.4189 86.6448 35.3248 83.2261 52.0384 92.9828C52.7609 93.3723 53.4809 93.952 54.1468 94.6805C54.8126 95.4078 55.4055 96.2644 55.8838 97.1883C62.8686 109.864 70.3959 142.17 70.3959 142.17L78.4027 137.379Z" fill="#FFD6BC"/>
<path d="M78.4027 137.379C78.8521 134.682 79.2473 132.46 79.5948 130.194C80.5136 124.217 81.4388 118.253 82.3174 112.236C82.5113 110.846 83.0915 116.774 84.6134 116.946L92.4289 113.143C94.1232 112.068 95.1062 111.862 96.3637 109.322C97.3443 107.355 97.7068 104.703 97.7496 101.932C97.8855 83.0941 97.8251 83.1575 97.8176 64.2186C97.8176 53.5884 91.5075 42.2737 82.5012 36.9282C70.3367 29.6973 58.171 22.5972 46.0065 15.431L24.1018 3.13031C20.8329 1.20484 17.8295 1.41964 15.5613 1.96701C13.2917 2.51437 6.6053 5.21105 6.6053 5.21105C5.70907 7.12617 8.74012 9.24315 8.73761 11.9049C8.62181 31.0211 8.67593 31.2346 8.67593 50.4272C8.63943 52.7512 9.00447 55.2952 9.74964 57.9078C10.4948 60.5203 11.6038 63.1459 13.011 65.629C14.4171 68.1122 16.0924 70.3987 17.9352 72.3539C19.778 74.3079 21.7505 75.8891 23.7343 77.002C40.4189 86.6448 35.3248 83.2261 52.0384 92.9828C52.7609 93.3723 53.4809 93.952 54.1468 94.6805C54.8126 95.4078 55.4055 96.2644 55.8838 97.1883C62.8686 109.864 70.3959 142.17 70.3959 142.17L78.4027 137.379Z" stroke="#1D1D1B" stroke-width="1.29574" stroke-linejoin="round"/>
<path d="M70.3959 142.158C70.8452 139.46 71.2946 136.539 71.642 134.273C72.5609 128.296 73.4861 122.331 74.3647 116.314C74.5485 114.998 75.3239 115.472 76.1886 115.9C81.819 118.717 85.9439 117.84 88.2449 113.192C89.2254 111.225 89.7541 108.78 89.7969 106.011C89.9328 87.1706 89.8724 87.2353 89.8648 68.2951C89.8648 57.6636 83.5548 46.3489 74.5485 41.0034C62.384 33.7725 50.2182 26.6711 38.0537 19.5049L16.6702 7.33878C10.2582 3.5616 5.34279 3.74017 2.66796 9.17366C1.77174 11.0888 1.30851 13.4516 1.306 16.1134C1.1902 35.2309 1.24432 35.4431 1.24432 54.6369C1.20782 56.9609 1.57286 59.5062 2.31803 62.1188C3.06321 64.7314 4.17216 67.3582 5.57943 69.8401C6.98545 72.3233 8.66084 74.6097 10.5036 76.565C12.3464 78.5189 14.3189 80.1002 16.3027 81.213L44.0844 97.0606C44.8081 97.4501 45.5282 98.0298 46.194 98.757C46.8586 99.4855 47.4528 100.342 47.9311 101.266C54.9159 113.942 61.9749 126.583 69.0339 139.24C69.3196 139.715 70.3959 142.158 70.3959 142.158Z" fill="white"/>
<path d="M70.3959 142.157L69.939 142.269C70.0686 142.564 70.2964 142.802 70.5167 142.874C70.737 142.945 70.9057 142.837 70.9447 142.597L70.3959 142.157ZM74.3647 116.314L74.916 116.743V116.739L74.3647 116.314ZM76.1886 115.9L76.1471 115.215L76.1458 115.214L76.1886 115.9ZM88.2449 113.191L87.7376 112.618H87.7363L88.2449 113.191ZM89.7969 106.011L90.3558 106.351V106.345L89.7969 106.011ZM38.0537 19.5047V18.8435L38.0437 18.837L38.0537 19.5047ZM16.6702 7.33853V8.00106L16.6803 8.00623L16.6702 7.33853ZM2.66796 9.17342L2.15817 8.60018L2.15565 8.60794L2.66796 9.17342ZM1.306 16.1131L1.86362 16.447V16.4418L1.306 16.1131ZM1.24432 54.6367L1.80321 54.9783V54.9667L1.24432 54.6367ZM16.3027 81.2128L16.2939 80.5451L16.2901 80.5425L16.3027 81.2128ZM44.0844 97.0603L44.0932 97.7268L44.1083 97.7345L44.0844 97.0603ZM47.9311 101.266L47.5132 101.457L47.5207 101.473L47.5296 101.488L47.9311 101.266ZM69.0339 139.239L68.6362 139.47L68.6487 139.49L68.6601 139.511L69.0339 139.239ZM70.9447 142.597C71.3953 139.897 71.8447 136.972 72.1921 134.707L71.0907 133.84C70.7433 136.107 70.2952 139.023 69.8458 141.716L70.9447 142.597ZM72.1921 134.707C73.111 128.731 74.0374 122.763 74.916 116.743L73.8134 115.885C72.936 121.9 72.0096 127.861 71.0907 133.84L72.1921 134.707ZM74.916 116.739C74.9878 116.231 75.1413 116.188 75.2622 116.191C75.4686 116.196 75.7418 116.342 76.2327 116.585L76.1458 115.214C75.772 115.029 75.2244 114.723 74.7813 114.713C74.2514 114.701 73.9254 115.081 73.8134 115.888L74.916 116.739ZM76.2302 116.584C82.0556 119.5 86.3643 118.59 88.7534 113.765L87.7363 112.618C85.5235 117.089 81.5823 117.935 76.1471 115.215L76.2302 116.584ZM88.7534 113.765C89.7654 111.734 90.3104 109.212 90.3558 106.351L89.2393 105.669C89.1977 108.349 88.6867 110.715 87.7376 112.618L88.7534 113.765ZM90.3558 106.345C90.4917 87.5016 90.43 87.5598 90.4237 68.6235L89.3072 67.9661C89.3135 86.909 89.3752 86.8404 89.2393 105.676L90.3558 106.345ZM90.4237 68.6235C90.4237 63.1486 88.7962 57.4602 85.9804 52.4343C83.1646 47.4071 79.1895 43.0968 74.551 40.3432L74.546 41.6644C78.9138 44.2562 82.5969 48.2754 85.1874 52.9001C87.7791 57.5249 89.3072 62.8096 89.3072 67.9661L90.4237 68.6235ZM74.551 40.3432C62.384 33.1111 50.2145 26.007 38.0537 18.8435V20.1672C50.222 27.336 62.3827 34.4348 74.546 41.6644L74.551 40.3432ZM38.0437 18.837L16.6614 6.67083L16.6803 8.00623L38.0625 20.1724L38.0437 18.837ZM16.6702 6.67601C13.3899 4.74407 10.4545 3.80204 7.98489 4.06473C5.5102 4.32741 3.53775 5.79738 2.15817 8.60018L3.17649 9.74537C4.47173 7.11467 6.2944 5.77927 8.55007 5.53859C10.8095 5.2979 13.5385 6.15453 16.6702 7.99976V6.67601ZM2.15565 8.60794C1.22922 10.5891 0.749631 13.0308 0.747115 15.7832L1.86362 16.4418C1.86488 13.8706 2.313 11.5893 3.17901 9.7389L2.15565 8.60794ZM0.747115 15.7793C0.631316 34.8994 0.686699 35.1168 0.686699 54.308L1.80321 54.9667C1.80321 35.7702 1.74782 35.5606 1.86362 16.447L0.747115 15.7793ZM0.686699 54.2964C0.648939 56.7084 1.02781 59.3507 1.80069 62.0629L2.83537 62.1742C2.11915 59.6613 1.76796 57.213 1.80321 54.9783L0.686699 54.2964ZM1.80069 62.0629C2.57356 64.7751 3.72531 67.5016 5.18544 70.0779L5.97216 69.6018C4.61901 67.213 3.5516 64.6871 2.83537 62.1742L1.80069 62.0629ZM5.18544 70.0779C6.64559 72.6556 8.38391 75.0301 10.2972 77.0578L10.7101 76.0704C8.9365 74.1903 7.32531 71.9905 5.97216 69.6018L5.18544 70.0779ZM10.2972 77.0578C12.2105 79.0867 14.2572 80.7275 16.3165 81.8818L16.2901 80.5425C14.3806 79.4724 12.4836 77.9519 10.7101 76.0704L10.2972 77.0578ZM16.3115 81.8792L44.0932 97.7268L44.0756 96.3926L16.2939 80.5451L16.3115 81.8792ZM44.1083 97.7345C44.7477 98.08 45.3859 98.5937 45.975 99.2381L46.4118 98.2767C45.6704 97.4654 44.8673 96.8197 44.0617 96.3849L44.1083 97.7345ZM45.975 99.2381C46.5641 99.8813 47.0903 100.64 47.5132 101.457L48.349 101.073C47.8166 100.043 47.1545 99.088 46.4118 98.2767L45.975 99.2381ZM47.5296 101.488C54.5168 114.17 61.5784 126.814 68.6362 139.47L69.4317 139.01C62.3727 126.351 55.3149 113.714 48.3326 101.042L47.5296 101.488ZM68.6601 139.511C68.6601 139.511 68.6613 139.512 68.6626 139.514C68.6638 139.516 68.6651 139.52 68.6676 139.524C68.6727 139.533 68.6802 139.545 68.6878 139.56C68.7054 139.593 68.7255 139.633 68.7507 139.682C68.8011 139.78 68.8615 139.903 68.9294 140.047C69.0641 140.332 69.2215 140.672 69.3725 141.003C69.5236 141.334 69.6646 141.651 69.769 141.886C69.8219 142.002 69.8647 142.099 69.8936 142.165C69.9087 142.199 69.9201 142.225 69.9276 142.243C69.9314 142.252 69.9352 142.258 69.9364 142.262C69.9377 142.265 69.939 142.267 69.939 142.269C69.939 142.269 69.939 142.269 70.3959 142.157C70.8515 142.045 70.8515 142.045 70.8515 142.045V142.042C70.8503 142.041 70.8503 142.04 70.849 142.037C70.8465 142.032 70.844 142.025 70.839 142.015C70.8314 141.997 70.8201 141.97 70.8037 141.936C70.7735 141.868 70.7307 141.769 70.6778 141.65C70.5708 141.411 70.4261 141.087 70.2713 140.748C70.1177 140.411 69.9528 140.052 69.8068 139.745C69.6721 139.462 69.5211 139.157 69.4078 138.969L68.6601 139.511Z" fill="#1D1D1B"/>
</svg>
