<svg width="16" height="31" viewBox="0 0 16 31" fill="none" xmlns="http://www.w3.org/2000/svg">
<path d="M9.31475 13.2542C9.71252 13.152 10.0222 13.0407 10.3205 12.9864C12.5699 12.5865 14.0741 13.491 14.6858 15.8577C15.149 17.6486 14.9552 19.776 13.9948 22.1854C13.0343 24.5948 11.5918 26.5267 9.82329 28.0381C8.16804 29.4835 6.42342 30.1888 4.96831 30.0011C3.45531 29.8368 2.53516 28.7628 2.01279 27.1207C1.42495 25.2742 1.41992 23.0472 1.78999 20.5899C2.27209 17.2889 3.46915 13.7912 5.24272 10.5032C7.29573 6.66391 9.84468 3.54926 12.7964 1.05832C12.9903 0.893979 13.0822 0.890097 13.1615 1.05444C13.4812 1.70661 13.8059 2.35361 14.1446 2.98378C14.2553 3.19729 14.2239 3.3474 13.9721 3.6269C11.9871 5.82281 10.5231 8.33446 9.73643 11.211C9.5451 11.8917 9.45573 12.5516 9.31475 13.2542Z" fill="#FFEADD"/>
<path d="M9.31475 13.2542C9.71252 13.152 10.0222 13.0407 10.3205 12.9864C12.5699 12.5865 14.0741 13.491 14.6858 15.8577C15.149 17.6486 14.9552 19.776 13.9948 22.1854C13.0343 24.5948 11.5918 26.5267 9.82328 28.0381C8.16804 29.4835 6.42342 30.1888 4.96831 30.0011C3.45531 29.8368 2.53516 28.7628 2.01279 27.1207C1.42495 25.2742 1.41992 23.0472 1.78999 20.5899C2.27209 17.2889 3.46915 13.7912 5.24272 10.5032C7.29573 6.66391 9.84468 3.54926 12.7964 1.05832C12.9903 0.893979 13.0822 0.890097 13.1615 1.05444C13.4812 1.70661 13.8059 2.35361 14.1446 2.98378C14.2553 3.19729 14.2239 3.3474 13.9721 3.6269C11.9871 5.82281 10.5231 8.33446 9.73643 11.211C9.5451 11.8917 9.45573 12.5516 9.31475 13.2542Z" stroke="#1D1D1B" stroke-width="1.29574" stroke-linejoin="round"/>
</svg>
