<svg width="99" height="143" viewBox="0 0 99 143" fill="none" xmlns="http://www.w3.org/2000/svg">
<path d="M20.3173 136.892C19.8679 134.196 19.4727 131.974 19.1253 129.708C18.2064 123.731 17.2812 117.767 16.4026 111.75C16.2087 110.36 15.6285 116.288 14.1066 116.46L6.29111 112.657C4.59684 111.582 3.61376 111.376 2.35628 108.836C1.37572 106.869 1.0132 104.216 0.970404 101.446C0.834459 82.6078 0.894879 82.6712 0.902431 63.7322C0.902431 53.1021 7.21251 41.7874 16.2188 36.4419C28.3833 29.2123 40.5491 22.1109 52.7135 14.9447L74.6182 2.64398C77.8871 0.718515 80.8905 0.933316 83.1588 1.48068C85.4283 2.02804 92.1147 4.72473 92.1147 4.72473C93.0109 6.63984 89.9811 8.75682 89.9824 11.4186C90.0982 30.5348 90.0441 30.7483 90.0441 49.9408C90.0806 52.2649 89.7156 54.8088 88.9704 57.4214C88.2252 60.034 87.1162 62.6608 85.709 65.1427C84.303 67.6259 82.6276 69.9124 80.7848 71.8676C78.942 73.8215 76.9695 75.4028 74.9857 76.5156C58.3011 86.1585 63.3952 82.7398 46.6829 92.4965C45.9591 92.886 45.2391 93.4657 44.5733 94.1942C43.9086 94.9214 43.3145 95.7781 42.8362 96.702C35.8514 109.378 28.3241 141.684 28.3241 141.684L20.3173 136.892Z" fill="#FFD6BC"/>
<path d="M20.3173 136.892C19.8679 134.196 19.4727 131.974 19.1253 129.708C18.2064 123.731 17.2812 117.767 16.4026 111.75C16.2087 110.36 15.6285 116.288 14.1066 116.46L6.29111 112.657C4.59684 111.582 3.61376 111.376 2.35628 108.836C1.37572 106.869 1.0132 104.216 0.970404 101.446C0.834459 82.6078 0.894879 82.6712 0.902431 63.7322C0.902431 53.1021 7.21251 41.7874 16.2188 36.4419C28.3833 29.2123 40.5491 22.1109 52.7135 14.9447L74.6182 2.64398C77.8871 0.718515 80.8905 0.933316 83.1588 1.48068C85.4283 2.02804 92.1147 4.72473 92.1147 4.72473C93.0109 6.63984 89.9811 8.75682 89.9824 11.4186C90.0982 30.5348 90.0441 30.7483 90.0441 49.9408C90.0806 52.2649 89.7156 54.8088 88.9704 57.4214C88.2252 60.034 87.1162 62.6608 85.709 65.1427C84.303 67.6259 82.6276 69.9124 80.7848 71.8676C78.942 73.8215 76.9695 75.4028 74.9857 76.5156C58.3011 86.1585 63.3952 82.7398 46.6829 92.4965C45.9591 92.886 45.2391 93.4657 44.5733 94.1942C43.9086 94.9214 43.3145 95.7781 42.8362 96.702C35.8514 109.378 28.3241 141.684 28.3241 141.684L20.3173 136.892Z" stroke="#1D1D1B" stroke-width="1.29574" stroke-linejoin="round"/>
<path d="M28.3242 141.671C27.8748 138.973 27.4254 136.052 27.078 133.786C26.1591 127.81 25.234 121.844 24.3553 115.827C24.1716 114.511 23.3962 114.985 22.5314 115.413C16.9011 118.23 12.7762 117.353 10.4752 112.705C9.49463 110.738 8.96596 108.293 8.92316 105.524C8.78722 86.6838 8.84764 86.7485 8.85519 67.8082C8.85519 57.1768 15.1653 45.8634 24.1716 40.5166C36.3361 33.2857 48.5018 26.1843 60.6663 19.0181L82.0498 6.85196C88.4619 3.07478 93.3773 3.25336 96.0533 8.68685C96.9496 10.602 97.4128 12.9648 97.414 15.6265C97.5298 34.7428 97.4757 34.9576 97.4757 54.1501C97.5122 56.4741 97.1472 59.0194 96.402 61.632C95.6568 64.2446 94.5479 66.8714 93.1406 69.3533C91.7346 71.8364 90.0592 74.1229 88.2164 76.0782C86.3736 78.0321 84.4012 79.6134 82.4174 80.7262L54.6357 96.5738C53.9119 96.9633 53.1919 97.543 52.526 98.2702C51.8614 98.9987 51.2673 99.8553 50.7889 100.779C43.8042 113.455 36.7452 126.096 29.6861 138.753C29.4004 139.228 28.3242 141.671 28.3242 141.671Z" fill="white"/>
<path d="M28.3242 141.671L28.7811 141.782C28.6514 142.077 28.4236 142.315 28.2033 142.388C27.9843 142.459 27.8144 142.35 27.7753 142.111L28.3242 141.671ZM24.3553 115.827L23.804 116.257V116.253L24.3553 115.827ZM22.5314 115.413L22.573 114.729L22.5742 114.727L22.5314 115.413ZM10.4752 112.705L10.9825 112.132H10.9837L10.4752 112.705ZM8.92315 105.525L8.36427 105.865V105.858L8.92315 105.525ZM60.6663 19.0184V18.3571L60.6764 18.3507L60.6663 19.0184ZM82.0498 6.85221V7.51473L82.0397 7.51991L82.0498 6.85221ZM96.0533 8.68709L96.5619 8.11385L96.5644 8.12162L96.0533 8.68709ZM97.414 15.6268L96.8564 15.9606V15.9555L97.414 15.6268ZM97.4757 54.1504L96.9168 54.492V54.4803L97.4757 54.1504ZM82.4174 80.7264L82.4262 80.0587L82.4312 80.0562L82.4174 80.7264ZM54.6357 96.574L54.6268 97.2404L54.6117 97.2482L54.6357 96.574ZM50.7889 100.78L51.2068 100.971L51.1993 100.987L51.1905 101.002L50.7889 100.78ZM29.6861 138.753L30.0839 138.983L30.0725 139.004L30.06 139.025L29.6861 138.753ZM27.7753 142.111C27.3247 139.41 26.8753 136.486 26.5279 134.22L27.6293 133.353C27.9767 135.62 28.4249 138.537 28.8742 141.23L27.7753 142.111ZM26.5279 134.22C25.609 128.245 24.6826 122.277 23.804 116.257L24.9067 115.399C25.784 121.414 26.7104 127.375 27.6293 133.353L26.5279 134.22ZM23.804 116.253C23.7323 115.745 23.5787 115.702 23.4579 115.704C23.2514 115.71 22.9783 115.856 22.4874 116.099L22.5742 114.727C22.9481 114.542 23.4956 114.237 23.9387 114.227C24.4686 114.215 24.7946 114.594 24.9079 115.402L23.804 116.253ZM22.4899 116.098C16.6644 119.013 12.3557 118.104 9.96665 113.278L10.9837 112.132C13.1966 116.603 17.1377 117.449 22.573 114.729L22.4899 116.098ZM9.96665 113.278C8.95462 111.248 8.40958 108.726 8.36427 105.865L9.48077 105.183C9.52231 107.863 10.0334 110.228 10.9825 112.132L9.96665 113.278ZM8.36427 105.858C8.22832 87.0153 8.29 87.0735 8.2963 68.1372L9.4128 67.4798C9.40651 86.4226 9.34483 86.354 9.48077 105.189L8.36427 105.858ZM8.2963 68.1372C8.2963 62.6623 9.92385 56.9752 12.7397 51.948C15.5555 46.9221 19.5306 42.6105 24.169 39.8569L24.1741 41.178C19.8062 43.7699 16.1232 47.7891 13.5327 52.4138C10.9409 57.0386 9.4128 62.3232 9.4128 67.4798L8.2963 68.1372ZM24.169 39.8569C36.3361 32.6247 48.5056 25.5207 60.6663 18.3571V19.6809C48.498 26.8496 36.3373 33.9485 24.1741 41.178L24.169 39.8569ZM60.6764 18.3507L82.0599 6.1845L82.0397 7.51991L60.6575 19.6861L60.6764 18.3507ZM82.0498 6.18968C85.3301 4.25774 88.2655 3.31571 90.7352 3.5784C93.2098 3.84108 95.181 5.31106 96.5619 8.11385L95.5435 9.25904C94.2496 6.62835 92.4256 5.29294 90.17 5.05226C87.9105 4.81157 85.1816 5.66949 82.0498 7.51473V6.18968ZM96.5644 8.12162C97.4908 10.1027 97.9704 12.5445 97.9729 15.2968L96.8564 15.9555C96.8539 13.3843 96.407 11.103 95.541 9.25257L96.5644 8.12162ZM97.9729 15.2929C98.0887 34.413 98.0333 34.6317 98.0333 53.8217L96.9168 54.4803C96.9168 35.2839 96.9722 35.0743 96.8564 15.9606L97.9729 15.2929ZM98.0333 53.81C98.0711 56.222 97.6922 58.8644 96.9193 61.5766L95.8847 61.6879C96.6009 59.1749 96.9521 56.7267 96.9168 54.492L98.0333 53.81ZM96.9193 61.5766C96.1452 64.2888 94.9947 67.0153 93.5346 69.5916L92.7479 69.1154C94.101 66.7267 95.1684 64.2008 95.8847 61.6879L96.9193 61.5766ZM93.5346 69.5916C92.0744 72.1693 90.3349 74.5437 88.4228 76.5714L88.01 75.5841C89.7835 73.7039 91.3947 71.5041 92.7479 69.1154L93.5346 69.5916ZM88.4228 76.5714C86.5096 78.6004 84.4628 80.2412 82.4048 81.3954L82.4312 80.0562C84.3395 78.986 86.2364 77.4656 88.01 75.5841L88.4228 76.5714ZM82.4086 81.3929L54.6268 97.2404L54.6445 95.9063L82.4262 80.0587L82.4086 81.3929ZM54.6117 97.2482C53.9723 97.5937 53.3341 98.1074 52.745 98.7518L52.3082 97.7904C53.0496 96.979 53.8527 96.3333 54.6583 95.8986L54.6117 97.2482ZM52.745 98.7518C52.1559 99.3949 51.631 100.153 51.2068 100.971L50.371 100.587C50.9035 99.5567 51.5656 98.6017 52.3082 97.7904L52.745 98.7518ZM51.1905 101.002C44.2032 113.683 37.1416 126.328 30.0839 138.983L29.2884 138.524C36.3486 125.865 43.4052 113.228 50.3874 100.556L51.1905 101.002ZM30.06 139.025C30.06 139.025 30.0587 139.026 30.0574 139.027C30.0562 139.03 30.0549 139.034 30.0524 139.038C30.0474 139.047 30.0398 139.059 30.0323 139.074C30.0159 139.106 29.9945 139.146 29.9693 139.196C29.919 139.294 29.8586 139.417 29.7906 139.561C29.6559 139.845 29.4986 140.186 29.3475 140.517C29.1965 140.848 29.0555 141.165 28.951 141.399C28.8981 141.516 28.8553 141.613 28.8264 141.679C28.8113 141.712 28.8 141.738 28.7924 141.756C28.7886 141.766 28.7849 141.772 28.7836 141.776C28.7823 141.778 28.7823 141.781 28.7811 141.782C28.7811 141.782 28.7811 141.782 28.3242 141.671C27.8685 141.559 27.8685 141.559 27.8685 141.559V141.556C27.8697 141.555 27.8697 141.553 27.871 141.551C27.8735 141.546 27.876 141.539 27.8811 141.529C27.8886 141.511 27.9012 141.483 27.9163 141.45C27.9465 141.381 27.9893 141.283 28.0435 141.164C28.1492 140.924 28.2939 140.601 28.4488 140.262C28.6023 139.924 28.7672 139.566 28.9132 139.259C29.0479 138.976 29.199 138.67 29.3123 138.483L30.06 139.025Z" fill="#1D1D1B"/>
</svg>
