<svg width="34" height="39" viewBox="0 0 34 39" fill="none" xmlns="http://www.w3.org/2000/svg">
<path d="M9.31475 21.2542C9.71252 21.152 10.0222 21.0407 10.3205 20.9864C12.5699 20.5865 14.0741 21.491 14.6858 23.8577C15.149 25.6486 14.9552 27.776 13.9948 30.1854C13.0343 32.5948 11.5918 34.5267 9.82329 36.0381C8.16804 37.4835 6.42342 38.1888 4.96831 38.0011C3.45531 37.8368 2.53516 36.7628 2.01279 35.1207C1.42495 33.2742 1.41992 31.0472 1.78999 28.5899C2.27209 25.2889 3.46915 21.7912 5.24272 18.5032C7.29573 14.6639 9.84468 11.5493 12.7964 9.05832C12.9903 8.89398 13.0822 8.8901 13.1615 9.05444C13.4812 9.70661 13.8059 10.3536 14.1446 10.9838C14.2553 11.1973 14.2239 11.3474 13.9721 11.6269C11.9871 13.8228 10.5231 16.3345 9.73643 19.211C9.5451 19.8917 9.45573 20.5516 9.31475 21.2542Z" fill="#FFEADD"/>
<path d="M9.31475 21.2542C9.71252 21.152 10.0222 21.0407 10.3205 20.9864C12.5699 20.5865 14.0741 21.491 14.6858 23.8577C15.149 25.6486 14.9552 27.776 13.9948 30.1854C13.0343 32.5948 11.5918 34.5267 9.82328 36.0381C8.16804 37.4835 6.42342 38.1888 4.96831 38.0011C3.45531 37.8368 2.53516 36.7628 2.01279 35.1207C1.42495 33.2742 1.41992 31.0472 1.78999 28.5899C2.27209 25.2889 3.46915 21.7912 5.24272 18.5032C7.29573 14.6639 9.84468 11.5493 12.7964 9.05832C12.9903 8.89398 13.0822 8.8901 13.1615 9.05444C13.4812 9.70661 13.8059 10.3536 14.1446 10.9838C14.2553 11.1973 14.2239 11.3474 13.9721 11.6269C11.9871 13.8228 10.5231 16.3345 9.73643 19.211C9.5451 19.8917 9.45573 20.5516 9.31475 21.2542Z" stroke="#1D1D1B" stroke-width="1.29574" stroke-linejoin="round"/>
<path d="M26.9373 13.4901C27.335 13.3878 27.6447 13.2766 27.943 13.2222C30.1924 12.8224 31.6966 13.7269 32.3083 16.0936C32.7715 17.8845 32.5777 20.0118 31.6173 22.4212C30.6568 24.8307 29.2143 26.7626 27.4458 28.274C25.7905 29.7194 24.0459 30.4246 22.5908 30.237C21.0778 30.0726 20.1577 28.9986 19.6353 27.3565C19.0475 25.51 19.0424 23.283 19.4125 20.8257C19.8946 17.5247 21.0916 14.0271 22.8652 10.739C24.9182 6.89975 27.4672 3.7851 30.4189 1.29416C30.6128 1.12982 30.7047 1.12594 30.784 1.29028C31.1037 1.94245 31.4284 2.58945 31.767 3.21962C31.8778 3.43313 31.8463 3.58324 31.5946 3.86274C29.6096 6.05865 28.1456 8.5703 27.3589 11.4468C27.1676 12.1275 27.0782 12.7874 26.9373 13.4901Z" fill="#FFEADD"/>
<path d="M26.9373 13.4901C27.335 13.3878 27.6447 13.2766 27.943 13.2222C30.1924 12.8224 31.6966 13.7269 32.3083 16.0936C32.7715 17.8845 32.5777 20.0118 31.6173 22.4212C30.6568 24.8307 29.2143 26.7626 27.4458 28.274C25.7905 29.7194 24.0459 30.4246 22.5908 30.237C21.0778 30.0726 20.1577 28.9986 19.6353 27.3565C19.0475 25.51 19.0424 23.283 19.4125 20.8257C19.8946 17.5248 21.0916 14.0271 22.8652 10.739C24.9182 6.89975 27.4672 3.7851 30.4189 1.29416C30.6128 1.12982 30.7047 1.12594 30.784 1.29028C31.1037 1.94245 31.4284 2.58945 31.767 3.21962C31.8778 3.43313 31.8463 3.58324 31.5946 3.86274C29.6096 6.05865 28.1456 8.5703 27.3589 11.4468C27.1676 12.1275 27.0782 12.7874 26.9373 13.4901Z" stroke="#1D1D1B" stroke-width="1.29574" stroke-linejoin="round"/>
</svg>
