<svg width="16" height="31" viewBox="0 0 16 31" fill="none" xmlns="http://www.w3.org/2000/svg">
<path d="M8.93725 13.4901C9.33501 13.3878 9.64466 13.2766 9.94299 13.2222C12.1924 12.8224 13.6966 13.7269 14.3083 16.0936C14.7715 17.8845 14.5777 20.0118 13.6173 22.4212C12.6568 24.8307 11.2143 26.7626 9.44578 28.274C7.79053 29.7194 6.04592 30.4246 4.59081 30.237C3.0778 30.0726 2.15766 28.9986 1.63528 27.3565C1.04745 25.51 1.04241 23.283 1.41249 20.8257C1.89458 17.5247 3.09165 14.0271 4.86522 10.739C6.91823 6.89975 9.46718 3.7851 12.4189 1.29416C12.6128 1.12982 12.7047 1.12594 12.784 1.29028C13.1037 1.94245 13.4284 2.58945 13.767 3.21962C13.8778 3.43313 13.8463 3.58324 13.5946 3.86274C11.6096 6.05865 10.1456 8.5703 9.35893 11.4468C9.1676 12.1275 9.07823 12.7874 8.93725 13.4901Z" fill="#FFEADD"/>
<path d="M8.93725 13.4901C9.33501 13.3878 9.64466 13.2766 9.94299 13.2222C12.1924 12.8224 13.6966 13.7269 14.3083 16.0936C14.7715 17.8845 14.5777 20.0118 13.6173 22.4212C12.6568 24.8307 11.2143 26.7626 9.44578 28.274C7.79053 29.7194 6.04592 30.4246 4.59081 30.237C3.0778 30.0726 2.15766 28.9986 1.63528 27.3565C1.04745 25.51 1.04241 23.283 1.41249 20.8257C1.89458 17.5248 3.09165 14.0271 4.86522 10.739C6.91823 6.89975 9.46718 3.7851 12.4189 1.29416C12.6128 1.12982 12.7047 1.12594 12.784 1.29028C13.1037 1.94245 13.4284 2.58945 13.767 3.21962C13.8778 3.43313 13.8463 3.58324 13.5946 3.86274C11.6096 6.05865 10.1456 8.5703 9.35893 11.4468C9.1676 12.1275 9.07823 12.7874 8.93725 13.4901Z" stroke="#1D1D1B" stroke-width="1.29574" stroke-linejoin="round"/>
</svg>
