<svg width="603" height="505" viewBox="0 0 603 505" fill="none" xmlns="http://www.w3.org/2000/svg">
<g filter="url(#filter0_f_262_14)">
<path d="M340.054 356.173L155.127 467.062C153.477 468.019 151.304 468.5 149.123 468.499C146.943 468.498 144.765 468.018 143.103 467.062L30.4917 402.164C28.8296 401.206 28.0156 399.964 28.0079 398.743C28.0002 397.522 28.7977 396.281 30.4488 395.325L215.375 284.436C217.024 283.48 219.197 283 221.378 283C223.559 283 225.738 283.48 227.4 284.436L340.011 349.334C341.673 350.292 342.482 351.533 342.491 352.755C342.5 353.976 341.704 355.217 340.054 356.173Z" fill="#1D1D1D"/>
</g>
<g filter="url(#filter1_f_262_14)">
<path d="M217.154 285.606L32.0018 392.495C29.3269 394.038 29.31 396.536 31.9514 398.091L144.076 462.82C146.743 464.356 151.051 464.368 153.745 462.854L339.045 355.88C341.655 354.322 341.628 351.839 338.964 350.302L226.899 285.606C225.554 284.829 223.79 284.441 222.026 284.441C220.263 284.441 218.499 284.829 217.154 285.606Z" fill="url(#paint0_linear_262_14)"/>
</g>
<mask id="mask0_262_14" style="mask-type:luminance" maskUnits="userSpaceOnUse" x="20" y="220" width="333" height="312">
<path d="M20.0095 399.091L123.344 220.11L352.441 352.378L249.106 531.36L20.0095 399.091Z" fill="white"/>
</mask>
<g mask="url(#mask0_262_14)">
<path d="M140.972 463.594L30.4571 399.761C28.1732 398.449 27.0373 396.715 27.037 394.993L27.0368 398.784C27.0368 400.507 28.173 402.229 30.445 403.553L140.96 467.398C145.481 470.01 152.776 470.011 157.262 467.398L341.276 360.399C343.502 359.097 344.622 357.415 344.623 355.716L344.626 351.919C344.626 353.618 343.502 355.317 341.275 356.609L157.262 463.594C152.788 466.207 145.481 466.207 140.972 463.594Z" fill="url(#paint1_linear_262_14)"/>
<path d="M140.972 463.594L30.4571 399.761C28.1732 398.449 27.0373 396.715 27.037 394.993L27.0368 398.784C27.0368 400.507 28.173 402.229 30.445 403.553L140.96 467.398C145.481 470.01 152.776 470.011 157.262 467.398L341.276 360.399C343.502 359.097 344.622 357.415 344.623 355.716L344.626 351.919C344.626 353.618 343.502 355.317 341.275 356.609L157.262 463.594C152.788 466.207 145.481 466.207 140.972 463.594Z" fill="url(#paint2_linear_262_14)"/>
<path d="M140.972 463.594L30.4571 399.761C28.1732 398.449 27.0373 396.715 27.037 394.993L27.0368 398.784C27.0368 400.507 28.173 402.229 30.445 403.553L140.96 467.398C145.481 470.01 152.776 470.011 157.262 467.398L341.276 360.399C343.502 359.097 344.622 357.415 344.623 355.716L344.626 351.919C344.626 353.618 343.502 355.317 341.275 356.609L157.262 463.594C152.788 466.207 145.481 466.207 140.972 463.594Z" fill="url(#paint3_linear_262_14)"/>
<path d="M222.346 281.998C219.433 281.997 216.537 282.644 214.35 283.92L30.3372 390.917C28.148 392.192 27.1259 393.82 27.135 395.39C27.1441 396.96 28.1877 398.589 30.3948 399.866L140.591 463.508C140.591 463.508 140.679 463.558 140.765 463.608L140.922 463.699C142.682 464.539 145.501 465.619 148.935 465.619C151.849 465.619 154.743 464.973 156.93 463.699C156.928 463.699 157.077 463.615 157.075 463.615L340.942 356.713C343.132 355.438 344.153 353.813 344.144 352.242C344.135 350.671 343.093 349.039 340.885 347.764L230.37 283.92C228.164 282.646 225.26 282 222.346 281.998Z" fill="url(#paint4_linear_262_14)"/>
<path d="M29.1036 398.59C28.4122 397.977 27.9236 397.308 27.6589 396.607C27.513 395.897 27.5271 396.156 27.4918 395.498L27.4965 395.389L27.4938 395.187C27.5036 394.715 27.4783 394.885 27.5913 394.333L27.6414 394.179C27.846 393.615 28.2022 393.072 28.687 392.561C29.1587 392.02 29.7592 391.642 30.3353 391.287C30.3888 391.254 30.5383 391.139 30.5383 391.139L214.498 284.173C216.582 282.957 219.369 282.29 222.346 282.291C225.328 282.294 228.124 282.962 230.223 284.174L340.738 348.018C342.736 349.172 343.841 350.672 343.851 352.244C343.859 353.81 342.775 355.306 340.795 356.46L156.782 463.445L157.077 463.952L341.09 356.966C342.357 356.228 343.289 355.348 343.843 354.388C344.238 353.705 344.441 352.981 344.436 352.24C344.426 350.452 343.217 348.772 341.031 347.51L230.516 283.666C230.439 283.622 230.362 283.578 230.284 283.536L230.26 283.523C228.106 282.351 225.309 281.707 222.347 281.706C219.267 281.703 216.375 282.4 214.203 283.667L30.189 390.664C28.0195 391.927 26.8309 393.607 26.8423 395.391C26.8417 395.395 26.8425 395.401 26.8425 395.405L26.9266 396.184C27.236 397.669 28.3889 399.044 30.2481 400.12L140.775 463.952C142.956 465.216 145.854 465.911 148.936 465.911C152.017 465.912 154.908 465.216 157.077 463.952L156.782 463.446C154.702 464.658 151.915 465.326 148.936 465.326C145.956 465.326 143.162 464.658 141.07 463.445L140.922 463.699L141.069 463.445L30.5948 399.643C30.5948 399.643 30.2484 399.448 29.908 399.239" fill="url(#paint5_linear_262_14)"/>
<path d="M214.552 304.194C217.197 304.194 219.757 303.648 221.767 302.641C221.927 302.562 221.928 302.334 221.765 302.259C219.769 301.25 217.216 300.701 214.577 300.705C211.938 300.709 209.391 301.262 207.398 302.268C207.239 302.348 207.239 302.577 207.397 302.659C209.387 303.655 211.93 304.197 214.552 304.194ZM225.5 307.078C225.513 305.482 224.507 303.966 222.733 302.808C222.663 302.758 222.568 302.76 222.497 302.805C220.712 303.97 219.692 305.482 219.675 307.085C219.662 308.681 220.668 310.197 222.443 311.355C222.517 311.398 222.612 311.396 222.683 311.351C224.464 310.193 225.487 308.675 225.5 307.078ZM219.678 297.818C219.659 299.42 220.663 300.935 222.437 302.093C222.507 302.143 222.602 302.14 222.673 302.095C224.462 300.933 225.483 299.413 225.485 297.81C225.507 296.219 224.502 294.704 222.723 293.552C222.652 293.502 222.558 293.505 222.487 293.55C220.7 294.704 219.678 296.224 219.678 297.818ZM223.429 302.656C225.419 303.662 227.967 304.207 230.6 304.19L230.599 304.037C233.211 304.037 235.736 303.48 237.702 302.487C237.747 302.465 237.744 302.406 237.701 302.381C235.738 301.391 233.215 300.851 230.609 300.855L230.607 300.701C227.97 300.705 225.418 301.265 223.426 302.273C223.267 302.352 223.266 302.581 223.429 302.656Z" fill="url(#paint6_linear_262_14)"/>
<path d="M214.552 304.194C217.197 304.194 219.757 303.648 221.767 302.641C221.927 302.562 221.928 302.334 221.765 302.259C219.769 301.25 217.216 300.701 214.577 300.705C211.938 300.709 209.391 301.262 207.398 302.268C207.239 302.348 207.239 302.577 207.397 302.659C209.387 303.655 211.93 304.197 214.552 304.194ZM214.552 304.194L214.551 304.04M225.5 307.078C225.513 305.482 224.507 303.966 222.733 302.808C222.663 302.758 222.568 302.76 222.497 302.805C220.712 303.97 219.692 305.482 219.675 307.085C219.662 308.681 220.668 310.197 222.443 311.355C222.517 311.398 222.612 311.396 222.683 311.351C224.464 310.193 225.487 308.675 225.5 307.078ZM219.678 297.818C219.659 299.42 220.663 300.935 222.437 302.093C222.507 302.143 222.602 302.14 222.673 302.095C224.462 300.933 225.483 299.413 225.485 297.81C225.507 296.219 224.502 294.704 222.723 293.552C222.652 293.502 222.558 293.505 222.487 293.55C220.7 294.704 219.678 296.224 219.678 297.818ZM223.429 302.656C225.419 303.662 227.967 304.207 230.6 304.19L230.599 304.037C233.211 304.037 235.736 303.48 237.702 302.487C237.747 302.465 237.744 302.406 237.701 302.381C235.738 301.391 233.215 300.851 230.609 300.855L230.607 300.701C227.97 300.705 225.418 301.265 223.426 302.273C223.267 302.352 223.266 302.581 223.429 302.656Z" stroke="#525252" stroke-width="0.311658"/>
<path d="M214.552 304.194C217.197 304.194 219.757 303.648 221.767 302.641C221.927 302.562 221.928 302.334 221.765 302.259C219.769 301.25 217.216 300.701 214.577 300.705C211.938 300.709 209.391 301.262 207.398 302.268C207.239 302.348 207.239 302.577 207.397 302.659C209.387 303.655 211.93 304.197 214.552 304.194ZM225.5 307.078C225.513 305.482 224.507 303.966 222.733 302.808C222.663 302.758 222.568 302.76 222.497 302.805C220.712 303.97 219.692 305.482 219.675 307.085C219.662 308.681 220.668 310.197 222.443 311.355C222.517 311.398 222.612 311.396 222.683 311.351C224.464 310.193 225.487 308.675 225.5 307.078ZM219.678 297.818C219.659 299.42 220.663 300.935 222.437 302.093C222.507 302.143 222.602 302.14 222.673 302.095C224.462 300.933 225.483 299.413 225.485 297.81C225.507 296.219 224.502 294.704 222.723 293.552C222.652 293.502 222.558 293.505 222.487 293.55C220.7 294.704 219.678 296.224 219.678 297.818ZM223.429 302.656C225.419 303.662 227.967 304.207 230.6 304.19L230.599 304.037C233.211 304.037 235.736 303.48 237.702 302.487C237.747 302.465 237.744 302.406 237.701 302.381C235.738 301.391 233.215 300.851 230.609 300.855L230.607 300.701C227.97 300.705 225.418 301.265 223.426 302.273C223.267 302.352 223.266 302.581 223.429 302.656Z" fill="url(#paint7_linear_262_14)"/>
<path d="M214.552 304.194C217.197 304.194 219.757 303.648 221.767 302.641C221.927 302.562 221.928 302.334 221.765 302.259C219.769 301.25 217.216 300.701 214.577 300.705C211.938 300.709 209.391 301.262 207.398 302.268C207.239 302.348 207.239 302.577 207.397 302.659C209.387 303.655 211.93 304.197 214.552 304.194ZM214.552 304.194L214.551 304.04M225.5 307.078C225.513 305.482 224.507 303.966 222.733 302.808C222.663 302.758 222.568 302.76 222.497 302.805C220.712 303.97 219.692 305.482 219.675 307.085C219.662 308.681 220.668 310.197 222.443 311.355C222.517 311.398 222.612 311.396 222.683 311.351C224.464 310.193 225.487 308.675 225.5 307.078ZM219.678 297.818C219.659 299.42 220.663 300.935 222.437 302.093C222.507 302.143 222.602 302.14 222.673 302.095C224.462 300.933 225.483 299.413 225.485 297.81C225.507 296.219 224.502 294.704 222.723 293.552C222.652 293.502 222.558 293.505 222.487 293.55C220.7 294.704 219.678 296.224 219.678 297.818ZM223.429 302.656C225.419 303.662 227.967 304.207 230.6 304.19L230.599 304.037C233.211 304.037 235.736 303.48 237.702 302.487C237.747 302.465 237.744 302.406 237.701 302.381C235.738 301.391 233.215 300.851 230.609 300.855L230.607 300.701C227.97 300.705 225.418 301.265 223.426 302.273C223.267 302.352 223.266 302.581 223.429 302.656Z" stroke="#525252" stroke-width="0.311658"/>
<path d="M222.607 301.819C222.607 301.819 222.598 299.313 222.608 297.686C222.619 296.06 222.61 293.84 222.61 293.84" stroke="white" stroke-width="0.290165" stroke-linecap="round"/>
<path d="M219.906 297.825C219.91 296.348 220.836 294.916 222.539 293.789L222.541 294.077C222.539 294.344 222.542 294.708 222.542 295.128C222.542 295.968 222.542 297.009 222.539 297.818C222.532 298.635 222.519 299.677 222.508 300.511C222.504 300.929 222.498 301.298 222.494 301.562L222.487 301.854C220.801 300.728 219.894 299.288 219.906 297.825Z" fill="url(#paint8_linear_262_14)"/>
<path d="M219.906 297.825C219.91 296.348 220.836 294.916 222.539 293.789L222.541 294.077C222.539 294.344 222.542 294.708 222.542 295.128C222.542 295.968 222.542 297.009 222.539 297.818C222.532 298.635 222.519 299.677 222.508 300.511C222.504 300.929 222.498 301.298 222.494 301.562L222.487 301.854C220.801 300.728 219.894 299.288 219.906 297.825Z" stroke="#676767" stroke-width="0.145496"/>
<path d="M223.611 302.427C223.611 302.427 227.794 301.978 230.61 301.972C233.422 301.972 237.81 302.435 237.81 302.435" stroke="white" stroke-width="0.145496"/>
<path d="M230.606 300.929C233.094 300.924 235.501 301.416 237.414 302.32C237.318 302.313 237.21 302.298 237.083 302.292C236.628 302.248 235.992 302.187 235.267 302.131C233.82 302.011 232.017 301.897 230.604 301.902C229.196 301.9 227.39 302.022 225.936 302.147C225.211 302.205 224.573 302.266 224.113 302.316C223.988 302.33 223.877 302.342 223.785 302.346C225.7 301.438 228.107 300.937 230.606 300.929Z" fill="url(#paint9_linear_262_14)"/>
<path d="M230.606 300.929C233.094 300.924 235.501 301.416 237.414 302.32C237.318 302.313 237.21 302.298 237.083 302.292C236.628 302.248 235.992 302.187 235.267 302.131C233.82 302.011 232.017 301.897 230.604 301.902C229.196 301.9 227.39 302.022 225.936 302.147C225.211 302.205 224.573 302.266 224.113 302.316C223.988 302.33 223.877 302.342 223.785 302.346C225.7 301.438 228.107 300.937 230.606 300.929Z" stroke="#676767" stroke-width="0.145496"/>
<path d="M222.477 311.099C220.804 309.97 219.896 308.549 219.907 307.085C219.922 305.614 220.843 304.189 222.527 303.061C222.518 303.132 222.508 303.222 222.496 303.329C222.467 303.59 222.422 303.965 222.383 304.381C222.3 305.221 222.214 306.269 222.213 307.08C222.207 307.897 222.278 308.941 222.352 309.776C222.386 310.197 222.424 310.562 222.452 310.826C222.461 310.937 222.471 311.028 222.477 311.099Z" fill="url(#paint10_linear_262_14)"/>
<path d="M222.477 311.099C220.804 309.97 219.896 308.549 219.907 307.085C219.922 305.614 220.843 304.189 222.527 303.061C222.518 303.132 222.508 303.222 222.496 303.329C222.467 303.59 222.422 303.965 222.383 304.381C222.3 305.221 222.214 306.269 222.213 307.08C222.207 307.897 222.278 308.941 222.352 309.776C222.386 310.197 222.424 310.562 222.452 310.826C222.461 310.937 222.471 311.028 222.477 311.099Z" stroke="#6A6A6A" stroke-width="0.145496"/>
<path d="M222.616 303.093C222.616 303.093 222.29 305.454 222.28 307.081C222.27 308.707 222.489 311.039 222.489 311.039" stroke="white" stroke-width="0.290165" stroke-linecap="round"/>
<path d="M222.477 311.099C220.804 309.97 219.896 308.549 219.907 307.085C219.922 305.614 220.843 304.189 222.527 303.061C222.518 303.132 222.508 303.222 222.496 303.329C222.467 303.59 222.422 303.965 222.383 304.381C222.3 305.221 222.214 306.269 222.213 307.08C222.207 307.897 222.278 308.941 222.352 309.776C222.386 310.197 222.424 310.562 222.452 310.826C222.461 310.937 222.471 311.028 222.477 311.099Z" fill="url(#paint11_linear_262_14)"/>
<path d="M222.477 311.099C220.804 309.97 219.896 308.549 219.907 307.085C219.922 305.614 220.843 304.189 222.527 303.061C222.518 303.132 222.508 303.222 222.496 303.329C222.467 303.59 222.422 303.965 222.383 304.381C222.3 305.221 222.214 306.269 222.213 307.08C222.207 307.897 222.278 308.941 222.352 309.776C222.386 310.197 222.424 310.562 222.452 310.826C222.461 310.937 222.471 311.028 222.477 311.099Z" stroke="#6A6A6A" stroke-width="0.145496"/>
<path d="M221.509 302.445C221.509 302.445 217.415 301.828 214.581 301.834C211.754 301.834 207.813 302.441 207.813 302.441" stroke="#F4F4F4" stroke-width="0.290165" stroke-linecap="round" stroke-linejoin="round"/>
<path d="M221.373 302.318C219.457 301.422 217.061 300.927 214.581 300.927L221.373 302.318ZM221.373 302.318C221.287 302.307 221.192 302.29 221.081 302.283C220.626 302.221 219.986 302.148 219.263 302.064C217.808 301.912 216 301.755 214.58 301.757C213.161 301.758 211.353 301.917 209.899 302.08C209.173 302.158 208.535 302.238 208.083 302.291C207.975 302.306 207.879 302.317 207.79 302.333M221.373 302.318L207.79 302.333L221.373 302.318ZM207.79 302.333C209.703 301.432 212.097 300.934 214.581 300.927L207.79 302.333Z" fill="url(#paint12_linear_262_14)"/>
<path d="M221.373 302.318C219.457 301.422 217.061 300.927 214.581 300.927M221.373 302.318L214.581 300.927M221.373 302.318C221.287 302.307 221.192 302.29 221.081 302.283C220.626 302.221 219.986 302.148 219.263 302.064C217.808 301.912 216 301.755 214.58 301.757C213.161 301.758 211.353 301.917 209.899 302.08C209.173 302.158 208.535 302.238 208.083 302.291C207.975 302.306 207.879 302.317 207.79 302.333M221.373 302.318L207.79 302.333M214.581 300.927C212.097 300.934 209.703 301.432 207.79 302.333M214.581 300.927L207.79 302.333" stroke="#676767" stroke-width="0.145496" stroke-linejoin="round"/>
<path d="M85.1654 407.475C84.1127 406.867 84.1123 405.88 85.1651 405.272L110.154 390.838C111.207 390.23 112.914 390.23 113.968 390.838L136.839 404.049C137.891 404.658 137.891 405.643 136.838 406.252L111.849 420.686C110.797 421.294 109.09 421.295 108.036 420.687L85.1654 407.475Z" fill="url(#paint13_linear_262_14)"/>
<path d="M108.739 397.712L108.739 398.098L108.711 398.322C108.693 398.468 108.758 398.612 108.883 398.69C110.082 399.453 112.466 400.802 113.848 400.991C114.376 401.679 116.089 403.16 119.112 404.116C120.076 405.004 122.334 406.728 124.07 407.071C124.301 407.117 124.448 407.328 124.331 407.532C124.015 408.082 123.236 409.102 121.566 410.544C121.467 410.629 121.478 410.784 121.586 410.855L125.012 413.067" stroke="white" stroke-width="0.386059"/>
<path d="M106.579 398.114L106.579 398.456C106.579 398.621 106.683 398.77 106.845 398.805C107.364 398.92 108.144 398.935 108.468 398.366" stroke="white" stroke-width="0.192616" stroke-linecap="round"/>
<path d="M97.8046 403.749C99.1284 404.026 102.236 404.91 103.531 406.855C104.771 407.067 107.514 408.105 108.794 410.095C109.938 410.212 112.732 411.029 114.289 413.221C114.72 413.24 116.179 412.923 119.803 411.504C119.984 411.44 120.19 411.369 120.614 411.6C120.891 411.752 122.991 413.041 123.93 413.568" stroke="white" stroke-width="0.386059"/>
<path d="M97.6307 398.346C98.614 398.944 100.119 399.716 100.832 400.256C100.909 400.34 101.017 400.449 100.832 400.604" stroke="white" stroke-width="0.386059"/>
<path d="M112.498 390.59L111.595 391.959C111.522 392.079 111.515 392.237 111.578 392.354C111.641 392.472 111.738 392.608 111.904 392.705C112.137 392.839 112.266 393.035 112.257 393.232C112.248 393.429 112.102 393.629 111.857 393.77L106.564 396.828C106.318 396.97 106.173 397.17 106.164 397.367L106.283 397.76C106.313 397.858 106.274 397.958 106.168 398.058C106.168 398.058 106.02 398.229 106.02 398.297L102.422 399.582C102.237 399.648 101.996 399.632 101.841 399.544L98.7318 397.76" stroke="white" stroke-width="0.386059" stroke-miterlimit="10"/>
<path d="M107.479 412.202C107.655 412.1 107.661 411.942 107.494 411.846C107.328 411.749 107.053 411.753 106.878 411.855C106.702 411.956 106.696 412.115 106.862 412.211C107.029 412.307 107.304 412.303 107.479 412.202Z" fill="black"/>
<path d="M105.979 411.339C106.154 411.238 106.161 411.08 105.994 410.983C105.828 410.887 105.553 410.891 105.378 410.992C105.202 411.094 105.195 411.252 105.362 411.348C105.529 411.445 105.803 411.441 105.979 411.339Z" fill="black"/>
<path d="M100.615 408.241C100.79 408.139 100.798 407.981 100.631 407.885C100.464 407.788 100.19 407.792 100.014 407.894C99.8386 407.995 99.8313 408.153 99.9982 408.25C100.165 408.346 100.439 408.342 100.615 408.241Z" fill="black"/>
<path d="M107.67 398.585C107.847 398.484 107.853 398.325 107.686 398.229C107.519 398.132 107.279 398.156 107.103 398.257C106.928 398.359 106.92 398.517 107.087 398.613C107.254 398.709 107.495 398.686 107.67 398.585Z" fill="black"/>
<path d="M124.333 407.238C125.232 407.757 121.514 410.713 121.514 410.713C121.409 410.774 121.37 410.873 121.368 410.952C121.364 411.031 121.461 411.128 121.562 411.186L124.993 413.168" stroke="black" stroke-width="0.244697" stroke-miterlimit="10"/>
<path d="M124.007 413.735L120.576 411.753C120.476 411.695 120.341 411.657 120.171 411.641C120.034 411.643 119.862 411.665 119.758 411.725C119.758 411.725 114.642 413.833 113.777 413.333" stroke="black" stroke-width="0.244697" stroke-miterlimit="10"/>
<path d="M106.379 398.327C105.028 398.761 103.743 399.234 102.491 399.726C102.386 399.787 102.214 399.809 102.077 399.811C101.94 399.813 101.773 399.756 101.673 399.698L98.2415 397.717" stroke="black" stroke-width="0.244697" stroke-miterlimit="10"/>
<path d="M97.2637 398.284L100.695 400.266C100.795 400.324 100.86 400.402 100.89 400.501C100.886 400.58 100.848 400.679 100.742 400.739C100.742 400.739 96.9631 403.538 97.8294 404.038" stroke="black" stroke-width="0.244697" stroke-miterlimit="10"/>
<path d="M88.4557 409.377L97.8668 403.941C100.228 404.616 102.16 405.732 103.329 407.096L93.9185 412.532" stroke="black" stroke-width="0.244697" stroke-miterlimit="10"/>
<path d="M93.9185 412.532L103.33 407.096C105.691 407.772 107.623 408.887 108.793 410.252L99.3817 415.688" stroke="black" stroke-width="0.244697" stroke-miterlimit="10"/>
<path d="M108.828 410.272C111.122 410.909 112.988 411.986 114.09 413.312L104.679 418.748" stroke="black" stroke-width="0.244697" stroke-miterlimit="10"/>
<path d="M122.448 403.559C122.623 403.457 122.631 403.298 122.463 403.201C122.296 403.105 122.021 403.109 121.846 403.211C121.669 403.313 121.732 403.47 121.898 403.566C122.066 403.663 122.307 403.64 122.448 403.559Z" fill="black"/>
<path d="M120.949 402.694C121.125 402.592 121.133 402.434 120.966 402.337C120.798 402.24 120.524 402.244 120.348 402.346C120.172 402.448 120.2 402.586 120.367 402.682C120.535 402.779 120.809 402.775 120.949 402.694Z" fill="black"/>
<path d="M115.589 399.595C115.764 399.493 115.771 399.335 115.604 399.238C115.437 399.142 115.162 399.146 114.986 399.248C114.81 399.349 114.838 399.488 115.005 399.584C115.173 399.681 115.447 399.676 115.589 399.595Z" fill="black"/>
<path d="M108.461 398.425C109.706 399.629 111.444 400.525 113.567 401.145" stroke="black" stroke-width="0.244697" stroke-miterlimit="10"/>
<path d="M112.801 390.411L111.923 392.011C111.849 392.131 111.843 392.289 111.906 392.406C111.969 392.524 112.066 392.66 112.232 392.756C112.465 392.891 112.593 393.087 112.584 393.285C112.576 393.482 112.43 393.681 112.185 393.823L106.891 396.881C106.645 397.022 106.5 397.222 106.491 397.42L106.611 397.812C106.641 397.91 106.602 398.01 106.496 398.11C106.424 398.19 106.352 398.27 106.348 398.349C106.345 398.428 106.341 398.507 106.337 398.586C106.334 398.665 106.434 398.723 106.499 398.8C106.599 398.858 106.699 398.916 106.833 398.953C107.002 399.011 107.172 399.027 107.377 399.024C107.583 399.021 107.754 398.999 107.927 398.938C108.136 398.855 108.312 398.754 108.42 398.614C108.529 398.474 108.536 398.316 108.472 398.2C108.408 398.121 108.446 398.022 108.45 397.943C108.489 397.844 108.56 397.763 108.666 397.703L117.257 392.74" stroke="black" stroke-width="0.244697" stroke-miterlimit="10"/>
<path d="M122.72 395.896L113.637 401.143C114.806 402.507 116.738 403.623 119.1 404.299L128.183 399.052" stroke="black" stroke-width="0.244697" stroke-miterlimit="10"/>
<path d="M119.1 404.337C120.204 405.663 122.069 406.74 124.364 407.377L133.665 402.215" stroke="black" stroke-width="0.244697" stroke-miterlimit="10"/>
<path d="M84.9064 407.028L108.872 420.917" stroke="white" stroke-width="0.23147"/>
<path d="M85.2989 405.349L110.287 390.914C111.267 390.348 112.854 390.348 113.834 390.914L136.705 404.125C137.684 404.691 137.684 405.608 136.705 406.174L111.716 420.609C110.737 421.174 109.149 421.174 108.169 420.609L85.299 407.398C84.3196 406.832 84.3194 405.915 85.2989 405.349Z" stroke="white" stroke-width="0.308351"/>
<path d="M85.2602 405.428L110.249 390.993C111.228 390.427 112.816 390.427 113.795 390.993L136.666 404.204C137.645 404.769 137.645 405.687 136.666 406.252L111.677 420.687C110.697 421.253 109.11 421.253 108.13 420.687L85.2602 407.477C84.2809 406.911 84.2807 405.994 85.2602 405.428Z" stroke="#1D1D1B" stroke-width="0.308351"/>
<path d="M322.318 345.899L322.817 346.187L322.727 346.24L322.342 346.018L322.53 346.288L322.431 346.346L321.972 346.243L322.348 346.46L322.258 346.513L321.759 346.225L321.891 346.149L322.382 346.261L322.187 345.976L322.318 345.899ZM321.583 346.42L322 346.66L321.909 346.713L321.493 346.472L321.328 346.568L321.247 346.521L321.674 346.272L321.756 346.319L321.583 346.42Z" fill="white"/>
<path d="M327.762 350.932L327.019 351.362L328.809 352.396C328.219 352.351 327.629 352.478 327.225 352.732C326.232 353.304 326.23 354.238 327.224 354.812C328.217 355.385 329.831 355.381 330.823 354.809C331.264 354.577 331.48 354.234 331.401 353.892L331.818 354.133L332.562 353.703L330.886 352.735L327.762 350.932ZM301.249 367.879L300.504 368.309L300.913 368.545C300.327 368.502 299.738 368.63 299.338 368.876C298.341 369.456 298.343 370.383 299.337 370.956C300.33 371.53 301.939 371.533 302.935 370.953C303.368 370.726 303.583 370.382 303.506 370.041L303.922 370.282L304.667 369.853L302.958 368.866L301.249 367.879ZM300.185 370.463C299.649 370.125 299.692 369.596 300.28 369.277C300.864 368.965 301.779 368.978 302.336 369.309C302.893 369.64 302.885 370.17 302.317 370.501C302.039 370.665 301.644 370.761 301.238 370.756C300.831 370.75 300.449 370.644 300.185 370.463ZM333.472 352.644C333.421 352.662 333.378 352.685 333.341 352.721C333.288 352.739 333.24 352.768 333.205 352.795C333.176 352.836 333.164 352.867 333.164 352.905C333.161 352.942 333.173 352.977 333.196 353.01C333.231 353.04 333.275 353.065 333.327 353.085C333.361 353.115 333.406 353.14 333.457 353.161C333.517 353.176 333.58 353.184 333.646 353.184L333.834 353.159C333.886 353.141 333.935 353.112 333.97 353.084C334.025 353.059 334.068 353.036 334.101 353.007L334.143 352.898L334.102 352.789C334.068 352.759 334.024 352.733 333.971 352.713C333.937 352.683 333.893 352.658 333.841 352.638L333.661 352.619C333.596 352.62 333.53 352.63 333.472 352.644ZM333.948 353.071C333.922 353.095 333.887 353.113 333.845 353.127C333.798 353.138 333.747 353.146 333.697 353.146C333.65 353.148 333.606 353.142 333.566 353.128C333.523 353.113 333.486 353.092 333.46 353.067C333.42 353.053 333.386 353.034 333.362 353.01C333.339 352.988 333.325 352.96 333.321 352.929C333.324 352.902 333.336 352.871 333.355 352.844L333.461 352.781L333.556 352.731L333.696 352.716C333.745 352.716 333.799 352.718 333.843 352.734C333.883 352.748 333.916 352.767 333.941 352.791C333.984 352.806 334.02 352.827 334.047 352.852C334.069 352.874 334.075 352.906 334.072 352.933L334.046 353.014C334.021 353.037 333.988 353.056 333.948 353.071ZM333.622 352.769C333.585 352.776 333.547 352.802 333.528 352.82L333.356 352.854L333.666 353.033L333.732 352.994L333.618 352.929L333.826 352.944L333.909 352.896L333.687 352.892C333.718 352.881 333.743 352.867 333.761 352.849C333.754 352.826 333.73 352.812 333.696 352.811C333.681 352.793 333.654 352.778 333.622 352.769ZM333.583 352.947L333.518 352.909L333.637 352.844C333.658 352.837 333.673 352.846 333.686 352.853C333.699 352.861 333.708 352.866 333.703 352.882L333.583 352.947ZM328.116 354.334C327.582 353.988 327.625 353.459 328.209 353.147C328.794 352.835 329.709 352.848 330.266 353.179C330.822 353.51 330.814 354.04 330.251 354.364C329.968 354.535 329.574 354.632 329.172 354.619C328.765 354.613 328.383 354.507 328.116 354.334ZM311.035 362.858C310.543 363.117 310.5 363.56 310.94 363.853L312.719 362.828C312.494 362.697 312.186 362.625 311.867 362.632C311.548 362.638 311.25 362.714 311.035 362.858ZM309.618 363.49C309.597 363.106 309.873 362.73 310.371 362.465L310.396 362.479C310.857 362.211 311.492 362.071 312.147 362.087C312.804 362.103 313.413 362.283 313.827 362.579L314.112 362.744L311.548 364.223C312.124 364.469 312.929 364.419 313.393 364.104C313.751 363.891 313.977 363.611 314.032 363.318L314.942 363.424C314.875 363.843 314.551 364.229 314.022 364.515C313.563 364.804 312.914 364.964 312.238 364.955C311.558 364.954 310.915 364.783 310.469 364.487C309.947 364.243 309.635 363.882 309.618 363.49ZM321.182 358.33C321.45 358.504 321.832 358.61 322.239 358.616C322.645 358.621 323.035 358.531 323.318 358.36C323.881 358.036 323.889 357.507 323.333 357.176C322.779 356.837 321.865 356.825 321.276 357.143C320.692 357.455 320.649 357.984 321.182 358.33ZM322.249 355.739L323.958 356.725L325.667 357.712L324.923 358.142L324.506 357.901C324.583 358.242 324.369 358.585 323.932 358.82C322.939 359.392 321.331 359.39 320.337 358.816C319.343 358.242 319.341 357.315 320.334 356.743C320.74 356.49 321.323 356.369 321.914 356.404L321.505 356.168L322.249 355.739ZM316.981 360.754C317.446 361.051 318.108 361.214 318.798 361.211C319.488 361.209 320.146 361.035 320.605 360.737C321.074 360.492 321.368 360.156 321.43 359.79L320.462 359.652C320.406 359.915 320.2 360.159 319.877 360.345C319.269 360.7 318.289 360.698 317.684 360.349C317.079 359.999 317.078 359.435 317.686 359.08C318.012 358.896 318.436 358.778 318.893 358.746L318.65 358.185C318.018 358.222 317.433 358.39 317.007 358.659C316.492 358.925 316.194 359.306 316.189 359.705C316.184 360.103 316.471 360.488 316.981 360.754ZM324.371 354.988C324.248 354.688 324.4 354.384 324.78 354.174C324.961 354.068 325.172 353.98 325.405 353.914L325.877 354.454C325.671 354.507 325.486 354.582 325.327 354.681C324.838 354.962 324.902 355.285 325.474 355.615L327.388 356.72L326.644 357.15L323.226 355.176L323.962 354.752L324.371 354.988ZM305.186 365.905C304.513 366.003 303.902 366.213 303.429 366.504C302.561 367.005 302.415 367.57 303.094 367.962C303.773 368.353 304.408 368.243 305.292 367.865L305.694 367.687C306.158 367.487 306.462 367.434 306.658 367.547C306.854 367.66 306.788 367.946 306.249 368.256C305.855 368.496 305.329 368.66 304.763 368.705L304.982 369.242C305.719 369.171 306.396 368.961 306.911 368.648C307.902 368.074 308.007 367.476 307.353 367.099C306.699 366.721 305.989 366.826 305.139 367.195L304.736 367.373C304.367 367.532 304.051 367.645 303.822 367.513C303.593 367.381 303.667 367.137 304.075 366.905C304.453 366.694 304.916 366.541 305.425 366.453L305.186 365.905ZM314.022 360.964C313.895 360.671 314.051 360.36 314.431 360.15C314.613 360.045 314.824 359.957 315.051 359.898L315.521 360.436C315.313 360.488 315.127 360.562 314.97 360.662C314.489 360.938 314.553 361.261 315.125 361.592L317.039 362.696L316.295 363.126L312.877 361.153L313.613 360.728L314.022 360.964ZM308.165 363.873L306.953 364.577L305.906 363.972L305.154 364.407L306.201 365.011L305.506 365.412L306.185 365.804L306.88 365.403L308.441 366.304C309.259 366.776 310.013 366.859 310.896 366.347C311.229 366.158 311.458 365.918 311.555 365.659L310.708 365.408C310.629 365.592 310.467 365.765 310.243 365.903C309.864 366.124 309.52 366.059 309.177 365.861L307.632 364.968L308.844 364.265L308.165 363.873ZM298.308 371.031L300.459 372.273L299.649 372.76L297.744 371.66C297.163 371.324 296.598 371.284 296.092 371.575C295.858 371.707 295.734 371.893 295.75 372.084C295.767 372.275 295.925 372.452 296.182 372.571L298.079 373.667L297.327 374.101L295.422 373.001C294.841 372.666 294.276 372.626 293.779 372.912C293.545 373.044 293.42 373.23 293.437 373.421C293.454 373.612 293.611 373.789 293.868 373.909L295.741 374.989L294.989 375.424L291.571 373.451L292.314 373.021L292.732 373.262C292.619 372.939 292.806 372.608 293.223 372.391C293.665 372.102 294.355 371.975 295.004 372.073C294.863 371.686 295.093 371.284 295.603 371.025C295.946 370.803 296.438 370.676 296.955 370.679C297.477 370.675 297.967 370.805 298.308 371.031Z" fill="url(#paint14_linear_262_14)"/>
<path d="M315.176 356.743C322.526 352.501 322.53 345.611 315.177 341.366C307.825 337.121 295.905 337.121 288.55 341.371C281.201 345.614 281.202 352.497 288.55 356.749C295.903 360.994 307.823 360.993 315.176 356.743Z" fill="url(#paint15_linear_262_14)"/>
<path d="M315.176 356.743C322.526 352.501 322.53 345.611 315.177 341.366C307.825 337.121 295.905 337.121 288.55 341.371C281.201 345.614 281.202 352.497 288.55 356.749C295.903 360.994 307.823 360.993 315.176 356.743Z" stroke="url(#paint16_linear_262_14)" stroke-width="0.490221"/>
<path d="M299.531 365.78C306.88 361.537 306.88 354.654 299.531 350.402C292.179 346.157 280.259 346.158 272.905 350.408C265.555 354.65 265.556 361.533 272.904 365.785C280.257 370.031 292.177 370.03 299.531 365.78Z" fill="url(#paint17_linear_262_14)"/>
<path d="M299.531 365.78C306.88 361.537 306.88 354.654 299.531 350.402C292.179 346.157 280.259 346.158 272.905 350.408C265.555 354.65 265.556 361.533 272.904 365.785C280.257 370.031 292.177 370.03 299.531 365.78Z" stroke="url(#paint18_linear_262_14)" stroke-width="0.490221"/>
<path d="M283.072 347.4C282.169 350.716 283.928 354.233 288.357 356.79C292.785 359.346 298.868 360.367 304.617 359.839C305.521 356.524 303.761 353.007 299.333 350.45C294.904 347.893 288.817 346.88 283.072 347.4Z" fill="url(#paint19_linear_262_14)"/>
<path d="M283.072 347.4L283.025 347.23L282.81 347.249L282.776 347.373L283.072 347.4ZM304.617 359.839L304.66 360.017L304.879 359.991L304.913 359.867L304.617 359.839ZM282.776 347.373C281.855 350.745 283.644 354.317 288.143 356.915L288.57 356.665C284.212 354.149 282.477 350.694 283.368 347.428L282.776 347.373ZM288.143 356.915C292.642 359.512 298.826 360.543 304.66 360.017L304.57 359.669C298.914 360.184 292.924 359.188 288.57 356.665L288.143 356.915ZM304.913 359.867C305.829 356.501 304.041 352.93 299.542 350.332L299.119 350.575C303.476 353.091 305.212 356.546 304.316 359.818L304.913 359.867ZM299.542 350.332C295.047 347.727 288.863 346.696 283.025 347.23L283.12 347.571C288.775 347.056 294.761 348.059 299.119 350.575L299.542 350.332Z" fill="url(#paint20_linear_262_14)"/>
</g>
<defs>
<filter id="filter0_f_262_14" x="-8.29219" y="246.7" width="387.084" height="258.1" filterUnits="userSpaceOnUse" color-interpolation-filters="sRGB">
<feFlood flood-opacity="0" result="BackgroundImageFix"/>
<feBlend mode="normal" in="SourceGraphic" in2="BackgroundImageFix" result="shape"/>
<feGaussianBlur stdDeviation="18.15" result="effect1_foregroundBlur_262_14"/>
</filter>
<filter id="filter1_f_262_14" x="17.1129" y="271.571" width="336.74" height="205.279" filterUnits="userSpaceOnUse" color-interpolation-filters="sRGB">
<feFlood flood-opacity="0" result="BackgroundImageFix"/>
<feBlend mode="normal" in="SourceGraphic" in2="BackgroundImageFix" result="shape"/>
<feGaussianBlur stdDeviation="6.435" result="effect1_foregroundBlur_262_14"/>
</filter>
<linearGradient id="paint0_linear_262_14" x1="323.388" y1="436.631" x2="111.416" y2="407.578" gradientUnits="userSpaceOnUse">
<stop/>
<stop offset="0.28" stop-color="#1A1A1A"/>
<stop offset="0.56" stop-color="#333333"/>
<stop offset="0.78" stop-color="#434343"/>
<stop offset="1" stop-color="#525252"/>
</linearGradient>
<linearGradient id="paint1_linear_262_14" x1="49.6713" y1="448.552" x2="313.242" y2="306.984" gradientUnits="userSpaceOnUse">
<stop stop-color="#DFDEEB"/>
<stop offset="0.13" stop-color="#D1D5E2"/>
<stop offset="0.25" stop-color="#C2CCDA"/>
<stop offset="0.31" stop-color="#958FC0"/>
<stop offset="0.37" stop-color="#6851A5"/>
<stop offset="0.44" stop-color="#756CA5"/>
<stop offset="0.5" stop-color="#8188A5"/>
<stop offset="0.75" stop-color="#969EB5"/>
<stop offset="1" stop-color="#ACB4C4"/>
</linearGradient>
<linearGradient id="paint2_linear_262_14" x1="50.5388" y1="436.129" x2="307.579" y2="306.516" gradientUnits="userSpaceOnUse">
<stop stop-color="white"/>
<stop offset="0.16" stop-color="#DFDFDF"/>
<stop offset="0.32" stop-color="#BEBEBE"/>
<stop offset="0.41" stop-color="#8D9194"/>
<stop offset="0.5" stop-color="#5B636B"/>
<stop offset="0.52" stop-color="#919498"/>
<stop offset="0.54" stop-color="#C6C6C6"/>
<stop offset="0.77" stop-color="#919498"/>
<stop offset="1" stop-color="#484848"/>
</linearGradient>
<linearGradient id="paint3_linear_262_14" x1="-37.5727" y1="456.681" x2="330.657" y2="354.448" gradientUnits="userSpaceOnUse">
<stop stop-color="#0C0C0C"/>
<stop offset="0.08" stop-color="#868686"/>
<stop offset="0.16" stop-color="white"/>
<stop offset="0.24" stop-color="#F4F4F4"/>
<stop offset="0.32" stop-color="#E9E9E9"/>
<stop offset="0.37" stop-color="#E2E2E2"/>
<stop offset="0.42" stop-color="#DBDBDB"/>
<stop offset="0.44" stop-color="#A7A7A7"/>
<stop offset="0.47" stop-color="#737373"/>
<stop offset="0.55" stop-color="#B9B9B9"/>
<stop offset="0.64" stop-color="white"/>
<stop offset="0.7" stop-color="white"/>
<stop offset="0.77" stop-color="white"/>
<stop offset="0.88" stop-color="#808080"/>
<stop offset="1"/>
</linearGradient>
<linearGradient id="paint4_linear_262_14" x1="113.846" y1="443.008" x2="145.753" y2="312.15" gradientUnits="userSpaceOnUse">
<stop stop-color="#212121"/>
<stop offset="0.31" stop-color="#303030"/>
<stop offset="0.62" stop-color="#404040"/>
<stop offset="0.81" stop-color="#323232"/>
<stop offset="1" stop-color="#232323"/>
</linearGradient>
<linearGradient id="paint5_linear_262_14" x1="41.5264" y1="403.281" x2="-81.1381" y2="107.741" gradientUnits="userSpaceOnUse">
<stop stop-color="white"/>
<stop offset="0.24" stop-color="white"/>
<stop offset="0.48" stop-color="white"/>
<stop offset="0.74" stop-color="white" stop-opacity="0.5"/>
<stop offset="1" stop-color="white" stop-opacity="0"/>
</linearGradient>
<linearGradient id="paint6_linear_262_14" x1="220.256" y1="313.988" x2="198.865" y2="277.678" gradientUnits="userSpaceOnUse">
<stop stop-color="#0C0C0C"/>
<stop offset="0.08" stop-color="#868686"/>
<stop offset="0.16" stop-color="white"/>
<stop offset="0.24" stop-color="#F4F4F4"/>
<stop offset="0.32" stop-color="#E9E9E9"/>
<stop offset="0.37" stop-color="#E2E2E2"/>
<stop offset="0.42" stop-color="#DBDBDB"/>
<stop offset="0.44" stop-color="#A7A7A7"/>
<stop offset="0.47" stop-color="#737373"/>
<stop offset="0.55" stop-color="#B9B9B9"/>
<stop offset="0.64" stop-color="white"/>
<stop offset="0.7" stop-color="white"/>
<stop offset="0.77" stop-color="white"/>
<stop offset="0.88" stop-color="#808080"/>
<stop offset="1"/>
</linearGradient>
<linearGradient id="paint7_linear_262_14" x1="220.256" y1="313.988" x2="198.865" y2="277.678" gradientUnits="userSpaceOnUse">
<stop stop-color="#0C0C0C"/>
<stop offset="0.08" stop-color="#868686"/>
<stop offset="0.16" stop-color="white"/>
<stop offset="0.24" stop-color="#F4F4F4"/>
<stop offset="0.32" stop-color="#E9E9E9"/>
<stop offset="0.37" stop-color="#E2E2E2"/>
<stop offset="0.42" stop-color="#DBDBDB"/>
<stop offset="0.44" stop-color="#A7A7A7"/>
<stop offset="0.47" stop-color="#737373"/>
<stop offset="0.55" stop-color="#B9B9B9"/>
<stop offset="0.64" stop-color="white"/>
<stop offset="0.7" stop-color="white"/>
<stop offset="0.77" stop-color="white"/>
<stop offset="0.88" stop-color="#808080"/>
<stop offset="1"/>
</linearGradient>
<linearGradient id="paint8_linear_262_14" x1="224.148" y1="295.234" x2="213.469" y2="300.285" gradientUnits="userSpaceOnUse">
<stop stop-color="#1D1D1D"/>
<stop offset="0.36" stop-color="#8E8E8E"/>
<stop offset="0.73" stop-color="white"/>
</linearGradient>
<linearGradient id="paint9_linear_262_14" x1="242.352" y1="310.517" x2="225.421" y2="298.537" gradientUnits="userSpaceOnUse">
<stop stop-color="#050505"/>
<stop offset="0.5" stop-color="#646464"/>
<stop offset="1" stop-color="#C4C4C4"/>
</linearGradient>
<linearGradient id="paint10_linear_262_14" x1="230.56" y1="314.209" x2="228.292" y2="310.427" gradientUnits="userSpaceOnUse">
<stop stop-color="#050505"/>
<stop offset="0.5" stop-color="#646464"/>
<stop offset="1" stop-color="#C4C4C4"/>
</linearGradient>
<linearGradient id="paint11_linear_262_14" x1="230.56" y1="314.209" x2="228.292" y2="310.427" gradientUnits="userSpaceOnUse">
<stop stop-color="#050505"/>
<stop offset="0.5" stop-color="#646464"/>
<stop offset="1" stop-color="#C4C4C4"/>
</linearGradient>
<linearGradient id="paint12_linear_262_14" x1="197.032" y1="293.897" x2="180.066" y2="281.916" gradientUnits="userSpaceOnUse">
<stop stop-color="#050505"/>
<stop offset="0.5" stop-color="#646464"/>
<stop offset="1" stop-color="#C4C4C4"/>
</linearGradient>
<linearGradient id="paint13_linear_262_14" x1="26.0032" y1="348.839" x2="-17.3921" y2="339.548" gradientUnits="userSpaceOnUse">
<stop stop-color="white"/>
<stop offset="0.5" stop-color="#D7D7D7"/>
<stop offset="1" stop-color="#B0B0B0"/>
</linearGradient>
<linearGradient id="paint14_linear_262_14" x1="490.078" y1="464.042" x2="485.044" y2="464.038" gradientUnits="userSpaceOnUse">
<stop stop-color="#888B8D"/>
<stop offset="0.5" stop-color="#C4C5C6"/>
<stop offset="1" stop-color="white"/>
</linearGradient>
<linearGradient id="paint15_linear_262_14" x1="280.39" y1="345.357" x2="308.459" y2="350.805" gradientUnits="userSpaceOnUse">
<stop stop-color="#888B8D"/>
<stop offset="0.5" stop-color="#BBBDBE"/>
<stop offset="1" stop-color="#EFF0F0"/>
</linearGradient>
<linearGradient id="paint16_linear_262_14" x1="475.977" y1="457.81" x2="503.042" y2="457.81" gradientUnits="userSpaceOnUse">
<stop stop-color="#888B8D"/>
<stop offset="0.5" stop-color="#C4C5C6"/>
<stop offset="1" stop-color="white"/>
</linearGradient>
<linearGradient id="paint17_linear_262_14" x1="300.557" y1="369.273" x2="271.225" y2="351.855" gradientUnits="userSpaceOnUse">
<stop stop-color="#888B8D"/>
<stop offset="0.5" stop-color="#BBBDBE"/>
<stop offset="1" stop-color="#EFF0F0"/>
</linearGradient>
<linearGradient id="paint18_linear_262_14" x1="431.173" y1="434.806" x2="404.108" y2="434.806" gradientUnits="userSpaceOnUse">
<stop stop-color="#888B8D"/>
<stop offset="0.5" stop-color="#C4C5C6"/>
<stop offset="1" stop-color="white"/>
</linearGradient>
<linearGradient id="paint19_linear_262_14" x1="306.235" y1="360.846" x2="282.307" y2="347.832" gradientUnits="userSpaceOnUse">
<stop stop-color="#888B8D"/>
<stop offset="0.5" stop-color="#BBBDBE"/>
<stop offset="1" stop-color="#EFF0F0"/>
</linearGradient>
<linearGradient id="paint20_linear_262_14" x1="444.199" y1="444.236" x2="450.504" y2="437.977" gradientUnits="userSpaceOnUse">
<stop stop-color="white"/>
<stop offset="0.24" stop-color="#808080"/>
<stop offset="0.48"/>
<stop offset="0.74" stop-color="#808080"/>
<stop offset="1" stop-color="white"/>
</linearGradient>
</defs>
</svg>
