<svg width="334" height="300" viewBox="0 0 334 300" fill="none" xmlns="http://www.w3.org/2000/svg">
<mask id="mask0_1_2286" style="mask-type:luminance" maskUnits="userSpaceOnUse" x="0" y="0" width="334" height="312">
<path d="M0.614014 179.621L103.949 0.639611L333.045 132.908L229.71 311.89L0.614014 179.621Z" fill="white"/>
</mask>
<g mask="url(#mask0_1_2286)">
<path d="M323.725 128.884C328.297 131.526 328.321 135.802 323.784 138.444L137.654 246.606C133.118 249.247 125.725 249.247 121.165 246.606L9.36662 182.071C4.79483 179.43 4.77081 175.153 9.30747 172.511L195.437 64.3376C199.974 61.6963 207.366 61.6963 211.938 64.3377L323.725 128.884Z" fill="url(#paint0_linear_1_2286)"/>
<path d="M121.697 246.114L9.91085 181.58C7.60053 180.253 6.4513 178.5 6.45177 176.758L6.45178 178.689C6.45172 180.43 7.60049 182.172 9.89867 183.51L121.685 248.057C126.258 250.698 133.637 250.698 138.174 248.057L324.304 139.883C326.555 138.568 327.691 136.863 327.691 135.145L327.691 133.214C327.691 134.932 326.554 136.65 324.304 137.952L138.174 246.114C133.649 248.756 126.258 248.755 121.697 246.114Z" fill="url(#paint1_linear_1_2286)"/>
<path d="M153.604 108.661C148.785 105.887 148.785 101.807 153.411 99.1444C158.146 96.419 165.236 96.419 170.063 99.1876C172.325 100.49 173.498 102.14 173.557 103.804C174.411 103.553 175.266 103.225 176.13 102.825L178.292 104.378C176.523 105.193 174.738 105.767 172.911 106.104C172.333 107.045 171.378 107.933 170.029 108.71C165.403 111.372 158.229 111.324 153.604 108.661ZM155.766 100.5C152.557 102.347 152.749 105.169 156.21 107.162C159.579 109.1 164.389 109.149 167.59 107.306C168.059 107.035 168.453 106.751 168.78 106.457C166.585 106.438 164.33 106.085 162.001 105.42L163.534 103.64C165.83 104.296 167.942 104.566 169.987 104.441C170.179 103.133 169.333 101.788 167.439 100.697C163.979 98.7057 159.059 98.6042 155.766 100.5ZM196.626 82.8266L201.504 85.6341C203.372 86.7093 205.643 86.1837 206.49 84.7127L208.853 86.0723C206.75 88.2583 202.693 89.0293 198.746 86.7579L189.109 81.2102L191.464 79.8549L194.355 81.5196L197.389 79.7735L199.66 81.0798L196.626 82.8266ZM203.624 75.8848C200.331 77.7809 200.423 80.7379 203.708 82.6287C207.085 84.5718 212.046 84.5236 215.34 82.628C218.717 80.6841 218.801 77.8288 215.424 75.8846C212.13 73.9887 207.001 73.9409 203.624 75.8848ZM212.985 81.273C211.142 82.3345 208.082 82.3391 206.147 81.2244C204.11 80.0525 204.128 78.3062 205.979 77.2406C207.932 76.1164 210.949 76.1167 212.985 77.2885C214.912 78.3976 214.938 80.1487 212.985 81.273ZM185.757 86.1697C184.828 86.705 184.006 87.5153 184.333 88.6683L183.135 87.9786L180.863 89.2856L192.068 95.7344L194.339 94.4274L187.928 90.7374C186.361 89.8356 186.252 88.5279 187.693 87.6989C189.134 86.8691 191.514 86.8686 193.082 87.7709L199.492 91.4611L201.931 90.0572L195.352 86.2705C192.57 84.6691 188.213 84.7564 185.757 86.1697ZM173.422 93.27C170.129 95.1653 170.221 98.1223 173.506 100.013C176.884 101.957 181.844 101.909 185.138 100.013C188.515 98.0692 188.599 95.2139 185.221 93.2697C181.928 91.3739 176.8 91.3265 173.422 93.27ZM182.782 98.6581C180.914 99.7337 177.88 99.7235 175.945 98.6099C173.908 97.4377 173.908 95.7007 175.777 94.6251C177.704 93.5156 180.746 93.5011 182.782 94.6737C184.71 95.7831 184.719 97.5432 182.782 98.6581Z" fill="#1D1D1B"/>
<path d="M153.143 108.734C148.324 105.96 148.324 101.879 152.949 99.2167C157.684 96.4913 164.774 96.492 169.6 99.2606C171.864 100.563 173.037 102.212 173.095 103.877C173.95 103.626 174.805 103.298 175.668 102.897L177.83 104.451C176.062 105.266 174.277 105.84 172.45 106.178C171.872 107.118 170.917 108.005 169.567 108.782C164.942 111.445 157.768 111.397 153.143 108.734ZM155.304 100.572C152.095 102.42 152.288 105.242 155.749 107.234C159.117 109.173 163.928 109.221 167.129 107.378C167.598 107.109 167.992 106.824 168.319 106.53C166.123 106.51 163.869 106.159 161.54 105.493L163.073 103.713C165.369 104.369 167.481 104.638 169.526 104.513C169.718 103.206 168.872 101.86 166.978 100.771C163.517 98.778 158.598 98.6768 155.304 100.572ZM196.166 82.899L201.044 85.7065C202.913 86.7817 205.183 86.2561 206.03 84.7851L208.393 86.1447C206.289 88.3302 202.234 89.1016 198.286 86.8303L188.649 81.2826L191.004 79.9273L193.895 81.5915L196.929 79.8455L199.2 81.1522L196.166 82.899ZM203.163 75.9575C199.87 77.8531 199.962 80.8101 203.247 82.701C206.624 84.6445 211.585 84.5963 214.878 82.701C218.256 80.7563 218.34 77.901 214.962 75.9569C211.669 74.0614 206.54 74.0136 203.163 75.9575ZM212.524 81.3456C210.68 82.4068 207.621 82.4117 205.686 81.297C203.649 80.1252 203.666 78.3792 205.517 77.3129C207.471 76.1887 210.487 76.1894 212.524 77.3612C214.451 78.4702 214.476 80.221 212.524 81.3456ZM185.297 86.2417C184.367 86.7777 183.546 87.5877 183.872 88.7402L182.674 88.0506L180.403 89.3576L191.607 95.8071L193.878 94.5001L187.467 90.8101C185.9 89.9083 185.791 88.6006 187.233 87.7708C188.674 86.9411 191.054 86.9417 192.621 87.8435L199.032 91.5335L201.47 90.1299L194.892 86.3436C192.109 84.7418 187.752 84.8284 185.297 86.2417ZM172.962 93.3417C169.669 95.2373 169.761 98.1943 173.046 100.085C176.423 102.029 181.384 101.981 184.677 100.085C188.054 98.1412 188.138 95.2852 184.761 93.3417C181.468 91.4463 176.339 91.3977 172.962 93.3417ZM182.323 98.7298C180.454 99.805 177.42 99.7959 175.485 98.6812C173.448 97.5089 173.448 95.7726 175.316 94.697C177.244 93.5875 180.286 93.5731 182.323 94.7453C184.25 95.8544 184.258 97.6152 182.323 98.7298Z" fill="white"/>
<path d="M153.453 108.691C148.635 105.917 148.634 101.836 153.261 99.1739C157.996 96.4485 165.085 96.4485 169.912 99.2171C172.174 100.52 173.348 102.169 173.407 103.833C174.261 103.583 175.116 103.255 175.979 102.854L178.141 104.407C176.373 105.222 174.588 105.796 172.761 106.134C172.183 107.075 171.228 107.963 169.878 108.739C165.252 111.401 158.079 111.353 153.453 108.691ZM155.616 100.529C152.406 102.377 152.598 105.199 156.06 107.19C159.428 109.13 164.238 109.178 167.439 107.335C167.909 107.065 168.303 106.781 168.629 106.486C166.435 106.467 164.18 106.115 161.85 105.449L163.384 103.669C165.68 104.325 167.792 104.596 169.836 104.47C170.029 103.163 169.183 101.817 167.289 100.727C163.828 98.7345 158.909 98.6329 155.616 100.529ZM196.476 82.8557L201.353 85.6629C203.222 86.738 205.493 86.2125 206.339 84.7414L208.703 86.1022C206.6 88.287 202.543 89.0587 198.596 86.7866L188.96 81.2394L191.314 79.8841L194.205 81.5483L197.239 79.8023L199.509 81.1093L196.476 82.8557ZM185.607 86.1985C184.677 86.7338 183.856 87.5445 184.182 88.697L182.985 88.0074L180.713 89.3143L191.918 95.7631L194.189 94.4561L187.778 90.7662C186.211 89.8643 186.102 88.5574 187.543 87.7276C188.984 86.8978 191.365 86.8978 192.932 87.7996L199.342 91.4903L201.781 90.0859L195.202 86.2992C192.42 84.6978 188.063 84.7852 185.607 86.1985ZM203.474 75.9143C200.181 77.8103 200.273 80.7673 203.558 82.6582C206.934 84.602 211.896 84.5531 215.189 82.6582C218.566 80.7143 218.651 77.8582 215.273 75.9147C211.979 74.0189 206.851 73.9704 203.474 75.9143ZM212.834 81.3024C210.991 82.364 207.932 82.3685 205.996 81.2538C203.96 80.082 203.977 78.3363 205.829 77.2701C207.782 76.1458 210.798 76.1461 212.834 77.318C214.762 78.427 214.787 80.1789 212.834 81.3024ZM173.272 93.2992C169.978 95.1948 170.071 98.1511 173.356 100.042C176.733 101.986 181.694 101.938 184.987 100.042C188.364 98.098 188.448 95.2427 185.071 93.2985C181.778 91.4031 176.649 91.3552 173.272 93.2992ZM182.632 98.6869C180.764 99.7625 177.731 99.7527 175.795 98.6387C173.758 97.4664 173.758 95.7301 175.627 94.6538C177.554 93.5443 180.596 93.5299 182.633 94.7029C184.56 95.8119 184.568 97.5727 182.632 98.6869Z" fill="url(#paint2_linear_1_2286)"/>
<path d="M72.0446 187.408L91.8558 175.971C93.7399 174.884 96.7943 174.884 98.6779 175.972L111.568 183.413C113.451 184.5 113.452 186.263 111.568 187.351L91.7573 198.788C89.8732 199.875 86.8188 199.875 84.9352 198.788L72.0452 191.347C70.1616 190.259 70.1605 188.495 72.0446 187.408Z" fill="url(#paint3_linear_1_2286)"/>
<path d="M72.0446 187.408L91.8558 175.971C93.7399 174.884 96.7943 174.884 98.6779 175.972L111.568 183.413C113.451 184.5 113.452 186.263 111.568 187.351L91.7573 198.788C89.8732 199.875 86.8188 199.875 84.9352 198.788L72.0452 191.347C70.1616 190.259 70.1605 188.495 72.0446 187.408Z" stroke="#262A3E" stroke-width="0.23643"/>
<path d="M75.6509 193.276L83.6015 188.686" stroke="white" stroke-width="0.414993"/>
<path d="M81.7671 196.807L89.5086 192.338" stroke="white" stroke-width="0.414993"/>
<path d="M80.5463 184.558L87.2516 180.687L87.0418 180.566L80.3365 184.437L80.5463 184.558Z" fill="#3D3D3D"/>
<path d="M80.756 184.679L87.4613 180.808L87.2515 180.687L80.5463 184.558L80.756 184.679Z" fill="white"/>
<path d="M96.9028 194.001L103.608 190.13L103.398 190.009L96.693 193.88L96.9028 194.001Z" fill="#3D3D3D"/>
<path d="M96.6937 193.88L103.398 190.009L103.189 189.888L96.4839 193.759L96.6937 193.88Z" fill="white"/>
<path d="M94.1832 182.819L102.134 178.229" stroke="white" stroke-width="0.414993"/>
<path d="M100.264 186.33L108.215 181.74" stroke="white" stroke-width="0.414993"/>
<path d="M102.227 177.912L108.476 181.514L100.141 186.325L100.068 186.319C98.9677 186.225 97.7735 185.802 96.4791 185.054C95.189 184.31 94.3327 183.551 93.9125 182.776L93.8855 182.727L102.227 177.912ZM100.038 186.143L108.057 181.515L102.227 178.154L94.2233 182.775C94.6373 183.504 95.4582 184.224 96.6889 184.934C97.9131 185.641 99.0308 186.043 100.038 186.143Z" fill="#262A3E"/>
<path d="M99.9431 186.251C100.18 186.926 101.041 187.689 102.521 188.544C104.009 189.403 105.647 189.837 107.427 189.844L107.428 189.673C105.73 189.666 104.167 189.251 102.731 188.422C101.288 187.589 100.457 186.853 100.234 186.218L99.9431 186.251Z" fill="#262A3E"/>
<path d="M75.3096 193.23L75.5193 193.351L83.701 188.628L83.6862 188.584C83.4421 187.849 82.6337 187.088 81.2656 186.299C79.8896 185.504 78.1371 185.082 76.0156 185.033L76.0039 185.204C78.0525 185.252 79.7338 185.657 81.0554 186.42C82.3168 187.148 83.0813 187.844 83.3552 188.507L83.3791 188.572L75.3096 193.23Z" fill="#262A3E"/>
<path d="M81.3039 196.691L81.5137 196.812L89.4559 192.227L89.4516 192.188C89.3559 191.357 88.6947 190.588 87.474 189.883C86.2591 189.182 84.9605 188.726 83.5786 188.517L83.5032 188.682C84.8315 188.883 86.0851 189.323 87.2642 190.003C88.3818 190.649 89.0049 191.343 89.1387 192.089L89.1506 192.161L81.3039 196.691Z" fill="#262A3E"/>
<path d="M89.2641 192.277C91.0388 192.556 92.5517 193.057 93.8046 193.78C95.0481 194.498 95.6741 195.373 95.6848 196.411L95.9811 196.411C95.9698 195.327 95.3135 194.409 94.0141 193.659C92.7247 192.915 91.166 192.398 89.3422 192.112L89.2641 192.277Z" fill="#262A3E"/>
<path d="M108.438 176.041C108.755 176.07 109.064 176.124 109.364 176.211C109.656 176.293 109.932 176.404 110.182 176.549C110.424 176.689 110.625 176.853 110.767 177.022C110.918 177.185 111.019 177.368 111.062 177.556C111.13 177.806 111.531 177.98 111.964 177.942C112.396 177.904 112.695 177.674 112.627 177.424C112.551 177.15 112.408 176.876 112.19 176.615C111.963 176.361 111.662 176.119 111.295 175.907C110.927 175.694 110.509 175.521 110.068 175.39C109.617 175.264 109.15 175.177 108.667 175.138C108.233 175.098 107.834 175.271 107.769 175.521C107.704 175.77 108.005 176.002 108.438 176.041Z" fill="#1D1D1B"/>
<path d="M109.295 174.33C110.404 174.482 111.447 174.806 112.315 175.308C113.185 175.809 113.746 176.411 114.008 177.051C114.118 177.297 114.543 177.447 114.959 177.39C115.383 177.328 115.649 177.088 115.547 176.838C115.218 176.043 114.515 175.283 113.437 174.66C112.359 174.038 111.049 173.627 109.665 173.442C109.232 173.383 108.816 173.537 108.709 173.781C108.61 174.022 108.878 174.272 109.295 174.33Z" fill="#1D1D1B"/>
<path d="M110.26 172.549C111.845 172.792 113.354 173.271 114.599 173.989C115.853 174.713 116.682 175.575 117.095 176.494C117.205 176.74 117.638 176.885 118.063 176.823C118.487 176.761 118.736 176.512 118.626 176.266C118.138 175.198 117.166 174.186 115.712 173.347C114.258 172.508 112.506 171.947 110.655 171.665C110.231 171.601 109.798 171.745 109.691 171.99C109.575 172.23 109.836 172.475 110.26 172.549Z" fill="#1D1D1B"/>
<path d="M111.217 170.762C113.293 171.097 115.254 171.73 116.883 172.671C118.521 173.616 119.618 174.748 120.191 175.942C120.309 176.183 120.742 176.328 121.159 176.261C121.575 176.195 121.823 175.945 121.706 175.704C121.065 174.357 119.817 173.089 117.979 172.028C116.149 170.973 113.938 170.252 111.612 169.878C111.195 169.81 110.755 169.948 110.647 170.193C110.54 170.438 110.792 170.689 111.217 170.762Z" fill="#1D1D1B"/>
<path d="M108.137 176.215C108.454 176.244 108.763 176.297 109.064 176.384C109.357 176.466 109.632 176.577 109.883 176.722C110.125 176.862 110.325 177.025 110.468 177.194C110.618 177.358 110.719 177.541 110.761 177.73C110.827 177.981 111.228 178.154 111.662 178.116C112.097 178.077 112.398 177.846 112.33 177.595C112.256 177.32 112.113 177.045 111.897 176.784C111.671 176.529 111.37 176.287 111.003 176.075C110.635 175.863 110.217 175.689 109.774 175.56C109.323 175.434 108.855 175.347 108.371 175.309C107.936 175.27 107.535 175.444 107.468 175.694C107.401 175.945 107.702 176.177 108.137 176.215Z" fill="white"/>
<path d="M109.006 174.498C110.117 174.647 111.161 174.971 112.03 175.472C112.899 175.974 113.459 176.577 113.718 177.219C113.826 177.465 114.253 177.614 114.671 177.556C115.096 177.493 115.364 177.252 115.264 177.001C114.938 176.206 114.236 175.444 113.158 174.821C112.08 174.199 110.769 173.789 109.381 173.606C108.947 173.548 108.529 173.702 108.421 173.948C108.32 174.189 108.588 174.44 109.006 174.498Z" fill="white"/>
<path d="M109.983 172.708C111.57 172.949 113.083 173.427 114.327 174.146C115.581 174.87 116.408 175.733 116.818 176.654C116.927 176.9 117.361 177.044 117.787 176.982C118.213 176.919 118.464 176.668 118.356 176.423C117.871 175.351 116.901 174.338 115.447 173.499C113.994 172.661 112.239 172.101 110.384 171.821C109.958 171.758 109.524 171.903 109.415 172.149C109.298 172.39 109.557 172.636 109.983 172.708Z" fill="white"/>
<path d="M110.952 170.914C113.033 171.247 114.996 171.878 116.626 172.819C118.264 173.765 119.358 174.898 119.926 176.094C120.043 176.335 120.478 176.48 120.895 176.413C121.313 176.345 121.563 176.095 121.447 175.853C120.812 174.503 119.567 173.234 117.729 172.173C115.899 171.116 113.685 170.398 111.354 170.026C110.935 169.959 110.493 170.099 110.384 170.345C110.275 170.591 110.526 170.842 110.952 170.914Z" fill="white"/>
<path d="M108.272 176.137C108.59 176.166 108.899 176.219 109.2 176.306C109.493 176.388 109.769 176.498 110.019 176.643C110.261 176.783 110.461 176.947 110.603 177.116C110.754 177.279 110.854 177.463 110.896 177.651C110.963 177.902 111.364 178.075 111.798 178.037C112.233 177.999 112.534 177.767 112.467 177.516C112.391 177.241 112.25 176.966 112.032 176.706C111.807 176.45 111.506 176.209 111.139 175.997C110.771 175.785 110.353 175.611 109.91 175.481C109.459 175.355 108.991 175.269 108.507 175.23C108.072 175.191 107.671 175.365 107.604 175.616C107.537 175.867 107.838 176.098 108.272 176.137Z" fill="#1D1D1B"/>
<path d="M108.272 176.137C108.59 176.166 108.899 176.219 109.2 176.306C109.493 176.388 109.769 176.498 110.019 176.643C110.261 176.783 110.461 176.947 110.603 177.116C110.754 177.279 110.854 177.463 110.896 177.651C110.963 177.902 111.364 178.075 111.798 178.037C112.233 177.999 112.534 177.767 112.467 177.516C112.391 177.241 112.25 176.966 112.032 176.706C111.807 176.45 111.506 176.209 111.139 175.997C110.771 175.785 110.353 175.611 109.91 175.481C109.459 175.355 108.991 175.269 108.507 175.23C108.072 175.191 107.671 175.365 107.604 175.616C107.537 175.867 107.838 176.098 108.272 176.137Z" fill="url(#paint4_linear_1_2286)"/>
<path d="M109.142 174.419C110.252 174.569 111.297 174.892 112.166 175.394C113.035 175.896 113.595 176.499 113.854 177.14C113.962 177.386 114.388 177.535 114.806 177.478C115.232 177.415 115.5 177.174 115.4 176.923C115.074 176.127 114.372 175.365 113.294 174.742C112.216 174.12 110.905 173.71 109.518 173.527C109.083 173.469 108.665 173.624 108.556 173.869C108.456 174.11 108.724 174.361 109.142 174.419Z" fill="#1D1D1B"/>
<path d="M109.142 174.419C110.252 174.569 111.297 174.892 112.166 175.394C113.035 175.896 113.595 176.499 113.854 177.14C113.962 177.386 114.388 177.535 114.806 177.478C115.232 177.415 115.5 177.174 115.4 176.923C115.074 176.127 114.372 175.365 113.294 174.742C112.216 174.12 110.905 173.71 109.518 173.527C109.083 173.469 108.665 173.624 108.556 173.869C108.456 174.11 108.724 174.361 109.142 174.419Z" fill="url(#paint5_linear_1_2286)"/>
<path d="M110.119 172.629C111.706 172.871 113.219 173.348 114.464 174.067C115.717 174.791 116.545 175.654 116.954 176.576C117.063 176.822 117.497 176.966 117.923 176.903C118.349 176.841 118.6 176.59 118.492 176.344C118.006 175.273 117.037 174.26 115.583 173.421C114.13 172.582 112.375 172.022 110.52 171.742C110.094 171.679 109.66 171.824 109.551 172.071C109.434 172.311 109.693 172.557 110.119 172.629Z" fill="#1D1D1B"/>
<path d="M110.119 172.629C111.706 172.871 113.219 173.348 114.464 174.067C115.717 174.791 116.545 175.654 116.954 176.576C117.063 176.822 117.497 176.966 117.923 176.903C118.349 176.841 118.6 176.59 118.492 176.344C118.006 175.273 117.037 174.26 115.583 173.421C114.13 172.582 112.375 172.022 110.52 171.742C110.094 171.679 109.66 171.824 109.551 172.071C109.434 172.311 109.693 172.557 110.119 172.629Z" fill="url(#paint6_linear_1_2286)"/>
<path d="M111.088 170.835C113.168 171.168 115.132 171.8 116.761 172.741C118.399 173.686 119.494 174.82 120.062 176.016C120.179 176.257 120.614 176.402 121.032 176.334C121.449 176.267 121.7 176.016 121.583 175.775C120.948 174.424 119.703 173.155 117.865 172.095C116.035 171.038 113.821 170.319 111.489 169.948C111.071 169.88 110.629 170.02 110.52 170.266C110.411 170.512 110.662 170.763 111.088 170.835Z" fill="#1D1D1B"/>
<path d="M111.088 170.835C113.168 171.168 115.132 171.8 116.761 172.741C118.399 173.686 119.494 174.82 120.062 176.016C120.179 176.257 120.614 176.402 121.032 176.334C121.449 176.267 121.7 176.016 121.583 175.775C120.948 174.424 119.703 173.155 117.865 172.095C116.035 171.038 113.821 170.319 111.489 169.948C111.071 169.88 110.629 170.02 110.52 170.266C110.411 170.512 110.662 170.763 111.088 170.835Z" fill="url(#paint7_linear_1_2286)"/>
<path d="M305.147 125.563L305.649 125.852L305.558 125.905L305.172 125.682L305.361 125.952L305.262 126.009L304.801 125.905L305.18 126.122L305.09 126.174L304.587 125.885L304.719 125.81L305.212 125.924L305.015 125.639L305.147 125.563ZM304.407 126.085L304.827 126.326L304.737 126.379L304.317 126.138L304.151 126.232L304.069 126.185L304.498 125.938L304.58 125.985L304.407 126.085Z" fill="white"/>
<path d="M266.757 127.213C257.241 127.869 250.197 132.625 250.578 138.137C250.958 143.649 258.635 148.068 268.211 148.287C277.788 148.506 286.049 144.452 287.188 138.974C281.592 139.355 276.001 138.235 272.027 135.936C268.038 133.648 266.095 130.433 266.757 127.213Z" fill="url(#paint8_linear_1_2286)"/>
<path d="M266.757 127.213C257.241 127.869 250.197 132.625 250.578 138.137C250.958 143.649 258.635 148.068 268.211 148.287C277.788 148.506 286.049 144.452 287.188 138.974C281.592 139.355 276.001 138.235 272.027 135.936C268.038 133.648 266.095 130.433 266.757 127.213Z" stroke="url(#paint9_linear_1_2286)" stroke-width="0.354646"/>
<path d="M310.643 130.611L313.788 132.421L315.477 133.394L314.727 133.826L314.307 133.583C314.386 133.928 314.168 134.273 313.723 134.507C312.722 135.084 311.1 135.084 310.099 134.508C309.098 133.932 309.099 132.998 310.099 132.422C310.506 132.167 311.1 132.04 311.697 132.081L309.894 131.042L310.643 130.611ZM283.929 147.629L285.65 148.619L287.37 149.61L286.621 150.041L286.201 149.8C286.279 150.142 286.064 150.484 285.625 150.719C284.624 151.295 283.002 151.295 282.001 150.719C281.001 150.143 281.001 149.21 282.002 148.633C282.408 148.382 282.998 148.257 283.591 148.297L283.179 148.06L283.929 147.629ZM282.858 150.226C283.125 150.404 283.511 150.509 283.919 150.515C284.328 150.521 284.722 150.428 285.007 150.259C285.576 149.93 285.583 149.4 285.023 149.066C284.464 148.733 283.542 148.718 282.952 149.034C282.362 149.35 282.319 149.88 282.858 150.226ZM316.399 132.332C316.347 132.352 316.302 132.378 316.267 132.407C316.212 132.429 316.165 132.456 316.127 132.488C316.101 132.522 316.087 132.56 316.086 132.597C316.084 132.633 316.095 132.668 316.119 132.702C316.155 132.731 316.199 132.756 316.251 132.778C316.285 132.807 316.33 132.833 316.383 132.853C316.442 132.868 316.507 132.876 316.571 132.877L316.762 132.853C316.816 132.831 316.863 132.804 316.901 132.772C316.953 132.753 316.998 132.726 317.033 132.697L317.074 132.588L317.033 132.479C316.998 132.449 316.954 132.423 316.901 132.403C316.865 132.373 316.821 132.347 316.769 132.327L316.588 132.308C316.523 132.309 316.459 132.317 316.399 132.332ZM316.876 132.758C316.916 132.744 316.95 132.724 316.974 132.701L316.999 132.62C317.004 132.593 316.995 132.565 316.975 132.54C316.947 132.515 316.911 132.494 316.867 132.478C316.843 132.455 316.809 132.436 316.769 132.421C316.723 132.408 316.672 132.402 316.621 132.403L316.48 132.417L316.381 132.473L316.274 132.535C316.256 132.562 316.245 132.591 316.242 132.621C316.248 132.648 316.262 132.675 316.283 132.701C316.308 132.724 316.342 132.744 316.381 132.758C316.409 132.783 316.445 132.804 316.489 132.82C316.53 132.83 316.575 132.837 316.62 132.838C316.672 132.837 316.722 132.83 316.769 132.819C316.812 132.804 316.849 132.783 316.876 132.758ZM316.547 132.454C316.58 132.463 316.607 132.478 316.622 132.497C316.653 132.503 316.677 132.517 316.688 132.535C316.669 132.552 316.645 132.565 316.616 132.576L316.614 132.577L316.836 132.582L316.754 132.629L316.54 132.62L316.655 132.686L316.589 132.724L316.276 132.544L316.448 132.511C316.471 132.487 316.506 132.467 316.547 132.454ZM316.616 132.576L316.614 132.577L316.614 132.577L316.54 132.62L316.506 132.64L316.44 132.602L316.563 132.531C316.581 132.529 316.6 132.533 316.613 132.54C316.626 132.548 316.632 132.559 316.629 132.569L316.616 132.576ZM310.996 134.029C311.264 134.207 311.65 134.312 312.058 134.319C312.467 134.325 312.861 134.232 313.145 134.062C313.715 133.734 313.722 133.203 313.162 132.869C312.603 132.536 311.681 132.522 311.091 132.837C310.501 133.153 310.458 133.683 310.996 134.029ZM293.793 142.584C294.007 142.446 294.31 142.364 294.631 142.358C294.953 142.353 295.263 142.425 295.49 142.556L293.695 143.589C293.252 143.294 293.295 142.849 293.793 142.584ZM292.363 143.223C292.382 143.612 292.694 143.978 293.219 144.224C293.67 144.52 294.318 144.69 295.001 144.695C295.684 144.7 296.338 144.537 296.801 144.248C297.331 143.962 297.66 143.575 297.723 143.158L296.809 143.049C296.753 143.345 296.528 143.622 296.167 143.836C295.699 144.151 294.887 144.205 294.306 143.959L296.892 142.47L296.604 142.304C296.185 142.01 295.571 141.832 294.911 141.814C294.251 141.796 293.61 141.94 293.145 142.21L293.12 142.196C292.62 142.459 292.343 142.833 292.363 143.223ZM304.013 138.039C303.476 137.693 303.517 137.163 304.108 136.847C304.698 136.531 305.619 136.545 306.179 136.879C306.739 137.213 306.732 137.743 306.163 138.071C305.879 138.241 305.484 138.334 305.075 138.328C304.666 138.321 304.281 138.216 304.013 138.039ZM305.084 135.44L304.334 135.872L304.746 136.109C304.153 136.069 303.563 136.194 303.156 136.445C302.156 137.021 302.156 137.955 303.156 138.531C304.157 139.107 305.779 139.107 306.78 138.531C307.22 138.296 307.434 137.953 307.356 137.611L307.776 137.853L308.526 137.421L306.805 136.431L305.084 135.44ZM299.78 140.475C300.25 140.771 300.915 140.937 301.61 140.934C302.305 140.932 302.966 140.76 303.428 140.461C303.902 140.214 304.198 139.874 304.26 139.508L303.289 139.366C303.23 139.631 303.022 139.878 302.696 140.067C302.086 140.418 301.098 140.418 300.489 140.068C299.879 139.716 299.879 139.148 300.488 138.797C300.818 138.609 301.247 138.489 301.708 138.456L301.46 137.897C300.824 137.932 300.234 138.102 299.805 138.375C299.286 138.641 298.987 139.022 298.982 139.422C298.977 139.822 299.267 140.204 299.78 140.475ZM307.225 134.683C307.098 134.388 307.255 134.077 307.637 133.867C307.819 133.762 308.03 133.675 308.262 133.612L308.741 134.152C308.533 134.205 308.346 134.28 308.189 134.375C307.695 134.659 307.761 134.982 308.337 135.313L310.264 136.422L309.515 136.854L306.072 134.873L306.814 134.446L307.225 134.683ZM287.898 145.647C287.22 145.747 286.605 145.955 286.127 146.249C285.254 146.751 285.106 147.32 285.789 147.714C286.473 148.107 287.115 147.994 288.004 147.614L288.408 147.439C288.878 147.235 289.182 147.183 289.38 147.297C289.578 147.411 289.512 147.695 288.968 148.008C288.571 148.251 288.043 148.411 287.47 148.463L287.692 148.999C288.435 148.925 289.116 148.716 289.636 148.402C290.632 147.828 290.739 147.226 290.08 146.846C289.422 146.467 288.705 146.576 287.848 146.946L287.445 147.122C287.074 147.278 286.753 147.396 286.522 147.264C286.292 147.131 286.366 146.889 286.778 146.652C287.16 146.44 287.626 146.285 288.137 146.202L287.898 145.647ZM296.798 140.685C296.671 140.39 296.828 140.079 297.21 139.87C297.393 139.765 297.604 139.678 297.836 139.613L298.305 140.159C298.097 140.21 297.909 140.286 297.754 140.382C297.268 140.661 297.334 140.984 297.91 141.315L299.837 142.424L299.088 142.856L295.645 140.875L296.387 140.448L296.798 140.685ZM290.895 143.608L289.676 144.31L288.623 143.703L287.865 144.139L288.919 144.746L288.219 145.148L288.902 145.542L289.603 145.139L291.175 146.044C291.999 146.519 292.756 146.604 293.646 146.092C293.981 145.902 294.212 145.659 294.313 145.395L293.456 145.148C293.376 145.335 293.215 145.506 292.986 145.646C292.608 145.864 292.262 145.798 291.916 145.598L290.36 144.703L291.579 144.001L290.895 143.608ZM280.963 150.794L283.129 152.041L282.313 152.529L280.395 151.425C279.81 151.088 279.242 151.045 278.732 151.34C278.495 151.474 278.37 151.661 278.387 151.852C278.404 152.042 278.563 152.221 278.822 152.34L280.732 153.44L279.975 153.876L278.056 152.771C277.471 152.434 276.903 152.392 276.401 152.681C276.165 152.816 276.039 153.002 276.057 153.193C276.074 153.384 276.232 153.562 276.492 153.681L278.378 154.767L277.62 155.203L274.177 153.221L274.927 152.791L275.347 153.032C275.231 152.711 275.42 152.38 275.841 152.159C276.287 151.867 276.98 151.743 277.636 151.838C277.493 151.451 277.723 151.051 278.237 150.79C278.584 150.565 279.081 150.437 279.602 150.438C280.124 150.439 280.62 150.569 280.963 150.794Z" fill="url(#paint10_linear_1_2286)"/>
<path d="M297.958 136.45C305.365 132.187 305.365 125.274 297.958 121.011C290.551 116.747 278.542 116.747 271.135 121.011C263.728 125.274 263.728 132.187 271.135 136.45C278.542 140.713 290.551 140.713 297.958 136.45Z" fill="#E4E7E9"/>
<path d="M297.958 136.45C305.365 132.187 305.365 125.274 297.958 121.011C290.551 116.747 278.542 116.747 271.135 121.011C263.728 125.274 263.728 132.187 271.135 136.45C278.542 140.713 290.551 140.713 297.958 136.45Z" stroke="url(#paint11_linear_1_2286)" stroke-width="0.354646"/>
<path d="M282.193 145.525C289.601 141.261 289.6 134.349 282.194 130.085C274.786 125.822 262.778 125.822 255.37 130.086C247.963 134.349 247.964 141.261 255.37 145.525C262.777 149.788 274.786 149.788 282.193 145.525Z" fill="url(#paint12_linear_1_2286)"/>
<path d="M282.193 145.525C289.601 141.261 289.6 134.349 282.194 130.085C274.786 125.822 262.778 125.822 255.37 130.086C247.963 134.349 247.964 141.261 255.37 145.525C262.777 149.788 274.786 149.788 282.193 145.525Z" stroke="url(#paint13_linear_1_2286)" stroke-width="0.354646"/>
<path d="M287.516 139.514C288.428 136.182 286.653 132.653 282.193 130.086C277.732 127.518 271.6 126.497 265.812 127.022C264.899 130.354 266.674 133.883 271.135 136.45C275.596 139.018 281.727 140.039 287.516 139.514Z" fill="#D0D0D0"/>
<path d="M287.516 139.514L287.549 139.638L287.706 139.623L287.73 139.533L287.516 139.514ZM265.812 127.022L265.778 126.898L265.621 126.913L265.597 127.003L265.812 127.022ZM287.73 139.533C288.653 136.164 286.858 132.594 282.346 129.998L282.039 130.175C286.448 132.713 288.203 136.201 287.301 139.494L287.73 139.533ZM282.346 129.998C277.834 127.4 271.633 126.368 265.778 126.898L265.846 127.146C271.569 126.626 277.629 127.636 282.039 130.175L282.346 129.998ZM265.597 127.003C264.675 130.373 266.469 133.941 270.981 136.539L271.289 136.362C266.879 133.824 265.125 130.336 266.026 127.042L265.597 127.003ZM270.981 136.539C275.494 139.136 281.695 140.169 287.549 139.638L287.482 139.391C281.758 139.91 275.698 138.9 271.289 136.362L270.981 136.539Z" fill="url(#paint14_linear_1_2286)"/>
</g>
<defs>
<linearGradient id="paint0_linear_1_2286" x1="283.087" y1="106.574" x2="-22.3551" y2="221.743" gradientUnits="userSpaceOnUse">
<stop stop-color="#B2B2B2"/>
<stop offset="0.5" stop-color="#C3C3C3"/>
<stop offset="1" stop-color="#D3D3D3"/>
</linearGradient>
<linearGradient id="paint1_linear_1_2286" x1="84.1933" y1="232.517" x2="312.288" y2="110.302" gradientUnits="userSpaceOnUse">
<stop stop-color="#C4C4C4"/>
<stop offset="0.5" stop-color="#9F9F9F"/>
<stop offset="1" stop-color="#797979"/>
</linearGradient>
<linearGradient id="paint2_linear_1_2286" x1="129.712" y1="108.166" x2="130.374" y2="15.5526" gradientUnits="userSpaceOnUse">
<stop offset="0.13" stop-color="white"/>
<stop offset="0.27" stop-color="#F3F3F3"/>
<stop offset="0.4" stop-color="#E7E7E7"/>
<stop offset="0.56" stop-color="#BBBABB"/>
<stop offset="0.71" stop-color="#908E8F"/>
<stop offset="0.86" stop-color="#C7C6C7"/>
<stop offset="1" stop-color="white"/>
</linearGradient>
<linearGradient id="paint3_linear_1_2286" x1="-442.495" y1="670.64" x2="-414.597" y2="628.768" gradientUnits="userSpaceOnUse">
<stop stop-color="white"/>
<stop offset="0.5" stop-color="#C9C9C9"/>
<stop offset="1" stop-color="#949494"/>
</linearGradient>
<linearGradient id="paint4_linear_1_2286" x1="70.2874" y1="139.974" x2="69.9821" y2="170.168" gradientUnits="userSpaceOnUse">
<stop offset="0.14" stop-color="#908E8F"/>
<stop offset="0.38" stop-color="#C7C6C7"/>
<stop offset="0.61" stop-color="white"/>
<stop offset="0.8" stop-color="#F3F3F3"/>
<stop offset="1" stop-color="#E7E7E7"/>
</linearGradient>
<linearGradient id="paint5_linear_1_2286" x1="72.2203" y1="141.09" x2="71.9151" y2="171.284" gradientUnits="userSpaceOnUse">
<stop offset="0.14" stop-color="#908E8F"/>
<stop offset="0.38" stop-color="#C7C6C7"/>
<stop offset="0.61" stop-color="white"/>
<stop offset="0.8" stop-color="#F3F3F3"/>
<stop offset="1" stop-color="#E7E7E7"/>
</linearGradient>
<linearGradient id="paint6_linear_1_2286" x1="74.2636" y1="142.27" x2="73.9584" y2="172.463" gradientUnits="userSpaceOnUse">
<stop offset="0.14" stop-color="#908E8F"/>
<stop offset="0.38" stop-color="#C7C6C7"/>
<stop offset="0.61" stop-color="white"/>
<stop offset="0.8" stop-color="#F3F3F3"/>
<stop offset="1" stop-color="#E7E7E7"/>
</linearGradient>
<linearGradient id="paint7_linear_1_2286" x1="76.2847" y1="143.437" x2="75.9794" y2="173.63" gradientUnits="userSpaceOnUse">
<stop offset="0.14" stop-color="#908E8F"/>
<stop offset="0.38" stop-color="#C7C6C7"/>
<stop offset="0.61" stop-color="white"/>
<stop offset="0.8" stop-color="#F3F3F3"/>
<stop offset="1" stop-color="#E7E7E7"/>
</linearGradient>
<linearGradient id="paint8_linear_1_2286" x1="408.954" y1="229.295" x2="390.528" y2="195.871" gradientUnits="userSpaceOnUse">
<stop stop-color="#C6C7C9"/>
<stop offset="0.5" stop-color="#ADAEB0"/>
<stop offset="1" stop-color="#949698"/>
</linearGradient>
<linearGradient id="paint9_linear_1_2286" x1="430.107" y1="222.416" x2="419.594" y2="240.571" gradientUnits="userSpaceOnUse">
<stop stop-color="white"/>
<stop offset="0.09" stop-color="#D8DFF2"/>
<stop offset="0.17" stop-color="#B2BEE5"/>
<stop offset="0.26" stop-color="#C59CAC"/>
<stop offset="0.35" stop-color="#D77973"/>
<stop offset="0.42" stop-color="#EBBBA0"/>
<stop offset="0.5" stop-color="#FEFECE"/>
<stop offset="0.58" stop-color="#BDF0A3"/>
<stop offset="0.66" stop-color="#7DE379"/>
<stop offset="0.75" stop-color="#ACD873"/>
<stop offset="0.83" stop-color="#DACD6D"/>
<stop offset="0.92" stop-color="#B9B282"/>
<stop offset="1" stop-color="#979797"/>
</linearGradient>
<linearGradient id="paint10_linear_1_2286" x1="488.953" y1="264.982" x2="509.208" y2="264.956" gradientUnits="userSpaceOnUse">
<stop stop-color="#DEDEDE"/>
<stop offset="0.5" stop-color="#EEEEEE"/>
<stop offset="1" stop-color="white"/>
</linearGradient>
<linearGradient id="paint11_linear_1_2286" x1="458.51" y1="240.724" x2="480.398" y2="231.841" gradientUnits="userSpaceOnUse">
<stop stop-color="#979797"/>
<stop offset="0.09" stop-color="#B9B282"/>
<stop offset="0.17" stop-color="#DACD6D"/>
<stop offset="0.25" stop-color="#ACD873"/>
<stop offset="0.34" stop-color="#7DE379"/>
<stop offset="0.42" stop-color="#548752"/>
<stop offset="0.5" stop-color="#2B2B2B"/>
<stop offset="0.58" stop-color="#81524F"/>
<stop offset="0.65" stop-color="#D77973"/>
<stop offset="0.74" stop-color="#C59CAC"/>
<stop offset="0.83" stop-color="#B2BEE5"/>
<stop offset="0.91" stop-color="#D8DFF2"/>
<stop offset="1" stop-color="white"/>
</linearGradient>
<linearGradient id="paint12_linear_1_2286" x1="409.317" y1="226.641" x2="382.057" y2="193.341" gradientUnits="userSpaceOnUse">
<stop stop-color="#C6C7C9"/>
<stop offset="0.5" stop-color="#ADAEB0"/>
<stop offset="1" stop-color="#949698"/>
</linearGradient>
<linearGradient id="paint13_linear_1_2286" x1="432.124" y1="216.899" x2="418.713" y2="240.058" gradientUnits="userSpaceOnUse">
<stop stop-color="white"/>
<stop offset="0.09" stop-color="#D8DFF2"/>
<stop offset="0.17" stop-color="#B2BEE5"/>
<stop offset="0.26" stop-color="#C59CAC"/>
<stop offset="0.35" stop-color="#D77973"/>
<stop offset="0.42" stop-color="#EBBBA0"/>
<stop offset="0.5" stop-color="#FEFECE"/>
<stop offset="0.58" stop-color="#BDF0A3"/>
<stop offset="0.66" stop-color="#7DE379"/>
<stop offset="0.75" stop-color="#ACD873"/>
<stop offset="0.83" stop-color="#DACD6D"/>
<stop offset="0.92" stop-color="#B9B282"/>
<stop offset="1" stop-color="#979797"/>
</linearGradient>
<linearGradient id="paint14_linear_1_2286" x1="449.053" y1="240.991" x2="460.894" y2="233.306" gradientUnits="userSpaceOnUse">
<stop stop-color="#979797"/>
<stop offset="0.09" stop-color="#B9B282"/>
<stop offset="0.17" stop-color="#DACD6D"/>
<stop offset="0.25" stop-color="#ACD873"/>
<stop offset="0.34" stop-color="#7DE379"/>
<stop offset="0.42" stop-color="#548752"/>
<stop offset="0.5" stop-color="#2B2B2B"/>
<stop offset="0.58" stop-color="#81524F"/>
<stop offset="0.65" stop-color="#D77973"/>
<stop offset="0.74" stop-color="#C59CAC"/>
<stop offset="0.83" stop-color="#B2BEE5"/>
<stop offset="0.91" stop-color="#D8DFF2"/>
<stop offset="1" stop-color="white"/>
</linearGradient>
</defs>
</svg>
