<svg width="152.300018" height="43.000000" viewBox="0 0 152.3 43" fill="none" xmlns="http://www.w3.org/2000/svg" xmlns:xlink="http://www.w3.org/1999/xlink">
	<desc>
			Created with Pixso.
	</desc>
	<defs>
		<clipPath id="clip1_112">
			<rect id="Image [footer-logo]" width="152.300003" height="43.000000" fill="white" fill-opacity="0"/>
		</clipPath>
	</defs>
	<rect id="Image [footer-logo]" width="152.300003" height="43.000000" fill="#FFFFFF" fill-opacity="0"/>
	<g clip-path="url(#clip1_112)">
		<path id="Vector" d="M78.12 41.37L83.89 41.37L83.89 25.08C83.89 21.17 86.69 18.07 90.32 18.07C93.95 18.07 97.08 21.01 97.08 25.08L97.08 41.37L103.34 41.37L103.34 24.75C103.34 17.75 97.57 12.37 91.31 12.37C89 12.37 86.03 13.19 83.89 16.12L83.89 13.02L78.12 13.02L78.12 41.37Z" fill="#1D1D1B" fill-opacity="1.000000" fill-rule="nonzero"/>
		<path id="Vector" d="M137.13 12.37C128.73 12.37 122.13 19.05 122.13 27.36C122.13 35.83 128.56 42.02 137.13 42.02C145.7 42.02 152.3 35.83 152.3 27.36C152.3 19.05 145.87 12.37 137.13 12.37ZM137.13 36.15C132.35 36.15 128.56 32.24 128.56 27.36C128.56 22.15 132.52 18.4 137.13 18.4C142.08 18.4 146.03 22.15 146.03 27.36C146.03 32.24 142.24 36.15 137.13 36.15Z" fill="#1D1D1B" fill-opacity="1.000000" fill-rule="nonzero"/>
		<path id="Vector" d="M121.14 41.37L121.14 35.34C116.86 37.46 112.74 35.83 112.74 31.1L112.74 18.73L120.48 18.73L120.48 13.02L112.74 13.02L112.74 5.7L106.64 5.7L106.64 30.13C106.64 40.23 113.56 43.65 121.14 41.37Z" fill="#1D1D1B" fill-opacity="1.000000" fill-rule="nonzero"/>
		<path id="Vector" d="M59.66 12.37C51.26 12.37 44.66 19.05 44.66 27.36C44.66 35.83 51.09 42.02 59.66 42.02C68.23 42.02 74.83 35.83 74.83 27.36C74.83 19.05 68.4 12.37 59.66 12.37ZM59.66 36.15C54.88 36.15 51.09 32.24 51.09 27.36C51.09 22.15 54.88 18.4 59.66 18.4C64.61 18.4 68.56 22.15 68.56 27.36C68.56 32.24 64.61 36.15 59.66 36.15Z" fill="#1D1D1B" fill-opacity="1.000000" fill-rule="nonzero"/>
		<path id="Vector" d="M20.93 0C9.06 0 0 8.95 0 21.17C0 32.9 9.06 42.18 20.93 42.18C33.13 42.18 42.19 32.9 42.19 21.33C42.19 8.95 33.13 0 20.93 0ZM20.93 35.83C12.69 35.83 6.59 29.64 6.59 21.17C6.59 12.37 12.69 5.86 20.93 5.86C29.33 5.86 35.43 12.37 35.43 21.01C35.43 29.64 29.33 35.83 20.93 35.83Z" fill="#1D1D1B" fill-opacity="1.000000" fill-rule="nonzero"/>
		<path id="Vector" d="M41.2 43C29.33 41.69 21.75 35.83 17.96 24.75L23.89 22.8C26.86 31.59 32.47 35.99 41.86 36.97L41.2 43Z" fill="#1D1D1B" fill-opacity="1.000000" fill-rule="nonzero"/>
	</g>
</svg>
